<?xml version="1.0" encoding="UTF-8" standalone="no"?>
<svg
   xmlns:dc="http://purl.org/dc/elements/1.1/"
   xmlns:cc="http://creativecommons.org/ns#"
   xmlns:rdf="http://www.w3.org/1999/02/22-rdf-syntax-ns#"
   xmlns:svg="http://www.w3.org/2000/svg"
   xmlns="http://www.w3.org/2000/svg"
   xmlns:sodipodi="http://sodipodi.sourceforge.net/DTD/sodipodi-0.dtd"
   xmlns:inkscape="http://www.inkscape.org/namespaces/inkscape"
   version="1.1"
   id="Layer_1"
   x="0px"
   y="0px"
   width="1000"
   height="1024"
   viewBox="0 0 1000 1024"
   enable-background="new 0 0 512 512"
   xml:space="preserve"
   inkscape:version="0.48.0 r9654"
   sodipodi:docname="alefhebrew-x5d0.svg"><title
   id="title3743">Sinai 357</title><metadata
   id="metadata72"><rdf:RDF><cc:Work
       rdf:about=""><dc:format>image/svg+xml</dc:format><dc:type
         rdf:resource="http://purl.org/dc/dcmitype/StillImage" /><dc:title>Sinai 357</dc:title><dc:date>2017</dc:date><dc:creator><cc:Agent><dc:title>Celeste Claire Horner</dc:title></cc:Agent></dc:creator><dc:publisher><cc:Agent><dc:title>beitdina.net</dc:title></cc:Agent></dc:publisher></cc:Work></rdf:RDF></metadata><defs
   id="defs70" /><sodipodi:namedview
   pagecolor="#ffffff"
   bordercolor="#666666"
   borderopacity="1"
   objecttolerance="10"
   gridtolerance="10"
   guidetolerance="10"
   inkscape:pageopacity="0"
   inkscape:pageshadow="2"
   inkscape:window-width="1152"
   inkscape:window-height="814"
   id="namedview68"
   showgrid="false"
   inkscape:zoom="0.2548828"
   inkscape:cx="433.43047"
   inkscape:cy="94.440484"
   inkscape:window-x="-8"
   inkscape:window-y="-8"
   inkscape:window-maximized="1"
   inkscape:current-layer="Layer_1" />
   
	<g
   id="Grid"
   transform="matrix(1.9502951,0,0,1.9942504,1.456297,2.4527424)">
		<rect
   x="0"
   stroke-miterlimit="10"
   width="512"
   height="512"
   id="rect4"
   y="0"
   style="fill:none;stroke:#a9ccdb;stroke-miterlimit:10" />
		<line
   stroke-miterlimit="10"
   x1="0"
   y1="32"
   x2="512"
   y2="32"
   id="line6"
   style="fill:none;stroke:#a9ccdb;stroke-miterlimit:10" />
		<line
   stroke-miterlimit="10"
   x1="0"
   y1="64"
   x2="512"
   y2="64"
   id="line8"
   style="fill:none;stroke:#a9ccdb;stroke-miterlimit:10" />
		<line
   stroke-miterlimit="10"
   x1="0"
   y1="96"
   x2="512"
   y2="96"
   id="line10"
   style="fill:none;stroke:#a9ccdb;stroke-miterlimit:10" />
		<line
   stroke-miterlimit="10"
   x1="0"
   y1="128"
   x2="512"
   y2="128"
   id="line12"
   style="fill:none;stroke:#a9ccdb;stroke-miterlimit:10" />
		<line
   stroke-miterlimit="10"
   x1="0"
   y1="160"
   x2="512"
   y2="160"
   id="line14"
   style="fill:none;stroke:#a9ccdb;stroke-miterlimit:10" />
		<line
   stroke-miterlimit="10"
   x1="0"
   y1="192"
   x2="512"
   y2="192"
   id="line16"
   style="fill:none;stroke:#a9ccdb;stroke-miterlimit:10" />
		<line
   stroke-miterlimit="10"
   x1="0"
   y1="224"
   x2="512"
   y2="224"
   id="line18"
   style="fill:none;stroke:#a9ccdb;stroke-miterlimit:10" />
		<line
   stroke-miterlimit="10"
   x1="0"
   y1="256"
   x2="512"
   y2="256"
   id="line20"
   style="fill:none;stroke:#a9ccdb;stroke-miterlimit:10" />
		<line
   stroke-miterlimit="10"
   x1="0"
   y1="288"
   x2="512"
   y2="288"
   id="line22"
   style="fill:none;stroke:#a9ccdb;stroke-miterlimit:10" />
		<line
   stroke-miterlimit="10"
   x1="0"
   y1="320"
   x2="512"
   y2="320"
   id="line24"
   style="fill:none;stroke:#a9ccdb;stroke-miterlimit:10" />
		<line
   stroke-miterlimit="10"
   x1="0"
   y1="352"
   x2="512"
   y2="352"
   id="line26"
   style="fill:none;stroke:#a9ccdb;stroke-miterlimit:10" />
		<line
   stroke-miterlimit="10"
   x1="0"
   y1="384"
   x2="512"
   y2="384"
   id="line28"
   style="fill:none;stroke:#a9ccdb;stroke-miterlimit:10" />
		<line
   stroke-miterlimit="10"
   x1="0"
   y1="416"
   x2="512"
   y2="416"
   id="line30"
   style="fill:none;stroke:#a9ccdb;stroke-miterlimit:10" />
		<line
   stroke-miterlimit="10"
   x1="0"
   y1="448"
   x2="512"
   y2="448"
   id="line32"
   style="fill:none;stroke:#ff0000;stroke-miterlimit:10" />
		<line
   stroke-miterlimit="10"
   x1="0"
   y1="480"
   x2="512"
   y2="480"
   id="line34"
   style="fill:none;stroke:#a9ccdb;stroke-miterlimit:10" />
		<line
   stroke-miterlimit="10"
   x1="32"
   y1="0"
   x2="32"
   y2="512"
   id="line36"
   style="fill:none;stroke:#a9ccdb;stroke-miterlimit:10" />
		<line
   stroke-miterlimit="10"
   x1="64"
   y1="0"
   x2="64"
   y2="512"
   id="line38"
   style="fill:none;stroke:#a9ccdb;stroke-miterlimit:10" />
		<line
   stroke-miterlimit="10"
   x1="96"
   y1="0"
   x2="96"
   y2="512"
   id="line40"
   style="fill:none;stroke:#a9ccdb;stroke-miterlimit:10" />
		<line
   stroke-miterlimit="10"
   x1="128"
   y1="0"
   x2="128"
   y2="512"
   id="line42"
   style="fill:none;stroke:#a9ccdb;stroke-miterlimit:10" />
		<line
   stroke-miterlimit="10"
   x1="160"
   y1="0"
   x2="160"
   y2="512"
   id="line44"
   style="fill:none;stroke:#a9ccdb;stroke-miterlimit:10" />
		<line
   stroke-miterlimit="10"
   x1="192"
   y1="0"
   x2="192"
   y2="512"
   id="line46"
   style="fill:none;stroke:#a9ccdb;stroke-miterlimit:10" />
		<line
   stroke-miterlimit="10"
   x1="224"
   y1="0"
   x2="224"
   y2="512"
   id="line48"
   style="fill:none;stroke:#a9ccdb;stroke-miterlimit:10" />
		<line
   stroke-miterlimit="10"
   x1="256"
   y1="0"
   x2="256"
   y2="512"
   id="line50"
   style="fill:none;stroke:#a9ccdb;stroke-miterlimit:10" />
		<line
   stroke-miterlimit="10"
   x1="288"
   y1="0"
   x2="288"
   y2="512"
   id="line52"
   style="fill:none;stroke:#a9ccdb;stroke-miterlimit:10" />
		<line
   stroke-miterlimit="10"
   x1="320"
   y1="0"
   x2="320"
   y2="512"
   id="line54"
   style="fill:none;stroke:#a9ccdb;stroke-miterlimit:10" />
		<line
   stroke-miterlimit="10"
   x1="352"
   y1="0"
   x2="352"
   y2="512"
   id="line56"
   style="fill:none;stroke:#a9ccdb;stroke-miterlimit:10" />
		<line
   stroke-miterlimit="10"
   x1="384"
   y1="0"
   x2="384"
   y2="512"
   id="line58"
   style="fill:none;stroke:#a9ccdb;stroke-miterlimit:10" />
		<line
   stroke-miterlimit="10"
   x1="416"
   y1="0"
   x2="416"
   y2="512"
   id="line60"
   style="fill:none;stroke:#a9ccdb;stroke-miterlimit:10" />
		<line
   stroke-miterlimit="10"
   x1="448"
   y1="0"
   x2="448"
   y2="512"
   id="line62"
   style="fill:none;stroke:#a9ccdb;stroke-miterlimit:10" />
		<line
   stroke-miterlimit="10"
   x1="480"
   y1="0"
   x2="480"
   y2="512"
   id="line64"
   style="fill:none;stroke:#a9ccdb;stroke-miterlimit:10" />
	</g>
	
<path
   style="fill:#58211b;fill-opacity:1"
   d="m 620.91879,947.67045 c -7.6468,-9.1856 -18.19017,-31.732 -23.4298,-50.1032 -47.5822,-123.02079 -107.9361,-233.00418 -181.2906,-342.68231 -22.68762,-27.20984 -36.30633,-47.33187 -62.26397,-61.23819 -7.79971,-4.17855 -16.71345,-7.7959 -27.32207,-10.87572 -8.18422,-2.19797 -11.85221,-1.2249 -20.0791,-1.16479 -16.07976,0.25273 -30.06665,11.07613 -40.38006,20.87035 -19.15679,21.01081 -45.81876,71.31845 -58.40398,93.38067 -27.55239,49.08507 -59.40768,100.42392 -92.69927,142.50939 -15.97267,19.87368 -33.44119,35.22851 -50.2488,37.84017 -20.034886,2.2224 -29.751726,-6.02496 -33.704246,-14.57616 -4.56555,-9.87761 -0.73698,-22.0609 15.1577,-49.77517 29.551506,-52.52493 56.282496,-100.25237 88.480176,-147.06804 20.10707,-29.21973 54.30786,-78.70458 63.5724,-112.86552 9.27967,-34.9052 11.50342,-46.34001 17.66643,-61.43973 6.84851,-16.77962 0.21608,-33.47317 -10.51665,-52.74604 -4.76437,-11.3645 -7.61057,-33.01114 -4.33183,-44.09921 12.33429,-26.45415 41.80346,-41.21487 72.78008,-49.9095 10.36117,-3.46932 20.63136,-5.25951 30.69984,-5.6315 11.56411,-0.42726 22.86215,1.0163 33.72642,3.9353 13.95862,3.91936 26.20117,9.90013 37.53428,16.80988 12.52262,6.24374 22.8124,13.91038 31.78768,22.36123 18.24701,21.16915 36.6748,42.89908 53.82017,65.24243 24.14489,31.46492 54.67045,64.14637 69.6426,98.1914 3.26971,8.00853 5.89298,13.86755 9.12813,22.66685 2.96188,8.05603 6.43665,19.22698 11.3899,23.2096 10.51052,8.45086 27.50816,2.90307 35.90853,0.0566 10.4943,-3.55602 21.28567,-17.31281 26.88945,-31.90921 4.93705,-12.85981 24.78977,-35.76714 29.57419,-39.44138 4.7847,-3.67424 8.90216,-6.61119 27.32835,-36.00501 11.53338,-15.46295 16.68542,-25.13139 22.75257,-37.50476 4.88144,-9.95526 16.30449,-29.30626 26.17087,-40.92925 9.84698,-11.60013 17.86394,-22.81751 31.26855,-35.41295 11.02876,-10.36304 20.72766,-17.53848 28.66517,-32.19775 7.7116,-14.24197 23.89579,-20.31382 33.42211,-28.54777 16.81933,-14.21688 39.71357,-14.08784 55.0834,-4.90028 9.19217,5.60284 20.10627,11.92167 28.10817,26.42493 9.09738,16.69508 13.93967,34.68318 18.66204,52.4765 3.31489,12.49008 0.95806,23.94791 3.50409,35.38731 7.56064,28.07893 1.21127,56.07759 4.76095,81.53601 5.36149,22.99122 16.19719,46.16162 19.71888,67.30841 9.18014,57.20013 7.09077,64.10733 -25.62505,84.70823 -34.02238,21.42362 -101.39509,35.19131 -132.04872,31.13974 -8.48404,-1.42632 -12.47282,-4.42653 -15.1108,-8.15112 -17.97243,-33.48357 -87.38596,-28.38188 -121.99032,-21.78269 -21.83779,5.70152 -32.88952,11.68664 -32.62151,18.23822 8.267,11.48485 11.76688,20.2389 17.08989,30.96191 23.5638,50.93903 54.76365,97.94149 78.00667,152.83916 23.83723,56.30086 42.43425,112.44996 45.38888,163.86526 0,39.4281 -107.75813,62.4682 -135.62179,28.9977 z"
   id="path3758"
   inkscape:connector-curvature="0"
   sodipodi:nodetypes="sccsccccccscccscccscccscssssccsssscccscccscccccscs" />
</svg>