<?xml version="1.0" encoding="UTF-8" standalone="no"?>
<svg
   xmlns:dc="http://purl.org/dc/elements/1.1/"
   xmlns:cc="http://creativecommons.org/ns#"
   xmlns:rdf="http://www.w3.org/1999/02/22-rdf-syntax-ns#"
   xmlns:svg="http://www.w3.org/2000/svg"
   xmlns="http://www.w3.org/2000/svg"
   xmlns:sodipodi="http://sodipodi.sourceforge.net/DTD/sodipodi-0.dtd"
   xmlns:inkscape="http://www.inkscape.org/namespaces/inkscape"
   version="1.1"
   id="Layer_1"
   x="0px"
   y="0px"
   width="1024"
   height="1024"
   viewBox="0 0 1024 1024"
   enable-background="new 0 0 512 512"
   xml:space="preserve"
   inkscape:version="0.48.0 r9654"
   sodipodi:docname="ayinhebrew-x5e2.svg"><title
   id="title3743">Sinai 357</title><metadata
   id="metadata72"><rdf:RDF><cc:Work
       rdf:about=""><dc:format>image/svg+xml</dc:format><dc:type
         rdf:resource="http://purl.org/dc/dcmitype/StillImage" /><dc:title>Sinai 357</dc:title><dc:date>2017</dc:date><dc:creator><cc:Agent><dc:title>Celeste Claire Horner</dc:title></cc:Agent></dc:creator><dc:publisher><cc:Agent><dc:title>beitdina.net</dc:title></cc:Agent></dc:publisher></cc:Work></rdf:RDF></metadata><defs
   id="defs70" /><sodipodi:namedview
   pagecolor="#ffffff"
   bordercolor="#666666"
   borderopacity="1"
   objecttolerance="10"
   gridtolerance="10"
   guidetolerance="10"
   inkscape:pageopacity="0"
   inkscape:pageshadow="2"
   inkscape:window-width="1152"
   inkscape:window-height="814"
   id="namedview68"
   showgrid="false"
   inkscape:zoom="0.22086455"
   inkscape:cx="-908.71348"
   inkscape:cy="524.49354"
   inkscape:window-x="-8"
   inkscape:window-y="-8"
   inkscape:window-maximized="1"
   inkscape:current-layer="g3782"
   showguides="true"
   inkscape:guide-bbox="true" />
   
	<g
   id="Grid"
   transform="matrix(2.003984,0,0,1.9949797,0.501992,2.0729212)">
		<rect
   x="0"
   stroke-miterlimit="10"
   width="512"
   height="512"
   id="rect4"
   y="0"
   style="fill:none;stroke:#a9ccdb;stroke-miterlimit:10" />
		<line
   stroke-miterlimit="10"
   x1="0"
   y1="32"
   x2="512"
   y2="32"
   id="line6"
   style="fill:none;stroke:#a9ccdb;stroke-miterlimit:10" />
		<line
   stroke-miterlimit="10"
   x1="0"
   y1="64"
   x2="512"
   y2="64"
   id="line8"
   style="fill:none;stroke:#a9ccdb;stroke-miterlimit:10" />
		<line
   stroke-miterlimit="10"
   x1="0"
   y1="96"
   x2="512"
   y2="96"
   id="line10"
   style="fill:none;stroke:#a9ccdb;stroke-miterlimit:10" />
		<line
   stroke-miterlimit="10"
   x1="0"
   y1="128"
   x2="512"
   y2="128"
   id="line12"
   style="fill:none;stroke:#a9ccdb;stroke-miterlimit:10" />
		<line
   stroke-miterlimit="10"
   x1="0"
   y1="160"
   x2="512"
   y2="160"
   id="line14"
   style="fill:none;stroke:#a9ccdb;stroke-miterlimit:10" />
		<line
   stroke-miterlimit="10"
   x1="0"
   y1="192"
   x2="512"
   y2="192"
   id="line16"
   style="fill:none;stroke:#a9ccdb;stroke-miterlimit:10" />
		<line
   stroke-miterlimit="10"
   x1="0"
   y1="224"
   x2="512"
   y2="224"
   id="line18"
   style="fill:none;stroke:#a9ccdb;stroke-miterlimit:10" />
		<line
   stroke-miterlimit="10"
   x1="0"
   y1="256"
   x2="512"
   y2="256"
   id="line20"
   style="fill:none;stroke:#a9ccdb;stroke-miterlimit:10" />
		<line
   stroke-miterlimit="10"
   x1="0"
   y1="288"
   x2="512"
   y2="288"
   id="line22"
   style="fill:none;stroke:#a9ccdb;stroke-miterlimit:10" />
		<line
   stroke-miterlimit="10"
   x1="0"
   y1="320"
   x2="512"
   y2="320"
   id="line24"
   style="fill:none;stroke:#a9ccdb;stroke-miterlimit:10" />
		<line
   stroke-miterlimit="10"
   x1="0"
   y1="352"
   x2="512"
   y2="352"
   id="line26"
   style="fill:none;stroke:#a9ccdb;stroke-miterlimit:10" />
		<line
   stroke-miterlimit="10"
   x1="0"
   y1="384"
   x2="512"
   y2="384"
   id="line28"
   style="fill:none;stroke:#a9ccdb;stroke-miterlimit:10" />
		<line
   stroke-miterlimit="10"
   x1="0"
   y1="416"
   x2="512"
   y2="416"
   id="line30"
   style="fill:none;stroke:#a9ccdb;stroke-miterlimit:10" />
		<line
   stroke-miterlimit="10"
   x1="0"
   y1="448"
   x2="512"
   y2="448"
   id="line32"
   style="fill:none;stroke:#ff0000;stroke-miterlimit:10" />
		<line
   stroke-miterlimit="10"
   x1="0"
   y1="480"
   x2="512"
   y2="480"
   id="line34"
   style="fill:none;stroke:#a9ccdb;stroke-miterlimit:10" />
		<line
   stroke-miterlimit="10"
   x1="32"
   y1="0"
   x2="32"
   y2="512"
   id="line36"
   style="fill:none;stroke:#a9ccdb;stroke-miterlimit:10" />
		<line
   stroke-miterlimit="10"
   x1="64"
   y1="0"
   x2="64"
   y2="512"
   id="line38"
   style="fill:none;stroke:#a9ccdb;stroke-miterlimit:10" />
		<line
   stroke-miterlimit="10"
   x1="96"
   y1="0"
   x2="96"
   y2="512"
   id="line40"
   style="fill:none;stroke:#a9ccdb;stroke-miterlimit:10" />
		<line
   stroke-miterlimit="10"
   x1="128"
   y1="0"
   x2="128"
   y2="512"
   id="line42"
   style="fill:none;stroke:#a9ccdb;stroke-miterlimit:10" />
		<line
   stroke-miterlimit="10"
   x1="160"
   y1="0"
   x2="160"
   y2="512"
   id="line44"
   style="fill:none;stroke:#a9ccdb;stroke-miterlimit:10" />
		<line
   stroke-miterlimit="10"
   x1="192"
   y1="0"
   x2="192"
   y2="512"
   id="line46"
   style="fill:none;stroke:#a9ccdb;stroke-miterlimit:10" />
		<line
   stroke-miterlimit="10"
   x1="224"
   y1="0"
   x2="224"
   y2="512"
   id="line48"
   style="fill:none;stroke:#a9ccdb;stroke-miterlimit:10" />
		<line
   stroke-miterlimit="10"
   x1="256"
   y1="0"
   x2="256"
   y2="512"
   id="line50"
   style="fill:none;stroke:#a9ccdb;stroke-miterlimit:10" />
		<line
   stroke-miterlimit="10"
   x1="288"
   y1="0"
   x2="288"
   y2="512"
   id="line52"
   style="fill:none;stroke:#a9ccdb;stroke-miterlimit:10" />
		<line
   stroke-miterlimit="10"
   x1="320"
   y1="0"
   x2="320"
   y2="512"
   id="line54"
   style="fill:none;stroke:#a9ccdb;stroke-miterlimit:10" />
		<line
   stroke-miterlimit="10"
   x1="352"
   y1="0"
   x2="352"
   y2="512"
   id="line56"
   style="fill:none;stroke:#a9ccdb;stroke-miterlimit:10" />
		<line
   stroke-miterlimit="10"
   x1="384"
   y1="0"
   x2="384"
   y2="512"
   id="line58"
   style="fill:none;stroke:#a9ccdb;stroke-miterlimit:10" />
		<line
   stroke-miterlimit="10"
   x1="416"
   y1="0"
   x2="416"
   y2="512"
   id="line60"
   style="fill:none;stroke:#a9ccdb;stroke-miterlimit:10" />
		<line
   stroke-miterlimit="10"
   x1="448"
   y1="0"
   x2="448"
   y2="512"
   id="line62"
   style="fill:none;stroke:#a9ccdb;stroke-miterlimit:10" />
		<line
   stroke-miterlimit="10"
   x1="480"
   y1="0"
   x2="480"
   y2="512"
   id="line64"
   style="fill:none;stroke:#a9ccdb;stroke-miterlimit:10" />
	</g>
	

<g
   id="g3782"
   transform="translate(958.87264,-253.57824)"><g
     id="g3829"
     transform="matrix(1.6294722,0,0,-1.7023075,1271.2927,1539.561)"
     style="fill:#000000;fill-opacity:1"><path
       style="fill:#000000;fill-opacity:1"
       d="m -1196.1319,544.19725 c -7.954,4.06307 -15.774,8.25992 -23.4312,12.74516 -8.5758,4.90714 -19.8527,8.64005 -28.2935,14.40435 -14.9288,9.34238 -26.2526,10.65555 -42.1747,13.63074 -2.75,0.51799 -8.5041,1.46036 -12.7868,2.09416 -5.0696,1.24326 -15.9076,-1.60946 -17.6795,-3.55043 -0.7121,-2.51359 1.2895,-8.17939 3.8997,-13.78429 2.8499,-6.11966 6.4253,-12.16671 7.9862,-13.95893 8.5466,-12.45092 19.913,-15.84688 31.7318,-19.79783 15.2619,-7.38257 31.952,-15.49948 45.6758,-22.22743 15.8379,-7.77101 31.3742,-15.69216 45.873,-22.93804 14.615,-7.29131 29.2193,-14.23164 43.774,-20.46187 4.3073,-1.80806 7.5067,-4.69255 11.3828,-5.80669 5.7386,-2.74965 9.9383,-8.08177 6.919,-12.71341 -9.7342,-10.88982 -16.7471,-21.93232 -21.5803,-34.42287 -3.9967,-10.41379 -7.1935,-21.0621 -11.6048,-30.44419 -4.886,-10.24151 -11.4102,-18.96101 -23.5269,-26.41707 -3.8946,-1.18556 -6.7252,-3.25217 -8.951,-5.73998 -1.9611,-2.19193 -3.4527,-4.71082 -4.7889,-7.24217 -1.0285,-2.10435 -1.8721,-4.52002 -2.5277,-7.14468 -4.0517,-16.21971 -0.9261,-40.4205 10.0951,-48.45129 5.8257,-6.93331 11.2683,-14.19239 16.5065,-20.88179 4.3777,-6.6853 11.2184,-11.10409 15.9951,-16.6225 1.3125,-1.56028 2.4551,-3.18143 3.8945,-4.63584 1.6482,-1.71514 3.3152,-1.08897 5.1095,-0.16109 2.3009,1.20072 4.236,2.91393 6.4814,4.14818 1.9174,0.98764 3.6394,2.17121 5.0819,3.57383 2.6824,2.62207 1.5017,5.6415 1.3133,8.5315 -1.2012,18.65236 9.4454,36.9016 14.5539,54.10082 1.3269,15.43846 10.3377,29.11224 15.4622,42.33484 3.7169,11.02306 9.6617,21.40884 11.8664,32.08062 1.8745,7.30501 1.838,29.58519 7.113,32.90097 7.0709,2.60401 14.5546,1.10373 20.9295,-1.68052 12.3628,-5.46646 24.4202,-16.79401 33.8869,-23.20909 9.48,-10.98368 28.1193,-19.77163 33.4135,-31.84312 1.9776,-5.96547 2.2876,-12.18104 1.3041,-17.74599 -3.9894,-12.00646 -3.7153,-22.86687 -4.1579,-34.15814 0.7997,-10.75034 -3.8913,-32.10031 0.7838,-40.30206 6.203,-5.10965 11.2644,-13.24308 16.4473,-20.89884 5.321,-7.8599 12.5068,-15.5488 19.451,-18.61265 33.2356,10.68956 19.6652,89.5315 39.4136,120.09104 3.1235,4.76134 7.5335,17.5276 8.1911,23.71196 0.7046,5.91354 -0.7019,8.72332 -2.6157,11.23613 -4.8785,7.46505 -9.7856,12.07097 -17.8703,15.65935 -16.4094,6.03145 -28.9987,10.43489 -44.605,14.87947 -14.2513,3.17338 -66.1083,40.58687 -75.468,45.05464 -25.2496,18.71289 -22.2223,14.11276 -48.4685,29.37646 -35.5585,20.67939 -58.3925,27.22899 -94.0052,45.29858 z"
       id="path3841"
       inkscape:connector-curvature="0"
       sodipodi:nodetypes="ccccccsccccccccccscsccccccccccccccccccscccccccsc" /></g></g></svg>