<?xml version="1.0" encoding="UTF-8" standalone="no"?>
<svg
   xmlns:dc="http://purl.org/dc/elements/1.1/"
   xmlns:cc="http://creativecommons.org/ns#"
   xmlns:rdf="http://www.w3.org/1999/02/22-rdf-syntax-ns#"
   xmlns:svg="http://www.w3.org/2000/svg"
   xmlns="http://www.w3.org/2000/svg"
   xmlns:sodipodi="http://sodipodi.sourceforge.net/DTD/sodipodi-0.dtd"
   xmlns:inkscape="http://www.inkscape.org/namespaces/inkscape"
   version="1.1"
   id="Layer_1"
   x="0px"
   y="0px"
   width="1024"
   height="1024"
   viewBox="0 0 1024 1024"
   enable-background="new 0 0 512 512"
   xml:space="preserve"
   inkscape:version="0.48.0 r9654"
   sodipodi:docname="ayinhebrew-x5e2.svg"><title
   id="title3743">Sinai 357</title><metadata
   id="metadata72"><rdf:RDF><cc:Work
       rdf:about=""><dc:format>image/svg+xml</dc:format><dc:type
         rdf:resource="http://purl.org/dc/dcmitype/StillImage" /><dc:title>Sinai 357</dc:title><dc:date>2017</dc:date><dc:creator><cc:Agent><dc:title>Celeste Claire Horner</dc:title></cc:Agent></dc:creator><dc:publisher><cc:Agent><dc:title>beitdina.net</dc:title></cc:Agent></dc:publisher></cc:Work></rdf:RDF></metadata><defs
   id="defs70" /><sodipodi:namedview
   pagecolor="#ffffff"
   bordercolor="#666666"
   borderopacity="1"
   objecttolerance="10"
   gridtolerance="10"
   guidetolerance="10"
   inkscape:pageopacity="0"
   inkscape:pageshadow="2"
   inkscape:window-width="1152"
   inkscape:window-height="814"
   id="namedview68"
   showgrid="false"
   inkscape:zoom="0.22086455"
   inkscape:cx="-908.71348"
   inkscape:cy="524.49354"
   inkscape:window-x="-8"
   inkscape:window-y="-8"
   inkscape:window-maximized="1"
   inkscape:current-layer="Layer_1"
   showguides="true"
   inkscape:guide-bbox="true" />
   
	<g
   id="Grid"
   transform="matrix(2.003984,0,0,1.9949797,0.501992,2.0729212)">
		<rect
   x="0"
   stroke-miterlimit="10"
   width="512"
   height="512"
   id="rect4"
   y="0"
   style="fill:none;stroke:#a9ccdb;stroke-miterlimit:10" />
		<line
   stroke-miterlimit="10"
   x1="0"
   y1="32"
   x2="512"
   y2="32"
   id="line6"
   style="fill:none;stroke:#a9ccdb;stroke-miterlimit:10" />
		<line
   stroke-miterlimit="10"
   x1="0"
   y1="64"
   x2="512"
   y2="64"
   id="line8"
   style="fill:none;stroke:#a9ccdb;stroke-miterlimit:10" />
		<line
   stroke-miterlimit="10"
   x1="0"
   y1="96"
   x2="512"
   y2="96"
   id="line10"
   style="fill:none;stroke:#a9ccdb;stroke-miterlimit:10" />
		<line
   stroke-miterlimit="10"
   x1="0"
   y1="128"
   x2="512"
   y2="128"
   id="line12"
   style="fill:none;stroke:#a9ccdb;stroke-miterlimit:10" />
		<line
   stroke-miterlimit="10"
   x1="0"
   y1="160"
   x2="512"
   y2="160"
   id="line14"
   style="fill:none;stroke:#a9ccdb;stroke-miterlimit:10" />
		<line
   stroke-miterlimit="10"
   x1="0"
   y1="192"
   x2="512"
   y2="192"
   id="line16"
   style="fill:none;stroke:#a9ccdb;stroke-miterlimit:10" />
		<line
   stroke-miterlimit="10"
   x1="0"
   y1="224"
   x2="512"
   y2="224"
   id="line18"
   style="fill:none;stroke:#a9ccdb;stroke-miterlimit:10" />
		<line
   stroke-miterlimit="10"
   x1="0"
   y1="256"
   x2="512"
   y2="256"
   id="line20"
   style="fill:none;stroke:#a9ccdb;stroke-miterlimit:10" />
		<line
   stroke-miterlimit="10"
   x1="0"
   y1="288"
   x2="512"
   y2="288"
   id="line22"
   style="fill:none;stroke:#a9ccdb;stroke-miterlimit:10" />
		<line
   stroke-miterlimit="10"
   x1="0"
   y1="320"
   x2="512"
   y2="320"
   id="line24"
   style="fill:none;stroke:#a9ccdb;stroke-miterlimit:10" />
		<line
   stroke-miterlimit="10"
   x1="0"
   y1="352"
   x2="512"
   y2="352"
   id="line26"
   style="fill:none;stroke:#a9ccdb;stroke-miterlimit:10" />
		<line
   stroke-miterlimit="10"
   x1="0"
   y1="384"
   x2="512"
   y2="384"
   id="line28"
   style="fill:none;stroke:#a9ccdb;stroke-miterlimit:10" />
		<line
   stroke-miterlimit="10"
   x1="0"
   y1="416"
   x2="512"
   y2="416"
   id="line30"
   style="fill:none;stroke:#a9ccdb;stroke-miterlimit:10" />
		<line
   stroke-miterlimit="10"
   x1="0"
   y1="448"
   x2="512"
   y2="448"
   id="line32"
   style="fill:none;stroke:#ff0000;stroke-miterlimit:10" />
		<line
   stroke-miterlimit="10"
   x1="0"
   y1="480"
   x2="512"
   y2="480"
   id="line34"
   style="fill:none;stroke:#a9ccdb;stroke-miterlimit:10" />
		<line
   stroke-miterlimit="10"
   x1="32"
   y1="0"
   x2="32"
   y2="512"
   id="line36"
   style="fill:none;stroke:#a9ccdb;stroke-miterlimit:10" />
		<line
   stroke-miterlimit="10"
   x1="64"
   y1="0"
   x2="64"
   y2="512"
   id="line38"
   style="fill:none;stroke:#a9ccdb;stroke-miterlimit:10" />
		<line
   stroke-miterlimit="10"
   x1="96"
   y1="0"
   x2="96"
   y2="512"
   id="line40"
   style="fill:none;stroke:#a9ccdb;stroke-miterlimit:10" />
		<line
   stroke-miterlimit="10"
   x1="128"
   y1="0"
   x2="128"
   y2="512"
   id="line42"
   style="fill:none;stroke:#a9ccdb;stroke-miterlimit:10" />
		<line
   stroke-miterlimit="10"
   x1="160"
   y1="0"
   x2="160"
   y2="512"
   id="line44"
   style="fill:none;stroke:#a9ccdb;stroke-miterlimit:10" />
		<line
   stroke-miterlimit="10"
   x1="192"
   y1="0"
   x2="192"
   y2="512"
   id="line46"
   style="fill:none;stroke:#a9ccdb;stroke-miterlimit:10" />
		<line
   stroke-miterlimit="10"
   x1="224"
   y1="0"
   x2="224"
   y2="512"
   id="line48"
   style="fill:none;stroke:#a9ccdb;stroke-miterlimit:10" />
		<line
   stroke-miterlimit="10"
   x1="256"
   y1="0"
   x2="256"
   y2="512"
   id="line50"
   style="fill:none;stroke:#a9ccdb;stroke-miterlimit:10" />
		<line
   stroke-miterlimit="10"
   x1="288"
   y1="0"
   x2="288"
   y2="512"
   id="line52"
   style="fill:none;stroke:#a9ccdb;stroke-miterlimit:10" />
		<line
   stroke-miterlimit="10"
   x1="320"
   y1="0"
   x2="320"
   y2="512"
   id="line54"
   style="fill:none;stroke:#a9ccdb;stroke-miterlimit:10" />
		<line
   stroke-miterlimit="10"
   x1="352"
   y1="0"
   x2="352"
   y2="512"
   id="line56"
   style="fill:none;stroke:#a9ccdb;stroke-miterlimit:10" />
		<line
   stroke-miterlimit="10"
   x1="384"
   y1="0"
   x2="384"
   y2="512"
   id="line58"
   style="fill:none;stroke:#a9ccdb;stroke-miterlimit:10" />
		<line
   stroke-miterlimit="10"
   x1="416"
   y1="0"
   x2="416"
   y2="512"
   id="line60"
   style="fill:none;stroke:#a9ccdb;stroke-miterlimit:10" />
		<line
   stroke-miterlimit="10"
   x1="448"
   y1="0"
   x2="448"
   y2="512"
   id="line62"
   style="fill:none;stroke:#a9ccdb;stroke-miterlimit:10" />
		<line
   stroke-miterlimit="10"
   x1="480"
   y1="0"
   x2="480"
   y2="512"
   id="line64"
   style="fill:none;stroke:#a9ccdb;stroke-miterlimit:10" />
	</g>
	
<path
   style="fill:#000000;fill-opacity:1"
   d="m 307.26626,268.16635 c -12.017,-7.44157 -23.83155,-15.12815 -35.40013,-23.34293 -12.95642,-8.98749 -29.99369,-15.82437 -42.74616,-26.38176 -22.5546,-17.11069 -39.66273,-19.51578 -63.71803,-24.96487 -4.15473,-0.94871 -12.8481,-2.67467 -19.31845,-3.83549 -7.65921,-2.27705 -24.03339,2.94774 -26.7104,6.50266 -1.07585,4.60367 1.94819,14.98066 5.89171,25.24611 4.30567,11.20824 9.70743,22.28349 12.06566,25.56596 12.9123,22.80403 30.08479,29.02378 47.94077,36.25999 23.05785,13.52128 48.27346,28.3875 69.00754,40.70984 23.92809,14.2327 47.40051,28.74039 69.30547,42.01132 22.08051,13.35412 44.14486,26.06543 66.13427,37.47618 6.50752,3.31149 11.34121,8.59446 17.19727,10.63503 8.66995,5.03601 15.0149,14.80186 10.45331,23.28477 -14.70654,19.94486 -25.30172,40.16934 -32.60377,63.04595 -6.03827,19.07299 -10.86803,38.57551 -17.53268,55.75893 -7.38182,18.75746 -17.23866,34.72735 -35.54471,48.38321 -5.884,2.17137 -10.16051,5.95639 -13.52328,10.51285 -2.96285,4.01455 -5.21638,8.62793 -7.23513,13.26413 -1.55386,3.85415 -2.82838,8.27848 -3.81888,13.08558 -6.12135,29.70661 -1.39915,74.03068 15.2518,88.73917 8.80154,12.69845 17.02428,25.99355 24.93822,38.24528 6.61387,12.24421 16.94889,20.33728 24.16559,30.44432 1.98293,2.85768 3.70919,5.82684 5.88385,8.49061 2.49012,3.1413 5.00864,1.99446 7.71949,0.29504 3.47623,-2.19914 6.39981,-5.33691 9.79217,-7.59745 2.89683,-1.80887 5.49845,-3.9766 7.6778,-6.54552 4.05261,-4.80236 2.26879,-10.33248 1.98415,-15.62555 -1.81478,-34.16205 14.27023,-67.58577 21.98821,-99.08637 2.00469,-28.27574 15.61831,-53.31945 23.36047,-77.53681 5.61553,-20.18889 14.59701,-39.21058 17.92789,-58.75608 2.83202,-13.37922 2.77687,-54.18567 10.74641,-60.25856 10.68279,-4.76929 21.98926,-2.0215 31.62053,3.07789 18.67787,10.0119 36.89433,30.75846 51.19673,42.50776 14.32249,20.11675 42.48297,36.212 50.48151,58.32109 2.98778,10.92584 3.45613,22.30973 1.97025,32.50201 -6.02724,21.98999 -5.61311,41.88098 -6.2818,62.56109 1.20819,19.68939 -5.87902,58.79214 1.18417,73.81375 9.37157,9.35839 17.01839,24.25488 24.84877,38.2765 8.03904,14.39551 18.89543,28.47784 29.3868,34.08932 50.21275,-19.57807 29.71042,-163.97813 59.54654,-219.94832 4.71902,-8.72047 11.3817,-32.10204 12.37521,-43.42877 1.06452,-10.83073 -1.06044,-15.97688 -3.95183,-20.57912 -7.3705,-13.67234 -14.7842,-22.10814 -26.99866,-28.68031 C 679.1334,503.6581 660.11333,495.59314 636.53514,487.45283 615.00411,481.64075 536.65795,413.11745 522.5172,404.93467 484.36981,370.66176 488.94349,379.08696 449.29042,351.1313 395.56822,313.25672 361.07034,301.26104 307.26626,268.16635 z"
   id="path3841"
   inkscape:connector-curvature="0"
   sodipodi:nodetypes="ccccccsccccccccccscsccccccccccccccccccscccccccsc" />
	</svg>