<?xml version="1.0" encoding="UTF-8" standalone="no"?>
<svg
   xmlns:dc="http://purl.org/dc/elements/1.1/"
   xmlns:cc="http://creativecommons.org/ns#"
   xmlns:rdf="http://www.w3.org/1999/02/22-rdf-syntax-ns#"
   xmlns:svg="http://www.w3.org/2000/svg"
   xmlns="http://www.w3.org/2000/svg"
   xmlns:sodipodi="http://sodipodi.sourceforge.net/DTD/sodipodi-0.dtd"
   xmlns:inkscape="http://www.inkscape.org/namespaces/inkscape"
   version="1.1"
   id="Layer_1"
   x="0px"
   y="0px"
   width="800"
   height="1024"
   viewBox="0 0 800 1024"
   enable-background="new 0 0 512 512"
   xml:space="preserve"
   inkscape:version="0.48.0 r9654"
   sodipodi:docname="ayinhebrew-x5e2.svg"><title
   id="title3743">Sinai 357</title><metadata
   id="metadata72"><rdf:RDF><cc:Work
       rdf:about=""><dc:format>image/svg+xml</dc:format><dc:type
         rdf:resource="http://purl.org/dc/dcmitype/StillImage" /><dc:title>Sinai 357</dc:title><dc:date>2017</dc:date><dc:creator><cc:Agent><dc:title>Celeste Claire Horner</dc:title></cc:Agent></dc:creator><dc:publisher><cc:Agent><dc:title>beitdina.net</dc:title></cc:Agent></dc:publisher></cc:Work></rdf:RDF></metadata><defs
   id="defs70" /><sodipodi:namedview
   pagecolor="#ffffff"
   bordercolor="#666666"
   borderopacity="1"
   objecttolerance="10"
   gridtolerance="10"
   guidetolerance="10"
   inkscape:pageopacity="0"
   inkscape:pageshadow="2"
   inkscape:window-width="1152"
   inkscape:window-height="814"
   id="namedview68"
   showgrid="false"
   inkscape:zoom="0.22086455"
   inkscape:cx="-908.71348"
   inkscape:cy="524.49354"
   inkscape:window-x="-8"
   inkscape:window-y="-8"
   inkscape:window-maximized="1"
   inkscape:current-layer="Layer_1"
   showguides="true"
   inkscape:guide-bbox="true" />
   
	<g
   id="Grid"
   transform="matrix(1.553425,0,0,1.9949797,0.501992,2.0729212)">
		<rect
   x="0"
   stroke-miterlimit="10"
   width="512"
   height="512"
   id="rect4"
   y="0"
   style="fill:none;stroke:#a9ccdb;stroke-miterlimit:10" />
		<line
   stroke-miterlimit="10"
   x1="0"
   y1="32"
   x2="512"
   y2="32"
   id="line6"
   style="fill:none;stroke:#a9ccdb;stroke-miterlimit:10" />
		<line
   stroke-miterlimit="10"
   x1="0"
   y1="64"
   x2="512"
   y2="64"
   id="line8"
   style="fill:none;stroke:#a9ccdb;stroke-miterlimit:10" />
		<line
   stroke-miterlimit="10"
   x1="0"
   y1="96"
   x2="512"
   y2="96"
   id="line10"
   style="fill:none;stroke:#a9ccdb;stroke-miterlimit:10" />
		<line
   stroke-miterlimit="10"
   x1="0"
   y1="128"
   x2="512"
   y2="128"
   id="line12"
   style="fill:none;stroke:#a9ccdb;stroke-miterlimit:10" />
		<line
   stroke-miterlimit="10"
   x1="0"
   y1="160"
   x2="512"
   y2="160"
   id="line14"
   style="fill:none;stroke:#a9ccdb;stroke-miterlimit:10" />
		<line
   stroke-miterlimit="10"
   x1="0"
   y1="192"
   x2="512"
   y2="192"
   id="line16"
   style="fill:none;stroke:#a9ccdb;stroke-miterlimit:10" />
		<line
   stroke-miterlimit="10"
   x1="0"
   y1="224"
   x2="512"
   y2="224"
   id="line18"
   style="fill:none;stroke:#a9ccdb;stroke-miterlimit:10" />
		<line
   stroke-miterlimit="10"
   x1="0"
   y1="256"
   x2="512"
   y2="256"
   id="line20"
   style="fill:none;stroke:#a9ccdb;stroke-miterlimit:10" />
		<line
   stroke-miterlimit="10"
   x1="0"
   y1="288"
   x2="512"
   y2="288"
   id="line22"
   style="fill:none;stroke:#a9ccdb;stroke-miterlimit:10" />
		<line
   stroke-miterlimit="10"
   x1="0"
   y1="320"
   x2="512"
   y2="320"
   id="line24"
   style="fill:none;stroke:#a9ccdb;stroke-miterlimit:10" />
		<line
   stroke-miterlimit="10"
   x1="0"
   y1="352"
   x2="512"
   y2="352"
   id="line26"
   style="fill:none;stroke:#a9ccdb;stroke-miterlimit:10" />
		<line
   stroke-miterlimit="10"
   x1="0"
   y1="384"
   x2="512"
   y2="384"
   id="line28"
   style="fill:none;stroke:#a9ccdb;stroke-miterlimit:10" />
		<line
   stroke-miterlimit="10"
   x1="0"
   y1="416"
   x2="512"
   y2="416"
   id="line30"
   style="fill:none;stroke:#a9ccdb;stroke-miterlimit:10" />
		<line
   stroke-miterlimit="10"
   x1="0"
   y1="448"
   x2="512"
   y2="448"
   id="line32"
   style="fill:none;stroke:#ff0000;stroke-miterlimit:10" />
		<line
   stroke-miterlimit="10"
   x1="0"
   y1="480"
   x2="512"
   y2="480"
   id="line34"
   style="fill:none;stroke:#a9ccdb;stroke-miterlimit:10" />
		<line
   stroke-miterlimit="10"
   x1="32"
   y1="0"
   x2="32"
   y2="512"
   id="line36"
   style="fill:none;stroke:#a9ccdb;stroke-miterlimit:10" />
		<line
   stroke-miterlimit="10"
   x1="64"
   y1="0"
   x2="64"
   y2="512"
   id="line38"
   style="fill:none;stroke:#a9ccdb;stroke-miterlimit:10" />
		<line
   stroke-miterlimit="10"
   x1="96"
   y1="0"
   x2="96"
   y2="512"
   id="line40"
   style="fill:none;stroke:#a9ccdb;stroke-miterlimit:10" />
		<line
   stroke-miterlimit="10"
   x1="128"
   y1="0"
   x2="128"
   y2="512"
   id="line42"
   style="fill:none;stroke:#a9ccdb;stroke-miterlimit:10" />
		<line
   stroke-miterlimit="10"
   x1="160"
   y1="0"
   x2="160"
   y2="512"
   id="line44"
   style="fill:none;stroke:#a9ccdb;stroke-miterlimit:10" />
		<line
   stroke-miterlimit="10"
   x1="192"
   y1="0"
   x2="192"
   y2="512"
   id="line46"
   style="fill:none;stroke:#a9ccdb;stroke-miterlimit:10" />
		<line
   stroke-miterlimit="10"
   x1="224"
   y1="0"
   x2="224"
   y2="512"
   id="line48"
   style="fill:none;stroke:#a9ccdb;stroke-miterlimit:10" />
		<line
   stroke-miterlimit="10"
   x1="256"
   y1="0"
   x2="256"
   y2="512"
   id="line50"
   style="fill:none;stroke:#a9ccdb;stroke-miterlimit:10" />
		<line
   stroke-miterlimit="10"
   x1="288"
   y1="0"
   x2="288"
   y2="512"
   id="line52"
   style="fill:none;stroke:#a9ccdb;stroke-miterlimit:10" />
		<line
   stroke-miterlimit="10"
   x1="320"
   y1="0"
   x2="320"
   y2="512"
   id="line54"
   style="fill:none;stroke:#a9ccdb;stroke-miterlimit:10" />
		<line
   stroke-miterlimit="10"
   x1="352"
   y1="0"
   x2="352"
   y2="512"
   id="line56"
   style="fill:none;stroke:#a9ccdb;stroke-miterlimit:10" />
		<line
   stroke-miterlimit="10"
   x1="384"
   y1="0"
   x2="384"
   y2="512"
   id="line58"
   style="fill:none;stroke:#a9ccdb;stroke-miterlimit:10" />
		<line
   stroke-miterlimit="10"
   x1="416"
   y1="0"
   x2="416"
   y2="512"
   id="line60"
   style="fill:none;stroke:#a9ccdb;stroke-miterlimit:10" />
		<line
   stroke-miterlimit="10"
   x1="448"
   y1="0"
   x2="448"
   y2="512"
   id="line62"
   style="fill:none;stroke:#a9ccdb;stroke-miterlimit:10" />
		<line
   stroke-miterlimit="10"
   x1="480"
   y1="0"
   x2="480"
   y2="512"
   id="line64"
   style="fill:none;stroke:#a9ccdb;stroke-miterlimit:10" />
	</g>
	
<path
   style="fill:#000000;fill-opacity:1"
   d="m 263.2448,221.68821 c -13.25413,-8.18063 -26.28496,-16.63058 -39.0445,-25.6612 -14.29026,-9.88006 -33.08148,-17.39593 -47.14679,-29.00181 -24.87655,-18.81001 -43.74592,-21.45396 -70.27767,-27.44422 -4.58244,-1.04293 -14.170784,-2.9403 -21.307236,-4.2164 -8.447704,-2.5032 -26.507577,3.24049 -29.46018,7.14846 -1.186601,5.06088 2.148756,16.46844 6.498245,27.75338 4.748936,12.32137 10.706791,24.49654 13.307801,28.10499 14.241592,25.06879 33.18195,31.90624 52.87616,39.8611 25.43162,14.86412 53.24312,31.20675 76.11173,44.75286 26.39143,15.64619 52.28029,31.59469 76.44032,46.1836 24.35365,14.68036 48.68949,28.65408 72.94266,41.19806 7.17746,3.64037 12.50876,9.44801 18.96769,11.69123 9.56251,5.53616 16.56065,16.27189 11.52945,25.59726 -16.22055,21.92564 -27.90647,44.15869 -35.96025,69.30724 -6.65991,20.9672 -11.98687,42.40657 -19.33764,61.29654 -8.14177,20.62032 -19.01334,38.17623 -39.20396,53.1883 -6.48974,2.38701 -11.20651,6.54794 -14.91547,11.55691 -3.26787,4.41325 -5.7534,9.4848 -7.97998,14.58144 -1.71383,4.23692 -3.11955,9.10065 -4.21202,14.38515 -6.75153,32.65687 -1.54319,81.38291 16.82194,97.55214 9.70764,13.95958 18.77689,28.57506 27.50556,42.04354 7.29475,13.46023 18.69374,22.35705 26.65338,33.46785 2.18708,3.14148 4.09105,6.40552 6.48959,9.33384 2.74646,3.45327 5.52426,2.19253 8.51419,0.32434 3.8341,-2.41755 7.05866,-5.86693 10.80025,-8.35198 3.19506,-1.98851 6.0645,-4.37152 8.46821,-7.19558 4.46982,-5.27929 2.50237,-11.35862 2.18842,-17.17737 -2.00161,-37.55479 15.73932,-74.29793 24.25185,-108.92695 2.21107,-31.0839 17.22618,-58.61478 25.76538,-85.23725 6.19363,-22.19391 16.09975,-43.10471 19.77353,-64.59133 3.12357,-14.70795 3.06275,-59.56703 11.85273,-66.24303 11.78256,-5.24295 24.25301,-2.22227 34.8758,3.38356 20.60071,11.00621 40.69252,33.81318 56.46732,46.72934 15.79696,22.11461 46.8565,39.80833 55.67847,64.11315 3.29537,12.01092 3.81194,24.52538 2.17309,35.72989 -6.64774,24.17389 -6.19097,46.04032 -6.9285,68.77424 1.33258,21.64481 -6.48425,64.63097 1.30608,81.14443 10.33635,10.2878 18.7704,26.66371 27.4069,42.07786 8.86664,15.82518 20.84067,31.30607 32.4121,37.47484 55.38205,-21.52243 32.76905,-180.26333 65.67674,-241.7921 5.20484,-9.58652 12.55342,-35.2902 13.64921,-47.74182 1.17411,-11.90637 -1.16961,-17.5636 -4.35866,-22.6229 -8.12928,-15.03019 -16.3062,-24.30377 -29.77812,-31.52864 -27.34374,-12.14377 -48.32189,-21.00969 -74.3274,-29.95843 -23.7476,-6.3893 -110.15933,-81.71787 -125.75585,-90.71331 C 458.58078,334.36277 463.62531,343.6247 419.89005,312.89267 360.63726,271.25665 322.58789,258.06964 263.2448,221.68821 z"
   id="path3841"
   inkscape:connector-curvature="0"
   sodipodi:nodetypes="ccccccsccccccccccscsccccccccccccccccccscccccccsc" />
	</svg>