<?xml version="1.0" encoding="UTF-8" standalone="no"?>
<svg
   xmlns:dc="http://purl.org/dc/elements/1.1/"
   xmlns:cc="http://creativecommons.org/ns#"
   xmlns:rdf="http://www.w3.org/1999/02/22-rdf-syntax-ns#"
   xmlns:svg="http://www.w3.org/2000/svg"
   xmlns="http://www.w3.org/2000/svg"
   xmlns:sodipodi="http://sodipodi.sourceforge.net/DTD/sodipodi-0.dtd"
   xmlns:inkscape="http://www.inkscape.org/namespaces/inkscape"
   version="1.1"
   id="Layer_1"
   x="0px"
   y="0px"
   width="1000"
   height="1000"
   viewBox="0 0 1000 1000"
   enable-background="new 0 0 512 512"
   xml:space="preserve"
   inkscape:version="0.48.0 r9654"
   sodipodi:docname="bethebrew-x5d1-old.svg"><title
   id="title3743">Sinai 357</title><metadata
   id="metadata72"><rdf:RDF><cc:Work
       rdf:about=""><dc:format>image/svg+xml</dc:format><dc:type
         rdf:resource="http://purl.org/dc/dcmitype/StillImage" /><dc:title>Sinai 357</dc:title><dc:date>2017</dc:date><dc:creator><cc:Agent><dc:title>Celeste Claire Horner</dc:title></cc:Agent></dc:creator><dc:publisher><cc:Agent><dc:title>beitdina.net</dc:title></cc:Agent></dc:publisher></cc:Work></rdf:RDF></metadata><defs
   id="defs70" /><sodipodi:namedview
   pagecolor="#ffffff"
   bordercolor="#666666"
   borderopacity="1"
   objecttolerance="10"
   gridtolerance="10"
   guidetolerance="10"
   inkscape:pageopacity="0"
   inkscape:pageshadow="2"
   inkscape:window-width="1152"
   inkscape:window-height="814"
   id="namedview68"
   showgrid="false"
   inkscape:zoom="0.25488281"
   inkscape:cx="432.56593"
   inkscape:cy="493.37905"
   inkscape:window-x="-8"
   inkscape:window-y="-8"
   inkscape:window-maximized="1"
   inkscape:current-layer="Layer_1" />
   
	<g
   id="Grid"
   transform="matrix(1.949083,0,0,1.9463791,0.47454151,1.9751009)">
		<rect
   x="0"
   stroke-miterlimit="10"
   width="512"
   height="512"
   id="rect4"
   y="0"
   style="fill:none;stroke:#a9ccdb;stroke-miterlimit:10" />
		<line
   stroke-miterlimit="10"
   x1="0"
   y1="32"
   x2="512"
   y2="32"
   id="line6"
   style="fill:none;stroke:#a9ccdb;stroke-miterlimit:10" />
		<line
   stroke-miterlimit="10"
   x1="0"
   y1="64"
   x2="512"
   y2="64"
   id="line8"
   style="fill:none;stroke:#a9ccdb;stroke-miterlimit:10" />
		<line
   stroke-miterlimit="10"
   x1="0"
   y1="96"
   x2="512"
   y2="96"
   id="line10"
   style="fill:none;stroke:#a9ccdb;stroke-miterlimit:10" />
		<line
   stroke-miterlimit="10"
   x1="0"
   y1="128"
   x2="512"
   y2="128"
   id="line12"
   style="fill:none;stroke:#a9ccdb;stroke-miterlimit:10" />
		<line
   stroke-miterlimit="10"
   x1="0"
   y1="160"
   x2="512"
   y2="160"
   id="line14"
   style="fill:none;stroke:#a9ccdb;stroke-miterlimit:10" />
		<line
   stroke-miterlimit="10"
   x1="0"
   y1="192"
   x2="512"
   y2="192"
   id="line16"
   style="fill:none;stroke:#a9ccdb;stroke-miterlimit:10" />
		<line
   stroke-miterlimit="10"
   x1="0"
   y1="224"
   x2="512"
   y2="224"
   id="line18"
   style="fill:none;stroke:#a9ccdb;stroke-miterlimit:10" />
		<line
   stroke-miterlimit="10"
   x1="0"
   y1="256"
   x2="512"
   y2="256"
   id="line20"
   style="fill:none;stroke:#a9ccdb;stroke-miterlimit:10" />
		<line
   stroke-miterlimit="10"
   x1="0"
   y1="288"
   x2="512"
   y2="288"
   id="line22"
   style="fill:none;stroke:#a9ccdb;stroke-miterlimit:10" />
		<line
   stroke-miterlimit="10"
   x1="0"
   y1="320"
   x2="512"
   y2="320"
   id="line24"
   style="fill:none;stroke:#a9ccdb;stroke-miterlimit:10" />
		<line
   stroke-miterlimit="10"
   x1="0"
   y1="352"
   x2="512"
   y2="352"
   id="line26"
   style="fill:none;stroke:#a9ccdb;stroke-miterlimit:10" />
		<line
   stroke-miterlimit="10"
   x1="0"
   y1="384"
   x2="512"
   y2="384"
   id="line28"
   style="fill:none;stroke:#a9ccdb;stroke-miterlimit:10" />
		<line
   stroke-miterlimit="10"
   x1="0"
   y1="416"
   x2="512"
   y2="416"
   id="line30"
   style="fill:none;stroke:#a9ccdb;stroke-miterlimit:10" />
		<line
   stroke-miterlimit="10"
   x1="0"
   y1="448"
   x2="512"
   y2="448"
   id="line32"
   style="fill:none;stroke:#ff0000;stroke-miterlimit:10" />
		<line
   stroke-miterlimit="10"
   x1="0"
   y1="480"
   x2="512"
   y2="480"
   id="line34"
   style="fill:none;stroke:#a9ccdb;stroke-miterlimit:10" />
		<line
   stroke-miterlimit="10"
   x1="32"
   y1="0"
   x2="32"
   y2="512"
   id="line36"
   style="fill:none;stroke:#a9ccdb;stroke-miterlimit:10" />
		<line
   stroke-miterlimit="10"
   x1="64"
   y1="0"
   x2="64"
   y2="512"
   id="line38"
   style="fill:none;stroke:#a9ccdb;stroke-miterlimit:10" />
		<line
   stroke-miterlimit="10"
   x1="96"
   y1="0"
   x2="96"
   y2="512"
   id="line40"
   style="fill:none;stroke:#a9ccdb;stroke-miterlimit:10" />
		<line
   stroke-miterlimit="10"
   x1="128"
   y1="0"
   x2="128"
   y2="512"
   id="line42"
   style="fill:none;stroke:#a9ccdb;stroke-miterlimit:10" />
		<line
   stroke-miterlimit="10"
   x1="160"
   y1="0"
   x2="160"
   y2="512"
   id="line44"
   style="fill:none;stroke:#a9ccdb;stroke-miterlimit:10" />
		<line
   stroke-miterlimit="10"
   x1="192"
   y1="0"
   x2="192"
   y2="512"
   id="line46"
   style="fill:none;stroke:#a9ccdb;stroke-miterlimit:10" />
		<line
   stroke-miterlimit="10"
   x1="224"
   y1="0"
   x2="224"
   y2="512"
   id="line48"
   style="fill:none;stroke:#a9ccdb;stroke-miterlimit:10" />
		<line
   stroke-miterlimit="10"
   x1="256"
   y1="0"
   x2="256"
   y2="512"
   id="line50"
   style="fill:none;stroke:#a9ccdb;stroke-miterlimit:10" />
		<line
   stroke-miterlimit="10"
   x1="288"
   y1="0"
   x2="288"
   y2="512"
   id="line52"
   style="fill:none;stroke:#a9ccdb;stroke-miterlimit:10" />
		<line
   stroke-miterlimit="10"
   x1="320"
   y1="0"
   x2="320"
   y2="512"
   id="line54"
   style="fill:none;stroke:#a9ccdb;stroke-miterlimit:10" />
		<line
   stroke-miterlimit="10"
   x1="352"
   y1="0"
   x2="352"
   y2="512"
   id="line56"
   style="fill:none;stroke:#a9ccdb;stroke-miterlimit:10" />
		<line
   stroke-miterlimit="10"
   x1="384"
   y1="0"
   x2="384"
   y2="512"
   id="line58"
   style="fill:none;stroke:#a9ccdb;stroke-miterlimit:10" />
		<line
   stroke-miterlimit="10"
   x1="416"
   y1="0"
   x2="416"
   y2="512"
   id="line60"
   style="fill:none;stroke:#a9ccdb;stroke-miterlimit:10" />
		<line
   stroke-miterlimit="10"
   x1="448"
   y1="0"
   x2="448"
   y2="512"
   id="line62"
   style="fill:none;stroke:#a9ccdb;stroke-miterlimit:10" />
		<line
   stroke-miterlimit="10"
   x1="480"
   y1="0"
   x2="480"
   y2="512"
   id="line64"
   style="fill:none;stroke:#a9ccdb;stroke-miterlimit:10" />
	</g>
	
<path
   style="fill:#82532d"
   d="m 142.4758,132.50208 c -32.47185,-7.54053 -36.55989,16.65025 -29.5415,30.77598 13.85685,21.31816 25.22341,29.78161 52.21895,46.24354 7.07432,4.90443 21.88545,11.92541 37.9107,18.43495 23.22623,7.95945 46.40866,14.93677 69.48369,21.0135 22.00416,5.79467 43.91044,10.77037 65.66396,14.99786 44.59535,8.5753 89.05537,12.13985 128.06613,13.60301 33.41388,1.22969 69.8592,2.27723 103.73768,3.88686 64.10766,3.04582 119.0243,8.10424 126.81766,20.21766 -6.13675,13.39284 -10.59502,25.69685 -11.56348,40.2071 8.15734,36.87989 -15.21952,48.917 -19.39756,80.79058 -3.08168,22.97846 -7.81528,48.22984 -21.73869,62.77657 -16.38143,17.57296 -29.31018,39.38069 -34.5798,56.5067 -14.85459,45.47098 -48.23671,72.80854 -100.34151,51.14022 -11.69765,-6.0201 -26.71834,-12.83478 -34.00415,-21.62072 -8.29915,-11.29038 -19.97759,-12.35589 -29.69381,-13.20967 -12.45557,-1.03227 -25.26412,-5.19942 -35.50895,-9.60282 -6.78701,-2.92946 -13.41203,-6.02579 -20.33149,-8.26507 -10.43867,-3.26957 -19.81015,-3.15025 -28.96767,-1.81778 -10.74128,1.56292 -25.01393,1.2062 -36.54353,2.5962 -16.99641,2.03286 -30.128,7.17473 -41.75575,14.13635 -8.55889,5.29071 -15.52952,13.24782 -22.40281,24.98389 -4.79404,8.30504 -8.28266,16.88929 -9.37438,23.41629 -1.8811,11.79678 0.17676,23.63067 -2.63539,36.59464 -2.32486,9.31889 -2.89605,19.35718 -2.78419,29.2421 0.15829,13.85845 1.65737,27.41546 1.55237,38.26609 0.69202,13.71025 0.60708,24.56441 3.91154,34.91229 2.3982,7.51017 1.74839,13.85654 5.83247,21.73169 2.31299,5.80619 3.15012,10.66871 4.47112,15.322 2.56758,6.07922 5.40296,12.1948 8.12357,18.22751 2.88392,6.39433 5.63856,12.69557 7.80855,18.76176 2.67788,7.3984 7.22813,15.36361 9.93529,22.03087 1.76396,4.19947 4.43682,7.91484 7.69274,12.50711 11.09112,15.64289 20.02386,18.75382 26.35998,21.53079 9.16148,5.51267 20.9689,6.07213 30.7509,0.64267 8.92482,-5.11499 15.79704,-12.3718 19.32813,-20.88352 2.59266,-6.33795 3.30235,-12.19246 3.80759,-17.99697 2.63776,-12.99221 3.77514,-24.55324 8.54016,-35.98605 3.03535,-7.41541 4.57849,-15.71923 4.44447,-23.51712 -0.0739,-6.7191 3.72605,-10.04868 3.95823,-17.33692 3.09392,-8.47383 3.64876,-16.57793 6.64507,-23.8144 5.22093,-15.5509 6.66802,-26.79379 8.12093,-40.55884 0.16093,-6.02551 1.14449,-10.27428 6.60075,-12.39702 9.14909,-3.48322 27.77812,-5.45074 45.95401,-4.21814 8.0876,0.5485 15.00004,2.55664 18.98142,2.10886 8.00695,-0.54506 13.77584,-1.88893 20.31008,2.99563 9.01534,4.3906 25.35978,12.01658 34.38609,8.9036 l 12.9072,-1.95757 14.56889,2.73787 c 10.44184,1.96227 16.94128,2.60156 21.57249,6.1489 5.40027,4.13643 11.41886,6.35559 17.2369,6.35559 4.91666,0 14.32461,1.66433 20.90652,3.69849 29.5747,5.03775 64.96449,13.10577 75.37948,-8.06301 39.16491,-49.01096 63.64815,-110.16786 90.72157,-156.8429 10.06188,-17.42821 16.28475,-36.36499 22.59148,-54.38181 10.34609,-17.48204 8.84944,-37.58238 12.85646,-54.9426 4.62168,-19.12252 12.95851,-39.60803 7.79676,-50.70747 -0.19391,-15.28948 7.3363,-29.40953 11.32541,-42.44524 9.0458,-47.65128 -8.82185,-85.32434 -42.83682,-110.65194 -7.65971,-5.70343 -16.13826,-10.78083 -25.31266,-15.20519 -25.23238,-12.16048 -48.3791,-22.529 -75.67441,-20.48597 -5.42669,0.71006 -10.57204,-1.53897 -23.36684,-3.14768 -52.915,-6.05508 -104.83891,-11.06546 -155.7433,-15.89978 -70.15,-6.66204 -138.36387,-12.9897 -204.5671,-21.25624 -47.81539,-5.97047 -94.5815,-12.9523 -140.27122,-21.80199 -2.1766,-0.48244 -15.82976,-0.22648 -30.34038,0.56881 z"
   id="path3768"
   inkscape:connector-curvature="0"
   sodipodi:nodetypes="ccccsccsccccccccccscccccscsccscccccccccccccsccccssscccccccscccssccc" />
</svg>