<?xml version="1.0" encoding="UTF-8" standalone="no"?>
<svg
   xmlns:dc="http://purl.org/dc/elements/1.1/"
   xmlns:cc="http://creativecommons.org/ns#"
   xmlns:rdf="http://www.w3.org/1999/02/22-rdf-syntax-ns#"
   xmlns:svg="http://www.w3.org/2000/svg"
   xmlns="http://www.w3.org/2000/svg"
   xmlns:sodipodi="http://sodipodi.sourceforge.net/DTD/sodipodi-0.dtd"
   xmlns:inkscape="http://www.inkscape.org/namespaces/inkscape"
   version="1.1"
   id="Layer_1"
   x="0px"
   y="0px"
   width="1024"
   height="1000"
   viewBox="0 0 1024 1000"
   enable-background="new 0 0 512 512"
   xml:space="preserve"
   inkscape:version="0.48.0 r9654"
   sodipodi:docname="betphoenician-x10901.svg"><title
   id="title3743">Sinai 357</title><metadata
   id="metadata72"><rdf:RDF><cc:Work
       rdf:about=""><dc:format>image/svg+xml</dc:format><dc:type
         rdf:resource="http://purl.org/dc/dcmitype/StillImage" /><dc:title>Sinai 357</dc:title><dc:date>2017</dc:date><dc:creator><cc:Agent><dc:title>Celeste Claire Horner</dc:title></cc:Agent></dc:creator><dc:publisher><cc:Agent><dc:title>beitdina.net</dc:title></cc:Agent></dc:publisher></cc:Work></rdf:RDF></metadata><defs
   id="defs70" /><sodipodi:namedview
   pagecolor="#ffffff"
   bordercolor="#666666"
   borderopacity="1"
   objecttolerance="10"
   gridtolerance="10"
   guidetolerance="10"
   inkscape:pageopacity="0"
   inkscape:pageshadow="2"
   inkscape:window-width="914"
   inkscape:window-height="719"
   id="namedview68"
   showgrid="false"
   inkscape:zoom="0.18022936"
   inkscape:cx="-873.07696"
   inkscape:cy="544.02945"
   inkscape:window-x="109"
   inkscape:window-y="48"
   inkscape:window-maximized="0"
   inkscape:current-layer="g3770" />
   
	<g
   id="Grid"
   transform="matrix(1.9797045,0,0,1.9463791,0.47454151,5.8984726)">
		<rect
   x="0"
   stroke-miterlimit="10"
   width="512"
   height="512"
   id="rect4"
   y="0"
   style="fill:none;stroke:#a9ccdb;stroke-miterlimit:10" />
		<line
   stroke-miterlimit="10"
   x1="0"
   y1="32"
   x2="512"
   y2="32"
   id="line6"
   style="fill:none;stroke:#a9ccdb;stroke-miterlimit:10" />
		<line
   stroke-miterlimit="10"
   x1="0"
   y1="64"
   x2="512"
   y2="64"
   id="line8"
   style="fill:none;stroke:#a9ccdb;stroke-miterlimit:10" />
		<line
   stroke-miterlimit="10"
   x1="0"
   y1="96"
   x2="512"
   y2="96"
   id="line10"
   style="fill:none;stroke:#a9ccdb;stroke-miterlimit:10" />
		<line
   stroke-miterlimit="10"
   x1="0"
   y1="128"
   x2="512"
   y2="128"
   id="line12"
   style="fill:none;stroke:#a9ccdb;stroke-miterlimit:10" />
		<line
   stroke-miterlimit="10"
   x1="0"
   y1="160"
   x2="512"
   y2="160"
   id="line14"
   style="fill:none;stroke:#a9ccdb;stroke-miterlimit:10" />
		<line
   stroke-miterlimit="10"
   x1="0"
   y1="192"
   x2="512"
   y2="192"
   id="line16"
   style="fill:none;stroke:#a9ccdb;stroke-miterlimit:10" />
		<line
   stroke-miterlimit="10"
   x1="0"
   y1="224"
   x2="512"
   y2="224"
   id="line18"
   style="fill:none;stroke:#a9ccdb;stroke-miterlimit:10" />
		<line
   stroke-miterlimit="10"
   x1="0"
   y1="256"
   x2="512"
   y2="256"
   id="line20"
   style="fill:none;stroke:#a9ccdb;stroke-miterlimit:10" />
		<line
   stroke-miterlimit="10"
   x1="0"
   y1="288"
   x2="512"
   y2="288"
   id="line22"
   style="fill:none;stroke:#a9ccdb;stroke-miterlimit:10" />
		<line
   stroke-miterlimit="10"
   x1="0"
   y1="320"
   x2="512"
   y2="320"
   id="line24"
   style="fill:none;stroke:#a9ccdb;stroke-miterlimit:10" />
		<line
   stroke-miterlimit="10"
   x1="0"
   y1="352"
   x2="512"
   y2="352"
   id="line26"
   style="fill:none;stroke:#a9ccdb;stroke-miterlimit:10" />
		<line
   stroke-miterlimit="10"
   x1="0"
   y1="384"
   x2="512"
   y2="384"
   id="line28"
   style="fill:none;stroke:#a9ccdb;stroke-miterlimit:10" />
		<line
   stroke-miterlimit="10"
   x1="0"
   y1="416"
   x2="512"
   y2="416"
   id="line30"
   style="fill:none;stroke:#a9ccdb;stroke-miterlimit:10" />
		<line
   stroke-miterlimit="10"
   x1="0"
   y1="448"
   x2="512"
   y2="448"
   id="line32"
   style="fill:none;stroke:#ff0000;stroke-miterlimit:10" />
		<line
   stroke-miterlimit="10"
   x1="0"
   y1="480"
   x2="512"
   y2="480"
   id="line34"
   style="fill:none;stroke:#a9ccdb;stroke-miterlimit:10" />
		<line
   stroke-miterlimit="10"
   x1="32"
   y1="0"
   x2="32"
   y2="512"
   id="line36"
   style="fill:none;stroke:#a9ccdb;stroke-miterlimit:10" />
		<line
   stroke-miterlimit="10"
   x1="64"
   y1="0"
   x2="64"
   y2="512"
   id="line38"
   style="fill:none;stroke:#a9ccdb;stroke-miterlimit:10" />
		<line
   stroke-miterlimit="10"
   x1="96"
   y1="0"
   x2="96"
   y2="512"
   id="line40"
   style="fill:none;stroke:#a9ccdb;stroke-miterlimit:10" />
		<line
   stroke-miterlimit="10"
   x1="128"
   y1="0"
   x2="128"
   y2="512"
   id="line42"
   style="fill:none;stroke:#a9ccdb;stroke-miterlimit:10" />
		<line
   stroke-miterlimit="10"
   x1="160"
   y1="0"
   x2="160"
   y2="512"
   id="line44"
   style="fill:none;stroke:#a9ccdb;stroke-miterlimit:10" />
		<line
   stroke-miterlimit="10"
   x1="192"
   y1="0"
   x2="192"
   y2="512"
   id="line46"
   style="fill:none;stroke:#a9ccdb;stroke-miterlimit:10" />
		<line
   stroke-miterlimit="10"
   x1="224"
   y1="0"
   x2="224"
   y2="512"
   id="line48"
   style="fill:none;stroke:#a9ccdb;stroke-miterlimit:10" />
		<line
   stroke-miterlimit="10"
   x1="256"
   y1="0"
   x2="256"
   y2="512"
   id="line50"
   style="fill:none;stroke:#a9ccdb;stroke-miterlimit:10" />
		<line
   stroke-miterlimit="10"
   x1="288"
   y1="0"
   x2="288"
   y2="512"
   id="line52"
   style="fill:none;stroke:#a9ccdb;stroke-miterlimit:10" />
		<line
   stroke-miterlimit="10"
   x1="320"
   y1="0"
   x2="320"
   y2="512"
   id="line54"
   style="fill:none;stroke:#a9ccdb;stroke-miterlimit:10" />
		<line
   stroke-miterlimit="10"
   x1="352"
   y1="0"
   x2="352"
   y2="512"
   id="line56"
   style="fill:none;stroke:#a9ccdb;stroke-miterlimit:10" />
		<line
   stroke-miterlimit="10"
   x1="384"
   y1="0"
   x2="384"
   y2="512"
   id="line58"
   style="fill:none;stroke:#a9ccdb;stroke-miterlimit:10" />
		<line
   stroke-miterlimit="10"
   x1="416"
   y1="0"
   x2="416"
   y2="512"
   id="line60"
   style="fill:none;stroke:#a9ccdb;stroke-miterlimit:10" />
		<line
   stroke-miterlimit="10"
   x1="448"
   y1="0"
   x2="448"
   y2="512"
   id="line62"
   style="fill:none;stroke:#a9ccdb;stroke-miterlimit:10" />
		<line
   stroke-miterlimit="10"
   x1="480"
   y1="0"
   x2="480"
   y2="512"
   id="line64"
   style="fill:none;stroke:#a9ccdb;stroke-miterlimit:10" />
	</g>
	


  <g
   id="g3754"
   transform="matrix(2.7056784,0,0,2.6256369,3116.4599,475.69238)"><g
     id="g3773"
     transform="translate(-479.85954,-109.88619)"><g
       transform="translate(11.096971,5.5484854)"
       id="g3770"><path
         style="fill:#82532d"
         d="m -629.012,-30.721306 c -12.03533,-2.96892 -13.55051,6.55566 -10.94922,12.11735 5.13588,8.39354 9.34877,11.72584 19.35437,18.20735999 2.62202,1.93100001 8.11159,4.69536001 14.05118,7.25834001 8.60853,3.13385 17.20084,5.88102 25.75335,8.2736 8.15559,2.28152 16.27491,4.24059 24.33762,5.90506 16.52875,3.37634 33.00737,4.7798 47.46627,5.35589 12.38448,0.48417 25.89253,0.89661 38.44921,1.53037 23.76079,1.19922 44.11503,3.19086 47.00355,7.96024 -2.27451,5.27313 -3.92692,10.11756 -4.28587,15.83064 3.02342,14.52064 -5.64095,19.25998 -7.18949,31.80948 -1.14219,9.04725 -2.89665,18.989416 -8.05721,24.716866 -6.07159,6.91897 -10.86349,15.50527 -12.81661,22.24825 -5.5057,17.90318 -17.8784,28.66673 -37.19046,20.13532 -4.3356,-2.37028 -9.90286,-5.05341 -12.60326,-8.51268 -3.07598,-4.44533 -7.40447,-4.86485 -11.00568,-5.20101 -4.61652,-0.40643 -9.36386,-2.04715 -13.161,-3.78089 -2.51553,-1.15341 -4.97101,-2.37253 -7.53563,-3.2542 -3.86898,-1.28731 -7.34242,-1.24034 -10.73655,-0.7157 -3.98113,0.61536 -9.27112,0.47491 -13.54445,1.02219 -6.29953,0.80039 -11.1666,2.82489 -15.4763,5.56588 -3.17226,2.08309 -5.75584,5.21603 -8.30335,9.83684 -1.77685,3.26993 -3.06988,6.64978 -3.47452,9.21964 -0.6972,4.64472 0.0655,9.30404 -0.97677,14.40832 -0.86168,3.6691 -1.07339,7.62145 -1.03192,11.51342 0.0587,5.45645 0.61428,10.79422 0.57536,15.06641 0.2565,5.39811 0.225,9.67169 1.44976,13.74593 0.88887,2.95697 0.64803,5.45571 2.16175,8.55637 0.85728,2.28606 1.16756,4.20056 1.65717,6.03269 0.95165,2.39356 2.00255,4.80143 3.01091,7.17668 1.06889,2.51762 2.08986,4.99859 2.89416,7.38702 0.99251,2.91295 2.67902,6.04908 3.6824,8.67416 0.65379,1.65344 1.64445,3.11629 2.85122,4.92439 4.1108,6.15904 7.42162,7.3839 9.77004,8.47727 3.39559,2.17049 7.77188,2.39076 11.39747,0.25304 3.30789,-2.01392 5.855,-4.87112 7.16376,-8.22242 0.96094,-2.49542 1.22398,-4.80051 1.41124,-7.0859 0.97766,-5.1154 1.39921,-9.66729 3.16532,-14.16871 1.12501,-2.91965 1.69696,-6.18909 1.64729,-9.25933 -0.0274,-2.6455 1.38102,-3.95645 1.46707,-6.82603 1.14673,-3.33638 1.35238,-6.52718 2.46293,-9.37638 1.93507,-6.12282 2.47142,-10.54946 3.00993,-15.96913 0.0596,-2.37241 0.42418,-4.04527 2.44649,-4.88105 3.39101,-1.37145 10.29564,-2.14611 17.03234,-1.6608 2.99759,0.21596 5.5596,1.00662 7.03525,0.83032 2.96769,-0.21461 5.10587,-0.74373 7.5277,1.17946 3.34144,1.7287 9.39933,4.73126 12.74483,3.50559 l 4.78391,-0.77075 5.3998,1.07797 c 3.87014,0.77261 6.27909,1.02431 7.9956,2.421 2.00155,1.62862 4.23226,2.50237 6.38865,2.50237 1.82232,0 5.30926,0.65529 7.74878,1.4562 10.96153,1.98349 24.07836,5.1601 27.93855,-3.17463 14.51604,-19.29697 23.59048,-43.37613 33.62494,-61.75338 3.72933,-6.86197 6.03576,-14.31791 8.37329,-21.41162 3.83466,-6.88316 3.27994,-14.797216 4.76509,-21.632406 1.71298,-7.52907 4.80293,-15.59478 2.88979,-19.96493 -0.0719,-6.0199 2.71912,-11.57934 4.19763,-16.71186 3.35273,-18.76163 -3.26972,-33.59455 -15.87699,-43.56672 -2.83898,-2.24559 -5.98146,-4.24472 -9.38185,-5.9867 -9.3521,-4.78792 -17.93117,-8.87029 -28.04787,-8.0659 -2.01134,0.27958 -3.91841,-0.60593 -8.66066,-1.23932 -19.61235,-2.38406 -38.85738,-4.35678 -57.72452,-6.26018 -26.00031,-2.62303 -51.28302,-5.1144 -75.8205,-8.36917 -17.72224,-2.35074 -35.05558,-5.09968 -51.98996,-8.58405 -0.80673,-0.18994 -5.86712,-0.0891 -11.24533,0.22396 z"
         id="path3768"
         inkscape:connector-curvature="0"
         sodipodi:nodetypes="ccccsccsccccccccccscccccscsccscccccccccccccsccccssscccccccscccssccc" /></g></g></g></svg>