<?xml version="1.0" encoding="UTF-8" standalone="no"?>
<svg
   xmlns:dc="http://purl.org/dc/elements/1.1/"
   xmlns:cc="http://creativecommons.org/ns#"
   xmlns:rdf="http://www.w3.org/1999/02/22-rdf-syntax-ns#"
   xmlns:svg="http://www.w3.org/2000/svg"
   xmlns="http://www.w3.org/2000/svg"
   xmlns:sodipodi="http://sodipodi.sourceforge.net/DTD/sodipodi-0.dtd"
   xmlns:inkscape="http://www.inkscape.org/namespaces/inkscape"
   version="1.1"
   id="Layer_1"
   x="0px"
   y="0px"
   width="800"
   height="1000"
   viewBox="0 0 800 1000"
   enable-background="new 0 0 512 512"
   xml:space="preserve"
   inkscape:version="0.48.0 r9654"
   sodipodi:docname="dalhebrew-x5d3.svg"><title
   id="title3743">Sinai 357</title><metadata
   id="metadata72"><rdf:RDF><cc:Work
       rdf:about=""><dc:format>image/svg+xml</dc:format><dc:type
         rdf:resource="http://purl.org/dc/dcmitype/StillImage" /><dc:title>Sinai 357</dc:title><dc:date>2017</dc:date><dc:creator><cc:Agent><dc:title>Celeste Claire Horner</dc:title></cc:Agent></dc:creator><dc:publisher><cc:Agent><dc:title>beitdina.net</dc:title></cc:Agent></dc:publisher></cc:Work></rdf:RDF></metadata><defs
   id="defs70" /><sodipodi:namedview
   pagecolor="#ffffff"
   bordercolor="#666666"
   borderopacity="1"
   objecttolerance="10"
   gridtolerance="10"
   guidetolerance="10"
   inkscape:pageopacity="0"
   inkscape:pageshadow="2"
   inkscape:window-width="1152"
   inkscape:window-height="814"
   id="namedview68"
   showgrid="false"
   inkscape:zoom="0.22627416"
   inkscape:cx="-191.45311"
   inkscape:cy="798.82476"
   inkscape:window-x="-8"
   inkscape:window-y="-8"
   inkscape:window-maximized="1"
   inkscape:current-layer="Layer_1" />
   
	<g
   id="Grid"
   transform="matrix(1.5527409,0,0,-1.9463791,4.8939593,998.88336)">
		<rect
   x="0"
   stroke-miterlimit="10"
   width="512"
   height="512"
   id="rect4"
   y="0"
   style="fill:none;stroke:#a9ccdb;stroke-miterlimit:10" />
		<line
   stroke-miterlimit="10"
   x1="0"
   y1="32"
   x2="512"
   y2="32"
   id="line6"
   style="fill:none;stroke:#a9ccdb;stroke-miterlimit:10" />
		<line
   stroke-miterlimit="10"
   x1="0"
   y1="64"
   x2="512"
   y2="64"
   id="line8"
   style="fill:none;stroke:#a9ccdb;stroke-miterlimit:10" />
		<line
   stroke-miterlimit="10"
   x1="0"
   y1="96"
   x2="512"
   y2="96"
   id="line10"
   style="fill:none;stroke:#a9ccdb;stroke-miterlimit:10" />
		<line
   stroke-miterlimit="10"
   x1="0"
   y1="128"
   x2="512"
   y2="128"
   id="line12"
   style="fill:none;stroke:#a9ccdb;stroke-miterlimit:10" />
		<line
   stroke-miterlimit="10"
   x1="0"
   y1="160"
   x2="512"
   y2="160"
   id="line14"
   style="fill:none;stroke:#a9ccdb;stroke-miterlimit:10" />
		<line
   stroke-miterlimit="10"
   x1="0"
   y1="192"
   x2="512"
   y2="192"
   id="line16"
   style="fill:none;stroke:#a9ccdb;stroke-miterlimit:10" />
		<line
   stroke-miterlimit="10"
   x1="0"
   y1="224"
   x2="512"
   y2="224"
   id="line18"
   style="fill:none;stroke:#a9ccdb;stroke-miterlimit:10" />
		<line
   stroke-miterlimit="10"
   x1="0"
   y1="256"
   x2="512"
   y2="256"
   id="line20"
   style="fill:none;stroke:#a9ccdb;stroke-miterlimit:10" />
		<line
   stroke-miterlimit="10"
   x1="0"
   y1="288"
   x2="512"
   y2="288"
   id="line22"
   style="fill:none;stroke:#a9ccdb;stroke-miterlimit:10" />
		<line
   stroke-miterlimit="10"
   x1="0"
   y1="320"
   x2="512"
   y2="320"
   id="line24"
   style="fill:none;stroke:#a9ccdb;stroke-miterlimit:10" />
		<line
   stroke-miterlimit="10"
   x1="0"
   y1="352"
   x2="512"
   y2="352"
   id="line26"
   style="fill:none;stroke:#a9ccdb;stroke-miterlimit:10" />
		<line
   stroke-miterlimit="10"
   x1="0"
   y1="384"
   x2="512"
   y2="384"
   id="line28"
   style="fill:none;stroke:#a9ccdb;stroke-miterlimit:10" />
		<line
   stroke-miterlimit="10"
   x1="0"
   y1="416"
   x2="512"
   y2="416"
   id="line30"
   style="fill:none;stroke:#a9ccdb;stroke-miterlimit:10" />
		<line
   stroke-miterlimit="10"
   x1="0"
   y1="448"
   x2="512"
   y2="448"
   id="line32"
   style="fill:none;stroke:#ff0000;stroke-miterlimit:10" />
		<line
   stroke-miterlimit="10"
   x1="0"
   y1="480"
   x2="512"
   y2="480"
   id="line34"
   style="fill:none;stroke:#a9ccdb;stroke-miterlimit:10" />
		<line
   stroke-miterlimit="10"
   x1="32"
   y1="0"
   x2="32"
   y2="512"
   id="line36"
   style="fill:none;stroke:#a9ccdb;stroke-miterlimit:10" />
		<line
   stroke-miterlimit="10"
   x1="64"
   y1="0"
   x2="64"
   y2="512"
   id="line38"
   style="fill:none;stroke:#a9ccdb;stroke-miterlimit:10" />
		<line
   stroke-miterlimit="10"
   x1="96"
   y1="0"
   x2="96"
   y2="512"
   id="line40"
   style="fill:none;stroke:#a9ccdb;stroke-miterlimit:10" />
		<line
   stroke-miterlimit="10"
   x1="128"
   y1="0"
   x2="128"
   y2="512"
   id="line42"
   style="fill:none;stroke:#a9ccdb;stroke-miterlimit:10" />
		<line
   stroke-miterlimit="10"
   x1="160"
   y1="0"
   x2="160"
   y2="512"
   id="line44"
   style="fill:none;stroke:#a9ccdb;stroke-miterlimit:10" />
		<line
   stroke-miterlimit="10"
   x1="192"
   y1="0"
   x2="192"
   y2="512"
   id="line46"
   style="fill:none;stroke:#a9ccdb;stroke-miterlimit:10" />
		<line
   stroke-miterlimit="10"
   x1="224"
   y1="0"
   x2="224"
   y2="512"
   id="line48"
   style="fill:none;stroke:#a9ccdb;stroke-miterlimit:10" />
		<line
   stroke-miterlimit="10"
   x1="256"
   y1="0"
   x2="256"
   y2="512"
   id="line50"
   style="fill:none;stroke:#a9ccdb;stroke-miterlimit:10" />
		<line
   stroke-miterlimit="10"
   x1="288"
   y1="0"
   x2="288"
   y2="512"
   id="line52"
   style="fill:none;stroke:#a9ccdb;stroke-miterlimit:10" />
		<line
   stroke-miterlimit="10"
   x1="320"
   y1="0"
   x2="320"
   y2="512"
   id="line54"
   style="fill:none;stroke:#a9ccdb;stroke-miterlimit:10" />
		<line
   stroke-miterlimit="10"
   x1="352"
   y1="0"
   x2="352"
   y2="512"
   id="line56"
   style="fill:none;stroke:#a9ccdb;stroke-miterlimit:10" />
		<line
   stroke-miterlimit="10"
   x1="384"
   y1="0"
   x2="384"
   y2="512"
   id="line58"
   style="fill:none;stroke:#a9ccdb;stroke-miterlimit:10" />
		<line
   stroke-miterlimit="10"
   x1="416"
   y1="0"
   x2="416"
   y2="512"
   id="line60"
   style="fill:none;stroke:#a9ccdb;stroke-miterlimit:10" />
		<line
   stroke-miterlimit="10"
   x1="448"
   y1="0"
   x2="448"
   y2="512"
   id="line62"
   style="fill:none;stroke:#a9ccdb;stroke-miterlimit:10" />
		<line
   stroke-miterlimit="10"
   x1="480"
   y1="0"
   x2="480"
   y2="512"
   id="line64"
   style="fill:none;stroke:#a9ccdb;stroke-miterlimit:10" />
	</g>

	 
<path
   style="fill:#5a2309"
   d="m 533.43832,945.52039 c -2.34644,-1.90492 -3.10746,-4.15514 -3.55661,-6.41236 -0.50535,-2.53979 -0.61587,-5.08836 -2.14575,-7.16381 -3.4296,-18.08247 -4.99727,-36.65269 -7.65352,-55.79884 -6.14077,-44.33632 -10.75257,-84.77583 -20.55017,-125.03861 -9.7834,-40.40032 -18.57251,-108.06818 -24.68757,-144.20691 -5.06704,-29.94511 -17.17357,-23.10446 -25.30887,-45.56593 -3.84784,-12.74719 -7.16784,-26.46876 -12.01348,-37.52618 -11.3435,-13.11225 -7.0904,-38.92992 -15.74311,-43.41993 -51.09258,12.59066 -122.09078,8.81506 -178.36968,20.43085 -18.8876,4.89566 -27.0704,19.98375 -43.5899,21.14954 -11.9119,0.81676 -31.6674,5.47439 -33.0981,6.29917 -3.079,1.77505 -11.6627,-4.67903 -12.5844,-9.46215 -2.4538,-12.73441 -2.3504,-19.21943 0.4143,-25.97675 1.6083,-3.93083 3.352,-13.31665 3.8749,-20.85736 15.2715,-51.28541 44.0675,-78.32033 35.1546,-135.37364 1.2436,-9.38329 -4.6581,-16.46424 -4.9946,-24.29017 -0.7072,-7.78603 -2.1528,-15.38457 -3.8807,-22.25543 -1.5813,-16.73768 -7.9733,-30.95899 -11.7236,-46.08467 -2.442,-10.00332 -3.3965,-18.95862 -0.8492,-25.46502 3.2334,-6.70173 5.1372,-4.90313 9.4378,-5.14892 4.1656,0.17912 10.48,-0.6632 12.8872,2.05162 3.5878,4.46617 7.1915,2.44424 9.9014,2.40569 1.3504,-0.0191 3.9727,0.87899 5.6571,-0.82585 2.6311,-2.88965 4.6102,-0.25035 8.8289,-2.64988 3.5029,-1.19239 10.7672,2.01954 11.7272,4.87192 1.8645,4.38473 6.8866,1.89282 8.0937,1.3701 7.3933,-0.86201 7.9277,2.99211 12.4558,7.28718 4.4591,2.76774 5.2418,4.50576 6.5407,9.01974 2.2152,6.36234 3.4111,11.80635 5.1877,17.60628 0.6069,2.01433 0.736,4.58278 1.516,6.62251 2.1061,5.5078 3.8293,11.07259 3.8293,12.36618 5.5286,10.48373 6.1524,23.48435 5.4189,35.04546 -0.4635,7.0864 -1.2811,14.20371 -1.4509,21.26337 0.8901,6.12065 -0.384,11.18803 -1.3679,16.44613 -1.7138,9.20479 -0.049,16.96552 -2.3239,21.74703 -2.56,4.92933 -1.7857,7.65033 0.7381,10.44969 1.9558,2.16933 2.5688,5.42691 5.8883,8.75451 2.7052,2.46551 4.207,5.31323 5.3691,8.19613 1.8455,4.57788 20.6959,-18.31324 24.2873,-14.94729 10.30824,1.74922 20.2414,1.03157 29.5467,-1.15256 23.50502,-4.57717 47.8557,-22.21498 60.91405,-34.79461 1.70399,-4.06321 4.85053,-7.20405 8.65113,-9.86416 6.00034,-5.57315 15.25307,-9.97438 23.90191,-14.68361 2.72169,-1.48194 5.38358,-2.99438 7.86549,-4.58344 6.28827,-4.02609 11.42121,-8.54404 13.44431,-14.30393 1.37441,-4.01239 3.88271,-7.79903 5.57397,-8.41473 3.64769,-7.23794 12.82412,-13.05206 11.23656,-20.66286 -1.17428,-5.09054 -1.54023,-9.81827 1.73625,-13.7416 1.87687,-2.08884 3.93489,-4.30158 6.08684,-6.34113 3.60739,-3.41898 7.47872,-6.35131 11.20311,-7.3977 4.57367,-1.24955 9.1849,-1.54348 12.07547,-4.53033 5.31905,-5.47464 17.06162,-7.68039 23.81047,-2.13701 4.28772,1.52017 16.38943,1.30739 20.5973,2.55298 5.48919,2.04536 11.64691,5.0281 15.86062,9.93975 3.14477,3.66568 5.20672,8.40571 5.09986,14.63229 -0.15715,5.81902 1.08604,8.84138 6.83799,16.62425 4.63934,6.27742 0.41535,14.78166 2.58734,22.86322 1.81018,6.73535 3.83548,13.21731 4.50062,14.40437 0.66515,1.18706 1.59128,7.59034 2.05805,14.22948 0.46675,6.63915 1.89084,14.31574 3.16465,17.05912 3.96911,8.54825 3.50278,52.34898 -0.7242,68.02013 -0.80966,3.00172 -3.56591,7.17954 -6.12502,9.28402 -5.08748,4.1837 -3.76528,8.51035 -3.76528,18.26934 0,3.26844 1.36336,11.8838 3.0297,19.14528 0.80325,3.79176 0.12881,24.22535 0.30766,28.13599 16.51813,91.53993 10.11412,178.88806 14.75817,256.00645 1.22975,20.46307 2.27559,43.18269 5.26375,62.8708 3.39534,16.78708 3.02628,35.66165 -2.6222,51.05174 -2.37421,3.92668 -0.79637,7.22997 -0.44046,9.45509 0.37181,3.77697 0.03,9.0346 -1.14867,11.6324 1.16249,2.67886 0.88614,6.21887 0.43716,9.60478 -0.47196,3.55912 -1.13464,6.94798 -0.51743,8.98752 2.90696,9.56711 -2.38729,13.84326 -9.56598,19.48671 -8.56845,6.73596 -11.5729,10.83133 -14.243,10.83133 -3.853,1.58388 -8.80229,4.49866 -11.19749,7.81328 -1.42251,2.07131 -2.98719,3.89289 -5.26137,4.72285 -7.94853,3.11805 -12.2223,3.13679 -16.25393,0.071 z"
   id="path3771"
   inkscape:connector-curvature="0"
   sodipodi:nodetypes="cscccscccccsssccccccccscccccccscccccscsccccssccccsccccscsssssssscccccccscsccccc" /></svg>