<?xml version="1.0" encoding="UTF-8" standalone="no"?>
<svg
   xmlns:dc="http://purl.org/dc/elements/1.1/"
   xmlns:cc="http://creativecommons.org/ns#"
   xmlns:rdf="http://www.w3.org/1999/02/22-rdf-syntax-ns#"
   xmlns:svg="http://www.w3.org/2000/svg"
   xmlns="http://www.w3.org/2000/svg"
   xmlns:sodipodi="http://sodipodi.sourceforge.net/DTD/sodipodi-0.dtd"
   xmlns:inkscape="http://www.inkscape.org/namespaces/inkscape"
   version="1.1"
   id="Layer_1"
   x="0px"
   y="0px"
   width="800"
   height="1000"
   viewBox="0 0 800 1000"
   enable-background="new 0 0 512 512"
   xml:space="preserve"
   inkscape:version="0.48.0 r9654"
   sodipodi:docname="dalhebrew-x5d3.svg"><title
   id="title3743">Sinai 357</title><metadata
   id="metadata72"><rdf:RDF><cc:Work
       rdf:about=""><dc:format>image/svg+xml</dc:format><dc:type
         rdf:resource="http://purl.org/dc/dcmitype/StillImage" /><dc:title>Sinai 357</dc:title><dc:date>2017</dc:date><dc:creator><cc:Agent><dc:title>Celeste Claire Horner</dc:title></cc:Agent></dc:creator><dc:publisher><cc:Agent><dc:title>beitdina.net</dc:title></cc:Agent></dc:publisher></cc:Work></rdf:RDF></metadata><defs
   id="defs70" /><sodipodi:namedview
   pagecolor="#ffffff"
   bordercolor="#666666"
   borderopacity="1"
   objecttolerance="10"
   gridtolerance="10"
   guidetolerance="10"
   inkscape:pageopacity="0"
   inkscape:pageshadow="2"
   inkscape:window-width="1152"
   inkscape:window-height="814"
   id="namedview68"
   showgrid="false"
   inkscape:zoom="0.31999999"
   inkscape:cx="308.79973"
   inkscape:cy="395.63183"
   inkscape:window-x="-8"
   inkscape:window-y="-8"
   inkscape:window-maximized="1"
   inkscape:current-layer="Layer_1" />
   
	<g
   id="Grid"
   transform="matrix(1.5527409,0,0,1.9463791,4.8939593,2.3372608)">
		<rect
   x="0"
   stroke-miterlimit="10"
   width="512"
   height="512"
   id="rect4"
   y="0"
   style="fill:none;stroke:#a9ccdb;stroke-miterlimit:10" />
		<line
   stroke-miterlimit="10"
   x1="0"
   y1="32"
   x2="512"
   y2="32"
   id="line6"
   style="fill:none;stroke:#a9ccdb;stroke-miterlimit:10" />
		<line
   stroke-miterlimit="10"
   x1="0"
   y1="64"
   x2="512"
   y2="64"
   id="line8"
   style="fill:none;stroke:#a9ccdb;stroke-miterlimit:10" />
		<line
   stroke-miterlimit="10"
   x1="0"
   y1="96"
   x2="512"
   y2="96"
   id="line10"
   style="fill:none;stroke:#a9ccdb;stroke-miterlimit:10" />
		<line
   stroke-miterlimit="10"
   x1="0"
   y1="128"
   x2="512"
   y2="128"
   id="line12"
   style="fill:none;stroke:#a9ccdb;stroke-miterlimit:10" />
		<line
   stroke-miterlimit="10"
   x1="0"
   y1="160"
   x2="512"
   y2="160"
   id="line14"
   style="fill:none;stroke:#a9ccdb;stroke-miterlimit:10" />
		<line
   stroke-miterlimit="10"
   x1="0"
   y1="192"
   x2="512"
   y2="192"
   id="line16"
   style="fill:none;stroke:#a9ccdb;stroke-miterlimit:10" />
		<line
   stroke-miterlimit="10"
   x1="0"
   y1="224"
   x2="512"
   y2="224"
   id="line18"
   style="fill:none;stroke:#a9ccdb;stroke-miterlimit:10" />
		<line
   stroke-miterlimit="10"
   x1="0"
   y1="256"
   x2="512"
   y2="256"
   id="line20"
   style="fill:none;stroke:#a9ccdb;stroke-miterlimit:10" />
		<line
   stroke-miterlimit="10"
   x1="0"
   y1="288"
   x2="512"
   y2="288"
   id="line22"
   style="fill:none;stroke:#a9ccdb;stroke-miterlimit:10" />
		<line
   stroke-miterlimit="10"
   x1="0"
   y1="320"
   x2="512"
   y2="320"
   id="line24"
   style="fill:none;stroke:#a9ccdb;stroke-miterlimit:10" />
		<line
   stroke-miterlimit="10"
   x1="0"
   y1="352"
   x2="512"
   y2="352"
   id="line26"
   style="fill:none;stroke:#a9ccdb;stroke-miterlimit:10" />
		<line
   stroke-miterlimit="10"
   x1="0"
   y1="384"
   x2="512"
   y2="384"
   id="line28"
   style="fill:none;stroke:#a9ccdb;stroke-miterlimit:10" />
		<line
   stroke-miterlimit="10"
   x1="0"
   y1="416"
   x2="512"
   y2="416"
   id="line30"
   style="fill:none;stroke:#a9ccdb;stroke-miterlimit:10" />
		<line
   stroke-miterlimit="10"
   x1="0"
   y1="448"
   x2="512"
   y2="448"
   id="line32"
   style="fill:none;stroke:#ff0000;stroke-miterlimit:10" />
		<line
   stroke-miterlimit="10"
   x1="0"
   y1="480"
   x2="512"
   y2="480"
   id="line34"
   style="fill:none;stroke:#a9ccdb;stroke-miterlimit:10" />
		<line
   stroke-miterlimit="10"
   x1="32"
   y1="0"
   x2="32"
   y2="512"
   id="line36"
   style="fill:none;stroke:#a9ccdb;stroke-miterlimit:10" />
		<line
   stroke-miterlimit="10"
   x1="64"
   y1="0"
   x2="64"
   y2="512"
   id="line38"
   style="fill:none;stroke:#a9ccdb;stroke-miterlimit:10" />
		<line
   stroke-miterlimit="10"
   x1="96"
   y1="0"
   x2="96"
   y2="512"
   id="line40"
   style="fill:none;stroke:#a9ccdb;stroke-miterlimit:10" />
		<line
   stroke-miterlimit="10"
   x1="128"
   y1="0"
   x2="128"
   y2="512"
   id="line42"
   style="fill:none;stroke:#a9ccdb;stroke-miterlimit:10" />
		<line
   stroke-miterlimit="10"
   x1="160"
   y1="0"
   x2="160"
   y2="512"
   id="line44"
   style="fill:none;stroke:#a9ccdb;stroke-miterlimit:10" />
		<line
   stroke-miterlimit="10"
   x1="192"
   y1="0"
   x2="192"
   y2="512"
   id="line46"
   style="fill:none;stroke:#a9ccdb;stroke-miterlimit:10" />
		<line
   stroke-miterlimit="10"
   x1="224"
   y1="0"
   x2="224"
   y2="512"
   id="line48"
   style="fill:none;stroke:#a9ccdb;stroke-miterlimit:10" />
		<line
   stroke-miterlimit="10"
   x1="256"
   y1="0"
   x2="256"
   y2="512"
   id="line50"
   style="fill:none;stroke:#a9ccdb;stroke-miterlimit:10" />
		<line
   stroke-miterlimit="10"
   x1="288"
   y1="0"
   x2="288"
   y2="512"
   id="line52"
   style="fill:none;stroke:#a9ccdb;stroke-miterlimit:10" />
		<line
   stroke-miterlimit="10"
   x1="320"
   y1="0"
   x2="320"
   y2="512"
   id="line54"
   style="fill:none;stroke:#a9ccdb;stroke-miterlimit:10" />
		<line
   stroke-miterlimit="10"
   x1="352"
   y1="0"
   x2="352"
   y2="512"
   id="line56"
   style="fill:none;stroke:#a9ccdb;stroke-miterlimit:10" />
		<line
   stroke-miterlimit="10"
   x1="384"
   y1="0"
   x2="384"
   y2="512"
   id="line58"
   style="fill:none;stroke:#a9ccdb;stroke-miterlimit:10" />
		<line
   stroke-miterlimit="10"
   x1="416"
   y1="0"
   x2="416"
   y2="512"
   id="line60"
   style="fill:none;stroke:#a9ccdb;stroke-miterlimit:10" />
		<line
   stroke-miterlimit="10"
   x1="448"
   y1="0"
   x2="448"
   y2="512"
   id="line62"
   style="fill:none;stroke:#a9ccdb;stroke-miterlimit:10" />
		<line
   stroke-miterlimit="10"
   x1="480"
   y1="0"
   x2="480"
   y2="512"
   id="line64"
   style="fill:none;stroke:#a9ccdb;stroke-miterlimit:10" />
	</g>
<path
   style="fill:#5a2309"
   d="m 617.26257,186.05904 c -3.20207,1.9314 -4.24059,4.21291 -4.85353,6.50148 -0.68963,2.57508 -0.84044,5.1591 -2.9282,7.26345 -2.5669,2.65767 -3.3907,7.74959 -3.3907,20.95776 -10.51367,44.5246 -23.6122,96.2599 -37.54881,144.89516 -27.33597,60.56702 -22.7764,124.57231 -49.44986,179.28883 -9.38257,23.45584 -20.6021,31.56067 -35.45689,49.99849 -19.46025,38.23057 -68.87217,9.30275 -114.0539,-1.64151 -24.39473,-6.29529 -49.91227,-15.05102 -71.83041,-24.27583 -45.90237,-18.43356 -95.71585,-38.14472 -134.51159,-40.17886 -16.25557,-0.82811 -31.15299,-2.18984 -33.10536,-3.02609 -4.20177,-1.79973 -15.9156,4.74408 -17.17335,9.59369 -3.34858,12.91143 -3.20742,19.48661 0.56542,26.33786 2.19472,3.98548 4.57423,13.50177 5.28779,21.14731 20.84027,51.99835 49.58263,104.05378 37.4196,161.90021 1.69709,9.51373 -6.35665,16.69312 -6.81587,24.62784 -0.96507,7.89427 -2.93784,15.59844 -5.29585,22.56481 -2.15792,16.97036 -10.88073,31.38937 -15.9986,46.72531 -3.33244,10.14238 -4.63497,19.22218 -1.15881,25.81902 4.41238,6.7949 7.01048,4.97129 12.87925,5.2205 5.68466,-0.18161 14.30159,0.67242 17.58658,-2.08014 4.8961,-4.52826 9.81384,-2.47822 13.5119,-2.43913 1.84281,0.0194 5.42131,-0.89121 7.71995,0.83733 3.59052,2.92982 6.29134,0.25383 12.04834,2.68672 4.78026,1.20896 14.69346,-2.04762 16.00355,-4.93965 2.54444,-4.44569 9.39783,-1.91913 11.04515,-1.38915 10.08918,0.874 10.81851,-3.0337 16.99774,-7.38848 6.08515,-2.80622 7.15329,-4.5684 8.92582,-9.14513 3.02288,-6.45078 4.6549,-11.97047 7.07938,-17.85103 0.82814,-2.04233 1.00434,-4.64649 2.06875,-6.71457 2.87414,-5.58437 5.22573,-11.22652 5.22573,-12.53809 7.54453,-10.62947 8.39579,-23.81081 7.39484,-35.53264 -0.63252,-7.18491 -1.74825,-14.40116 -1.97995,-21.55896 1.21464,-6.20574 -0.52401,-11.34356 -1.86668,-16.67476 -2.33868,-9.33274 -4.59019,-21.68221 -7.69458,-26.53019 -3.49342,-4.99785 -2.43675,-7.75668 1.00731,-10.59495 2.66895,-2.19949 3.50554,-5.50235 8.03546,-8.87621 3.69162,-2.49979 5.74102,-5.38709 7.32697,-8.31007 2.51838,-4.64152 7.13425,-8.31731 12.03532,-11.73005 2.09382,-1.39792 4.65546,-2.04944 7.78683,-2.04944 53.61566,13.8726 83.3701,34.21329 136.44309,56.49362 6.73519,-1.29781 12.02673,1.77021 24.42888,14.16379 7.71202,7.70669 14.02187,15.00727 14.02187,16.22353 0,1.21625 4.1398,3.35659 9.19957,4.75631 7.30284,2.02025 9.90263,4.06995 12.60976,9.94165 1.87559,4.06817 5.29854,7.90745 7.60652,8.53171 4.97782,7.33856 8.454,19.95479 6.28753,27.67139 -1.60248,5.1613 -2.10188,9.95475 2.36938,13.93262 2.56127,2.11788 5.36975,4.36138 8.30641,6.42928 4.92282,3.46651 10.20584,6.43961 15.28832,7.50054 6.24146,1.26692 12.53418,1.56494 16.4788,4.59331 7.25865,5.55075 8.20576,5.54673 17.41557,-0.0737 5.85125,-1.5413 11.81167,-2.44577 17.55394,-3.70868 7.49083,-2.07379 15.89396,-5.098 21.6442,-10.07793 4.29152,-3.71663 7.10536,-8.52256 6.95953,-14.83569 -0.21446,-5.89992 1.48206,-8.96429 9.33147,-16.85536 6.33107,-6.36468 11.12099,-13.86693 14.08499,-22.06084 2.47027,-6.82898 5.23409,-13.40105 6.14177,-14.60461 0.9077,-1.20356 2.17155,-7.69585 2.80852,-14.42729 0.63696,-6.73144 2.58034,-14.51475 4.31865,-17.29626 5.41645,-8.66709 4.78006,-53.07671 -0.98829,-68.96571 -1.1049,-3.04345 -4.86622,-7.27935 -8.35851,-9.41308 -6.94263,-4.24186 -5.13828,-8.62866 -5.13828,-18.52331 0,-3.31388 1.86051,-12.049 4.13448,-19.41143 26.55876,-93.14724 22.10568,-173.97257 48.52465,-259.53225 1.81899,-5.35103 5.99349,-23.16494 9.27661,-39.58648 5.03265,-25.17229 8.73914,-32.88295 5.82304,-38.01258 -3.23997,-3.98127 -1.08676,-7.33048 -0.60108,-9.58653 0.5074,-3.82948 0.0409,-9.1602 -1.56753,-11.79411 1.5864,-2.7161 1.20928,-6.30532 0.59657,-9.7383 -0.64405,-3.6086 -1.54839,-7.04457 -0.70611,-9.11245 3.96699,-9.70012 -3.25781,-14.03572 -13.05421,-19.7576 -11.69294,-6.82962 -15.79297,-10.98186 -19.43672,-10.98186 -5.258,-1.60596 -12.01206,-4.5612 -15.28066,-7.92198 -1.94123,-2.10006 -4.07648,-3.94699 -7.17994,-4.78849 -10.84696,-3.16138 -16.67917,-3.18034 -22.18093,-0.072 z"
   id="path3771"
   inkscape:connector-curvature="0"
   sodipodi:nodetypes="csccccccccsssccccccccscccccccscccccscscccsssscccsccccscssssssssccscccscsccccc" />
	 
</svg>