<?xml version="1.0" encoding="UTF-8" standalone="no"?>
<svg
   xmlns:dc="http://purl.org/dc/elements/1.1/"
   xmlns:cc="http://creativecommons.org/ns#"
   xmlns:rdf="http://www.w3.org/1999/02/22-rdf-syntax-ns#"
   xmlns:svg="http://www.w3.org/2000/svg"
   xmlns="http://www.w3.org/2000/svg"
   xmlns:sodipodi="http://sodipodi.sourceforge.net/DTD/sodipodi-0.dtd"
   xmlns:inkscape="http://www.inkscape.org/namespaces/inkscape"
   version="1.1"
   id="Layer_1"
   x="0px"
   y="0px"
   width="1024"
   height="1024"
   viewBox="0 0 1024 1024"
   enable-background="new 0 0 512 512"
   xml:space="preserve"
   inkscape:version="0.48.0 r9654"
   sodipodi:docname="finalkafhebrew-x5da.svg"><title
   id="title3743">Sinai 357</title><metadata
   id="metadata72"><rdf:RDF><cc:Work
       rdf:about=""><dc:format>image/svg+xml</dc:format><dc:type
         rdf:resource="http://purl.org/dc/dcmitype/StillImage" /><dc:title>Sinai 357</dc:title><dc:date>2017</dc:date><dc:creator><cc:Agent><dc:title>Celeste Claire Horner</dc:title></cc:Agent></dc:creator><dc:publisher><cc:Agent><dc:title>beitdina.net</dc:title></cc:Agent></dc:publisher></cc:Work></rdf:RDF></metadata><defs
   id="defs70" /><sodipodi:namedview
   pagecolor="#ffffff"
   bordercolor="#666666"
   borderopacity="1"
   objecttolerance="10"
   gridtolerance="10"
   guidetolerance="10"
   inkscape:pageopacity="0"
   inkscape:pageshadow="2"
   inkscape:window-width="1152"
   inkscape:window-height="814"
   id="namedview68"
   showgrid="false"
   inkscape:zoom="0.36045873"
   inkscape:cx="795.36873"
   inkscape:cy="657.11518"
   inkscape:window-x="-8"
   inkscape:window-y="-8"
   inkscape:window-maximized="1"
   inkscape:current-layer="Layer_1" />
   
	<g
   id="Grid"
   transform="matrix(2.0004581,0,0,2.0004578,0.50019527,4.813853)">
		<rect
   x="0"
   stroke-miterlimit="10"
   width="512"
   height="512"
   id="rect4"
   y="0"
   style="fill:none;stroke:#a9ccdb;stroke-miterlimit:10" />
		<line
   stroke-miterlimit="10"
   x1="0"
   y1="32"
   x2="512"
   y2="32"
   id="line6"
   style="fill:none;stroke:#a9ccdb;stroke-miterlimit:10" />
		<line
   stroke-miterlimit="10"
   x1="0"
   y1="64"
   x2="512"
   y2="64"
   id="line8"
   style="fill:none;stroke:#a9ccdb;stroke-miterlimit:10" />
		<line
   stroke-miterlimit="10"
   x1="0"
   y1="96"
   x2="512"
   y2="96"
   id="line10"
   style="fill:none;stroke:#a9ccdb;stroke-miterlimit:10" />
		<line
   stroke-miterlimit="10"
   x1="0"
   y1="128"
   x2="512"
   y2="128"
   id="line12"
   style="fill:none;stroke:#a9ccdb;stroke-miterlimit:10" />
		<line
   stroke-miterlimit="10"
   x1="0"
   y1="160"
   x2="512"
   y2="160"
   id="line14"
   style="fill:none;stroke:#a9ccdb;stroke-miterlimit:10" />
		<line
   stroke-miterlimit="10"
   x1="0"
   y1="192"
   x2="512"
   y2="192"
   id="line16"
   style="fill:none;stroke:#a9ccdb;stroke-miterlimit:10" />
		<line
   stroke-miterlimit="10"
   x1="0"
   y1="224"
   x2="512"
   y2="224"
   id="line18"
   style="fill:none;stroke:#a9ccdb;stroke-miterlimit:10" />
		<line
   stroke-miterlimit="10"
   x1="0"
   y1="256"
   x2="512"
   y2="256"
   id="line20"
   style="fill:none;stroke:#a9ccdb;stroke-miterlimit:10" />
		<line
   stroke-miterlimit="10"
   x1="0"
   y1="288"
   x2="512"
   y2="288"
   id="line22"
   style="fill:none;stroke:#a9ccdb;stroke-miterlimit:10" />
		<line
   stroke-miterlimit="10"
   x1="0"
   y1="320"
   x2="512"
   y2="320"
   id="line24"
   style="fill:none;stroke:#a9ccdb;stroke-miterlimit:10" />
		<line
   stroke-miterlimit="10"
   x1="0"
   y1="352"
   x2="512"
   y2="352"
   id="line26"
   style="fill:none;stroke:#a9ccdb;stroke-miterlimit:10" />
		<line
   stroke-miterlimit="10"
   x1="0"
   y1="384"
   x2="512"
   y2="384"
   id="line28"
   style="fill:none;stroke:#a9ccdb;stroke-miterlimit:10" />
		<line
   stroke-miterlimit="10"
   x1="0"
   y1="416"
   x2="512"
   y2="416"
   id="line30"
   style="fill:none;stroke:#a9ccdb;stroke-miterlimit:10" />
		<line
   stroke-miterlimit="10"
   x1="0"
   y1="448"
   x2="512"
   y2="448"
   id="line32"
   style="fill:none;stroke:#ff0000;stroke-miterlimit:10" />
		<line
   stroke-miterlimit="10"
   x1="0"
   y1="480"
   x2="512"
   y2="480"
   id="line34"
   style="fill:none;stroke:#a9ccdb;stroke-miterlimit:10" />
		<line
   stroke-miterlimit="10"
   x1="32"
   y1="0"
   x2="32"
   y2="512"
   id="line36"
   style="fill:none;stroke:#a9ccdb;stroke-miterlimit:10" />
		<line
   stroke-miterlimit="10"
   x1="64"
   y1="0"
   x2="64"
   y2="512"
   id="line38"
   style="fill:none;stroke:#a9ccdb;stroke-miterlimit:10" />
		<line
   stroke-miterlimit="10"
   x1="96"
   y1="0"
   x2="96"
   y2="512"
   id="line40"
   style="fill:none;stroke:#a9ccdb;stroke-miterlimit:10" />
		<line
   stroke-miterlimit="10"
   x1="128"
   y1="0"
   x2="128"
   y2="512"
   id="line42"
   style="fill:none;stroke:#a9ccdb;stroke-miterlimit:10" />
		<line
   stroke-miterlimit="10"
   x1="160"
   y1="0"
   x2="160"
   y2="512"
   id="line44"
   style="fill:none;stroke:#a9ccdb;stroke-miterlimit:10" />
		<line
   stroke-miterlimit="10"
   x1="192"
   y1="0"
   x2="192"
   y2="512"
   id="line46"
   style="fill:none;stroke:#a9ccdb;stroke-miterlimit:10" />
		<line
   stroke-miterlimit="10"
   x1="224"
   y1="0"
   x2="224"
   y2="512"
   id="line48"
   style="fill:none;stroke:#a9ccdb;stroke-miterlimit:10" />
		<line
   stroke-miterlimit="10"
   x1="256"
   y1="0"
   x2="256"
   y2="512"
   id="line50"
   style="fill:none;stroke:#a9ccdb;stroke-miterlimit:10" />
		<line
   stroke-miterlimit="10"
   x1="288"
   y1="0"
   x2="288"
   y2="512"
   id="line52"
   style="fill:none;stroke:#a9ccdb;stroke-miterlimit:10" />
		<line
   stroke-miterlimit="10"
   x1="320"
   y1="0"
   x2="320"
   y2="512"
   id="line54"
   style="fill:none;stroke:#a9ccdb;stroke-miterlimit:10" />
		<line
   stroke-miterlimit="10"
   x1="352"
   y1="0"
   x2="352"
   y2="512"
   id="line56"
   style="fill:none;stroke:#a9ccdb;stroke-miterlimit:10" />
		<line
   stroke-miterlimit="10"
   x1="384"
   y1="0"
   x2="384"
   y2="512"
   id="line58"
   style="fill:none;stroke:#a9ccdb;stroke-miterlimit:10" />
		<line
   stroke-miterlimit="10"
   x1="416"
   y1="0"
   x2="416"
   y2="512"
   id="line60"
   style="fill:none;stroke:#a9ccdb;stroke-miterlimit:10" />
		<line
   stroke-miterlimit="10"
   x1="448"
   y1="0"
   x2="448"
   y2="512"
   id="line62"
   style="fill:none;stroke:#a9ccdb;stroke-miterlimit:10" />
		<line
   stroke-miterlimit="10"
   x1="480"
   y1="0"
   x2="480"
   y2="512"
   id="line64"
   style="fill:none;stroke:#a9ccdb;stroke-miterlimit:10" />
	</g>
	<path
   style="fill:#9f4b11"
   d="m 506.79756,142.47241 0,6.08029 -10.69236,0 c -10.54909,0.26915 -21.17786,-16.42492 -17.83588,7.57826 0.60159,4.06539 -0.83119,3.30596 0.0113,6.26915 l 1.67138,5.90389 2.34186,8.55156 3.1225,4.33452 3.37654,5.06046 c 1.9307,2.89356 3.37654,0.13511 3.37654,6.08029 8.50178,46.75677 -8.1477,113.91903 -25.05255,176.86539 -14.24977,54.38819 -18.04758,63.23341 -26.7802,116.90933 -2.71102,16.66428 -18.31512,68.50684 -20.04436,90.56941 -0.76444,10.36044 -3.66838,12.49632 -3.66838,23.95741 l -4.29338,14.50274 c -2.91541,2.67551 -1.99519,5.66874 -3.35515,9.68805 -0.82263,2.43124 -0.59472,6.88354 -2.14781,8.73663 -4.21684,3.56694 -3.50079,3.20867 -7.47858,7.26594 -3.39555,3.50515 -5.95441,8.00516 -8.41725,11.32338 -7.44875,9.97294 -17.75214,22.77676 -24.2056,33.55396 -3.24147,4.96428 -5.83082,8.50469 -7.85562,12.70638 -0.94847,1.96816 -1.77291,4.0814 -2.48254,6.55406 -1.11009,2.17734 -2.12519,4.0407 -3.61109,5.46463 -2.37056,1.60628 -4.56621,3.16149 -6.82893,3.87775 -2.05024,0.64901 -4.15551,0.60918 -6.49567,-0.70566 -2.44855,-1.40788 -4.22247,-3.78986 -7.14306,-6.2725 -6.02701,-2.95465 -13.04536,-5.91388 -18.7364,-6.80457 -8.70324,-1.29979 -18.26762,-1.09565 -27.93487,-1.09565 l -19.60202,0 c -5.9489,0.5182 -6.71278,-3.1615 -10.12894,-6.461 -4.70711,-4.55368 -14.96604,-11.88121 -20.33259,-16.03525 -3.50991,-2.02073 -5.39256,-2.51892 -9.55673,-3.04099 l -24.23035,0 c -26.16174,0.57195 -57.23453,-6.09389 -76.53481,-6.0803 l -13.92709,0 c -2.6669,0.2463 -3.08176,0.57437 -4.0811,3.04015 -1.12473,2.77509 -0.0371,3.04015 -10.692366,3.04015 -10.654884,0 -10.692363,0.0109 -10.692363,3.04015 0,2.55063 -0.530679,3.04015 -3.295612,3.04015 -3.150532,0 -3.329601,0.29434 -4.06895,6.68832 -0.274512,2.37379 -0.47339,3.9072 -0.775028,4.89694 -1.102551,2.97546 -0.644468,8.41249 0.989663,11.34191 2.364588,3.98227 4.601205,9.50877 6.159026,12.87634 3.939517,8.56639 8.131824,17.94865 12.841753,25.22766 1.993394,3.08083 3.759207,6.82336 6.157337,8.2842 l 3.37654,0 0.27046,10.03249 c 0.14879,5.51787 0.27541,13.86307 0.28138,18.5449 0.4224,3.48566 1.10761,5.31313 2.58473,6.65227 1.08432,0.98299 2.59543,1.70285 4.74235,2.62227 l 0,15.73172 c 0.8349,8.53906 2.97439,15.54016 6.74193,21.95808 7.5353,14.74715 10.46186,23.65092 19.57715,34.31645 3.52027,3.65034 8.08951,8.28552 10.28212,11.72804 1.95433,4.58459 11.16744,8.10807 12.21326,11.52319 0,2.93102 0.26258,3.04015 7.31583,3.04015 7.05313,0 7.31583,-0.53079 7.31583,-3.46185 4.0811,-3.65309 7.69884,-8.28967 10.21098,-12.45853 2.32609,-3.39595 5.01562,-6.60706 7.77357,-9.7505 3.86355,-4.97172 7.49827,-10.74767 12.06887,-16.7807 3.96878,-5.23853 13.7587,-11.51429 14.95276,-16.78224 0.38369,-2.50812 0.70322,-8.254 0.70997,-12.76862 l 0.0124,-8.2084 6.63174,0 c 11.14201,1.53106 7.53317,-13.61004 8.2428,-24.32118 l 3.2551,0 c 3.19521,0 3.25509,-0.12299 3.25509,-6.68833 0,-6.62076 0.0338,-6.68832 3.37653,-6.68832 2.85138,0 3.37654,-0.47292 3.37654,-3.04015 0,-3.04015 0,-3.04015 11.25512,-3.04015 l 11.25512,0 c 1.8482,1.60783 3.92196,4.59183 6.02666,7.26013 4.16699,6.23572 10.08527,5.80185 15.40038,5.96568 3.19117,0.0947 7.24853,0.15084 12.4171,0.15084 6.67181,-0.0945 12.10443,-0.17907 16.33962,0.0355 8.21871,-0.59544 11.66312,5.13305 15.74512,10.98792 4.8468,6.96659 9.56539,14.55601 14.0178,21.77523 8.79971,12.01376 22.51193,37.16945 33.80881,52.25077 3.0561,4.07988 4.40063,7.42249 7.26607,9.56816 3.13411,2.07377 3.187,3.85796 6.16128,3.88317 2.62627,0 3.37654,-0.54047 3.37654,-2.43212 0,-1.96886 0.75038,-2.43212 3.93929,-2.43212 3.10866,0 3.93929,0.48328 3.93929,2.29201 0,1.8653 1.14881,2.44707 6.17073,3.12499 11.85131,-1.73053 17.42405,-16.73602 29.2829,-18.14075 6.77333,-0.7837 7.31582,-1.06477 7.31582,-3.78983 7.88534,-0.0522 29.16404,-17.45274 29.26331,-18.75213 -0.027,-1.38672 1.55107,-4.13143 2.79285,-6.75862 4.52568,-9.57555 12.66943,-24.31153 16.14805,-32.74648 1.17324,-2.16545 1.90516,-4.14754 2.34501,-6.09174 1.2734,-5.62862 0.099,-10.9396 0.099,-19.46233 l 0,-11.62373 c 0.6743,-6.26901 -0.23332,-7.427 -4.48055,-11.10167 -6.70197,-3.78471 -11.91748,-12.37181 -18.13413,-18.50465 -4.99334,-3.69637 -5.51231,-7.82089 -5.52311,-11.84219 l 0,-9.84025 c -1.28399,-5.13312 1.58933,-5.8 3.65217,-8.3817 3.70327,-4.84801 5.39649,-17.47036 9.62673,-25.67701 18.84771,-36.56528 43.65005,-123.28972 55.93175,-190.70736 14.39833,-41.61172 21.64719,-80.8824 24.49508,-119.89539 3.78217,-54.96258 2.5862,-104.6456 -1.28871,-155.74065 -1.4401,-16.67296 -11.06682,-32.79006 -16.8568,-37.84168 -12.31613,-9.11998 -22.38868,-20.92254 -34.10762,-30.24557 -1.65473,-1.2602 -3.53174,-0.63508 -7.10299,-0.63909 l -6.21182,0.29819 c 0,2.02675 0,4.05362 0,6.0803 z"
   id="path3767"
   inkscape:connector-curvature="0"
   sodipodi:nodetypes="ccccscccsccscccsccccsccsccccccccccccsssscccsccscsccccccscccscccccssssscccccccsccsssccccscscccccccsccccccccc" />
</svg>