<?xml version="1.0" encoding="UTF-8" standalone="no"?>
<svg
   xmlns:dc="http://purl.org/dc/elements/1.1/"
   xmlns:cc="http://creativecommons.org/ns#"
   xmlns:rdf="http://www.w3.org/1999/02/22-rdf-syntax-ns#"
   xmlns:svg="http://www.w3.org/2000/svg"
   xmlns="http://www.w3.org/2000/svg"
   xmlns:sodipodi="http://sodipodi.sourceforge.net/DTD/sodipodi-0.dtd"
   xmlns:inkscape="http://www.inkscape.org/namespaces/inkscape"
   version="1.1"
   id="Layer_1"
   x="0px"
   y="0px"
   width="1024"
   height="1024"
   viewBox="0 0 1024 1024"
   enable-background="new 0 0 512 512"
   xml:space="preserve"
   inkscape:version="0.48.0 r9654"
   sodipodi:docname="finalmemhebrew-x5dd.svg"><title
   id="title3743">Sinai 357</title><metadata
   id="metadata72"><rdf:RDF><cc:Work
       rdf:about=""><dc:format>image/svg+xml</dc:format><dc:type
         rdf:resource="http://purl.org/dc/dcmitype/StillImage" /><dc:title>Sinai 357</dc:title><dc:date>2017</dc:date><dc:creator><cc:Agent><dc:title>Celeste Claire Horner</dc:title></cc:Agent></dc:creator><dc:publisher><cc:Agent><dc:title>beitdina.net</dc:title></cc:Agent></dc:publisher></cc:Work></rdf:RDF></metadata><defs
   id="defs70" /><sodipodi:namedview
   pagecolor="#ffffff"
   bordercolor="#666666"
   borderopacity="1"
   objecttolerance="10"
   gridtolerance="10"
   guidetolerance="10"
   inkscape:pageopacity="0"
   inkscape:pageshadow="2"
   inkscape:window-width="1152"
   inkscape:window-height="814"
   id="namedview68"
   showgrid="false"
   inkscape:zoom="0.36774845"
   inkscape:cx="426.97158"
   inkscape:cy="468.37841"
   inkscape:window-x="-8"
   inkscape:window-y="-8"
   inkscape:window-maximized="1"
   inkscape:current-layer="Layer_1" />
   
	<g
   id="Grid"
   transform="matrix(2.0004581,0,0,2.0004578,0.50019527,4.813853)">
		<rect
   x="0"
   stroke-miterlimit="10"
   width="512"
   height="512"
   id="rect4"
   y="0"
   style="fill:none;stroke:#a9ccdb;stroke-miterlimit:10" />
		<line
   stroke-miterlimit="10"
   x1="0"
   y1="32"
   x2="512"
   y2="32"
   id="line6"
   style="fill:none;stroke:#a9ccdb;stroke-miterlimit:10" />
		<line
   stroke-miterlimit="10"
   x1="0"
   y1="64"
   x2="512"
   y2="64"
   id="line8"
   style="fill:none;stroke:#a9ccdb;stroke-miterlimit:10" />
		<line
   stroke-miterlimit="10"
   x1="0"
   y1="96"
   x2="512"
   y2="96"
   id="line10"
   style="fill:none;stroke:#a9ccdb;stroke-miterlimit:10" />
		<line
   stroke-miterlimit="10"
   x1="0"
   y1="128"
   x2="512"
   y2="128"
   id="line12"
   style="fill:none;stroke:#a9ccdb;stroke-miterlimit:10" />
		<line
   stroke-miterlimit="10"
   x1="0"
   y1="160"
   x2="512"
   y2="160"
   id="line14"
   style="fill:none;stroke:#a9ccdb;stroke-miterlimit:10" />
		<line
   stroke-miterlimit="10"
   x1="0"
   y1="192"
   x2="512"
   y2="192"
   id="line16"
   style="fill:none;stroke:#a9ccdb;stroke-miterlimit:10" />
		<line
   stroke-miterlimit="10"
   x1="0"
   y1="224"
   x2="512"
   y2="224"
   id="line18"
   style="fill:none;stroke:#a9ccdb;stroke-miterlimit:10" />
		<line
   stroke-miterlimit="10"
   x1="0"
   y1="256"
   x2="512"
   y2="256"
   id="line20"
   style="fill:none;stroke:#a9ccdb;stroke-miterlimit:10" />
		<line
   stroke-miterlimit="10"
   x1="0"
   y1="288"
   x2="512"
   y2="288"
   id="line22"
   style="fill:none;stroke:#a9ccdb;stroke-miterlimit:10" />
		<line
   stroke-miterlimit="10"
   x1="0"
   y1="320"
   x2="512"
   y2="320"
   id="line24"
   style="fill:none;stroke:#a9ccdb;stroke-miterlimit:10" />
		<line
   stroke-miterlimit="10"
   x1="0"
   y1="352"
   x2="512"
   y2="352"
   id="line26"
   style="fill:none;stroke:#a9ccdb;stroke-miterlimit:10" />
		<line
   stroke-miterlimit="10"
   x1="0"
   y1="384"
   x2="512"
   y2="384"
   id="line28"
   style="fill:none;stroke:#a9ccdb;stroke-miterlimit:10" />
		<line
   stroke-miterlimit="10"
   x1="0"
   y1="416"
   x2="512"
   y2="416"
   id="line30"
   style="fill:none;stroke:#a9ccdb;stroke-miterlimit:10" />
		<line
   stroke-miterlimit="10"
   x1="0"
   y1="448"
   x2="512"
   y2="448"
   id="line32"
   style="fill:none;stroke:#ff0000;stroke-miterlimit:10" />
		<line
   stroke-miterlimit="10"
   x1="0"
   y1="480"
   x2="512"
   y2="480"
   id="line34"
   style="fill:none;stroke:#a9ccdb;stroke-miterlimit:10" />
		<line
   stroke-miterlimit="10"
   x1="32"
   y1="0"
   x2="32"
   y2="512"
   id="line36"
   style="fill:none;stroke:#a9ccdb;stroke-miterlimit:10" />
		<line
   stroke-miterlimit="10"
   x1="64"
   y1="0"
   x2="64"
   y2="512"
   id="line38"
   style="fill:none;stroke:#a9ccdb;stroke-miterlimit:10" />
		<line
   stroke-miterlimit="10"
   x1="96"
   y1="0"
   x2="96"
   y2="512"
   id="line40"
   style="fill:none;stroke:#a9ccdb;stroke-miterlimit:10" />
		<line
   stroke-miterlimit="10"
   x1="128"
   y1="0"
   x2="128"
   y2="512"
   id="line42"
   style="fill:none;stroke:#a9ccdb;stroke-miterlimit:10" />
		<line
   stroke-miterlimit="10"
   x1="160"
   y1="0"
   x2="160"
   y2="512"
   id="line44"
   style="fill:none;stroke:#a9ccdb;stroke-miterlimit:10" />
		<line
   stroke-miterlimit="10"
   x1="192"
   y1="0"
   x2="192"
   y2="512"
   id="line46"
   style="fill:none;stroke:#a9ccdb;stroke-miterlimit:10" />
		<line
   stroke-miterlimit="10"
   x1="224"
   y1="0"
   x2="224"
   y2="512"
   id="line48"
   style="fill:none;stroke:#a9ccdb;stroke-miterlimit:10" />
		<line
   stroke-miterlimit="10"
   x1="256"
   y1="0"
   x2="256"
   y2="512"
   id="line50"
   style="fill:none;stroke:#a9ccdb;stroke-miterlimit:10" />
		<line
   stroke-miterlimit="10"
   x1="288"
   y1="0"
   x2="288"
   y2="512"
   id="line52"
   style="fill:none;stroke:#a9ccdb;stroke-miterlimit:10" />
		<line
   stroke-miterlimit="10"
   x1="320"
   y1="0"
   x2="320"
   y2="512"
   id="line54"
   style="fill:none;stroke:#a9ccdb;stroke-miterlimit:10" />
		<line
   stroke-miterlimit="10"
   x1="352"
   y1="0"
   x2="352"
   y2="512"
   id="line56"
   style="fill:none;stroke:#a9ccdb;stroke-miterlimit:10" />
		<line
   stroke-miterlimit="10"
   x1="384"
   y1="0"
   x2="384"
   y2="512"
   id="line58"
   style="fill:none;stroke:#a9ccdb;stroke-miterlimit:10" />
		<line
   stroke-miterlimit="10"
   x1="416"
   y1="0"
   x2="416"
   y2="512"
   id="line60"
   style="fill:none;stroke:#a9ccdb;stroke-miterlimit:10" />
		<line
   stroke-miterlimit="10"
   x1="448"
   y1="0"
   x2="448"
   y2="512"
   id="line62"
   style="fill:none;stroke:#a9ccdb;stroke-miterlimit:10" />
		<line
   stroke-miterlimit="10"
   x1="480"
   y1="0"
   x2="480"
   y2="512"
   id="line64"
   style="fill:none;stroke:#a9ccdb;stroke-miterlimit:10" />
	</g>
	


<g
   id="g3754"
   transform="matrix(2.6981608,0,0,-2.4687497,4438.7991,2919.0493)"><path
     style="fill:#65564a"
     d="m -1492.3964,1094.0446 c -3.0305,-3.9228 -3.4784,-8.6064 -3.1386,-13.6986 -2.9707,-9.5482 1.6087,-25.035 -2.2157,-31.6555 -1.2369,-1.9267 -1.1987,-2.8138 0.3018,-7 2.2508,-6.2796 2.1766,-7.5057 -0.7917,-13.0816 -1.375,-2.5829 -2.5,-6.1781 -2.5,-7.9893 0,-1.8113 -0.6805,-4.3317 -1.5121,-5.601 -0.9953,-1.519 -1.4424,-4.3268 -1.308,-8.2148 0.1152,-3.3316 -0.3591,-6.94074 -1.0879,-8.27814 -0.7106,-1.3041 -1.2727,-4.0041 -1.2492,-6 0.024,-1.9959 -0.6779,-5.1975 -1.5589,-7.1148 -1.6177,-3.5208 -2.9627,-23.97659 -2.368,-36.01407 0.8593,-17.39118 -0.5721,-28.06321 -4.9273,-36.73695 -1.8523,-3.68908 -2.889,-7.00163 -2.5375,-8.10882 0.3451,-1.08739 -0.044,-2.40143 -0.9285,-3.13549 -0.8374,-0.695 -1.5226,-1.69067 -1.5226,-2.21261 0,-2.7025 -9.3445,-4.11325 -13.5328,-3.51989 -1.488,0.2108 -3.0182,1.1443 -3.4561,3.07166 -0.1264,0.55649 -0.2361,1.22829 -0.3445,2.04068 -0.065,0.83622 -0.1684,1.52799 -0.3058,2.10529 -0.5938,2.49535 0.077,2.32483 -1.4265,2.9641 -0.6048,0.25719 -1.1972,1.64865 -1.7163,2.48601 -0.3883,0.87538 -0.663,0.77549 -0.8978,1.60923 -0.8032,2.85287 -2.6798,2.95902 -5.4868,4.35763 -0.7122,0.3449 -1.5678,0.58037 -2.4888,0.71433 -0.7994,0.11628 -1.6481,0.15609 -2.4949,0.12459 -2.0034,-0.6735 -3.7582,0.41365 -5.3765,0.67392 -1.1429,0.18381 -2.2177,0.44076 -3.264,0.54536 -1.4309,0.27358 -2.8291,0.53759 -4.1985,0.78861 -1.715,0.31437 -3.3849,-0.3652 -5.0178,-0.0983 -3.3537,0.54827 -6.551,0.98242 -9.6607,1.24435 -3.5343,0.2977 -6.9554,0.37294 -10.3642,0.14046 -4.3901,-0.29941 -8.6337,1.91981 -13.1985,0.41747 -0.9068,-0.31202 -2.0384,-0.61473 -2.4909,-1.28099 -1.7857,-1.89712 -1.0928,-0.0976 -2.7308,-0.66485 -1.9773,-1.10915 -3.4441,-0.69184 -4.8243,-2.38634 -1.7294,-2.11156 -2.5368,-4.31437 -2.89,-6.80755 -0.6449,-2.5408 0.4723,-2.95352 -0.089,-6.22544 -0.3048,-1.45881 0.5509,-2.9464 0.2274,-4.332 -0.171,-0.73251 -0.2843,-1.475 -0.2761,-2.24882 0.017,-0.97248 0.1973,-1.87979 0.4907,-2.75054 1.0659,-3.16332 1.1087,-5.2932 2.8,-8.86168 7.5521,-16.34502 6.8128,-40.20555 16.453,-50.66825 1.5414,-1.10879 3.0586,-2.23771 4.4359,-3.50864 2.5927,-1.73986 3.4102,-5.22395 5.0803,-7.39947 1.67,-2.06332 4.1679,-3.47672 5.5658,-3.95638 1.1006,-0.37221 2.9582,-0.40496 4.6548,-0.13856 3.3596,0.92397 5.4531,3.35039 7.6954,5.72012 4.6445,4.97011 5.2983,6.72971 5.3273,14.33732 0.016,4.06461 -0.2825,8.80515 -0.6624,10.53452 -0.6116,2.78481 -0.1958,3.64652 3.6365,7.53676 5.2572,5.33658 8.6789,7.14925 15.8473,8.39524 5.5869,0.97111 13.8656,0.60098 15.2427,-0.68147 0.6289,-0.5857 1.8199,-7.66019 1.9502,-11.58468 0.086,-2.57732 -1.2387,-10.43725 -2.1724,-12.89299 -1.3264,-3.48869 -1.3538,-12.2955 -0.041,-13.10701 0.082,-0.36995 0.1333,-1.78579 0.152,-3.24512 -0.058,-0.5658 0.057,-1.09403 0.1974,-1.60433 0.143,-0.51822 0.045,-1.21267 0.087,-1.7145 -0.047,-0.4903 -0.031,-0.74167 0,-1.2356 0.033,-0.53027 0.1666,-1.17011 0.319,-1.77677 0.3079,-1.22585 0.7847,-4.02896 1.0601,-6.22897 0.1248,-0.9977 0.2629,-1.50153 0.4521,-2.1198 0.1336,-0.4366 0.2926,-1.0523 0.4904,-1.40311 0.176,-0.31196 0.5547,-0.71998 0.7848,-0.93783 0.3559,-0.99861 0.7676,-1.13523 1.3483,-1.82737 0.3916,-0.459 0.6173,-1.04236 0.6869,-1.28539 0.5143,-1.91756 1.9664,-2.99714 3.5122,-3.85806 2.1263,-2.89323 5.0732,-4.9201 7.128,-7.70555 0.6032,-0.87828 1.2316,-1.72075 1.8174,-2.42183 1.6709,-1.99967 3.5374,-4.24881 4.1476,-4.99808 1.6372,-2.01009 8.515,-0.77759 11.6825,2.09347 1.4511,1.31535 3.0219,3.13597 4.5683,3.79341 0.6899,0.69144 2.6179,1.98679 2.5719,2.73211 -0.036,0.35391 0.1271,0.58151 0.3617,0.75454 0.4647,0.34263 1.2732,0.67782 1.3118,1.14945 0.056,0.68973 0.2007,1.24109 0.452,1.70132 0.3974,0.72753 0.2497,1.60019 1.2582,2.05966 2.1474,0.97843 2.3374,1.91244 1.9046,6.25472 -0.8941,8.96971 -2.0314,11.70535 -5.5389,13.32363 -3.8028,1.7545 -3.8304,3.17049 -0.2014,10.34229 1.3476,2.66325 2.4701,6.03825 2.4943,7.5 0.045,2.71251 2.0246,7.42578 3.1967,10.50152 0.4302,1.12895 0.8535,1.98163 1.2092,2.33728 0.8903,0.46009 1.8174,0.79983 2.7666,1.03653 3.8427,0.95818 7.2934,0.64062 10.9003,-0.63148 1.8374,-0.58426 3.4218,-1.69621 4.9899,-2.11755 1.2545,-0.32868 3.1588,-0.97581 6.5853,-1.31377 1.5815,-0.33824 3.2283,-0.65986 4.861,-0.97427 2.0946,-0.40332 4.1661,-0.79477 6.0471,-1.1942 1.1188,-0.24859 2.1429,-0.72433 3.0206,-1.88283 0.8706,-1.29715 0.9693,-1.74355 1.5531,-3.07367 1.3535,-3.04901 4.3121,-4.33921 6.9669,-4.46859 1.3618,-0.0522 3.1191,-0.0611 5.4288,-0.0611 l 5.0143,0 c 2.5654,-0.0961 5.1467,1.26729 6.2126,3.14486 0.9369,1.72966 3.6084,5.21717 5.9366,7.75 3.4749,3.78038 4.24,5.32152 4.2719,8.60514 0.039,4.01285 2.9058,11.70882 4.797,12.87763 0.5556,0.3434 0.7883,1.47313 0.517,2.51051 -0.2713,1.03738 0,2.18849 0.5939,2.55802 0.5979,0.36953 1.0871,1.68222 1.0871,2.91708 0,1.23486 1.35,4.37393 3,6.97571 1.65,2.60178 3,5.16488 3,5.69578 0,0.5309 0.3954,0.96527 0.8787,0.96527 1.2956,0 2.904,4.83048 3.4264,10.29058 0.2521,2.63482 1.1866,5.59525 2.0766,6.57874 0.8901,0.98349 1.6183,3.06729 1.6183,4.63068 0,1.56339 0.7209,3.63912 1.602,4.61274 0.8811,0.97362 1.8307,3.48405 2.1101,5.57874 0.2794,2.09469 1.1471,5.04992 1.9281,6.56718 1.0023,1.94699 1.388,6.06611 1.3109,14 -0.022,2.29109 0.1778,4.25336 0.457,6.05295 0.3809,2.45415 0.909,4.60575 1.2213,6.87616 0.6495,4.721 0.8088,9.71384 2.7097,15.76355 0.036,0.11511 0.1756,0.33384 0.3444,0.61986 0.2344,0.39731 0.3466,0.97315 0.493,1.53278 0.078,0.29782 0.1877,0.57888 0.316,0.82504 0.2863,0.5494 0.2637,1.071 0.584,1.071 0.1478,0 0.3427,0.1943 0.5611,0.53473 0.467,0.72762 1.042,2.1228 1.4973,3.71524 0.3114,1.96255 0.9408,3.90803 1.3082,5.78111 0.061,0.31268 0.1153,0.62336 0.1593,0.93175 0.1241,1.19166 -0.2483,1.96031 -0.3402,3.36277 -0.153,2.64577 0.2725,7.7292 0.719,8.78509 0.1266,0.28453 0.236,0.54678 0.3283,0.79334 0.4164,1.11136 0.486,1.90425 0.2122,2.98495 0,0.36414 -0.017,0.73054 -0.055,1.09754 -0.1978,1.9392 -0.3199,3.6032 -0.2228,5.3291 0.1963,0.7424 0.2196,1.6471 0.034,2.7309 -0.1681,0.9808 -0.5716,2.2584 0,2.6332 0.3383,0.2104 0.239,0.4867 0.6451,1.3644 0.4388,0.9729 0.6579,2.4237 0.4632,3.6085 -0.2486,1.5125 0.1762,2.975 0.073,3.25 -0.1032,0.275 -0.1621,2.4125 -0.131,4.75 0.029,2.22 -0.032,2.8617 -0.2781,3.8101 -0.1881,2.2811 -1.1946,1.4744 -1.2277,3.4077 -0.012,0.5607 -0.4295,0.6089 -0.7872,1.1551 -4.1904,5.0718 -7.6869,10.5025 -11.8943,15.7565 -4.8478,6.0985 -11.402,9.3776 -17.9189,14.3613 -4.5248,3.4603 -11.3921,10.6096 -16.2411,10.2382 -7.4253,6.915 -13.7632,7.3459 -21.4847,12.6259 -2.8547,1.9723 -5.8345,3.1761 -10.32,6.8344 -6.9006,5.6655 -16.2334,9.4979 -17.6293,7.2392 -0.94,-1.5209 -4.594,-1.3445 -6.4714,0.3124 -1.9284,1.702 -10.6397,2.1605 -13.6771,0.8746 z m 74.8231,-54.3575 c 2.8164,-2.5616 4.5815,-4.2632 5.6414,-5.4887 2.4093,-3.3464 2.5956,-8.0811 3.4037,-11.8016 0.7911,-3.6408 1.5644,-8.2672 1.9573,-11.5648 -0.024,-4.0403 1.141,-8.1124 1.4079,-11.82855 -0.3702,-2.58198 -0.9302,-5.1608 -0.7275,-7.66522 0.4885,-3.30779 0.7314,-6.06797 -0.1193,-9.07407 -2.4688,-6.85641 -2.8435,-14.99492 -4.071,-21.14482 -1.1969,-5.07662 -2.4134,-9.59933 -3.9255,-14.2428 -0.2333,-2.15743 -1.7614,-2.58229 -2.5654,-3.8872 -0.6463,-1.21477 -0.9021,-2.74014 -1.3147,-3.79333 -0.4569,-1.15812 -1.1125,-2.56995 -1.8377,-3.63864 -1.3722,-2.02203 -3.0136,-5.79733 -3.6476,-8.38954 -0.4217,-1.72437 -1.1613,-3.97897 -1.9092,-5.896 -0.6746,-1.71419 -1.5625,-3.41368 -2.0497,-5.02273 -0.8664,-2.40124 -0.7734,-5.03951 -1.0443,-7.39694 -0.2439,-2.87049 -1.4803,-5.58194 -2.0521,-8.16712 -0.4755,-2.22916 -0.6875,-4.32121 -1.4488,-6.42322 -0.9062,-2.24215 -0.3006,-4.34403 -0.87,-6.40939 -0.6093,-2.17192 -1.8027,-4.70812 -2.8592,-5.66423 -2.631,-2.38104 -14.6237,-4.13431 -20.8176,-2.76631 -8.5579,1.89011 -14.6822,4.0808 -15.3992,8.54816 -0.2048,1.27571 -0.5975,2.74831 -1.0413,4.00066 -0.2892,2.01179 -0.2912,4.3044 0.1291,5.94964 -0.2498,1.86344 0.6981,5.33939 0.1073,6.68492 0.5666,1.35275 0.1577,3.71687 0.6478,4.61348 0.086,1.31863 0.6966,3.98459 0.4964,4.93041 1.1013,1.27489 -0.4777,6.22907 -0.448,6.85292 0.648,6.38042 1.6439,11.87759 1.7162,12.48008 0.014,0.77805 0.4537,2.08963 0.976,2.91463 0.7734,1.22178 1.3878,8.68652 2.4283,29.5 0.028,0.55 -0.2118,3.925 -0.5318,7.5 -0.4401,4.91767 -0.1525,7.59547 1.1817,10.99997 1.2862,3.2821 1.7846,7.5157 1.8414,15.64184 0.062,8.9185 0.411,11.5126 1.7469,13 1.0328,1.15 1.6715,3.5732 1.6758,6.3582 0,2.475 0.2636,5.625 0.5773,7 0.3137,1.375 0.8658,4.075 1.2269,6 0.3611,1.925 1.647,5.075 2.8577,7 1.2107,1.925 2.5238,4.5174 2.9182,5.761 1.0139,3.1973 4.7861,6.1313 9.1691,5.4201 1.4213,-0.5158 2.1714,0.1356 3.283,0.699 0.9387,0.4721 1.9428,0.8059 2.0934,0.9411 2.1712,1.4218 7.1672,-0.4671 9.675,-2.1601 4.6113,-3.113 8.8867,-7.9559 11.5218,-10.3708 z"
     id="path3768"
     inkscape:connector-curvature="0"
     sodipodi:nodetypes="cccssscccccssccssscsscscscscssssccccccscscccccccccssccsccsccssssccccccccccssscssscscscccsccccsccsscscssssscssscssscssssscscccscscsccsccccccsccccccccccccccccccsscccccccssccccccccccscccsssccccscc" /></g><g
   id="g3782"
   transform="translate(235.1763,-556.15783)" /></svg>