<?xml version="1.0" encoding="UTF-8" standalone="no"?>
<svg
   xmlns:dc="http://purl.org/dc/elements/1.1/"
   xmlns:cc="http://creativecommons.org/ns#"
   xmlns:rdf="http://www.w3.org/1999/02/22-rdf-syntax-ns#"
   xmlns:svg="http://www.w3.org/2000/svg"
   xmlns="http://www.w3.org/2000/svg"
   xmlns:sodipodi="http://sodipodi.sourceforge.net/DTD/sodipodi-0.dtd"
   xmlns:inkscape="http://www.inkscape.org/namespaces/inkscape"
   version="1.1"
   id="Layer_1"
   x="0px"
   y="0px"
   width="1024"
   height="1024"
   viewBox="0 0 1024 1024"
   enable-background="new 0 0 512 512"
   xml:space="preserve"
   inkscape:version="0.48.0 r9654"
   sodipodi:docname="finalmemhebrew-x5dd.svg"><title
   id="title3743">Sinai 357</title><metadata
   id="metadata72"><rdf:RDF><cc:Work
       rdf:about=""><dc:format>image/svg+xml</dc:format><dc:type
         rdf:resource="http://purl.org/dc/dcmitype/StillImage" /><dc:title>Sinai 357</dc:title><dc:date>2017</dc:date><dc:creator><cc:Agent><dc:title>Celeste Claire Horner</dc:title></cc:Agent></dc:creator><dc:publisher><cc:Agent><dc:title>beitdina.net</dc:title></cc:Agent></dc:publisher></cc:Work></rdf:RDF></metadata><defs
   id="defs70" /><sodipodi:namedview
   pagecolor="#ffffff"
   bordercolor="#666666"
   borderopacity="1"
   objecttolerance="10"
   gridtolerance="10"
   guidetolerance="10"
   inkscape:pageopacity="0"
   inkscape:pageshadow="2"
   inkscape:window-width="1152"
   inkscape:window-height="814"
   id="namedview68"
   showgrid="false"
   inkscape:zoom="0.52007486"
   inkscape:cx="61.737493"
   inkscape:cy="527.94451"
   inkscape:window-x="-8"
   inkscape:window-y="-8"
   inkscape:window-maximized="1"
   inkscape:current-layer="Layer_1" />
   
	<g
   id="Grid"
   transform="matrix(2.0004581,0,0,2.0004578,0.50019527,4.813853)">
		<rect
   x="0"
   stroke-miterlimit="10"
   width="512"
   height="512"
   id="rect4"
   y="0"
   style="fill:none;stroke:#a9ccdb;stroke-miterlimit:10" />
		<line
   stroke-miterlimit="10"
   x1="0"
   y1="32"
   x2="512"
   y2="32"
   id="line6"
   style="fill:none;stroke:#a9ccdb;stroke-miterlimit:10" />
		<line
   stroke-miterlimit="10"
   x1="0"
   y1="64"
   x2="512"
   y2="64"
   id="line8"
   style="fill:none;stroke:#a9ccdb;stroke-miterlimit:10" />
		<line
   stroke-miterlimit="10"
   x1="0"
   y1="96"
   x2="512"
   y2="96"
   id="line10"
   style="fill:none;stroke:#a9ccdb;stroke-miterlimit:10" />
		<line
   stroke-miterlimit="10"
   x1="0"
   y1="128"
   x2="512"
   y2="128"
   id="line12"
   style="fill:none;stroke:#a9ccdb;stroke-miterlimit:10" />
		<line
   stroke-miterlimit="10"
   x1="0"
   y1="160"
   x2="512"
   y2="160"
   id="line14"
   style="fill:none;stroke:#a9ccdb;stroke-miterlimit:10" />
		<line
   stroke-miterlimit="10"
   x1="0"
   y1="192"
   x2="512"
   y2="192"
   id="line16"
   style="fill:none;stroke:#a9ccdb;stroke-miterlimit:10" />
		<line
   stroke-miterlimit="10"
   x1="0"
   y1="224"
   x2="512"
   y2="224"
   id="line18"
   style="fill:none;stroke:#a9ccdb;stroke-miterlimit:10" />
		<line
   stroke-miterlimit="10"
   x1="0"
   y1="256"
   x2="512"
   y2="256"
   id="line20"
   style="fill:none;stroke:#a9ccdb;stroke-miterlimit:10" />
		<line
   stroke-miterlimit="10"
   x1="0"
   y1="288"
   x2="512"
   y2="288"
   id="line22"
   style="fill:none;stroke:#a9ccdb;stroke-miterlimit:10" />
		<line
   stroke-miterlimit="10"
   x1="0"
   y1="320"
   x2="512"
   y2="320"
   id="line24"
   style="fill:none;stroke:#a9ccdb;stroke-miterlimit:10" />
		<line
   stroke-miterlimit="10"
   x1="0"
   y1="352"
   x2="512"
   y2="352"
   id="line26"
   style="fill:none;stroke:#a9ccdb;stroke-miterlimit:10" />
		<line
   stroke-miterlimit="10"
   x1="0"
   y1="384"
   x2="512"
   y2="384"
   id="line28"
   style="fill:none;stroke:#a9ccdb;stroke-miterlimit:10" />
		<line
   stroke-miterlimit="10"
   x1="0"
   y1="416"
   x2="512"
   y2="416"
   id="line30"
   style="fill:none;stroke:#a9ccdb;stroke-miterlimit:10" />
		<line
   stroke-miterlimit="10"
   x1="0"
   y1="448"
   x2="512"
   y2="448"
   id="line32"
   style="fill:none;stroke:#ff0000;stroke-miterlimit:10" />
		<line
   stroke-miterlimit="10"
   x1="0"
   y1="480"
   x2="512"
   y2="480"
   id="line34"
   style="fill:none;stroke:#a9ccdb;stroke-miterlimit:10" />
		<line
   stroke-miterlimit="10"
   x1="32"
   y1="0"
   x2="32"
   y2="512"
   id="line36"
   style="fill:none;stroke:#a9ccdb;stroke-miterlimit:10" />
		<line
   stroke-miterlimit="10"
   x1="64"
   y1="0"
   x2="64"
   y2="512"
   id="line38"
   style="fill:none;stroke:#a9ccdb;stroke-miterlimit:10" />
		<line
   stroke-miterlimit="10"
   x1="96"
   y1="0"
   x2="96"
   y2="512"
   id="line40"
   style="fill:none;stroke:#a9ccdb;stroke-miterlimit:10" />
		<line
   stroke-miterlimit="10"
   x1="128"
   y1="0"
   x2="128"
   y2="512"
   id="line42"
   style="fill:none;stroke:#a9ccdb;stroke-miterlimit:10" />
		<line
   stroke-miterlimit="10"
   x1="160"
   y1="0"
   x2="160"
   y2="512"
   id="line44"
   style="fill:none;stroke:#a9ccdb;stroke-miterlimit:10" />
		<line
   stroke-miterlimit="10"
   x1="192"
   y1="0"
   x2="192"
   y2="512"
   id="line46"
   style="fill:none;stroke:#a9ccdb;stroke-miterlimit:10" />
		<line
   stroke-miterlimit="10"
   x1="224"
   y1="0"
   x2="224"
   y2="512"
   id="line48"
   style="fill:none;stroke:#a9ccdb;stroke-miterlimit:10" />
		<line
   stroke-miterlimit="10"
   x1="256"
   y1="0"
   x2="256"
   y2="512"
   id="line50"
   style="fill:none;stroke:#a9ccdb;stroke-miterlimit:10" />
		<line
   stroke-miterlimit="10"
   x1="288"
   y1="0"
   x2="288"
   y2="512"
   id="line52"
   style="fill:none;stroke:#a9ccdb;stroke-miterlimit:10" />
		<line
   stroke-miterlimit="10"
   x1="320"
   y1="0"
   x2="320"
   y2="512"
   id="line54"
   style="fill:none;stroke:#a9ccdb;stroke-miterlimit:10" />
		<line
   stroke-miterlimit="10"
   x1="352"
   y1="0"
   x2="352"
   y2="512"
   id="line56"
   style="fill:none;stroke:#a9ccdb;stroke-miterlimit:10" />
		<line
   stroke-miterlimit="10"
   x1="384"
   y1="0"
   x2="384"
   y2="512"
   id="line58"
   style="fill:none;stroke:#a9ccdb;stroke-miterlimit:10" />
		<line
   stroke-miterlimit="10"
   x1="416"
   y1="0"
   x2="416"
   y2="512"
   id="line60"
   style="fill:none;stroke:#a9ccdb;stroke-miterlimit:10" />
		<line
   stroke-miterlimit="10"
   x1="448"
   y1="0"
   x2="448"
   y2="512"
   id="line62"
   style="fill:none;stroke:#a9ccdb;stroke-miterlimit:10" />
		<line
   stroke-miterlimit="10"
   x1="480"
   y1="0"
   x2="480"
   y2="512"
   id="line64"
   style="fill:none;stroke:#a9ccdb;stroke-miterlimit:10" />
	</g>
	
<path
   style="fill:#65564a"
   d="m 406.29271,166.53236 c -6.38864,8.84316 -10.48659,18.81122 -9.77026,30.29055 -18.56951,14.73409 -3.93879,42.79582 -8.73095,52.74224 -2.60753,4.34335 -12.34806,24.59642 -9.18484,34.03336 4.74494,14.15609 4.88028,3.95268 -1.37723,16.52242 -2.89865,5.82263 0.22684,12.90969 0.22684,16.99268 0,4.08321 4.57186,16.28369 2.81875,19.14507 -2.0982,3.42428 2.19876,18.17573 2.48209,26.94044 0.24286,7.51042 -0.75702,15.6465 -2.29341,18.6614 -1.49802,2.93983 -2.68299,9.02643 -2.63345,13.52579 0.0506,4.49935 -1.42909,11.71671 -3.28634,16.03887 -3.41029,7.93694 -6.24591,54.05038 -4.99201,81.18645 0.86686,18.7607 -4.58999,27.68152 -6.08106,40.67135 -0.57382,4.9992 -1.33296,9.65739 -2.28603,14.04105 -1.74552,8.02891 -4.14118,15.13684 -7.2382,21.73227 -3.47122,6.51478 1.49928,18.26146 -0.14968,23.33171 -0.7195,2.21253 -2.84996,4.43197 -4.48796,6.59765 -1.58235,2.24015 -1.2187,3.6432 -1.34329,6.46409 -0.2964,3.09869 1.16642,6.60715 1.12826,8.97229 -0.0443,1.70235 0.0611,4.01402 0.92357,7.02795 0.14756,0.51301 0.92799,5.20168 0.67565,6.80791 0.0211,2.31088 0.69968,3.9304 0.29176,5.10987 -0.61241,1.77165 -2.65791,2.61992 -4.8944,3.88167 -1.65382,0.86054 -2.80653,2.08448 -4.49492,3.40575 -1.5054,1.59226 -2.28477,1.73897 -4.47995,2.11102 -2.68173,0.4385 -4.76412,0.97336 -7.14249,0.18778 -5.44821,-0.95724 -11.32372,-2.78832 -14.69881,-3.96495 -2.17747,-0.73269 -4.95575,-2.43201 -8.04666,-4.65688 -2.02,-1.45407 -4.16268,-3.05063 -6.39686,-5.03277 -1.41897,-1.25876 -2.12034,-3.30349 -3.70543,-4.63096 -3.89579,-3.26265 -9.87544,-9.03207 -14.33368,-12.28586 -1.4021,-1.02318 -5.84052,-3.63462 -7.23673,-4.5528 -10.66072,-7.01064 -18.12596,-9.18861 -28.67053,-7.79315 -7.06997,-1.23597 -13.81024,-2.21467 -20.36583,-2.80514 -7.4507,-0.6711 -14.66276,-0.84072 -21.84889,-0.31664 -9.25482,0.67496 -26.10686,-7.85368 -35.72997,-4.46696 -1.91163,0.70339 -4.29717,1.38579 -5.25109,2.88774 -3.76446,4.27667 -2.30375,0.22002 -5.75683,1.49877 -4.16837,2.50035 -7.26055,1.55961 -10.17017,5.37952 -3.64577,4.76008 -5.34786,9.72587 -6.09244,15.34625 -1.35952,5.72772 0.99566,6.65811 -0.18762,14.03399 0.57003,3.70501 0.97626,8.05441 1.40063,12.39591 0.18762,1.92844 0.38051,3.85533 0.59174,5.72349 0.45156,3.98986 0.99166,7.71184 1.77503,10.60908 2.24704,7.13107 -1.73835,12.0999 1.8271,20.14432 1.53387,3.54993 2.87315,7.34038 4.13633,11.29376 2.40704,7.53391 8.61332,15.49217 11.28746,23.67313 1.70125,5.20466 8.6928,6.26472 11.04503,11.37593 5.39803,11.72938 5.06769,20.94173 10.73619,31.49347 7.08874,13.19524 19.65794,26.92802 26.47009,34.83411 3.24944,2.49954 6.44787,5.04447 9.35137,7.90952 5.4657,3.92216 11.88385,-0.8322 15.40461,4.07201 3.52054,4.65133 8.78639,7.83756 11.73332,8.91886 2.32019,0.83907 6.23622,0.9129 9.81284,0.31235 4.54657,-1.33709 13.80518,1.55608 19.27046,1.04403 3.04833,-0.28559 5.71256,-1.0475 7.40517,-2.96027 6.69431,-7.66029 4.325,-10.10719 5.42185,-17.52757 0.50742,-3.43283 1.61439,-11.82418 1.63379,-17.24859 0.0337,-9.16284 -0.71971,-11.31526 -1.52058,-15.21378 1.02475,-2.61336 1.05679,-11.53348 1.21364,-15.57634 0.22936,-5.91323 -0.76841,-12.41746 -3.86713,-16.76871 -4.19535,-5.15851 -9.18904,-4.85964 -11.95383,-9.30543 -6.36945,-10.24213 -2.08239,-12.15995 12.55486,-15.19437 7.1075,-1.17945 15.67465,-2.78142 21.46901,-1.99731 8.8275,1.18853 18.04775,-2.5162 19.90395,-0.66772 1.32579,1.32034 3.37403,0.62509 3.64872,9.47206 0.18129,5.81005 -2.61132,23.52867 -4.57967,29.06464 -2.7962,7.86455 -2.85396,27.71772 -0.0864,29.54711 0.17287,0.83398 0.28101,4.0257 0.32043,7.31547 -0.12227,1.27548 0.12017,2.46627 0.41614,3.61664 0.30146,1.16822 0.0949,2.73372 0.18341,3.86499 -0.0991,1.10528 -0.0653,1.67194 0,2.78541 0.0696,1.19539 0.35121,2.63778 0.67249,4.00537 0.64909,2.76343 1.65423,9.08248 2.23481,14.04195 0.26309,2.24912 0.55422,3.3849 0.95307,4.77866 0.28165,0.98423 0.61684,2.3722 1.03382,3.16303 0.37103,0.70325 1.16937,1.62305 1.65445,2.11415 0.75028,2.25117 1.61819,2.55915 2.84237,4.11944 0.82553,1.03472 1.30133,2.34979 1.44806,2.89765 1.0842,4.32275 4.14539,6.75645 7.40411,8.69722 4.48248,6.5222 10.69487,11.09137 15.02662,17.3706 1.27161,1.97991 2.59635,3.87909 3.83128,5.45953 3.52244,4.50785 7.45724,9.57808 8.74361,11.26716 3.4514,4.53134 17.95057,1.75292 24.62801,-4.7193 3.05908,-2.9652 6.3705,-7.06942 9.63049,-8.55148 1.45438,-1.55871 5.51882,-4.47882 5.42185,-6.15899 -0.0759,-0.79782 0.26794,-1.3109 0.7625,-1.70096 0.97964,-0.77239 2.68405,-1.52801 2.76543,-2.5912 0.11805,-1.55486 0.42309,-2.79779 0.95286,-3.83528 0.83777,-1.64007 0.5264,-3.60731 2.65243,-4.64309 4.52696,-2.20567 4.9275,-4.31121 4.01511,-14.1 -1.31757,-14.13423 -2.5135,-21.26786 -5.63941,-25.52765 -2.44626,-4.07255 -3.87724,-13.00214 -2.1625,-15.80078 1.17105,-1.74039 2.40261,-3.85469 3.62848,-6.44536 2.8411,-6.00364 5.20725,-13.61201 5.25826,-16.90723 0.0949,-6.11481 -3.65968,-22.31618 -1.18876,-29.24981 0.90691,-2.54499 1.79927,-4.46719 2.54913,-5.26893 1.87685,-1.03718 3.83128,-1.80305 5.8323,-2.33664 8.10084,-2.16003 15.3753,-1.44415 22.97905,1.42354 3.87344,1.3171 7.21354,3.82376 10.51927,4.77359 2.64462,0.74094 6.6591,2.19977 13.88254,2.96163 3.33398,0.76249 6.80562,1.48752 10.24754,2.19629 4.41565,0.90921 8.7826,1.79165 12.74796,2.69209 2.35855,0.56039 4.51747,1.63285 6.36776,4.24446 1.83532,2.92416 2.04339,3.93048 3.27411,6.92896 2.85333,6.87338 9.09039,9.78188 14.687,10.07354 2.87083,0.11767 6.61146,-0.5069 11.44452,0.13773 l 26.41696,3.52354 c 5.40815,0.21664 13.81424,0.11632 16.06128,-4.1163 1.97509,-3.89917 7.60691,-11.76106 12.51502,-17.47081 7.32547,-8.52211 8.93839,-11.99629 9.00564,-19.39855 0.0822,-9.04616 5.84179,-32.21381 9.83624,-34.84865 1.17126,-0.77413 1.66182,-3.32088 1.08989,-5.65944 -0.57193,-2.33857 0,-4.93351 1.25201,-5.76654 1.26044,-0.83303 2.29173,-3.79223 2.29173,-6.57597 0,-2.78374 -0.11806,-12.83329 3.35991,-18.69848 5.15053,-5.89702 6.54252,-12.08752 6.65573,-18.30517 0.12227,-6.70268 4.83305,-13.97437 5.09066,-20.40653 0.53146,-5.93967 -3.3403,-10.35805 -1.46408,-12.57513 1.87643,-2.21708 3.41156,-6.91459 3.41156,-10.43893 0,-3.52435 1.51974,-8.20367 3.37719,-10.3985 1.85746,-2.19482 3.85932,-7.85408 4.44833,-12.57614 0.58901,-4.72205 2.41821,-11.38402 4.06465,-14.80438 2.11296,-4.38909 0.61683,-15.59525 0.4543,-33.48061 -0.0464,-5.1648 5.44989,-9.9408 6.03847,-13.99761 0.80298,-5.53239 1.91628,-10.38273 2.57464,-15.50091 1.36922,-10.64254 -2.06026,-19.43999 1.94705,-33.07784 0.0759,-0.25949 0.37019,-0.75257 0.72604,-1.39735 0.49414,-0.89565 0.73067,-2.19377 1.03929,-3.45534 0.16444,-0.67137 0.3957,-1.30497 0.66617,-1.85988 0.60355,-1.23852 0.55591,-2.41436 1.23114,-2.41436 0.31157,0 0.72245,-0.43801 1.18286,-1.20544 0.98449,-1.64027 2.19665,-4.78542 3.15647,-8.37526 0.65647,-4.42417 -3.09175,-8.4574 -2.31723,-12.67988 0.12859,-0.70488 0.24306,-1.40524 0.33582,-2.10044 0.26162,-2.68636 -0.52345,-4.41913 -0.71718,-7.58069 -0.32254,-5.96435 0.57446,-17.42392 1.51573,-19.80421 0.26689,-0.64142 0.49752,-1.23261 0.69209,-1.78843 0.87782,-2.50533 1.02455,-4.29274 0.44735,-6.72896 0,-0.82088 -0.0358,-1.64688 -0.11595,-2.47421 -0.41699,-4.37153 -0.67439,-8.12268 -0.46969,-12.01338 0.41382,-1.67359 0.46294,-3.71305 0.0717,-6.15626 -0.35438,-2.21101 -1.205,-5.09111 0,-5.93602 0.71317,-0.4743 0.50384,-1.09716 1.35994,-3.07576 0.92504,-2.19321 1.38693,-5.46374 0.97648,-8.13463 -0.52408,-3.40963 0.37145,-6.70654 0.15389,-7.32647 -0.21756,-0.61994 -0.34172,-5.4385 -0.27616,-10.70792 0.0611,-5.00454 -0.0675,-6.45112 -0.58627,-8.5891 -0.39653,-5.14228 -2.51835,-3.32374 -2.58813,-7.68197 -0.0253,-1.26399 -0.90543,-1.37264 -1.6595,-2.60394 -8.83383,-11.43335 -6.3216,-22.57026 -15.19127,-34.41434 -5.63603,-7.58211 -13.09896,-14.85627 -20.3068,-20.28259 -5.86161,-4.41279 -5.70856,-17.02424 -11.87036,-22.06304 -6.89753,-5.64071 -14.70366,-19.63674 -28.01744,-20.99473 -5.09826,-0.52007 -9.50674,-0.68125 -12.3373,-0.44951 -4.208,-4.19074 -6.32434,-7.04513 -7.48569,-9.21016 -3.1588,-5.8889 -3.35338,-2.18374 -15.25514,-10.88668 -6.01803,-4.44615 -12.29978,-7.15988 -21.75572,-15.40678 -5.24772,-4.60733 -23.9239,-4.29669 -34.79038,-7.56677 -19.25549,-5.7949 -32.40884,-13.14346 -34.28991,-9.88848 -1.98162,3.42856 -9.68466,3.0309 -13.64243,-0.70424 -4.06529,-3.83682 -22.42968,-4.87041 -28.83286,-1.97161 z m 157.73545,122.53801 c 5.93729,5.7746 9.65832,9.61052 11.8927,12.37316 5.07908,7.54378 5.47182,18.21721 7.17538,26.60432 1.66773,8.20745 3.29793,18.63674 4.12621,26.07051 -0.0506,9.10804 -2.51455,19.78552 -1.9519,28.16276 -0.78042,5.82056 -1.96096,11.63399 -1.53365,17.27969 1.02981,7.45675 1.54187,13.67902 -0.2515,20.45566 -5.2045,15.45639 -5.50407,26.08153 -8.09177,39.94524 -2.5232,11.44421 -5.82029,20.01442 -9.00797,30.48219 -0.49182,4.86349 0.71634,12.04505 -0.97858,14.98671 -1.36247,2.73845 -1.90173,6.17709 -2.77154,8.55129 -0.96319,2.61075 -2.34527,5.79344 -3.87407,8.20258 -2.89275,4.55826 -6.35301,13.06891 -7.68955,18.91252 -0.88899,3.88725 -2.44815,8.96979 -4.02481,13.29135 -1.42213,3.86429 -3.29392,7.69545 -4.32099,11.32273 -1.82647,5.41311 -1.63042,11.36055 -2.20151,16.6749 -0.51416,6.47094 -2.38806,14.20869 -3.59348,20.03645 -1.00241,5.02519 -1.44933,9.7413 -3.05424,14.47985 -1.91037,5.05448 -0.63369,9.79274 -1.83405,14.44868 -1.28448,4.89615 -3.8003,10.6135 -6.02752,12.76886 -5.54644,5.36757 -30.82839,9.31997 -43.88582,6.23609 -18.04101,-4.26087 -30.95172,-9.19934 -32.46324,-19.2701 -0.43174,-2.87583 -1.25959,-6.19551 -2.19517,-9.01868 -0.60967,-4.53518 -0.61389,-9.7034 0.27215,-13.41226 -0.5266,-4.20075 1.47168,-12.03658 0.2262,-15.06981 1.19446,-3.0495 0.33245,-8.37893 1.36564,-10.40015 0.1813,-2.97259 1.46851,-8.98246 1.04646,-11.11462 2.32167,-2.87398 -1.00704,-14.04218 -0.94443,-15.44852 1.36606,-14.38337 3.46553,-26.77563 3.61794,-28.13382 0.0295,-1.75396 0.95645,-4.71065 2.05752,-6.57045 1.63041,-2.75425 2.92564,-19.582 5.11913,-66.50179 0.059,-1.23986 -0.4465,-8.84812 -1.1211,-16.90723 -0.92778,-11.08589 -0.32148,-17.12245 2.49116,-24.79721 2.71145,-7.39883 3.76214,-16.94263 3.88188,-35.26137 0.1307,-20.10496 0.86643,-25.95283 3.68266,-29.30587 2.17725,-2.59245 3.52371,-8.05506 3.53277,-14.33328 0,-5.57939 0.5557,-12.68043 1.21701,-15.78009 0.66132,-3.09966 1.82521,-9.18626 2.58645,-13.52579 0.76123,-4.33952 3.47206,-11.44056 6.02435,-15.78008 2.55229,-4.33953 5.32045,-10.18357 6.15189,-12.98701 2.13741,-7.20767 10.08963,-13.82178 19.32949,-12.21852 2.99625,1.16276 4.57755,-0.30569 6.92093,-1.57576 1.97888,-1.06425 4.09564,-1.81674 4.41312,-2.12152 4.57713,-3.20516 13.88634,7.14906 19.17306,10.96558 9.72114,7.01763 19.95708,11.8389 25.51216,17.28281 z"
   id="path3768"
   inkscape:connector-curvature="0"
   sodipodi:nodetypes="cccssscccccssscscccscscccccssssscssccccccssccsssscccccscsccscsccccsccsccssssccccccccccssscsccscscscccsccccsccsscscscsccssscssscssssscscccscscsccsccccccssscsccscccccccccccccccsscccccccssccccccccccscccsssccccscc" />
</svg>