<?xml version="1.0" encoding="UTF-8" standalone="no"?>
<svg
   xmlns:dc="http://purl.org/dc/elements/1.1/"
   xmlns:cc="http://creativecommons.org/ns#"
   xmlns:rdf="http://www.w3.org/1999/02/22-rdf-syntax-ns#"
   xmlns:svg="http://www.w3.org/2000/svg"
   xmlns="http://www.w3.org/2000/svg"
   xmlns:sodipodi="http://sodipodi.sourceforge.net/DTD/sodipodi-0.dtd"
   xmlns:inkscape="http://www.inkscape.org/namespaces/inkscape"
   version="1.1"
   id="Layer_1"
   x="0px"
   y="0px"
   width="1024"
   height="1024"
   viewBox="0 0 1024 1024"
   enable-background="new 0 0 512 512"
   xml:space="preserve"
   inkscape:version="0.48.0 r9654"
   sodipodi:docname="finalmemhebrew-x5dd.svg"><title
   id="title3743">Sinai 357</title><metadata
   id="metadata72"><rdf:RDF><cc:Work
       rdf:about=""><dc:format>image/svg+xml</dc:format><dc:type
         rdf:resource="http://purl.org/dc/dcmitype/StillImage" /><dc:title>Sinai 357</dc:title><dc:date>2017</dc:date><dc:creator><cc:Agent><dc:title>Celeste Claire Horner</dc:title></cc:Agent></dc:creator><dc:publisher><cc:Agent><dc:title>beitdina.net</dc:title></cc:Agent></dc:publisher></cc:Work></rdf:RDF></metadata><defs
   id="defs70" /><sodipodi:namedview
   pagecolor="#ffffff"
   bordercolor="#666666"
   borderopacity="1"
   objecttolerance="10"
   gridtolerance="10"
   guidetolerance="10"
   inkscape:pageopacity="0"
   inkscape:pageshadow="2"
   inkscape:window-width="1152"
   inkscape:window-height="814"
   id="namedview68"
   showgrid="false"
   inkscape:zoom="0.18387423"
   inkscape:cx="-457.68662"
   inkscape:cy="776.89382"
   inkscape:window-x="-8"
   inkscape:window-y="-8"
   inkscape:window-maximized="1"
   inkscape:current-layer="Layer_1" />
   
	<g
   id="Grid"
   transform="matrix(2.0004581,0,0,2.0004578,0.50019527,4.813853)">
		<rect
   x="0"
   stroke-miterlimit="10"
   width="512"
   height="512"
   id="rect4"
   y="0"
   style="fill:none;stroke:#a9ccdb;stroke-miterlimit:10" />
		<line
   stroke-miterlimit="10"
   x1="0"
   y1="32"
   x2="512"
   y2="32"
   id="line6"
   style="fill:none;stroke:#a9ccdb;stroke-miterlimit:10" />
		<line
   stroke-miterlimit="10"
   x1="0"
   y1="64"
   x2="512"
   y2="64"
   id="line8"
   style="fill:none;stroke:#a9ccdb;stroke-miterlimit:10" />
		<line
   stroke-miterlimit="10"
   x1="0"
   y1="96"
   x2="512"
   y2="96"
   id="line10"
   style="fill:none;stroke:#a9ccdb;stroke-miterlimit:10" />
		<line
   stroke-miterlimit="10"
   x1="0"
   y1="128"
   x2="512"
   y2="128"
   id="line12"
   style="fill:none;stroke:#a9ccdb;stroke-miterlimit:10" />
		<line
   stroke-miterlimit="10"
   x1="0"
   y1="160"
   x2="512"
   y2="160"
   id="line14"
   style="fill:none;stroke:#a9ccdb;stroke-miterlimit:10" />
		<line
   stroke-miterlimit="10"
   x1="0"
   y1="192"
   x2="512"
   y2="192"
   id="line16"
   style="fill:none;stroke:#a9ccdb;stroke-miterlimit:10" />
		<line
   stroke-miterlimit="10"
   x1="0"
   y1="224"
   x2="512"
   y2="224"
   id="line18"
   style="fill:none;stroke:#a9ccdb;stroke-miterlimit:10" />
		<line
   stroke-miterlimit="10"
   x1="0"
   y1="256"
   x2="512"
   y2="256"
   id="line20"
   style="fill:none;stroke:#a9ccdb;stroke-miterlimit:10" />
		<line
   stroke-miterlimit="10"
   x1="0"
   y1="288"
   x2="512"
   y2="288"
   id="line22"
   style="fill:none;stroke:#a9ccdb;stroke-miterlimit:10" />
		<line
   stroke-miterlimit="10"
   x1="0"
   y1="320"
   x2="512"
   y2="320"
   id="line24"
   style="fill:none;stroke:#a9ccdb;stroke-miterlimit:10" />
		<line
   stroke-miterlimit="10"
   x1="0"
   y1="352"
   x2="512"
   y2="352"
   id="line26"
   style="fill:none;stroke:#a9ccdb;stroke-miterlimit:10" />
		<line
   stroke-miterlimit="10"
   x1="0"
   y1="384"
   x2="512"
   y2="384"
   id="line28"
   style="fill:none;stroke:#a9ccdb;stroke-miterlimit:10" />
		<line
   stroke-miterlimit="10"
   x1="0"
   y1="416"
   x2="512"
   y2="416"
   id="line30"
   style="fill:none;stroke:#a9ccdb;stroke-miterlimit:10" />
		<line
   stroke-miterlimit="10"
   x1="0"
   y1="448"
   x2="512"
   y2="448"
   id="line32"
   style="fill:none;stroke:#ff0000;stroke-miterlimit:10" />
		<line
   stroke-miterlimit="10"
   x1="0"
   y1="480"
   x2="512"
   y2="480"
   id="line34"
   style="fill:none;stroke:#a9ccdb;stroke-miterlimit:10" />
		<line
   stroke-miterlimit="10"
   x1="32"
   y1="0"
   x2="32"
   y2="512"
   id="line36"
   style="fill:none;stroke:#a9ccdb;stroke-miterlimit:10" />
		<line
   stroke-miterlimit="10"
   x1="64"
   y1="0"
   x2="64"
   y2="512"
   id="line38"
   style="fill:none;stroke:#a9ccdb;stroke-miterlimit:10" />
		<line
   stroke-miterlimit="10"
   x1="96"
   y1="0"
   x2="96"
   y2="512"
   id="line40"
   style="fill:none;stroke:#a9ccdb;stroke-miterlimit:10" />
		<line
   stroke-miterlimit="10"
   x1="128"
   y1="0"
   x2="128"
   y2="512"
   id="line42"
   style="fill:none;stroke:#a9ccdb;stroke-miterlimit:10" />
		<line
   stroke-miterlimit="10"
   x1="160"
   y1="0"
   x2="160"
   y2="512"
   id="line44"
   style="fill:none;stroke:#a9ccdb;stroke-miterlimit:10" />
		<line
   stroke-miterlimit="10"
   x1="192"
   y1="0"
   x2="192"
   y2="512"
   id="line46"
   style="fill:none;stroke:#a9ccdb;stroke-miterlimit:10" />
		<line
   stroke-miterlimit="10"
   x1="224"
   y1="0"
   x2="224"
   y2="512"
   id="line48"
   style="fill:none;stroke:#a9ccdb;stroke-miterlimit:10" />
		<line
   stroke-miterlimit="10"
   x1="256"
   y1="0"
   x2="256"
   y2="512"
   id="line50"
   style="fill:none;stroke:#a9ccdb;stroke-miterlimit:10" />
		<line
   stroke-miterlimit="10"
   x1="288"
   y1="0"
   x2="288"
   y2="512"
   id="line52"
   style="fill:none;stroke:#a9ccdb;stroke-miterlimit:10" />
		<line
   stroke-miterlimit="10"
   x1="320"
   y1="0"
   x2="320"
   y2="512"
   id="line54"
   style="fill:none;stroke:#a9ccdb;stroke-miterlimit:10" />
		<line
   stroke-miterlimit="10"
   x1="352"
   y1="0"
   x2="352"
   y2="512"
   id="line56"
   style="fill:none;stroke:#a9ccdb;stroke-miterlimit:10" />
		<line
   stroke-miterlimit="10"
   x1="384"
   y1="0"
   x2="384"
   y2="512"
   id="line58"
   style="fill:none;stroke:#a9ccdb;stroke-miterlimit:10" />
		<line
   stroke-miterlimit="10"
   x1="416"
   y1="0"
   x2="416"
   y2="512"
   id="line60"
   style="fill:none;stroke:#a9ccdb;stroke-miterlimit:10" />
		<line
   stroke-miterlimit="10"
   x1="448"
   y1="0"
   x2="448"
   y2="512"
   id="line62"
   style="fill:none;stroke:#a9ccdb;stroke-miterlimit:10" />
		<line
   stroke-miterlimit="10"
   x1="480"
   y1="0"
   x2="480"
   y2="512"
   id="line64"
   style="fill:none;stroke:#a9ccdb;stroke-miterlimit:10" />
	</g>
	


<g
   id="g3754"
   transform="matrix(2.7974884,0.4519413,0.40540586,-2.6108309,4211.5626,3614.4606)"><path
     style="fill:#65564a"
     d="m -1492.3964,1094.0446 c -3.0305,-3.9228 -4.9744,-8.3446 -4.6346,-13.4368 -8.8086,-6.536 -1.8684,-18.9841 -4.1416,-23.3963 -1.2369,-1.9267 -5.8574,-10.9109 -4.3569,-15.0971 2.2508,-6.2796 2.315,-1.7534 -0.6533,-7.3293 -1.375,-2.5829 0.1076,-5.7267 0.1076,-7.5379 0,-1.8113 2.1687,-7.2234 1.3371,-8.4927 -0.9953,-1.519 1.043,-8.0627 1.1774,-11.9507 0.1152,-3.3316 -0.3591,-6.94074 -1.0879,-8.27814 -0.7106,-1.3041 -1.2727,-4.0041 -1.2492,-6 0.024,-1.9959 -0.6779,-5.1975 -1.5589,-7.1148 -1.6177,-3.5208 -2.9628,-23.97659 -2.368,-36.01407 0.4112,-8.32219 -2.1773,-12.27944 -2.8846,-18.04169 -0.2722,-2.21763 -0.6323,-4.28399 -1.0844,-6.22857 -0.828,-3.5616 -1.9644,-6.71466 -3.4335,-9.64037 -1.6466,-2.88994 0.7112,-8.10073 -0.071,-10.34988 -0.3413,-0.98147 -1.3519,-1.96601 -2.1289,-2.9267 -0.7506,-0.99372 -0.5781,-1.61611 -0.6372,-2.86745 -0.1406,-1.37457 0.5533,-2.93091 0.5352,-3.98008 -0.021,-0.75516 0.029,-1.78061 0.4381,-3.11758 0.07,-0.22757 0.4402,-2.30745 0.3205,-3.01997 0.01,-1.0251 0.3319,-1.74351 0.1384,-2.26672 -0.2905,-0.7859 -1.2608,-1.16219 -2.3217,-1.7219 -0.7845,-0.38173 -1.3313,-0.92467 -2.1322,-1.51078 -0.7141,-0.70632 -1.0838,-0.7714 -2.1251,-0.93644 -1.2721,-0.19452 -2.2599,-0.43178 -3.3881,-0.0833 -2.5844,0.42463 -5.3715,1.23689 -6.9725,1.75884 -1.0329,0.32502 -2.3508,1.07883 -3.817,2.06578 -0.9582,0.64502 -1.9746,1.35325 -3.0344,2.23252 -0.6731,0.55838 -1.0058,1.46542 -1.7577,2.05428 -1.848,1.4473 -4.6845,4.0066 -6.7993,5.44997 -0.6651,0.45388 -2.7705,1.61231 -3.4328,2.01961 -5.057,3.1099 -8.5982,4.07604 -13.6001,3.45702 -3.3537,0.54827 -6.551,0.98242 -9.6607,1.24435 -3.5343,0.2977 -6.9554,0.37294 -10.3642,0.14046 -4.3901,-0.29941 -12.384,3.48387 -16.9488,1.98153 -0.9068,-0.31202 -2.0384,-0.61473 -2.4909,-1.28099 -1.7857,-1.89712 -1.0928,-0.0976 -2.7308,-0.66485 -1.9773,-1.10915 -3.4441,-0.69184 -4.8243,-2.38634 -1.7294,-2.11156 -2.5368,-4.31437 -2.89,-6.80755 -0.6449,-2.5408 0.4723,-2.95352 -0.089,-6.22544 0.2704,-1.64353 0.4631,-3.57291 0.6644,-5.49879 0.089,-0.85545 0.1805,-1.71021 0.2807,-2.53892 0.2142,-1.76989 0.4704,-3.42095 0.842,-4.70616 1.0659,-3.16332 -0.8246,-5.36748 0.8667,-8.93596 0.7276,-1.57474 1.3629,-3.25617 1.9621,-5.00988 1.1418,-3.34202 4.0858,-6.87228 5.3543,-10.50133 0.807,-2.30877 4.1235,-2.77901 5.2393,-5.04633 2.5606,-5.20312 2.4039,-9.28969 5.0928,-13.97041 3.3626,-5.85337 9.3249,-11.94519 12.5563,-15.45231 1.5414,-1.10879 3.0586,-2.23771 4.4359,-3.50864 2.5927,-1.73986 5.6372,0.36916 7.3073,-1.80633 1.67,-2.06332 4.1679,-3.47672 5.5658,-3.95638 1.1006,-0.37221 2.9582,-0.40496 4.6548,-0.13856 2.1567,0.59313 6.5486,-0.69027 9.1411,-0.46313 1.446,0.12669 2.7098,0.46467 3.5127,1.31317 3.1755,3.39808 2.0516,4.48352 2.5719,7.77518 0.2407,1.52279 0.7658,5.24517 0.775,7.65142 0.016,4.06461 -0.3414,5.01942 -0.7213,6.74879 0.4861,1.15928 0.5013,5.11622 0.5757,6.90962 0.1088,2.62309 -0.3645,5.50835 -1.8344,7.43855 -1.9901,2.2883 -4.3589,2.15572 -5.6704,4.12786 -3.0214,4.54338 -0.9878,5.39412 5.9555,6.74018 3.3715,0.5232 7.4354,1.23383 10.184,0.886 4.1874,-0.52723 8.5611,1.11618 9.4416,0.2962 0.6289,-0.5857 1.6005,-0.27729 1.7308,-4.20178 0.086,-2.57732 -1.2387,-10.43725 -2.1724,-12.89299 -1.3264,-3.48869 -1.3538,-12.2955 -0.041,-13.10701 0.082,-0.36995 0.1333,-1.78579 0.152,-3.24512 -0.058,-0.5658 0.057,-1.09403 0.1974,-1.60433 0.143,-0.51822 0.045,-1.21267 0.087,-1.7145 -0.047,-0.4903 -0.031,-0.74167 0,-1.2356 0.033,-0.53027 0.1666,-1.17011 0.319,-1.77677 0.3079,-1.22585 0.7847,-4.02896 1.0601,-6.22897 0.1248,-0.9977 0.2629,-1.50153 0.4521,-2.1198 0.1336,-0.4366 0.2926,-1.0523 0.4904,-1.40311 0.176,-0.31196 0.5547,-0.71998 0.7848,-0.93783 0.3559,-0.99861 0.7676,-1.13523 1.3483,-1.82737 0.3916,-0.459 0.6173,-1.04236 0.6869,-1.28539 0.5143,-1.91756 1.9664,-2.99714 3.5122,-3.85806 2.1263,-2.89323 5.0732,-4.9201 7.128,-7.70555 0.6032,-0.87828 1.2316,-1.72075 1.8174,-2.42183 1.6709,-1.99967 3.5374,-4.24881 4.1476,-4.99808 1.6372,-2.01009 8.515,-0.77759 11.6825,2.09347 1.4511,1.31535 3.0219,3.13597 4.5683,3.79341 0.6899,0.69144 2.6179,1.98679 2.5719,2.73211 -0.036,0.35391 0.1271,0.58151 0.3617,0.75454 0.4647,0.34263 1.2732,0.67782 1.3118,1.14945 0.056,0.68973 0.2007,1.24109 0.452,1.70132 0.3974,0.72753 0.2497,1.60019 1.2582,2.05966 2.1474,0.97843 2.3374,1.91244 1.9046,6.25472 -0.625,6.2699 -1.1923,9.43436 -2.6751,11.32399 -1.1604,1.80657 -1.8392,5.76771 -1.0258,7.00918 0.5555,0.77203 1.1397,1.70993 1.7212,2.85914 1.3477,2.6632 2.4701,6.03825 2.4943,7.5 0.045,2.71251 -1.736,9.89939 -0.5639,12.97513 0.4302,1.12895 0.8535,1.98163 1.2092,2.33728 0.8903,0.46009 1.8174,0.79983 2.7666,1.03653 3.8427,0.95818 7.2934,0.64062 10.9003,-0.63148 1.8374,-0.58426 3.4218,-1.69621 4.9899,-2.11755 1.2545,-0.32868 3.1588,-0.97581 6.5853,-1.31377 1.5815,-0.33824 3.2283,-0.65986 4.861,-0.97427 2.0946,-0.40332 4.1661,-0.79477 6.0471,-1.1942 1.1188,-0.24859 2.1429,-0.72433 3.0206,-1.88283 0.8706,-1.29715 0.9693,-1.74355 1.5531,-3.07367 1.3535,-3.04901 4.3121,-4.33921 6.9669,-4.46859 1.3618,-0.0522 3.1362,0.22487 5.4288,-0.0611 l 12.5311,-1.56303 c 2.5654,-0.0961 6.5529,-0.0516 7.6188,1.82598 0.9369,1.72966 3.6084,5.21717 5.9366,7.75 3.4749,3.78038 4.24,5.32152 4.2719,8.60514 0.039,4.01285 2.7711,14.28995 4.6659,15.45876 0.5556,0.3434 0.7883,1.47313 0.517,2.51051 -0.2713,1.03738 0,2.18849 0.5939,2.55802 0.5979,0.36953 1.0871,1.68222 1.0871,2.91708 0,1.23486 -0.056,5.69281 1.5938,8.29459 2.4432,2.6159 3.1035,5.36199 3.1572,8.12012 0.058,2.97329 2.2926,6.19899 2.4148,9.05228 0.2521,2.63482 -1.5845,4.5948 -0.6945,5.57829 0.8901,0.98349 1.6183,3.06729 1.6183,4.63068 0,1.56339 0.7209,3.63912 1.602,4.61274 0.8811,0.97362 1.8307,3.48405 2.1101,5.57874 0.2794,2.09469 1.1471,5.04992 1.9281,6.56718 1.0023,1.94699 0.2926,6.91801 0.2155,14.8519 -0.022,2.29109 2.5852,4.40971 2.8644,6.2093 0.3809,2.45415 0.909,4.60575 1.2213,6.87616 0.6495,4.721 -0.9773,8.62352 0.9236,14.67323 0.036,0.11511 0.1756,0.33384 0.3444,0.61986 0.2344,0.39731 0.3466,0.97315 0.493,1.53278 0.078,0.29782 0.1877,0.57888 0.316,0.82504 0.2863,0.5494 0.2637,1.071 0.584,1.071 0.1478,0 0.3427,0.1943 0.5611,0.53473 0.467,0.72762 1.042,2.1228 1.4973,3.71524 0.3114,1.96255 -1.4666,3.75168 -1.0992,5.62476 0.061,0.31268 0.1153,0.62336 0.1593,0.93175 0.1241,1.19166 -0.2483,1.96031 -0.3402,3.36277 -0.153,2.64577 0.2725,7.7292 0.719,8.78509 0.1266,0.28453 0.236,0.54678 0.3283,0.79334 0.4164,1.11136 0.486,1.90425 0.2122,2.98495 0,0.36414 -0.017,0.73055 -0.055,1.09755 -0.1978,1.9392 -0.3199,3.6032 -0.2228,5.3291 0.1963,0.7424 0.2196,1.6471 0.034,2.7309 -0.1681,0.9808 -0.5716,2.2584 0,2.6332 0.3383,0.2104 0.239,0.4867 0.6451,1.3644 0.4388,0.9729 0.6579,2.4237 0.4632,3.6085 -0.2486,1.5125 0.1762,2.975 0.073,3.25 -0.1032,0.275 -0.1621,2.4125 -0.131,4.75 0.029,2.22 -0.032,2.8617 -0.2781,3.8101 -0.1881,2.2811 -1.1946,1.4744 -1.2277,3.4077 -0.012,0.5607 -0.4295,0.6089 -0.7872,1.1551 -4.1904,5.0718 -2.9987,10.0121 -7.2061,15.2661 -2.6735,3.3634 -6.2136,6.5902 -9.6327,8.9973 -2.7805,1.9575 -2.7079,7.5519 -5.6308,9.7871 -3.2719,2.5022 -6.9748,8.7108 -13.2903,9.3132 -2.4184,0.2307 -4.5096,0.3022 -5.8523,0.1994 -1.9961,1.859 -3,3.1252 -3.5509,4.0856 -1.4984,2.6123 -1.5907,0.9687 -7.2364,4.8293 -2.8547,1.9723 -5.8345,3.1761 -10.32,6.8344 -2.4893,2.0438 -11.3485,1.906 -16.5031,3.3566 -9.134,2.5706 -15.3734,5.8304 -16.2657,4.3865 -0.94,-1.5209 -4.594,-1.3445 -6.4714,0.3124 -1.9284,1.702 -10.6397,2.1605 -13.6771,0.8746 z m 74.8231,-54.3575 c 2.8164,-2.5616 4.5815,-4.2632 5.6414,-5.4887 2.4093,-3.3464 2.5956,-8.0811 3.4037,-11.8016 0.7911,-3.6408 1.5644,-8.2672 1.9573,-11.5648 -0.024,-4.0403 -1.1928,-8.7768 -0.9259,-12.49292 -0.3702,-2.58198 -0.9302,-5.1608 -0.7275,-7.66522 0.4885,-3.30779 0.7314,-6.06797 -0.1193,-9.07407 -2.4688,-6.85641 -2.6109,-11.56969 -3.8384,-17.71959 -1.1969,-5.07662 -2.7609,-8.87834 -4.273,-13.52181 -0.2333,-2.15743 0.3398,-5.34315 -0.4642,-6.64806 -0.6463,-1.21477 -0.9021,-2.74014 -1.3147,-3.79333 -0.4569,-1.15812 -1.1125,-2.56995 -1.8377,-3.63864 -1.3722,-2.02203 -3.0136,-5.79733 -3.6476,-8.38954 -0.4217,-1.72437 -1.1613,-3.97897 -1.9092,-5.896 -0.6746,-1.71419 -1.5625,-3.41368 -2.0497,-5.02273 -0.8664,-2.40124 -0.7734,-5.03951 -1.0443,-7.39694 -0.2439,-2.87049 -1.1328,-6.30293 -1.7046,-8.88811 -0.4755,-2.22916 -0.6875,-4.32121 -1.4488,-6.42322 -0.9062,-2.24215 -0.3006,-4.34403 -0.87,-6.40939 -0.6093,-2.17192 -1.8027,-4.70812 -2.8592,-5.66423 -2.631,-2.38104 -14.6237,-4.13431 -20.8176,-2.76631 -8.5579,1.89011 -14.6822,4.0808 -15.3992,8.54816 -0.2048,1.27571 -0.5975,2.74831 -1.0413,4.00066 -0.2892,2.01179 -0.2912,4.3044 0.1291,5.94964 -0.2498,1.86344 0.6981,5.33939 0.1073,6.68492 0.5666,1.35275 0.1577,3.71687 0.6478,4.61348 0.086,1.31863 0.6966,3.98459 0.4964,4.93041 1.1013,1.27489 -0.4777,6.22907 -0.448,6.85292 0.648,6.38042 1.6439,11.87759 1.7162,12.48008 0.014,0.77805 0.4537,2.08963 0.976,2.91463 0.7734,1.22178 1.3878,8.68652 2.4283,29.5 0.028,0.55 -0.2118,3.925 -0.5318,7.5 -0.4401,4.91767 -0.1525,7.59547 1.1817,10.99997 1.2862,3.2821 1.7846,7.5157 1.8414,15.64184 0.062,8.9185 0.411,11.5126 1.7469,13 1.0328,1.15 1.6715,3.5732 1.6758,6.3582 0,2.475 0.2636,5.625 0.5773,7 0.3137,1.375 0.8658,4.075 1.2269,6 0.3611,1.925 1.647,5.075 2.8577,7 1.2107,1.925 2.5238,4.5174 2.9182,5.761 1.0139,3.1973 4.7861,6.1313 9.1691,5.4201 1.4213,-0.5158 2.1714,0.1356 3.283,0.699 0.9387,0.4721 1.9428,0.8059 2.0934,0.9411 2.1712,1.4218 6.5871,-3.1713 9.0949,-4.8643 4.6113,-3.113 9.4668,-5.2517 12.1019,-7.6666 z"
     id="path3768"
     inkscape:connector-curvature="0"
     sodipodi:nodetypes="cccssscccccssscscccscscccccssssscssccccccssccsssscccccscsccscsccccsccsccssssccccccccccssscsccscscscccsccccsccsscscscsccssscssscssssscscccscscsccsccccccssscsccscccccccccccccccsscccccccssccccccccccscccsssccccscc" /></g><g
   id="g3782"
   transform="translate(235.1763,-556.15783)" /></svg>