<?xml version="1.0" encoding="UTF-8" standalone="no"?>
<svg
   xmlns:dc="http://purl.org/dc/elements/1.1/"
   xmlns:cc="http://creativecommons.org/ns#"
   xmlns:rdf="http://www.w3.org/1999/02/22-rdf-syntax-ns#"
   xmlns:svg="http://www.w3.org/2000/svg"
   xmlns="http://www.w3.org/2000/svg"
   xmlns:sodipodi="http://sodipodi.sourceforge.net/DTD/sodipodi-0.dtd"
   xmlns:inkscape="http://www.inkscape.org/namespaces/inkscape"
   version="1.1"
   id="Layer_1"
   x="0px"
   y="0px"
   width="1000"
   height="1024"
   viewBox="0 0 1000 1024"
   enable-background="new 0 0 512 512"
   xml:space="preserve"
   inkscape:version="0.48.0 r9654"
   sodipodi:docname="hehebrew-x5d4.svg"><title
   id="title3743">Sinai 357</title><metadata
   id="metadata72"><rdf:RDF><cc:Work
       rdf:about=""><dc:format>image/svg+xml</dc:format><dc:type
         rdf:resource="http://purl.org/dc/dcmitype/StillImage" /><dc:title>Sinai 357</dc:title><dc:date>2017</dc:date><dc:creator><cc:Agent><dc:title>Celeste Claire Horner</dc:title></cc:Agent></dc:creator><dc:publisher><cc:Agent><dc:title>beitdina.net</dc:title></cc:Agent></dc:publisher></cc:Work></rdf:RDF></metadata><defs
   id="defs70" /><sodipodi:namedview
   pagecolor="#ffffff"
   bordercolor="#666666"
   borderopacity="1"
   objecttolerance="10"
   gridtolerance="10"
   guidetolerance="10"
   inkscape:pageopacity="0"
   inkscape:pageshadow="2"
   inkscape:window-width="1152"
   inkscape:window-height="814"
   id="namedview68"
   showgrid="false"
   inkscape:zoom="0.25488281"
   inkscape:cx="-32.354909"
   inkscape:cy="580.55589"
   inkscape:window-x="-8"
   inkscape:window-y="-8"
   inkscape:window-maximized="1"
   inkscape:current-layer="Layer_1" />
   
	<g
   id="Grid"
   transform="matrix(1.951787,0,0,1.9463791,8.3226368,10.281619)">
		<rect
   x="0"
   stroke-miterlimit="10"
   width="512"
   height="512"
   id="rect4"
   y="0"
   style="fill:none;stroke:#a9ccdb;stroke-miterlimit:10" />
		<line
   stroke-miterlimit="10"
   x1="0"
   y1="32"
   x2="512"
   y2="32"
   id="line6"
   style="fill:none;stroke:#a9ccdb;stroke-miterlimit:10" />
		<line
   stroke-miterlimit="10"
   x1="0"
   y1="64"
   x2="512"
   y2="64"
   id="line8"
   style="fill:none;stroke:#a9ccdb;stroke-miterlimit:10" />
		<line
   stroke-miterlimit="10"
   x1="0"
   y1="96"
   x2="512"
   y2="96"
   id="line10"
   style="fill:none;stroke:#a9ccdb;stroke-miterlimit:10" />
		<line
   stroke-miterlimit="10"
   x1="0"
   y1="128"
   x2="512"
   y2="128"
   id="line12"
   style="fill:none;stroke:#a9ccdb;stroke-miterlimit:10" />
		<line
   stroke-miterlimit="10"
   x1="0"
   y1="160"
   x2="512"
   y2="160"
   id="line14"
   style="fill:none;stroke:#a9ccdb;stroke-miterlimit:10" />
		<line
   stroke-miterlimit="10"
   x1="0"
   y1="192"
   x2="512"
   y2="192"
   id="line16"
   style="fill:none;stroke:#a9ccdb;stroke-miterlimit:10" />
		<line
   stroke-miterlimit="10"
   x1="0"
   y1="224"
   x2="512"
   y2="224"
   id="line18"
   style="fill:none;stroke:#a9ccdb;stroke-miterlimit:10" />
		<line
   stroke-miterlimit="10"
   x1="0"
   y1="256"
   x2="512"
   y2="256"
   id="line20"
   style="fill:none;stroke:#a9ccdb;stroke-miterlimit:10" />
		<line
   stroke-miterlimit="10"
   x1="0"
   y1="288"
   x2="512"
   y2="288"
   id="line22"
   style="fill:none;stroke:#a9ccdb;stroke-miterlimit:10" />
		<line
   stroke-miterlimit="10"
   x1="0"
   y1="320"
   x2="512"
   y2="320"
   id="line24"
   style="fill:none;stroke:#a9ccdb;stroke-miterlimit:10" />
		<line
   stroke-miterlimit="10"
   x1="0"
   y1="352"
   x2="512"
   y2="352"
   id="line26"
   style="fill:none;stroke:#a9ccdb;stroke-miterlimit:10" />
		<line
   stroke-miterlimit="10"
   x1="0"
   y1="384"
   x2="512"
   y2="384"
   id="line28"
   style="fill:none;stroke:#a9ccdb;stroke-miterlimit:10" />
		<line
   stroke-miterlimit="10"
   x1="0"
   y1="416"
   x2="512"
   y2="416"
   id="line30"
   style="fill:none;stroke:#a9ccdb;stroke-miterlimit:10" />
		<line
   stroke-miterlimit="10"
   x1="0"
   y1="448"
   x2="512"
   y2="448"
   id="line32"
   style="fill:none;stroke:#ff0000;stroke-miterlimit:10" />
		<line
   stroke-miterlimit="10"
   x1="0"
   y1="480"
   x2="512"
   y2="480"
   id="line34"
   style="fill:none;stroke:#a9ccdb;stroke-miterlimit:10" />
		<line
   stroke-miterlimit="10"
   x1="32"
   y1="0"
   x2="32"
   y2="512"
   id="line36"
   style="fill:none;stroke:#a9ccdb;stroke-miterlimit:10" />
		<line
   stroke-miterlimit="10"
   x1="64"
   y1="0"
   x2="64"
   y2="512"
   id="line38"
   style="fill:none;stroke:#a9ccdb;stroke-miterlimit:10" />
		<line
   stroke-miterlimit="10"
   x1="96"
   y1="0"
   x2="96"
   y2="512"
   id="line40"
   style="fill:none;stroke:#a9ccdb;stroke-miterlimit:10" />
		<line
   stroke-miterlimit="10"
   x1="128"
   y1="0"
   x2="128"
   y2="512"
   id="line42"
   style="fill:none;stroke:#a9ccdb;stroke-miterlimit:10" />
		<line
   stroke-miterlimit="10"
   x1="160"
   y1="0"
   x2="160"
   y2="512"
   id="line44"
   style="fill:none;stroke:#a9ccdb;stroke-miterlimit:10" />
		<line
   stroke-miterlimit="10"
   x1="192"
   y1="0"
   x2="192"
   y2="512"
   id="line46"
   style="fill:none;stroke:#a9ccdb;stroke-miterlimit:10" />
		<line
   stroke-miterlimit="10"
   x1="224"
   y1="0"
   x2="224"
   y2="512"
   id="line48"
   style="fill:none;stroke:#a9ccdb;stroke-miterlimit:10" />
		<line
   stroke-miterlimit="10"
   x1="256"
   y1="0"
   x2="256"
   y2="512"
   id="line50"
   style="fill:none;stroke:#a9ccdb;stroke-miterlimit:10" />
		<line
   stroke-miterlimit="10"
   x1="288"
   y1="0"
   x2="288"
   y2="512"
   id="line52"
   style="fill:none;stroke:#a9ccdb;stroke-miterlimit:10" />
		<line
   stroke-miterlimit="10"
   x1="320"
   y1="0"
   x2="320"
   y2="512"
   id="line54"
   style="fill:none;stroke:#a9ccdb;stroke-miterlimit:10" />
		<line
   stroke-miterlimit="10"
   x1="352"
   y1="0"
   x2="352"
   y2="512"
   id="line56"
   style="fill:none;stroke:#a9ccdb;stroke-miterlimit:10" />
		<line
   stroke-miterlimit="10"
   x1="384"
   y1="0"
   x2="384"
   y2="512"
   id="line58"
   style="fill:none;stroke:#a9ccdb;stroke-miterlimit:10" />
		<line
   stroke-miterlimit="10"
   x1="416"
   y1="0"
   x2="416"
   y2="512"
   id="line60"
   style="fill:none;stroke:#a9ccdb;stroke-miterlimit:10" />
		<line
   stroke-miterlimit="10"
   x1="448"
   y1="0"
   x2="448"
   y2="512"
   id="line62"
   style="fill:none;stroke:#a9ccdb;stroke-miterlimit:10" />
		<line
   stroke-miterlimit="10"
   x1="480"
   y1="0"
   x2="480"
   y2="512"
   id="line64"
   style="fill:none;stroke:#a9ccdb;stroke-miterlimit:10" />
	</g>
<path
   style="fill:#592002"
   d="m 319.99655,105.99188 c -3.4605,8.2063 -5.489,35.5374 -5.3335,61.3723 2.5086,21.2217 2.6697,40.988 1.3807,60.2832 -1.2881,19.2844 -4.0246,38.0979 -7.3134,57.4235 -4.3741,25.6323 -9.078,50.85265 -12.523,74.45249 -2.9217,20.22549 -5.1492,40.13976 -5.6658,59.51661 -0.4137,15.10479 -1.1153,30.65563 -4.1006,48.31646 -3.1503,18.86789 -6.6098,34.08579 -15.4317,43.03025 -22.0447,33.23152 -19.4185,28.27935 -40.8046,35.65311 -19.3174,4.62746 -37.3046,9.92942 -55.8991,9.57963 -13.7273,-0.30336 -26.9301,-2.21711 -38.6231,-3.4339 -22.3979,-0.95837 -41.853202,4.43609 -49.811602,18.29564 -1.672,3.20731 -2.5891,7.55127 -2.2611,12.28884 6.9227,25.50872 12.7179,47.01879 22.736102,69.21795 20.4608,45.52112 42.8881,94.7016 63.3729,136.33753 8.8757,15.94408 25.7743,48.40935 37.6794,56.38794 8.8533,5.44128 19.1322,0.98908 30.5822,-1.21641 28.7464,-5.5424 59.111,-11.80311 88.252,-17.6511 10.7768,1.85458 19.7341,2.40211 28.1563,1.4707 9.6372,-0.48611 18.5995,-4.18778 27.1115,-8.716 13.7159,-7.29661 26.2628,-16.73879 38.5809,-18.33009 2.6877,0 11.1571,-2.72794 18.821,-6.08543 13.6912,-5.99743 14.236,-5.92927 31.2446,3.90615 18.5134,19.33191 33.3438,38.39753 49.143,58.84436 17.5781,22.68603 35.9921,42.82314 46.7287,20.32062 19.5453,-24.92411 34.452,-42.86096 45.50462,-70.91524 3.20034,-8.31565 4.44644,-13.98501 4.24254,-24.25261 -0.51334,-14.43293 -2.28039,-27.69026 -2.87208,-41.87113 -0.30393,-7.53967 -0.21937,-13.64871 0.28739,-18.95179 4.05672,-20.64606 8.67677,-29.93882 4.56131,-46.85999 -2.88137,-11.70274 -3.4078,-25.09864 -1.74306,-37.47249 3.23451,-14.76849 7.7039,-28.93476 8.09081,-42.56847 0.88493,-11.54095 -1.43242,-22.98751 -2.53819,-33.57795 -0.54132,-12.06339 3.69206,-22.77554 6.16536,-33.58768 16.31994,-71.40622 30.86922,-154.30695 36.09324,-221.6568 l 2.17016,-35.9337 -12.90448,-18.2252 c -4.36366,-6.2937 -11.82828,-14.1517 -20.5166,-21.6587 -19.34935,-16.719 -44.76802,-31.6979 -55.52062,-23.7789 -9.5246,8.6778 -12.0539,15.6523 -11.7836,22.0771 -0.3419,7.8175 -1.2087,15.0044 -0.8381,23.3684 0.4978,12.4809 1.1999,17.732 4.482,31.7675 -7.8706,49.50033 -21.6972,98.29805 -31.1575,144.04275 -8.3168,33.65734 -14.5206,62.37787 -31.3825,88.77644 -3.9401,6.1315 -8.1506,11.11924 -11.9959,12.60081 -3.5608,1.30517 -7.5414,2.32497 -11.775,3.0811 -21.0499,3.75972 -48.3525,1.00295 -61.3879,-5.58396 -7.4022,-4.22599 -10.9976,-11.73157 -12.7691,-16.82455 -2.068,-5.94575 -1.6503,-9.74517 -1.9009,-18.65142 -0.7057,-26.24801 1.7342,-52.07544 4.4538,-78.94926 1.7179,-11.81883 3.6794,-49.29582 4.3589,-83.28271 0.2791,-13.9618 0.7758,-27.6109 1.3839,-39.2147 0.072,-20.5723 5.8692,-43.04 6.0849,-61.0076 0.1765,-19.3221 -1.9355,-42.0232 -5.8754,-54.339 -3.1432,-9.8253 -5.5609,-19.0944 -5.3726,-20.5981 -0.3094,-2.5639 -1.4784,-5.8368 -3.0352,-9.1512 -1.2766,-2.7174 -2.814,-5.4634 -4.352,-7.8688 -2.0124,-3.1474 -4.0258,-5.7125 -5.4574,-6.8708 -17.2695,-12.7611 -40.7219,-24.3257 -61.521,-28.2326 -11.8926,-1.771801 -14.7253,-0.9632 -17.2016,4.9087 z"
   id="path3758"
   inkscape:connector-curvature="0"
   sodipodi:nodetypes="ccsccccccccccccccccscccccccccccccccccscccccccscsccsccscsscccc" />
</svg>