<?xml version="1.0" encoding="UTF-8" standalone="no"?>
<svg
   xmlns:dc="http://purl.org/dc/elements/1.1/"
   xmlns:cc="http://creativecommons.org/ns#"
   xmlns:rdf="http://www.w3.org/1999/02/22-rdf-syntax-ns#"
   xmlns:svg="http://www.w3.org/2000/svg"
   xmlns="http://www.w3.org/2000/svg"
   xmlns:sodipodi="http://sodipodi.sourceforge.net/DTD/sodipodi-0.dtd"
   xmlns:inkscape="http://www.inkscape.org/namespaces/inkscape"
   version="1.1"
   id="Layer_1"
   x="0px"
   y="0px"
   width="1024"
   height="900"
   viewBox="0 0 1024 900"
   enable-background="new 0 0 512 512"
   xml:space="preserve"
   inkscape:version="0.48.0 r9654"
   sodipodi:docname="hephoenician-x10904.svg"><title
   id="title3743">Sinai 357</title><metadata
   id="metadata72"><rdf:RDF><cc:Work
       rdf:about=""><dc:format>image/svg+xml</dc:format><dc:type
         rdf:resource="http://purl.org/dc/dcmitype/StillImage" /><dc:title>Sinai 357</dc:title><dc:date>2017</dc:date><dc:creator><cc:Agent><dc:title>Celeste Claire Horner</dc:title></cc:Agent></dc:creator><dc:publisher><cc:Agent><dc:title>beitdina.net</dc:title></cc:Agent></dc:publisher></cc:Work></rdf:RDF></metadata><defs
   id="defs70" /><sodipodi:namedview
   pagecolor="#ffffff"
   bordercolor="#666666"
   borderopacity="1"
   objecttolerance="10"
   gridtolerance="10"
   guidetolerance="10"
   inkscape:pageopacity="0"
   inkscape:pageshadow="2"
   inkscape:window-width="1013"
   inkscape:window-height="710"
   id="namedview68"
   showgrid="false"
   inkscape:zoom="0.36045873"
   inkscape:cx="-43.559495"
   inkscape:cy="274.01342"
   inkscape:window-x="79"
   inkscape:window-y="76"
   inkscape:window-maximized="0"
   inkscape:current-layer="Layer_1" />
   
	<g
   id="Grid"
   transform="matrix(1.9988492,0,0,1.7551819,2.4343167,-0.03627189)">
		<rect
   x="0"
   stroke-miterlimit="10"
   width="512"
   height="512"
   id="rect4"
   y="0"
   style="fill:none;stroke:#a9ccdb;stroke-miterlimit:10" />
		<line
   stroke-miterlimit="10"
   x1="0"
   y1="32"
   x2="512"
   y2="32"
   id="line6"
   style="fill:none;stroke:#a9ccdb;stroke-miterlimit:10" />
		<line
   stroke-miterlimit="10"
   x1="0"
   y1="64"
   x2="512"
   y2="64"
   id="line8"
   style="fill:none;stroke:#a9ccdb;stroke-miterlimit:10" />
		<line
   stroke-miterlimit="10"
   x1="0"
   y1="96"
   x2="512"
   y2="96"
   id="line10"
   style="fill:none;stroke:#a9ccdb;stroke-miterlimit:10" />
		<line
   stroke-miterlimit="10"
   x1="0"
   y1="128"
   x2="512"
   y2="128"
   id="line12"
   style="fill:none;stroke:#a9ccdb;stroke-miterlimit:10" />
		<line
   stroke-miterlimit="10"
   x1="0"
   y1="160"
   x2="512"
   y2="160"
   id="line14"
   style="fill:none;stroke:#a9ccdb;stroke-miterlimit:10" />
		<line
   stroke-miterlimit="10"
   x1="0"
   y1="192"
   x2="512"
   y2="192"
   id="line16"
   style="fill:none;stroke:#a9ccdb;stroke-miterlimit:10" />
		<line
   stroke-miterlimit="10"
   x1="0"
   y1="224"
   x2="512"
   y2="224"
   id="line18"
   style="fill:none;stroke:#a9ccdb;stroke-miterlimit:10" />
		<line
   stroke-miterlimit="10"
   x1="0"
   y1="256"
   x2="512"
   y2="256"
   id="line20"
   style="fill:none;stroke:#a9ccdb;stroke-miterlimit:10" />
		<line
   stroke-miterlimit="10"
   x1="0"
   y1="288"
   x2="512"
   y2="288"
   id="line22"
   style="fill:none;stroke:#a9ccdb;stroke-miterlimit:10" />
		<line
   stroke-miterlimit="10"
   x1="0"
   y1="320"
   x2="512"
   y2="320"
   id="line24"
   style="fill:none;stroke:#a9ccdb;stroke-miterlimit:10" />
		<line
   stroke-miterlimit="10"
   x1="0"
   y1="352"
   x2="512"
   y2="352"
   id="line26"
   style="fill:none;stroke:#a9ccdb;stroke-miterlimit:10" />
		<line
   stroke-miterlimit="10"
   x1="0"
   y1="384"
   x2="512"
   y2="384"
   id="line28"
   style="fill:none;stroke:#a9ccdb;stroke-miterlimit:10" />
		<line
   stroke-miterlimit="10"
   x1="0"
   y1="416"
   x2="512"
   y2="416"
   id="line30"
   style="fill:none;stroke:#a9ccdb;stroke-miterlimit:10" />
		<line
   stroke-miterlimit="10"
   x1="0"
   y1="448"
   x2="512"
   y2="448"
   id="line32"
   style="fill:none;stroke:#ff0000;stroke-miterlimit:10" />
		<line
   stroke-miterlimit="10"
   x1="0"
   y1="480"
   x2="512"
   y2="480"
   id="line34"
   style="fill:none;stroke:#a9ccdb;stroke-miterlimit:10" />
		<line
   stroke-miterlimit="10"
   x1="32"
   y1="0"
   x2="32"
   y2="512"
   id="line36"
   style="fill:none;stroke:#a9ccdb;stroke-miterlimit:10" />
		<line
   stroke-miterlimit="10"
   x1="64"
   y1="0"
   x2="64"
   y2="512"
   id="line38"
   style="fill:none;stroke:#a9ccdb;stroke-miterlimit:10" />
		<line
   stroke-miterlimit="10"
   x1="96"
   y1="0"
   x2="96"
   y2="512"
   id="line40"
   style="fill:none;stroke:#a9ccdb;stroke-miterlimit:10" />
		<line
   stroke-miterlimit="10"
   x1="128"
   y1="0"
   x2="128"
   y2="512"
   id="line42"
   style="fill:none;stroke:#a9ccdb;stroke-miterlimit:10" />
		<line
   stroke-miterlimit="10"
   x1="160"
   y1="0"
   x2="160"
   y2="512"
   id="line44"
   style="fill:none;stroke:#a9ccdb;stroke-miterlimit:10" />
		<line
   stroke-miterlimit="10"
   x1="192"
   y1="0"
   x2="192"
   y2="512"
   id="line46"
   style="fill:none;stroke:#a9ccdb;stroke-miterlimit:10" />
		<line
   stroke-miterlimit="10"
   x1="224"
   y1="0"
   x2="224"
   y2="512"
   id="line48"
   style="fill:none;stroke:#a9ccdb;stroke-miterlimit:10" />
		<line
   stroke-miterlimit="10"
   x1="256"
   y1="0"
   x2="256"
   y2="512"
   id="line50"
   style="fill:none;stroke:#a9ccdb;stroke-miterlimit:10" />
		<line
   stroke-miterlimit="10"
   x1="288"
   y1="0"
   x2="288"
   y2="512"
   id="line52"
   style="fill:none;stroke:#a9ccdb;stroke-miterlimit:10" />
		<line
   stroke-miterlimit="10"
   x1="320"
   y1="0"
   x2="320"
   y2="512"
   id="line54"
   style="fill:none;stroke:#a9ccdb;stroke-miterlimit:10" />
		<line
   stroke-miterlimit="10"
   x1="352"
   y1="0"
   x2="352"
   y2="512"
   id="line56"
   style="fill:none;stroke:#a9ccdb;stroke-miterlimit:10" />
		<line
   stroke-miterlimit="10"
   x1="384"
   y1="0"
   x2="384"
   y2="512"
   id="line58"
   style="fill:none;stroke:#a9ccdb;stroke-miterlimit:10" />
		<line
   stroke-miterlimit="10"
   x1="416"
   y1="0"
   x2="416"
   y2="512"
   id="line60"
   style="fill:none;stroke:#a9ccdb;stroke-miterlimit:10" />
		<line
   stroke-miterlimit="10"
   x1="448"
   y1="0"
   x2="448"
   y2="512"
   id="line62"
   style="fill:none;stroke:#a9ccdb;stroke-miterlimit:10" />
		<line
   stroke-miterlimit="10"
   x1="480"
   y1="0"
   x2="480"
   y2="512"
   id="line64"
   style="fill:none;stroke:#a9ccdb;stroke-miterlimit:10" />
	</g>
<path
   style="fill:#966334"
   d="m 248.3352,186.06491 c -5.5542,4.59577 -8.33074,7.10277 -11.67956,15.46909 -0.7386,1.31031 -3.38149,4.52551 -5.29531,7.65544 -2.06188,3.02482 -2.07851,4.93959 -1.10161,8.01909 0.64867,2.16163 1.21699,4.47336 1.72415,6.92322 0.26307,2.49449 0.79758,3.81387 2.30913,5.32043 1.77591,1.82616 2.82915,3.22963 3.45875,4.3848 1.93753,3.55485 -0.1368,4.75806 2.49147,8.69067 2.80145,4.20192 6.30764,7.90056 7.48949,7.90056 0.61832,0 5.24193,4.1753 10.27468,9.27845 5.03275,5.10315 9.94442,9.27845 10.9148,9.27845 0.97037,0 4.44417,1.62379 7.71953,3.60842 3.27537,1.98463 7.59006,4.07395 9.58824,4.64292 1.99815,0.56898 4.93334,3.12048 6.52264,5.67004 1.5893,2.54952 3.60966,4.64761 4.48967,4.6624 2.37109,5.77275 6.51854,5.50113 10.59608,7.93408 19.66482,13.0489 24.90685,9.83568 39.92812,25.96322 1.94546,5.298 6.27629,3.03588 7.9104,3.90595 2.96212,1.57716 3.13373,3.04482 7.1918,4.7821 4.618,0.33036 2.64996,0.49125 3.66666,1.11748 4.4997,4.54393 5.14138,4.96678 8.13238,4.65223 3.44625,-0.38607 3.87781,6.31274 6.89893,6.01633 8.7732,-1.15798 2.99253,6.73845 7.26357,4.98478 2.54322,1.95298 8.34419,4.76584 8.88142,5.65384 2.85402,4.86599 4.70298,5.48308 8.84377,2.95167 2.16565,-1.32395 3.45129,-0.64673 7.45551,3.92723 2.66122,3.03988 6.63334,5.93708 8.82694,6.43822 2.1936,0.50114 5.34749,2.59375 7.00866,4.65021 1.66114,2.05647 5.25107,5.08117 7.97762,6.72155 4.68534,2.81888 17.60432,16.52499 22.62538,23.52604 2.39808,2.63062 1.72006,5.21574 0.94702,8.17783 -2.50314,9.51381 -8.65655,22.11687 -14.30066,26.75781 -5.95933,2.35663 -10.52364,6.55759 -16.16937,8.78781 -3.52177,1.37131 -5.60906,0.72826 -11.29994,-1.04739 -3.68742,-1.16917 -6.73295,-2.87947 -9.52436,-5.25576 -4.60482,-3.94424 -8.89985,-8.3182 -9.54448,-9.71995 -0.64463,-1.40173 -3.01169,-4.46229 -5.26013,-6.80122 -3.13469,-3.26087 -5.45054,-4.25263 -9.93026,-4.25263 -6.07106,0 -6.2644,-0.15093 -22.76799,-17.7837 -2.38818,-2.55157 -6.60324,-5.97317 -9.36677,-7.60353 -8.85826,-12.17302 -24.57414,-6.04097 -34.49126,-14.4211 -13.92769,-10.25941 -29.34125,-22.52282 -39.19613,-38.67189 -1.30739,-2.27691 -3.34772,-3.47943 -5.90353,-3.47943 -15.33281,-2.73642 -0.88003,-9.24897 -14.51946,-9.54149 -5.0739,-0.34443 -2.86053,-0.73113 -5.57633,-7.19921 -1.36934,-3.54618 -3.14275,-5.38242 -5.78014,-5.98494 -2.23071,-0.50963 -4.74512,-2.68773 -6.07789,-5.26493 -1.25024,-2.41766 -3.87168,-5.03227 -5.82542,-5.81025 -2.38537,-0.94987 -3.97897,-3.1141 -4.85127,-6.58837 -0.81673,-3.25299 -3.04193,-6.45348 -5.9936,-8.62058 -2.58203,-1.89571 -6.7726,-5.21376 -9.3124,-7.37344 -2.53977,-2.1597 -6.07294,-3.92672 -7.85147,-3.92672 -9.84904,0.0154 -5.77712,-5.89865 -13.9852,-6.33376 -1.45313,0 -6.95851,-4.188 -10.61123,-0.0374 -3.65272,4.15056 -8.64683,8.84777 -11.09804,10.43825 -2.45121,1.59036 -5.56267,4.10946 -6.91437,5.59788 -1.3517,1.48842 -2.96558,2.70622 -3.5864,2.70622 -0.62082,0 -3.4046,3.77459 -6.1862,8.38798 -4.82766,8.00696 -5.04285,8.90078 -4.73689,19.67645 0.26814,9.44378 0.84419,11.9268 3.5251,15.19475 1.76251,2.14844 3.86519,6.86378 4.67259,10.47851 1.2351,5.52946 2.00432,6.57223 4.84815,6.57223 2.17991,0 5.12725,2.13319 8.30043,6.0075 3.37519,4.12098 6.53987,6.3337 10.07774,7.04624 2.97922,0.6 7.26747,3.2001 10.15337,6.15628 6.15712,6.30706 19.98588,14.63325 25.36623,15.27281 5.22098,0.62061 12.98679,4.57328 15.33223,7.80387 1.02191,1.40753 2.44727,2.55915 3.16746,2.55915 0.72021,0 2.32093,1.3547 3.55715,3.01046 1.50086,2.0102 4.27178,3.13401 8.33969,3.38234 4.15787,0.25381 8.02616,1.86185 12.18404,5.06484 3.48253,2.68272 7.42881,4.4937 9.21283,4.22781 3.25731,-0.48544 7.98627,2.41446 12.67923,7.77516 7.67466,4.20908 13.99352,2.08933 20.0752,8.31046 1.86144,1.93423 6.21378,6.38407 9.67186,9.88851 4.34024,4.39845 6.55813,8.02009 7.16155,11.69431 0.76699,4.67011 1.5728,5.53455 6.57352,7.05181 3.13466,0.95107 9.82062,4.10913 14.8577,7.01791 8.5416,4.93256 13.2887,6.44203 21.06966,6.69963 1.76723,0.0585 5.57961,2.82227 8.67657,6.29 5.79043,6.48367 6.51021,6.78336 15.24676,6.34822 8.4094,7.67908 20.58637,20.24376 2.54671,26.37441 -2.83903,0.89544 -7.99791,5.16552 -12.8956,10.67389 -4.48986,5.04976 -8.90721,9.18136 -9.81629,9.18136 -0.90906,0 -3.44502,2.85853 -5.63544,6.35228 -5.91997,9.44241 -8.46011,12.21543 -11.08996,12.10661 -11.22132,-8.52352 -14.70952,-2.72113 -19.82344,-2.87129 -2.42125,-0.0711 -5.20692,-1.47652 -9.35034,-6.36855 -4.62385,-5.49574 -13.27761,-13.68982 -19.23058,-18.20909 -9.69948,-7.36344 -11.31573,-8.09817 -15.56186,-7.07427 -15.45777,-0.0597 -35.17969,-3.37012 -45.35171,-13.31744 -3.44118,-3.4021 -6.73539,-6.18564 -7.32047,-6.18564 -5.32004,-3.67036 -9.0554,-9.73781 -15.28495,-12.21712 -2.67307,-1.00771 -6.6,-3.54144 -8.72652,-5.63051 -2.12652,-2.08907 -4.37951,-3.79916 -5.00665,-3.8002 -0.62715,-9.2e-4 -2.64992,-1.35837 -4.49507,-3.01627 -1.84516,-1.65792 -6.06085,-3.47791 -9.36822,-4.04446 -3.30736,-0.56654 -6.34645,-1.64565 -6.75352,-2.39804 -0.15736,-0.58939 -0.6696,-1.7285 -7.8026,-5.15993 -3.13948,-1.51029 -10.37692,-6.41117 -10.37692,-9.68337 0,-0.87259 -2.81676,-1.9492 -6.25946,-2.39244 -3.44271,-0.44328 -6.25527,-2.2449 -7.10736,-2.28924 -1.32931,-0.0691 -5.35135,2.91859 -12.95417,-4.02339 -4.11395,-3.75637 -7.49987,-0.0108 -10.43699,-2.49146 -2.06022,-1.73992 -4.59074,-3.1635 -5.62336,-3.1635 -1.03263,0 -3.77863,-1.08335 -6.10224,-2.40744 -3.60661,-2.05523 -5.44617,-2.13298 -12.57281,-0.5314 -7.193656,1.61665 -9.245396,2.91189 -14.836666,9.36631 -3.56872,4.11961 -7.15598,7.49021 -7.97171,7.49021 -2.22487,0 -6.25998,8.61653 -6.25998,12.8646 0,2.03722 -1.15404,11.91211 1.45199,15.38988 2.60603,3.47776 4.73823,7.24178 4.73823,8.36447 0,1.12269 0.45691,2.04567 1.01535,2.05104 0.55843,0.005 1.97744,1.94244 3.15336,4.30459 1.34491,2.70166 4.21504,5.07782 7.73726,6.40566 3.07958,1.16097 6.94498,3.74715 8.589776,5.74707 1.6448,1.99991 3.82241,3.63621 4.83915,3.63621 1.01675,0 4.23689,1.39176 7.15589,3.09282 2.919,1.70104 7.31144,3.09741 9.76099,3.10301 2.44954,0.006 6.28133,1.39279 8.51507,3.08262 2.23374,1.68984 5.35746,3.07703 6.9416,3.08263 1.58413,0.006 3.71634,1.1714 4.73824,2.59066 1.02189,1.41929 5.54524,4.4954 10.05191,6.83585 6.81755,3.54056 10.11485,4.26599 19.62984,4.31877 10.6758,0.0592 12.1588,0.4861 22.31103,6.42228 7.89093,4.61395 11.80777,6.09146 14.27395,5.38441 2.44756,-0.7017 4.09304,-0.0982 5.87913,2.15622 1.95807,2.4715 3.03359,2.79239 5.10823,1.52409 1.92589,-1.17736 3.41745,-1.03113 5.58318,0.54737 1.62538,1.18464 6.30584,2.29873 10.40104,2.47572 4.09519,0.177 9.57801,1.27265 12.18404,2.43476 2.60602,1.16211 7.22865,2.87518 10.27251,3.80683 4.2175,1.29086 6.15014,3.0007 8.1227,7.18635 1.56403,3.31875 3.92785,5.83838 5.97287,6.36652 11.13505,2.87572 17.80452,5.79806 22.78927,9.98549 3.10209,2.6059 5.64016,5.11757 5.64016,5.58149 0,2.72199 -6.92713,13.26557 -13.81418,21.0262 -10.00755,11.2769 -11.04875,14.18215 -7.90909,22.06889 2.71831,3.99257 5.04482,6.47158 7.2313,8.49842 2.90576,2.69362 5.56421,4.58865 8.56628,8.17637 2.38348,2.97437 3.66819,7.20911 6.01637,3.29501 l -0.11372,5.41243 c -0.26644,12.68004 2.80195,18.91904 11.19176,22.75637 2.79217,1.2771 5.07668,2.94231 5.07668,3.70048 0,3.85276 5.70677,7.57113 11.84561,7.71829 3.48988,0.68016 3.81334,1.27548 8.16032,6.05975 0.70539,0.86299 0.47821,4.26073 0.3008,4.61096 -2.70532,0 -1.36,9.13077 1.89277,12.84637 1.78561,2.03968 4.31122,6.06026 5.61248,8.93464 1.30124,2.87439 4.71153,8.02205 7.57843,11.43928 2.86689,3.41722 5.54132,7.36174 5.9432,8.76561 0.40185,1.40386 2.17,2.96513 3.92919,3.46948 1.88896,0.54155 5.25004,4.44748 8.20912,9.53987 5.24223,9.0215 6.17746,9.84525 11.97975,10.5519 1.95604,0.23822 4.81717,1.7364 6.35803,3.32927 1.91755,1.98227 5.47079,3.09029 11.26059,3.51141 8.37838,0.60941 8.50248,0.55847 13.02152,-5.34471 2.50938,-3.27799 6.30266,-7.18095 8.4295,-8.67324 2.12683,-1.49229 5.82758,-4.74807 8.22391,-7.23512 2.39632,-2.48703 6.79376,-6.3995 9.77208,-8.69437 2.97832,-2.29489 5.77165,-4.80964 6.20741,-5.58835 0.43575,-0.77871 2.54251,-1.95052 4.68167,-2.60403 2.9,-0.88593 4.90359,-3.39054 7.87627,-9.84578 2.19279,-4.76168 5.42118,-9.4041 7.17422,-10.31649 1.75306,-0.91238 4.20936,-4.10699 5.45846,-7.09911 2.20791,-5.28884 4.80274,-6.63086 8.13832,-4.20909 0.89674,0.65108 1.65025,2.5541 1.67444,4.22894 1.1533,7.97101 5.811,5.60708 7.72382,5.07306 1.93872,-0.54125 1.14822,0.71462 4.67377,4.04922 2.02185,1.94335 6.05716,3.96829 8.96733,4.49986 3.32815,0.60791 6.76504,2.69085 9.26368,5.61426 2.18482,2.55628 6.49177,6.07147 9.57095,7.81155 3.07919,1.74008 9.1904,7.22875 13.58049,12.19702 6.47854,7.33182 9.12136,9.25218 14.03131,10.19566 5.67985,1.0914 10.46641,4.37269 16.92724,11.60395 1.51534,1.69606 3.7639,3.08373 4.99678,3.08373 1.2329,0 2.56133,0.59091 2.95209,1.31311 0.60047,1.10985 18.72078,3.68214 25.17118,3.57325 1.11687,-0.0189 4.92439,-1.50652 8.46114,-3.3059 5.63912,-2.86899 6.43047,-3.85182 6.43047,-7.98646 0,-4.66954 3.71959,-13.69731 5.6435,-13.69731 1.82456,0 5.71236,-11.26816 5.58995,-16.20154 -0.28963,-11.6713 -6.99622,-27.3416 -13.66629,-31.93197 -2.75713,-1.89748 -6.73261,-5.76135 -8.83442,-8.58639 -5.2815,-5.6634 -12.35774,-8.38391 -17.29437,-12.86849 -4.63882,-4.25261 -9.55876,-7.73204 -10.93317,-7.73204 -3.98874,-0.84866 -6.37285,-5.92989 -10.19219,-5.22304 -1.8655,0.38642 -5.99852,-0.94784 -9.62094,-3.10591 -1.96203,-1.48611 -14.35867,-5.7268 -12.43656,-7.13934 -15.16331,-7.84861 1.62884,-16.36981 -1.04082,-26.5758 -2.39759,-2.06179 1.06622,-2.80591 15.26897,-19.31255 9.49085,-14.32643 8.26971,-0.31378 13.06648,-16.93022 11.18449,-7.52061 6.24917,-7.15485 10.6408,-18.45269 1.46964,-3.68506 2.67207,-9.02676 2.67207,-11.87042 0,-2.84367 1.2184,-7.90016 2.70757,-11.23668 1.48915,-3.33652 2.70755,-7.28652 2.70755,-8.77781 0,-1.49128 1.37071,-3.54548 3.04602,-4.56485 3.74616,-2.27942 6.01816,-5.35784 8.41358,-11.39988 2.14063,-5.39936 6.59957,-11.59806 8.34287,-11.59806 2.69858,0 8.62697,-8.06141 8.62697,-11.73093 0,-2.13057 1.4159,-5.49111 3.14647,-7.46792 1.73057,-1.97681 4.19596,-6.12046 5.47865,-9.20817 1.28269,-3.08768 2.94387,-5.61396 3.69151,-5.61396 1.61938,0 5.65577,-10.43039 4.71165,-12.17534 -1.12942,-2.08747 3.0014,-15.44422 6.40066,-20.6961 1.78547,-2.75856 3.62188,-6.23337 4.08091,-7.72179 0.45903,-1.48841 1.62453,-2.70622 2.59001,-2.70622 0.96546,0 2.8663,-3.57285 4.22406,-7.93965 2.45597,-7.89887 5.38281,-12.24169 11.55563,-17.14613 3.39624,-2.69839 7.394,-16.15089 5.64244,-18.98686 -0.52531,-0.85052 -1.11878,-4.67788 -1.31884,-8.50524 -0.38523,-7.37002 -1.09563,-8.6161 -11.34887,-19.9071 -26.22426,-11.1766 -18.49174,-22.14565 -27.82395,-45.63835 -0.64928,-0.94782 -1.57936,-3.63076 -2.06683,-5.96208 -5.84814,-11.5291 -8.33837,-17.51583 -19.11687,-18.82428 -11.777,1.33433 -19.01791,-6.93173 -28.22948,-12.43488 -8.77351,-5.19464 -13.30944,-5.4045 -18.21386,-0.84267 -1.3716,1.27578 -4.21602,3.36343 -6.32094,4.63922 -2.10492,1.27579 -4.49651,3.71138 -5.31464,5.41242 -0.81813,1.70106 -4.91925,7.63934 -9.11362,13.19622 -13.09876,15.66716 -17.27429,40.55592 -36.17996,41.94576 -8.33584,0.33719 -26.44301,-11.91721 -27.46777,-16.38117 -0.33394,-2.08264 -2.33353,-3.53241 -6.57793,-4.76923 -3.35399,-0.97735 -7.61768,-2.7362 -9.4749,-3.90855 -1.85721,-1.17234 -3.83915,-1.98161 -4.40431,-1.79835 -0.86962,0.28198 -9.32798,-1.77064 -13.86405,-3.36444 -4.81762,-1.69273 -8.61358,-4.40836 -11.9517,-8.55026 -3.07687,-3.81772 -4.32255,-4.44926 -6.34147,-3.21504 -13.96098,-2.98491 -54.9093,-36.35455 -62.92592,-48.93937 -1.08999,-2.97988 -2.48054,-5.06586 -3.09013,-4.63551 -2.00769,1.41736 -4.28789,-1.38913 -6.16931,-7.59324 -1.64096,-5.41111 -2.35771,-6.11692 -6.25736,-6.16184 -4.22787,-0.0487 -8.18224,-3.72292 -8.18224,-7.60255 0,-2.25541 -14.55004,-13.19328 -28.06903,-21.10067 -12.07651,-4.26773 -11.09912,-17.24923 -17.09359,-15.80636 -7.26321,1.78185 -12.78942,0.86079 -20.41917,-3.40323 -10.45549,-5.84326 -16.58514,-6.31606 -22.15332,-1.70874 z"
   id="path3760"
   inkscape:connector-curvature="0"
   sodipodi:nodetypes="ccccccscsssssscccsccccccsssssccccccssssccccccssssssccscsssssssssssssssssccsssscsccssscscsccccsssscssssscsssssssscssssscscsssssssssssssssscsccssscccssssssssssssssssssscscssssssscssssssccccccccccsssssssssssssssssscccccssscccsscssccssssccssc" />
	</svg>