<?xml version="1.0" encoding="UTF-8" standalone="no"?>
<svg
   xmlns:dc="http://purl.org/dc/elements/1.1/"
   xmlns:cc="http://creativecommons.org/ns#"
   xmlns:rdf="http://www.w3.org/1999/02/22-rdf-syntax-ns#"
   xmlns:svg="http://www.w3.org/2000/svg"
   xmlns="http://www.w3.org/2000/svg"
   xmlns:sodipodi="http://sodipodi.sourceforge.net/DTD/sodipodi-0.dtd"
   xmlns:inkscape="http://www.inkscape.org/namespaces/inkscape"
   version="1.1"
   id="Layer_1"
   x="0px"
   y="0px"
   width="1000"
   height="1024"
   viewBox="0 0 1000 1024"
   enable-background="new 0 0 512 512"
   xml:space="preserve"
   inkscape:version="0.48.0 r9654"
   sodipodi:docname="hethebrew-x5d7.svg"><title
   id="title3743">Sinai 357</title><metadata
   id="metadata72"><rdf:RDF><cc:Work
       rdf:about=""><dc:format>image/svg+xml</dc:format><dc:type
         rdf:resource="http://purl.org/dc/dcmitype/StillImage" /><dc:title>Sinai 357</dc:title><dc:date>2017</dc:date><dc:creator><cc:Agent><dc:title>Celeste Claire Horner</dc:title></cc:Agent></dc:creator><dc:publisher><cc:Agent><dc:title>beitdina.net</dc:title></cc:Agent></dc:publisher></cc:Work></rdf:RDF></metadata><defs
   id="defs70" /><sodipodi:namedview
   pagecolor="#ffffff"
   bordercolor="#666666"
   borderopacity="1"
   objecttolerance="10"
   gridtolerance="10"
   guidetolerance="10"
   inkscape:pageopacity="0"
   inkscape:pageshadow="2"
   inkscape:window-width="1152"
   inkscape:window-height="814"
   id="namedview68"
   showgrid="false"
   inkscape:zoom="0.36045873"
   inkscape:cx="-75.099927"
   inkscape:cy="807.82168"
   inkscape:window-x="-8"
   inkscape:window-y="-8"
   inkscape:window-maximized="1"
   inkscape:current-layer="g3781" />
   
	<g
   id="Grid"
   transform="matrix(1.951787,0,0,2.0005106,3.2501362,4.7867761)">
		<rect
   x="0"
   stroke-miterlimit="10"
   width="512"
   height="512"
   id="rect4"
   y="0"
   style="fill:none;stroke:#a9ccdb;stroke-miterlimit:10" />
		<line
   stroke-miterlimit="10"
   x1="0"
   y1="32"
   x2="512"
   y2="32"
   id="line6"
   style="fill:none;stroke:#a9ccdb;stroke-miterlimit:10" />
		<line
   stroke-miterlimit="10"
   x1="0"
   y1="64"
   x2="512"
   y2="64"
   id="line8"
   style="fill:none;stroke:#a9ccdb;stroke-miterlimit:10" />
		<line
   stroke-miterlimit="10"
   x1="0"
   y1="96"
   x2="512"
   y2="96"
   id="line10"
   style="fill:none;stroke:#a9ccdb;stroke-miterlimit:10" />
		<line
   stroke-miterlimit="10"
   x1="0"
   y1="128"
   x2="512"
   y2="128"
   id="line12"
   style="fill:none;stroke:#a9ccdb;stroke-miterlimit:10" />
		<line
   stroke-miterlimit="10"
   x1="0"
   y1="160"
   x2="512"
   y2="160"
   id="line14"
   style="fill:none;stroke:#a9ccdb;stroke-miterlimit:10" />
		<line
   stroke-miterlimit="10"
   x1="0"
   y1="192"
   x2="512"
   y2="192"
   id="line16"
   style="fill:none;stroke:#a9ccdb;stroke-miterlimit:10" />
		<line
   stroke-miterlimit="10"
   x1="0"
   y1="224"
   x2="512"
   y2="224"
   id="line18"
   style="fill:none;stroke:#a9ccdb;stroke-miterlimit:10" />
		<line
   stroke-miterlimit="10"
   x1="0"
   y1="256"
   x2="512"
   y2="256"
   id="line20"
   style="fill:none;stroke:#a9ccdb;stroke-miterlimit:10" />
		<line
   stroke-miterlimit="10"
   x1="0"
   y1="288"
   x2="512"
   y2="288"
   id="line22"
   style="fill:none;stroke:#a9ccdb;stroke-miterlimit:10" />
		<line
   stroke-miterlimit="10"
   x1="0"
   y1="320"
   x2="512"
   y2="320"
   id="line24"
   style="fill:none;stroke:#a9ccdb;stroke-miterlimit:10" />
		<line
   stroke-miterlimit="10"
   x1="0"
   y1="352"
   x2="512"
   y2="352"
   id="line26"
   style="fill:none;stroke:#a9ccdb;stroke-miterlimit:10" />
		<line
   stroke-miterlimit="10"
   x1="0"
   y1="384"
   x2="512"
   y2="384"
   id="line28"
   style="fill:none;stroke:#a9ccdb;stroke-miterlimit:10" />
		<line
   stroke-miterlimit="10"
   x1="0"
   y1="416"
   x2="512"
   y2="416"
   id="line30"
   style="fill:none;stroke:#a9ccdb;stroke-miterlimit:10" />
		<line
   stroke-miterlimit="10"
   x1="0"
   y1="448"
   x2="512"
   y2="448"
   id="line32"
   style="fill:none;stroke:#ff0000;stroke-miterlimit:10" />
		<line
   stroke-miterlimit="10"
   x1="0"
   y1="480"
   x2="512"
   y2="480"
   id="line34"
   style="fill:none;stroke:#a9ccdb;stroke-miterlimit:10" />
		<line
   stroke-miterlimit="10"
   x1="32"
   y1="0"
   x2="32"
   y2="512"
   id="line36"
   style="fill:none;stroke:#a9ccdb;stroke-miterlimit:10" />
		<line
   stroke-miterlimit="10"
   x1="64"
   y1="0"
   x2="64"
   y2="512"
   id="line38"
   style="fill:none;stroke:#a9ccdb;stroke-miterlimit:10" />
		<line
   stroke-miterlimit="10"
   x1="96"
   y1="0"
   x2="96"
   y2="512"
   id="line40"
   style="fill:none;stroke:#a9ccdb;stroke-miterlimit:10" />
		<line
   stroke-miterlimit="10"
   x1="128"
   y1="0"
   x2="128"
   y2="512"
   id="line42"
   style="fill:none;stroke:#a9ccdb;stroke-miterlimit:10" />
		<line
   stroke-miterlimit="10"
   x1="160"
   y1="0"
   x2="160"
   y2="512"
   id="line44"
   style="fill:none;stroke:#a9ccdb;stroke-miterlimit:10" />
		<line
   stroke-miterlimit="10"
   x1="192"
   y1="0"
   x2="192"
   y2="512"
   id="line46"
   style="fill:none;stroke:#a9ccdb;stroke-miterlimit:10" />
		<line
   stroke-miterlimit="10"
   x1="224"
   y1="0"
   x2="224"
   y2="512"
   id="line48"
   style="fill:none;stroke:#a9ccdb;stroke-miterlimit:10" />
		<line
   stroke-miterlimit="10"
   x1="256"
   y1="0"
   x2="256"
   y2="512"
   id="line50"
   style="fill:none;stroke:#a9ccdb;stroke-miterlimit:10" />
		<line
   stroke-miterlimit="10"
   x1="288"
   y1="0"
   x2="288"
   y2="512"
   id="line52"
   style="fill:none;stroke:#a9ccdb;stroke-miterlimit:10" />
		<line
   stroke-miterlimit="10"
   x1="320"
   y1="0"
   x2="320"
   y2="512"
   id="line54"
   style="fill:none;stroke:#a9ccdb;stroke-miterlimit:10" />
		<line
   stroke-miterlimit="10"
   x1="352"
   y1="0"
   x2="352"
   y2="512"
   id="line56"
   style="fill:none;stroke:#a9ccdb;stroke-miterlimit:10" />
		<line
   stroke-miterlimit="10"
   x1="384"
   y1="0"
   x2="384"
   y2="512"
   id="line58"
   style="fill:none;stroke:#a9ccdb;stroke-miterlimit:10" />
		<line
   stroke-miterlimit="10"
   x1="416"
   y1="0"
   x2="416"
   y2="512"
   id="line60"
   style="fill:none;stroke:#a9ccdb;stroke-miterlimit:10" />
		<line
   stroke-miterlimit="10"
   x1="448"
   y1="0"
   x2="448"
   y2="512"
   id="line62"
   style="fill:none;stroke:#a9ccdb;stroke-miterlimit:10" />
		<line
   stroke-miterlimit="10"
   x1="480"
   y1="0"
   x2="480"
   y2="512"
   id="line64"
   style="fill:none;stroke:#a9ccdb;stroke-miterlimit:10" />
	</g>
	
<path
   style="fill:#504437"
   d="m 394.91132,225.05746 c -2.44678,20.76195 2.76857,24.35204 0.12015,43.83464 -2.31414,17.13397 -4.06407,33.78938 -4.00348,49.16176 0.10589,12.81012 -0.33307,25.43903 -1.16113,36.36587 -4.04652,33.95899 -18.29273,66.37584 -27.84542,98.52259 -4.81675,16.20963 -8.70064,32.6304 -10.00464,49.70752 -0.88848,14.13622 -4.43207,44.36804 -11.04763,60.16002 -7.91638,18.89709 -19.71935,22.77266 -29.68076,30.36064 -10.24696,7.80548 -72.93614,2.04737 -131.66916,-12.094 -9.66138,-2.32621 -18.70796,-3.48704 -25.87894,-3.50337 -16.90631,-0.10902 -22.50838,13.24059 -39.04515,13.49317 -42.267343,-19.01777 -11.98268,25.45573 -3.21377,39.80934 37.28746,57.91632 96.65215,135.70741 147.58092,183.47123 13.90754,12.90882 24.92683,22.66198 25.46669,22.16439 3.8696,-4.21783 7.09043,-15.52993 7.15742,-25.138 0.10683,-15.36196 12.56127,-17.2943 103.24619,-16.0195 30.42684,0.42773 58.65343,1.65023 78.78715,3.24015 5.12766,1.04603 10.50014,0.32858 15.21581,-0.3543 24.5724,-3.5215 42.41967,6.49026 56.31394,11.58576 3.21759,1.87695 6.14383,4.17525 8.59682,6.6422 2.84847,3.34276 6.57634,7.52729 7.43369,12.08113 0.31303,2.64414 -0.32063,5.2832 0.79591,7.43081 0.28439,0.53477 0.63749,1.07893 1.05499,1.62958 4.20869,5.54974 14.97343,11.75735 28.06225,15.63225 13.15048,3.89315 21.94028,5.41329 29.59756,3.80003 8.08541,-1.70341 14.90825,-6.90028 24.2692,-16.48577 5.19084,-2.53599 8.37571,-7.93369 12.76627,-10.94186 3.43832,-1.44443 5.23322,-3.65193 6.98526,-6.86092 5.76382,-10.59539 3.72567,-14.60514 1.28785,-21.92191 -5.38945,-15.95954 -4.67046,-42.15811 -0.89801,-108.39472 3.73322,-65.54108 12.51984,-122.58978 22.82243,-148.17855 9.21361,-22.88427 19.79342,-57.1508 23.5105,-76.14792 13.39936,-28.91065 17.16494,-67.61978 21.8371,-99.57635 1.46996,-26.54767 11.63559,-50.76635 10.00408,-75.15191 -2.80676,-37.31842 -5.83119,-41.1302 -39.91264,-50.30398 -48.15636,-12.96225 -58.60641,2.29748 -66.71776,97.42495 -3.37753,39.61173 -13.19485,87.61883 -21.8162,106.68245 -8.62126,19.06363 -23.65471,51.97157 -33.4075,73.12873 -9.7529,21.15715 -17.73246,45.44493 -17.73246,53.9728 0,8.14972 -17.95673,30.04749 -39.25568,35.29584 -21.13683,5.2084 -45.58313,-6.17869 -54.35956,-12.09092 -17.28509,-11.64399 -18.67297,-61.61038 -4.62237,-166.41486 3.00774,-67.23824 25.42231,-140.18201 15.81046,-186.63228 -1.0924,-16.52327 -14.51248,-29.63157 -29.94646,-37.40005 -10.97269,-2.65123 -25.61203,-8.42233 -35.89388,-9.21611 -7.58534,-0.58563 -17.91912,3.73888 -17.53942,11.82277 z"
   id="path3762"
   inkscape:connector-curvature="0"
   sodipodi:nodetypes="ccccscsssccccccsccccccsssccccsscccssssssscccscc" />
</svg>