<?xml version="1.0" encoding="UTF-8" standalone="no"?>
<svg
   xmlns:dc="http://purl.org/dc/elements/1.1/"
   xmlns:cc="http://creativecommons.org/ns#"
   xmlns:rdf="http://www.w3.org/1999/02/22-rdf-syntax-ns#"
   xmlns:svg="http://www.w3.org/2000/svg"
   xmlns="http://www.w3.org/2000/svg"
   xmlns:sodipodi="http://sodipodi.sourceforge.net/DTD/sodipodi-0.dtd"
   xmlns:inkscape="http://www.inkscape.org/namespaces/inkscape"
   version="1.1"
   id="Layer_1"
   x="0px"
   y="0px"
   width="1000"
   height="1024"
   viewBox="0 0 1000 1024"
   enable-background="new 0 0 512 512"
   xml:space="preserve"
   inkscape:version="0.48.0 r9654"
   sodipodi:docname="hethebrew-x5d7.svg"><title
   id="title3743">Sinai 357</title><metadata
   id="metadata72"><rdf:RDF><cc:Work
       rdf:about=""><dc:format>image/svg+xml</dc:format><dc:type
         rdf:resource="http://purl.org/dc/dcmitype/StillImage" /><dc:title>Sinai 357</dc:title><dc:date>2017</dc:date><dc:creator><cc:Agent><dc:title>Celeste Claire Horner</dc:title></cc:Agent></dc:creator><dc:publisher><cc:Agent><dc:title>beitdina.net</dc:title></cc:Agent></dc:publisher></cc:Work></rdf:RDF></metadata><defs
   id="defs70" /><sodipodi:namedview
   pagecolor="#ffffff"
   bordercolor="#666666"
   borderopacity="1"
   objecttolerance="10"
   gridtolerance="10"
   guidetolerance="10"
   inkscape:pageopacity="0"
   inkscape:pageshadow="2"
   inkscape:window-width="1152"
   inkscape:window-height="814"
   id="namedview68"
   showgrid="false"
   inkscape:zoom="0.36045873"
   inkscape:cx="-75.099927"
   inkscape:cy="807.82168"
   inkscape:window-x="-8"
   inkscape:window-y="-8"
   inkscape:window-maximized="1"
   inkscape:current-layer="g3756" />
   
	<g
   id="Grid"
   transform="matrix(1.951787,0,0,2.0005106,3.2501362,4.7867761)">
		<rect
   x="0"
   stroke-miterlimit="10"
   width="512"
   height="512"
   id="rect4"
   y="0"
   style="fill:none;stroke:#a9ccdb;stroke-miterlimit:10" />
		<line
   stroke-miterlimit="10"
   x1="0"
   y1="32"
   x2="512"
   y2="32"
   id="line6"
   style="fill:none;stroke:#a9ccdb;stroke-miterlimit:10" />
		<line
   stroke-miterlimit="10"
   x1="0"
   y1="64"
   x2="512"
   y2="64"
   id="line8"
   style="fill:none;stroke:#a9ccdb;stroke-miterlimit:10" />
		<line
   stroke-miterlimit="10"
   x1="0"
   y1="96"
   x2="512"
   y2="96"
   id="line10"
   style="fill:none;stroke:#a9ccdb;stroke-miterlimit:10" />
		<line
   stroke-miterlimit="10"
   x1="0"
   y1="128"
   x2="512"
   y2="128"
   id="line12"
   style="fill:none;stroke:#a9ccdb;stroke-miterlimit:10" />
		<line
   stroke-miterlimit="10"
   x1="0"
   y1="160"
   x2="512"
   y2="160"
   id="line14"
   style="fill:none;stroke:#a9ccdb;stroke-miterlimit:10" />
		<line
   stroke-miterlimit="10"
   x1="0"
   y1="192"
   x2="512"
   y2="192"
   id="line16"
   style="fill:none;stroke:#a9ccdb;stroke-miterlimit:10" />
		<line
   stroke-miterlimit="10"
   x1="0"
   y1="224"
   x2="512"
   y2="224"
   id="line18"
   style="fill:none;stroke:#a9ccdb;stroke-miterlimit:10" />
		<line
   stroke-miterlimit="10"
   x1="0"
   y1="256"
   x2="512"
   y2="256"
   id="line20"
   style="fill:none;stroke:#a9ccdb;stroke-miterlimit:10" />
		<line
   stroke-miterlimit="10"
   x1="0"
   y1="288"
   x2="512"
   y2="288"
   id="line22"
   style="fill:none;stroke:#a9ccdb;stroke-miterlimit:10" />
		<line
   stroke-miterlimit="10"
   x1="0"
   y1="320"
   x2="512"
   y2="320"
   id="line24"
   style="fill:none;stroke:#a9ccdb;stroke-miterlimit:10" />
		<line
   stroke-miterlimit="10"
   x1="0"
   y1="352"
   x2="512"
   y2="352"
   id="line26"
   style="fill:none;stroke:#a9ccdb;stroke-miterlimit:10" />
		<line
   stroke-miterlimit="10"
   x1="0"
   y1="384"
   x2="512"
   y2="384"
   id="line28"
   style="fill:none;stroke:#a9ccdb;stroke-miterlimit:10" />
		<line
   stroke-miterlimit="10"
   x1="0"
   y1="416"
   x2="512"
   y2="416"
   id="line30"
   style="fill:none;stroke:#a9ccdb;stroke-miterlimit:10" />
		<line
   stroke-miterlimit="10"
   x1="0"
   y1="448"
   x2="512"
   y2="448"
   id="line32"
   style="fill:none;stroke:#ff0000;stroke-miterlimit:10" />
		<line
   stroke-miterlimit="10"
   x1="0"
   y1="480"
   x2="512"
   y2="480"
   id="line34"
   style="fill:none;stroke:#a9ccdb;stroke-miterlimit:10" />
		<line
   stroke-miterlimit="10"
   x1="32"
   y1="0"
   x2="32"
   y2="512"
   id="line36"
   style="fill:none;stroke:#a9ccdb;stroke-miterlimit:10" />
		<line
   stroke-miterlimit="10"
   x1="64"
   y1="0"
   x2="64"
   y2="512"
   id="line38"
   style="fill:none;stroke:#a9ccdb;stroke-miterlimit:10" />
		<line
   stroke-miterlimit="10"
   x1="96"
   y1="0"
   x2="96"
   y2="512"
   id="line40"
   style="fill:none;stroke:#a9ccdb;stroke-miterlimit:10" />
		<line
   stroke-miterlimit="10"
   x1="128"
   y1="0"
   x2="128"
   y2="512"
   id="line42"
   style="fill:none;stroke:#a9ccdb;stroke-miterlimit:10" />
		<line
   stroke-miterlimit="10"
   x1="160"
   y1="0"
   x2="160"
   y2="512"
   id="line44"
   style="fill:none;stroke:#a9ccdb;stroke-miterlimit:10" />
		<line
   stroke-miterlimit="10"
   x1="192"
   y1="0"
   x2="192"
   y2="512"
   id="line46"
   style="fill:none;stroke:#a9ccdb;stroke-miterlimit:10" />
		<line
   stroke-miterlimit="10"
   x1="224"
   y1="0"
   x2="224"
   y2="512"
   id="line48"
   style="fill:none;stroke:#a9ccdb;stroke-miterlimit:10" />
		<line
   stroke-miterlimit="10"
   x1="256"
   y1="0"
   x2="256"
   y2="512"
   id="line50"
   style="fill:none;stroke:#a9ccdb;stroke-miterlimit:10" />
		<line
   stroke-miterlimit="10"
   x1="288"
   y1="0"
   x2="288"
   y2="512"
   id="line52"
   style="fill:none;stroke:#a9ccdb;stroke-miterlimit:10" />
		<line
   stroke-miterlimit="10"
   x1="320"
   y1="0"
   x2="320"
   y2="512"
   id="line54"
   style="fill:none;stroke:#a9ccdb;stroke-miterlimit:10" />
		<line
   stroke-miterlimit="10"
   x1="352"
   y1="0"
   x2="352"
   y2="512"
   id="line56"
   style="fill:none;stroke:#a9ccdb;stroke-miterlimit:10" />
		<line
   stroke-miterlimit="10"
   x1="384"
   y1="0"
   x2="384"
   y2="512"
   id="line58"
   style="fill:none;stroke:#a9ccdb;stroke-miterlimit:10" />
		<line
   stroke-miterlimit="10"
   x1="416"
   y1="0"
   x2="416"
   y2="512"
   id="line60"
   style="fill:none;stroke:#a9ccdb;stroke-miterlimit:10" />
		<line
   stroke-miterlimit="10"
   x1="448"
   y1="0"
   x2="448"
   y2="512"
   id="line62"
   style="fill:none;stroke:#a9ccdb;stroke-miterlimit:10" />
		<line
   stroke-miterlimit="10"
   x1="480"
   y1="0"
   x2="480"
   y2="512"
   id="line64"
   style="fill:none;stroke:#a9ccdb;stroke-miterlimit:10" />
	</g>
	


<g
   id="g3756"
   transform="matrix(12.927478,0,0,13.111199,9038.2671,-316.78916)"><path
     style="fill:#504437"
     d="m -666.23076,36.717869 c -0.25639,1.99597 0.29011,2.341106 0.0126,4.214086 -0.24249,1.64719 -0.42586,3.248375 -0.41951,4.726214 0.0111,1.231512 -0.0349,2.445606 -0.12167,3.496069 -0.42402,3.264678 -1.91683,6.381105 -2.91782,9.471563 -0.50473,1.558328 -0.91171,3.136953 -1.04835,4.778679 -0.0931,1.358999 -0.46442,4.265365 -1.15764,5.783543 -0.82953,1.816689 -2.06632,2.189271 -3.11014,2.918749 -1.07374,0.750387 -7.64271,0.196825 -13.79713,-1.162669 -1.01238,-0.223632 -1.96034,-0.335231 -2.71176,-0.3368 -1.77155,-0.01048 -2.35857,1.272897 -4.0914,1.29718 -4.42904,-1.828293 -1.25562,2.44721 -0.33676,3.827107 3.90722,5.567843 10.12783,13.046364 15.46447,17.638185 1.45732,1.241001 2.61199,2.178631 2.66856,2.130795 0.40548,-0.405485 0.74298,-1.492985 0.75,-2.416666 0.0112,-1.476837 1.31625,-1.662604 10.81879,-1.540051 3.18832,0.04112 6.14608,0.158646 8.25582,0.311495 0.53731,0.100561 1.10027,0.03159 1.59441,-0.03406 2.57485,-0.338543 4.445,0.623946 5.90093,1.113808 0.33716,0.180442 0.64379,0.401392 0.90083,0.638554 0.29848,0.321361 0.68911,0.723643 0.77895,1.161431 0.0328,0.254196 -0.0336,0.507904 0.0834,0.714368 0.0298,0.05141 0.0668,0.103725 0.11055,0.156662 0.44101,0.533529 1.56901,1.130304 2.94054,1.502821 1.37799,0.374272 2.29904,0.520411 3.10142,0.36532 0.84724,-0.16376 1.56218,-0.663366 2.54308,-1.584875 0.54393,-0.243802 0.87766,-0.762715 1.33773,-1.051908 0.36029,-0.138862 0.54837,-0.351082 0.73196,-0.659581 0.60397,-1.018598 0.3904,-1.404077 0.13495,-2.107484 -0.56474,-1.534285 -0.4894,-4.052909 -0.0941,-10.420629 0.39119,-6.300855 1.31191,-11.785288 2.39148,-14.245289 0.96546,-2.2 2.07408,-5.494246 2.46358,-7.320553 1.40407,-2.779354 1.79865,-6.500692 2.28823,-9.572869 0.15403,-2.552185 1.21925,-4.880472 1.04829,-7.224802 -0.29411,-3.58764 -0.61103,-3.95409 -4.1823,-4.83602 -5.04613,-1.24614 -6.14115,0.22087 -6.99111,9.366042 -0.35392,3.80811 -1.38264,8.423319 -2.28604,10.256019 -0.90339,1.832701 -2.47869,4.996336 -3.50065,7.030301 -1.02197,2.033965 -1.85812,4.368892 -1.85812,5.188727 0,0.783481 -1.88162,2.888645 -4.11346,3.3932 -2.21485,0.500714 -4.77649,-0.593995 -5.69614,-1.162371 -1.81124,-1.119406 -1.95667,-5.922975 -0.48436,-15.998455 0.31517,-6.464012 2.66391,-13.476533 1.65672,-17.942073 -0.11447,-1.58848 -1.52071,-2.84866 -3.13798,-3.59549 -1.14979,-0.25488 -2.68379,-0.80969 -3.76119,-0.886 -0.79484,-0.0563 -1.87768,0.359441 -1.83789,1.136594 z"
     id="path3762"
     inkscape:connector-curvature="0"
     sodipodi:nodetypes="ccccscsssccccccsccccccsssccccsscccssssssscccscc" /></g></svg>