<?xml version="1.0" encoding="UTF-8" standalone="no"?>
<svg
   xmlns:dc="http://purl.org/dc/elements/1.1/"
   xmlns:cc="http://creativecommons.org/ns#"
   xmlns:rdf="http://www.w3.org/1999/02/22-rdf-syntax-ns#"
   xmlns:svg="http://www.w3.org/2000/svg"
   xmlns="http://www.w3.org/2000/svg"
   xmlns:sodipodi="http://sodipodi.sourceforge.net/DTD/sodipodi-0.dtd"
   xmlns:inkscape="http://www.inkscape.org/namespaces/inkscape"
   version="1.1"
   id="Layer_1"
   x="0px"
   y="0px"
   width="700"
   height="1024"
   viewBox="0 0 700 1024"
   enable-background="new 0 0 512 512"
   xml:space="preserve"
   inkscape:version="0.48.0 r9654"
   sodipodi:docname="hethebrew-x5d7.svg"><title
   id="title3743">Sinai 357</title><metadata
   id="metadata72"><rdf:RDF><cc:Work
       rdf:about=""><dc:format>image/svg+xml</dc:format><dc:type
         rdf:resource="http://purl.org/dc/dcmitype/StillImage" /><dc:title>Sinai 357</dc:title><dc:date>2017</dc:date><dc:creator><cc:Agent><dc:title>Celeste Claire Horner</dc:title></cc:Agent></dc:creator><dc:publisher><cc:Agent><dc:title>beitdina.net</dc:title></cc:Agent></dc:publisher></cc:Work></rdf:RDF></metadata><defs
   id="defs70" /><sodipodi:namedview
   pagecolor="#ffffff"
   bordercolor="#666666"
   borderopacity="1"
   objecttolerance="10"
   gridtolerance="10"
   guidetolerance="10"
   inkscape:pageopacity="0"
   inkscape:pageshadow="2"
   inkscape:window-width="1152"
   inkscape:window-height="814"
   id="namedview68"
   showgrid="false"
   inkscape:zoom="0.36045873"
   inkscape:cx="-10.419859"
   inkscape:cy="547.54994"
   inkscape:window-x="-8"
   inkscape:window-y="-8"
   inkscape:window-maximized="1"
   inkscape:current-layer="Layer_1" />
   
	<g
   id="Grid"
   transform="matrix(1.3671726,0,0,2.0005106,3.2501362,4.7867761)">
		<rect
   x="0"
   stroke-miterlimit="10"
   width="512"
   height="512"
   id="rect4"
   y="0"
   style="fill:none;stroke:#a9ccdb;stroke-miterlimit:10" />
		<line
   stroke-miterlimit="10"
   x1="0"
   y1="32"
   x2="512"
   y2="32"
   id="line6"
   style="fill:none;stroke:#a9ccdb;stroke-miterlimit:10" />
		<line
   stroke-miterlimit="10"
   x1="0"
   y1="64"
   x2="512"
   y2="64"
   id="line8"
   style="fill:none;stroke:#a9ccdb;stroke-miterlimit:10" />
		<line
   stroke-miterlimit="10"
   x1="0"
   y1="96"
   x2="512"
   y2="96"
   id="line10"
   style="fill:none;stroke:#a9ccdb;stroke-miterlimit:10" />
		<line
   stroke-miterlimit="10"
   x1="0"
   y1="128"
   x2="512"
   y2="128"
   id="line12"
   style="fill:none;stroke:#a9ccdb;stroke-miterlimit:10" />
		<line
   stroke-miterlimit="10"
   x1="0"
   y1="160"
   x2="512"
   y2="160"
   id="line14"
   style="fill:none;stroke:#a9ccdb;stroke-miterlimit:10" />
		<line
   stroke-miterlimit="10"
   x1="0"
   y1="192"
   x2="512"
   y2="192"
   id="line16"
   style="fill:none;stroke:#a9ccdb;stroke-miterlimit:10" />
		<line
   stroke-miterlimit="10"
   x1="0"
   y1="224"
   x2="512"
   y2="224"
   id="line18"
   style="fill:none;stroke:#a9ccdb;stroke-miterlimit:10" />
		<line
   stroke-miterlimit="10"
   x1="0"
   y1="256"
   x2="512"
   y2="256"
   id="line20"
   style="fill:none;stroke:#a9ccdb;stroke-miterlimit:10" />
		<line
   stroke-miterlimit="10"
   x1="0"
   y1="288"
   x2="512"
   y2="288"
   id="line22"
   style="fill:none;stroke:#a9ccdb;stroke-miterlimit:10" />
		<line
   stroke-miterlimit="10"
   x1="0"
   y1="320"
   x2="512"
   y2="320"
   id="line24"
   style="fill:none;stroke:#a9ccdb;stroke-miterlimit:10" />
		<line
   stroke-miterlimit="10"
   x1="0"
   y1="352"
   x2="512"
   y2="352"
   id="line26"
   style="fill:none;stroke:#a9ccdb;stroke-miterlimit:10" />
		<line
   stroke-miterlimit="10"
   x1="0"
   y1="384"
   x2="512"
   y2="384"
   id="line28"
   style="fill:none;stroke:#a9ccdb;stroke-miterlimit:10" />
		<line
   stroke-miterlimit="10"
   x1="0"
   y1="416"
   x2="512"
   y2="416"
   id="line30"
   style="fill:none;stroke:#a9ccdb;stroke-miterlimit:10" />
		<line
   stroke-miterlimit="10"
   x1="0"
   y1="448"
   x2="512"
   y2="448"
   id="line32"
   style="fill:none;stroke:#ff0000;stroke-miterlimit:10" />
		<line
   stroke-miterlimit="10"
   x1="0"
   y1="480"
   x2="512"
   y2="480"
   id="line34"
   style="fill:none;stroke:#a9ccdb;stroke-miterlimit:10" />
		<line
   stroke-miterlimit="10"
   x1="32"
   y1="0"
   x2="32"
   y2="512"
   id="line36"
   style="fill:none;stroke:#a9ccdb;stroke-miterlimit:10" />
		<line
   stroke-miterlimit="10"
   x1="64"
   y1="0"
   x2="64"
   y2="512"
   id="line38"
   style="fill:none;stroke:#a9ccdb;stroke-miterlimit:10" />
		<line
   stroke-miterlimit="10"
   x1="96"
   y1="0"
   x2="96"
   y2="512"
   id="line40"
   style="fill:none;stroke:#a9ccdb;stroke-miterlimit:10" />
		<line
   stroke-miterlimit="10"
   x1="128"
   y1="0"
   x2="128"
   y2="512"
   id="line42"
   style="fill:none;stroke:#a9ccdb;stroke-miterlimit:10" />
		<line
   stroke-miterlimit="10"
   x1="160"
   y1="0"
   x2="160"
   y2="512"
   id="line44"
   style="fill:none;stroke:#a9ccdb;stroke-miterlimit:10" />
		<line
   stroke-miterlimit="10"
   x1="192"
   y1="0"
   x2="192"
   y2="512"
   id="line46"
   style="fill:none;stroke:#a9ccdb;stroke-miterlimit:10" />
		<line
   stroke-miterlimit="10"
   x1="224"
   y1="0"
   x2="224"
   y2="512"
   id="line48"
   style="fill:none;stroke:#a9ccdb;stroke-miterlimit:10" />
		<line
   stroke-miterlimit="10"
   x1="256"
   y1="0"
   x2="256"
   y2="512"
   id="line50"
   style="fill:none;stroke:#a9ccdb;stroke-miterlimit:10" />
		<line
   stroke-miterlimit="10"
   x1="288"
   y1="0"
   x2="288"
   y2="512"
   id="line52"
   style="fill:none;stroke:#a9ccdb;stroke-miterlimit:10" />
		<line
   stroke-miterlimit="10"
   x1="320"
   y1="0"
   x2="320"
   y2="512"
   id="line54"
   style="fill:none;stroke:#a9ccdb;stroke-miterlimit:10" />
		<line
   stroke-miterlimit="10"
   x1="352"
   y1="0"
   x2="352"
   y2="512"
   id="line56"
   style="fill:none;stroke:#a9ccdb;stroke-miterlimit:10" />
		<line
   stroke-miterlimit="10"
   x1="384"
   y1="0"
   x2="384"
   y2="512"
   id="line58"
   style="fill:none;stroke:#a9ccdb;stroke-miterlimit:10" />
		<line
   stroke-miterlimit="10"
   x1="416"
   y1="0"
   x2="416"
   y2="512"
   id="line60"
   style="fill:none;stroke:#a9ccdb;stroke-miterlimit:10" />
		<line
   stroke-miterlimit="10"
   x1="448"
   y1="0"
   x2="448"
   y2="512"
   id="line62"
   style="fill:none;stroke:#a9ccdb;stroke-miterlimit:10" />
		<line
   stroke-miterlimit="10"
   x1="480"
   y1="0"
   x2="480"
   y2="512"
   id="line64"
   style="fill:none;stroke:#a9ccdb;stroke-miterlimit:10" />
	</g>
	

<path
   style="fill:#504437"
   d="m 160.54491,229.30754 c -2.44678,20.76195 0.68789,28.5134 -1.96053,47.996 -2.31414,17.13397 -4.06407,33.78938 -4.00348,49.16176 0.10589,12.81012 2.44117,24.05191 1.61311,34.97875 -4.04652,33.959 10.83682,67.76297 1.28413,99.90972 -4.81675,16.20963 -0.37791,54.82434 -1.68191,71.90146 -0.51477,8.19035 -13.01781,21.78382 -15.39625,34.84145 -1.72665,9.47933 7.13121,18.67626 4.34862,25.31857 -7.91635,18.8971 1.08747,7.51432 -8.87394,15.1023 -7.96696,1.49281 -1.25765,15.5096 -3.47281,19.30276 -16.85713,18.90157 -19.59156,-4.51798 -27.91529,22.15892 -3.17698,11.10482 -26.520461,30.86585 -34.576401,39.27317 -8.61529,8.99106 -5.21976,29.94901 -4.84033,39.85968 1.24355,32.48235 -1.63512,44.05282 8.11845,64.5266 3.88264,8.15009 13.26897,25.88222 20.36814,34.43244 9.616811,14.59 9.402831,26.39715 11.531921,30.072 4.31351,7.44516 10.87358,11.07542 32.28584,10.64784 9.06403,-0.177 4.96141,12.53716 20.9692,4.85868 23.45756,7.69764 8.17818,12.51196 26.58839,4.78572 6.11369,-2.55151 20.36922,-8.69598 22.21296,-18.20081 5.12458,-8.97873 9.7705,-6.94246 11.50656,-17.51364 1.0701,-6.63656 0.37547,-13.99443 0.86757,-13.98752 12.78837,0.17968 21.51252,0.01 28.82459,-0.12958 24.21982,-0.3044 38.78572,2.34602 59.8161,-3.10486 28.31296,-7.37205 70.98916,-22.57429 82.48303,-18.3591 3.21759,1.87695 6.14383,4.17525 8.59682,6.6422 2.84847,3.34276 6.57634,7.52729 7.43369,12.08113 0.31303,2.64414 -0.32063,5.2832 0.79591,7.43081 0.28439,0.53477 0.63749,1.07893 1.05499,1.62958 4.20869,5.54974 23.29616,38.11266 36.38498,41.98756 7.06026,2.09016 3.36593,10.29339 9.89323,17.19355 5.63048,5.95212 16.15812,6.77328 19.70434,6.02617 4.99867,-1.0531 14.32967,-1.35745 17.64206,-12.17427 2.04545,-6.67952 3.05344,-20.07177 6.62714,-23.73119 5.19084,-2.53599 8.37571,-7.93369 12.76627,-10.94186 3.43832,-1.44443 -3.08951,-30.00724 -1.33747,-33.21623 5.76382,-10.59539 3.72567,-14.60514 1.28785,-21.92191 -4.62154,-47.63451 29.75686,-90.57506 32.3929,-127.81442 1.47097,-43.09402 -18.3569,-83.4983 -2.14575,-128.75885 9.21369,-22.88424 -7.94901,-54.37656 -4.23193,-73.37368 13.39936,-28.91065 35.19751,-50.97432 39.86967,-82.9309 1.46996,-26.54767 -6.39698,-47.99211 -8.02849,-72.37767 -2.80676,-37.31842 -39.1221,-49.45293 -73.20355,-58.62671 -48.15636,-12.96225 -47.50944,21.71718 -55.62079,116.84465 17.14361,24.75614 4.74056,39.91097 -1.97665,60.14458 -4.96089,12.37471 -2.06804,17.88867 -0.24689,29.18253 5.37238,33.9526 -10.97601,63.86302 -17.15559,94.46044 -2.20693,10.44466 -1.18836,20.70008 -5.49884,29.20289 -5.83105,11.36865 -18.94603,27.25812 -34.62327,31.12121 -9.6014,2.36591 -16.75897,16.16932 -33.13267,19.37861 -11.13716,2.18291 -27.77243,4.66788 -42.1834,-0.19036 -11.04351,-3.723 -21.35332,-14.62098 -23.43137,-16.02084 -36.27935,-16.57319 -23.90421,-50.76741 -19.44263,-81.25456 1.49427,-9.29668 1.41039,-18.70277 1.35203,-27.36369 -0.1053,-14.98613 -0.55509,-30.96083 0.70973,-48.48828 1.1352,-10.16995 1.91694,-19.81542 1.73405,-29.16838 -0.42854,-21.1308 -2.74054,-49.53654 -0.20234,-66.57498 6.97647,-46.83171 19.12184,-88.8703 12.47247,-121.00408 -1.0924,-16.52327 -14.51248,-29.63157 -29.94646,-37.40005 -10.97269,-2.65123 -57.51582,-4.26096 -67.79767,-5.05474 -7.58534,-0.58563 -17.91912,3.73888 -17.53942,11.82277 z"
   id="path3762"
   inkscape:connector-curvature="0"
   sodipodi:nodetypes="ccccscsscccssscscccccsccccccssssscccccccccscccccssscccccsccscc" /></svg>