<?xml version="1.0" encoding="UTF-8" standalone="no"?>
<svg
   xmlns:dc="http://purl.org/dc/elements/1.1/"
   xmlns:cc="http://creativecommons.org/ns#"
   xmlns:rdf="http://www.w3.org/1999/02/22-rdf-syntax-ns#"
   xmlns:svg="http://www.w3.org/2000/svg"
   xmlns="http://www.w3.org/2000/svg"
   xmlns:sodipodi="http://sodipodi.sourceforge.net/DTD/sodipodi-0.dtd"
   xmlns:inkscape="http://www.inkscape.org/namespaces/inkscape"
   version="1.1"
   id="Layer_1"
   x="0px"
   y="0px"
   width="1024"
   height="1024"
   viewBox="0 0 1024 1024"
   enable-background="new 0 0 512 512"
   xml:space="preserve"
   inkscape:version="0.48.0 r9654"
   sodipodi:docname="lamedhebrew-x5dc.svg"><title
   id="title3743">Sinai 357</title><metadata
   id="metadata72"><rdf:RDF><cc:Work
       rdf:about=""><dc:format>image/svg+xml</dc:format><dc:type
         rdf:resource="http://purl.org/dc/dcmitype/StillImage" /><dc:title>Sinai 357</dc:title><dc:date>2017</dc:date><dc:creator><cc:Agent><dc:title>Celeste Claire Horner</dc:title></cc:Agent></dc:creator><dc:publisher><cc:Agent><dc:title>beitdina.net</dc:title></cc:Agent></dc:publisher></cc:Work></rdf:RDF></metadata><defs
   id="defs70" /><sodipodi:namedview
   pagecolor="#ffffff"
   bordercolor="#666666"
   borderopacity="1"
   objecttolerance="10"
   gridtolerance="10"
   guidetolerance="10"
   inkscape:pageopacity="0"
   inkscape:pageshadow="2"
   inkscape:window-width="1152"
   inkscape:window-height="814"
   id="namedview68"
   showgrid="false"
   inkscape:zoom="0.1875928"
   inkscape:cx="-535.23571"
   inkscape:cy="243.86416"
   inkscape:window-x="-8"
   inkscape:window-y="-8"
   inkscape:window-maximized="1"
   inkscape:current-layer="Layer_1" />
   
	<g
   id="Grid"
   transform="matrix(2.0004581,0,0,2.0004578,0.50019527,4.813853)">
		<rect
   x="0"
   stroke-miterlimit="10"
   width="512"
   height="512"
   id="rect4"
   y="0"
   style="fill:none;stroke:#a9ccdb;stroke-miterlimit:10" />
		<line
   stroke-miterlimit="10"
   x1="0"
   y1="32"
   x2="512"
   y2="32"
   id="line6"
   style="fill:none;stroke:#a9ccdb;stroke-miterlimit:10" />
		<line
   stroke-miterlimit="10"
   x1="0"
   y1="64"
   x2="512"
   y2="64"
   id="line8"
   style="fill:none;stroke:#a9ccdb;stroke-miterlimit:10" />
		<line
   stroke-miterlimit="10"
   x1="0"
   y1="96"
   x2="512"
   y2="96"
   id="line10"
   style="fill:none;stroke:#a9ccdb;stroke-miterlimit:10" />
		<line
   stroke-miterlimit="10"
   x1="0"
   y1="128"
   x2="512"
   y2="128"
   id="line12"
   style="fill:none;stroke:#a9ccdb;stroke-miterlimit:10" />
		<line
   stroke-miterlimit="10"
   x1="0"
   y1="160"
   x2="512"
   y2="160"
   id="line14"
   style="fill:none;stroke:#a9ccdb;stroke-miterlimit:10" />
		<line
   stroke-miterlimit="10"
   x1="0"
   y1="192"
   x2="512"
   y2="192"
   id="line16"
   style="fill:none;stroke:#a9ccdb;stroke-miterlimit:10" />
		<line
   stroke-miterlimit="10"
   x1="0"
   y1="224"
   x2="512"
   y2="224"
   id="line18"
   style="fill:none;stroke:#a9ccdb;stroke-miterlimit:10" />
		<line
   stroke-miterlimit="10"
   x1="0"
   y1="256"
   x2="512"
   y2="256"
   id="line20"
   style="fill:none;stroke:#a9ccdb;stroke-miterlimit:10" />
		<line
   stroke-miterlimit="10"
   x1="0"
   y1="288"
   x2="512"
   y2="288"
   id="line22"
   style="fill:none;stroke:#a9ccdb;stroke-miterlimit:10" />
		<line
   stroke-miterlimit="10"
   x1="0"
   y1="320"
   x2="512"
   y2="320"
   id="line24"
   style="fill:none;stroke:#a9ccdb;stroke-miterlimit:10" />
		<line
   stroke-miterlimit="10"
   x1="0"
   y1="352"
   x2="512"
   y2="352"
   id="line26"
   style="fill:none;stroke:#a9ccdb;stroke-miterlimit:10" />
		<line
   stroke-miterlimit="10"
   x1="0"
   y1="384"
   x2="512"
   y2="384"
   id="line28"
   style="fill:none;stroke:#a9ccdb;stroke-miterlimit:10" />
		<line
   stroke-miterlimit="10"
   x1="0"
   y1="416"
   x2="512"
   y2="416"
   id="line30"
   style="fill:none;stroke:#a9ccdb;stroke-miterlimit:10" />
		<line
   stroke-miterlimit="10"
   x1="0"
   y1="448"
   x2="512"
   y2="448"
   id="line32"
   style="fill:none;stroke:#ff0000;stroke-miterlimit:10" />
		<line
   stroke-miterlimit="10"
   x1="0"
   y1="480"
   x2="512"
   y2="480"
   id="line34"
   style="fill:none;stroke:#a9ccdb;stroke-miterlimit:10" />
		<line
   stroke-miterlimit="10"
   x1="32"
   y1="0"
   x2="32"
   y2="512"
   id="line36"
   style="fill:none;stroke:#a9ccdb;stroke-miterlimit:10" />
		<line
   stroke-miterlimit="10"
   x1="64"
   y1="0"
   x2="64"
   y2="512"
   id="line38"
   style="fill:none;stroke:#a9ccdb;stroke-miterlimit:10" />
		<line
   stroke-miterlimit="10"
   x1="96"
   y1="0"
   x2="96"
   y2="512"
   id="line40"
   style="fill:none;stroke:#a9ccdb;stroke-miterlimit:10" />
		<line
   stroke-miterlimit="10"
   x1="128"
   y1="0"
   x2="128"
   y2="512"
   id="line42"
   style="fill:none;stroke:#a9ccdb;stroke-miterlimit:10" />
		<line
   stroke-miterlimit="10"
   x1="160"
   y1="0"
   x2="160"
   y2="512"
   id="line44"
   style="fill:none;stroke:#a9ccdb;stroke-miterlimit:10" />
		<line
   stroke-miterlimit="10"
   x1="192"
   y1="0"
   x2="192"
   y2="512"
   id="line46"
   style="fill:none;stroke:#a9ccdb;stroke-miterlimit:10" />
		<line
   stroke-miterlimit="10"
   x1="224"
   y1="0"
   x2="224"
   y2="512"
   id="line48"
   style="fill:none;stroke:#a9ccdb;stroke-miterlimit:10" />
		<line
   stroke-miterlimit="10"
   x1="256"
   y1="0"
   x2="256"
   y2="512"
   id="line50"
   style="fill:none;stroke:#a9ccdb;stroke-miterlimit:10" />
		<line
   stroke-miterlimit="10"
   x1="288"
   y1="0"
   x2="288"
   y2="512"
   id="line52"
   style="fill:none;stroke:#a9ccdb;stroke-miterlimit:10" />
		<line
   stroke-miterlimit="10"
   x1="320"
   y1="0"
   x2="320"
   y2="512"
   id="line54"
   style="fill:none;stroke:#a9ccdb;stroke-miterlimit:10" />
		<line
   stroke-miterlimit="10"
   x1="352"
   y1="0"
   x2="352"
   y2="512"
   id="line56"
   style="fill:none;stroke:#a9ccdb;stroke-miterlimit:10" />
		<line
   stroke-miterlimit="10"
   x1="384"
   y1="0"
   x2="384"
   y2="512"
   id="line58"
   style="fill:none;stroke:#a9ccdb;stroke-miterlimit:10" />
		<line
   stroke-miterlimit="10"
   x1="416"
   y1="0"
   x2="416"
   y2="512"
   id="line60"
   style="fill:none;stroke:#a9ccdb;stroke-miterlimit:10" />
		<line
   stroke-miterlimit="10"
   x1="448"
   y1="0"
   x2="448"
   y2="512"
   id="line62"
   style="fill:none;stroke:#a9ccdb;stroke-miterlimit:10" />
		<line
   stroke-miterlimit="10"
   x1="480"
   y1="0"
   x2="480"
   y2="512"
   id="line64"
   style="fill:none;stroke:#a9ccdb;stroke-miterlimit:10" />
	</g>
	
<path
   style="fill:#6a5947"
   d="m 596.97191,31.045875 c -2.1077,7.48703 -2.87556,19.09625 -0.34397,34.11285 1.32595,7.86486 6.09905,18.18829 6.58837,26.06437 2.14672,34.550035 -1.17813,44.537505 -19.47777,58.506155 -26.01645,19.85911 -67.24436,29.4567 -76.64745,17.84305 -4.51872,-3.99225 -9.002,-6.35331 -13.40461,-7.53132 -5.88296,-0.83993 -12.38423,-0.49583 -19.10097,0.66255 -22.55517,3.88988 -47.53996,16.96193 -59.69928,25.21459 -15.66397,11.1 -23.4213,23.35979 -28.20494,36.81493 -2.33283,7.19463 -3.41766,14.86546 -5.47393,24.11095 -2.06903,9.28997 -5.98394,16.04692 -8.32768,25.8833 -1.66497,6.28556 -6.23895,11.8292 -9.55005,17.77978 -32.22281,40.80546 -49.33677,86.32774 -76.82415,120.61749 -21.06108,41.62183 -44.50765,85.53607 -69.99687,123.79399 -9.40793,13.58876 -10.77502,16.62979 -27.12966,31.43585 -15.61973,15.1364 -18.02431,41.28615 -27.31142,51.61908 -16.83925,17.97833 -16.43902,35.44233 -39.96689,37.95007 -24.494851,2.15428 -41.847821,-5.49656 -38.794081,18.49533 1.85566,14.58002 13.44005,36.73408 25.742741,49.23124 12.30293,12.49715 24.17962,26.5701 26.39289,31.27319 2.21363,4.70317 20.91375,22.72938 41.55614,40.05838 36.12483,30.32607 56.73067,34.51618 56.73067,11.5358 -4.02345,-6.57826 -5.42685,-13.5949 -5.20579,-20.55892 0.33071,-10.42354 4.30076,-20.7292 8.57166,-29.27055 3.70302,-10.53913 9.39751,-23.07558 16.43357,-37.22138 4.64374,-9.33624 20.02371,-19.22166 26.04706,-29.60084 26.59733,-45.83127 54.03664,-101.2899 78.28776,-161.60398 12.08051,-37.48706 32.556,-81.465 47.17058,-106.37303 8.52582,-17.04859 14.0078,-38.10138 23.05614,-54.73384 16.04363,-17.47144 30.9131,-41.85539 44.41225,-53.51642 14.15847,-11.58347 29.72381,-14.41516 32.93182,-39.5372 1.88218,-16.94579 3.56648,-16.76645 5.76933,-20.05851 10.48594,-7.42804 22.17527,-10.2409 34.12854,-10.7729 18.79367,-0.83645 38.23971,3.96535 54.68617,5.33282 12.42511,-0.22019 19.70341,2.64907 24.74353,6.67359 6.29521,7.87006 13.65962,14.8015 21.91891,19.04376 10.40229,5.34291 22.22421,6.42015 35.11807,-0.26555 3.31665,-1.80527 6.38997,-4.21671 9.18176,-7.32849 6.72492,-5.33982 10.52311,-9.96351 12.30244,-14.45371 1.65407,-4.17418 1.56337,-8.23299 0.45735,-12.64447 -1.37167,-5.47084 -2.65363,-14.45379 -5.75743,-21.90208 -6.92913,-16.33252 -10.14296,-34.55791 -11.99292,-53.23628 -1.25731,-12.69331 11.63383,-27.69292 10.76337,-41.14108 -0.62413,-9.64271 -8.41715,-17.35739 -12.01485,-26.110835 -5.47156,-13.31274 -7.7438,-28.19218 -11.60183,-39.43092 -5.4468,-15.8671 -13.48627,-24.39704 -28.46292,-33.5924 -22.8471,-12.92076 -41.97223,-13.52073 -47.70166,6.83159 z"
   id="path3764"
   inkscape:connector-curvature="0"
   sodipodi:nodetypes="ssssccsccccccccccsssscscssccccccsccsccsscsssscs" />
</svg>