<?xml version="1.0" encoding="UTF-8" standalone="no"?>
<svg
   xmlns:dc="http://purl.org/dc/elements/1.1/"
   xmlns:cc="http://creativecommons.org/ns#"
   xmlns:rdf="http://www.w3.org/1999/02/22-rdf-syntax-ns#"
   xmlns:svg="http://www.w3.org/2000/svg"
   xmlns="http://www.w3.org/2000/svg"
   xmlns:sodipodi="http://sodipodi.sourceforge.net/DTD/sodipodi-0.dtd"
   xmlns:inkscape="http://www.inkscape.org/namespaces/inkscape"
   version="1.1"
   id="Layer_1"
   x="0px"
   y="0px"
   width="800"
   height="1100"
   viewBox="0 0 800 1100"
   enable-background="new 0 0 512 512"
   xml:space="preserve"
   inkscape:version="0.48.0 r9654"
   sodipodi:docname="lamedhebrew-x5dc.svg"><title
   id="title3743">Sinai 357</title><metadata
   id="metadata72"><rdf:RDF><cc:Work
       rdf:about=""><dc:format>image/svg+xml</dc:format><dc:type
         rdf:resource="http://purl.org/dc/dcmitype/StillImage" /><dc:title>Sinai 357</dc:title><dc:date>2017</dc:date><dc:creator><cc:Agent><dc:title>Celeste Claire Horner</dc:title></cc:Agent></dc:creator><dc:publisher><cc:Agent><dc:title>beitdina.net</dc:title></cc:Agent></dc:publisher></cc:Work></rdf:RDF></metadata><defs
   id="defs70" /><sodipodi:namedview
   pagecolor="#ffffff"
   bordercolor="#666666"
   borderopacity="1"
   objecttolerance="10"
   gridtolerance="10"
   guidetolerance="10"
   inkscape:pageopacity="0"
   inkscape:pageshadow="2"
   inkscape:window-width="1152"
   inkscape:window-height="814"
   id="namedview68"
   showgrid="false"
   inkscape:zoom="0.1875928"
   inkscape:cx="-535.23571"
   inkscape:cy="243.86416"
   inkscape:window-x="-8"
   inkscape:window-y="-8"
   inkscape:window-maximized="1"
   inkscape:current-layer="Layer_1" />
   
	<g
   id="Grid"
   transform="matrix(1.5531994,0,0,2.1460938,11.161585,6.1841231)">
		<rect
   x="0"
   stroke-miterlimit="10"
   width="512"
   height="512"
   id="rect4"
   y="0"
   style="fill:none;stroke:#a9ccdb;stroke-miterlimit:10" />
		<line
   stroke-miterlimit="10"
   x1="0"
   y1="32"
   x2="512"
   y2="32"
   id="line6"
   style="fill:none;stroke:#a9ccdb;stroke-miterlimit:10" />
		<line
   stroke-miterlimit="10"
   x1="0"
   y1="64"
   x2="512"
   y2="64"
   id="line8"
   style="fill:none;stroke:#a9ccdb;stroke-miterlimit:10" />
		<line
   stroke-miterlimit="10"
   x1="0"
   y1="96"
   x2="512"
   y2="96"
   id="line10"
   style="fill:none;stroke:#a9ccdb;stroke-miterlimit:10" />
		<line
   stroke-miterlimit="10"
   x1="0"
   y1="128"
   x2="512"
   y2="128"
   id="line12"
   style="fill:none;stroke:#a9ccdb;stroke-miterlimit:10" />
		<line
   stroke-miterlimit="10"
   x1="0"
   y1="160"
   x2="512"
   y2="160"
   id="line14"
   style="fill:none;stroke:#a9ccdb;stroke-miterlimit:10" />
		<line
   stroke-miterlimit="10"
   x1="0"
   y1="192"
   x2="512"
   y2="192"
   id="line16"
   style="fill:none;stroke:#a9ccdb;stroke-miterlimit:10" />
		<line
   stroke-miterlimit="10"
   x1="0"
   y1="224"
   x2="512"
   y2="224"
   id="line18"
   style="fill:none;stroke:#a9ccdb;stroke-miterlimit:10" />
		<line
   stroke-miterlimit="10"
   x1="0"
   y1="256"
   x2="512"
   y2="256"
   id="line20"
   style="fill:none;stroke:#a9ccdb;stroke-miterlimit:10" />
		<line
   stroke-miterlimit="10"
   x1="0"
   y1="288"
   x2="512"
   y2="288"
   id="line22"
   style="fill:none;stroke:#a9ccdb;stroke-miterlimit:10" />
		<line
   stroke-miterlimit="10"
   x1="0"
   y1="320"
   x2="512"
   y2="320"
   id="line24"
   style="fill:none;stroke:#a9ccdb;stroke-miterlimit:10" />
		<line
   stroke-miterlimit="10"
   x1="0"
   y1="352"
   x2="512"
   y2="352"
   id="line26"
   style="fill:none;stroke:#a9ccdb;stroke-miterlimit:10" />
		<line
   stroke-miterlimit="10"
   x1="0"
   y1="384"
   x2="512"
   y2="384"
   id="line28"
   style="fill:none;stroke:#a9ccdb;stroke-miterlimit:10" />
		<line
   stroke-miterlimit="10"
   x1="0"
   y1="416"
   x2="512"
   y2="416"
   id="line30"
   style="fill:none;stroke:#a9ccdb;stroke-miterlimit:10" />
		<line
   stroke-miterlimit="10"
   x1="0"
   y1="448"
   x2="512"
   y2="448"
   id="line32"
   style="fill:none;stroke:#ff0000;stroke-miterlimit:10" />
		<line
   stroke-miterlimit="10"
   x1="0"
   y1="480"
   x2="512"
   y2="480"
   id="line34"
   style="fill:none;stroke:#a9ccdb;stroke-miterlimit:10" />
		<line
   stroke-miterlimit="10"
   x1="32"
   y1="0"
   x2="32"
   y2="512"
   id="line36"
   style="fill:none;stroke:#a9ccdb;stroke-miterlimit:10" />
		<line
   stroke-miterlimit="10"
   x1="64"
   y1="0"
   x2="64"
   y2="512"
   id="line38"
   style="fill:none;stroke:#a9ccdb;stroke-miterlimit:10" />
		<line
   stroke-miterlimit="10"
   x1="96"
   y1="0"
   x2="96"
   y2="512"
   id="line40"
   style="fill:none;stroke:#a9ccdb;stroke-miterlimit:10" />
		<line
   stroke-miterlimit="10"
   x1="128"
   y1="0"
   x2="128"
   y2="512"
   id="line42"
   style="fill:none;stroke:#a9ccdb;stroke-miterlimit:10" />
		<line
   stroke-miterlimit="10"
   x1="160"
   y1="0"
   x2="160"
   y2="512"
   id="line44"
   style="fill:none;stroke:#a9ccdb;stroke-miterlimit:10" />
		<line
   stroke-miterlimit="10"
   x1="192"
   y1="0"
   x2="192"
   y2="512"
   id="line46"
   style="fill:none;stroke:#a9ccdb;stroke-miterlimit:10" />
		<line
   stroke-miterlimit="10"
   x1="224"
   y1="0"
   x2="224"
   y2="512"
   id="line48"
   style="fill:none;stroke:#a9ccdb;stroke-miterlimit:10" />
		<line
   stroke-miterlimit="10"
   x1="256"
   y1="0"
   x2="256"
   y2="512"
   id="line50"
   style="fill:none;stroke:#a9ccdb;stroke-miterlimit:10" />
		<line
   stroke-miterlimit="10"
   x1="288"
   y1="0"
   x2="288"
   y2="512"
   id="line52"
   style="fill:none;stroke:#a9ccdb;stroke-miterlimit:10" />
		<line
   stroke-miterlimit="10"
   x1="320"
   y1="0"
   x2="320"
   y2="512"
   id="line54"
   style="fill:none;stroke:#a9ccdb;stroke-miterlimit:10" />
		<line
   stroke-miterlimit="10"
   x1="352"
   y1="0"
   x2="352"
   y2="512"
   id="line56"
   style="fill:none;stroke:#a9ccdb;stroke-miterlimit:10" />
		<line
   stroke-miterlimit="10"
   x1="384"
   y1="0"
   x2="384"
   y2="512"
   id="line58"
   style="fill:none;stroke:#a9ccdb;stroke-miterlimit:10" />
		<line
   stroke-miterlimit="10"
   x1="416"
   y1="0"
   x2="416"
   y2="512"
   id="line60"
   style="fill:none;stroke:#a9ccdb;stroke-miterlimit:10" />
		<line
   stroke-miterlimit="10"
   x1="448"
   y1="0"
   x2="448"
   y2="512"
   id="line62"
   style="fill:none;stroke:#a9ccdb;stroke-miterlimit:10" />
		<line
   stroke-miterlimit="10"
   x1="480"
   y1="0"
   x2="480"
   y2="512"
   id="line64"
   style="fill:none;stroke:#a9ccdb;stroke-miterlimit:10" />
	</g>
	
<path
   style="fill:#6a5947"
   d="m 603.94295,22.813038 c -2.18,7.9821 -2.9742,20.35897 -0.35577,36.36858 1.37144,8.38493 6.30827,19.39102 6.81438,27.78792 2.22036,36.834732 -1.21855,47.482642 -20.14593,62.374992 -26.9089,21.17233 -69.55107,31.40458 -79.27672,19.02295 -4.67373,-4.25624 -9.3108,-6.77343 -13.86443,-8.02934 -6.08477,-0.89547 -12.80905,-0.52862 -19.7562,0.70636 -23.32889,4.14711 -49.17075,18.08357 -61.74717,26.88195 -16.2013,11.83401 -24.22473,24.9045 -29.17247,39.24939 -2.41285,7.67039 -3.5349,15.84847 -5.6617,25.70533 -2.14001,9.90429 -6.18921,17.10805 -8.61335,27.59488 -1.72209,6.70121 -6.45297,12.61143 -9.87765,18.9555 -33.32816,43.5038 -51.02919,92.03632 -79.45948,128.59355 -21.78355,44.37415 -46.03442,91.1923 -72.39801,131.9801 -9.73065,14.48734 -11.14464,17.72946 -28.0603,33.5146 -16.15554,16.13732 -18.6426,44.01628 -28.24829,55.0325 -17.4169,19.16718 -17.00294,37.78602 -41.3379,40.45959 -25.335103,2.29673 -43.283329,-5.86003 -40.124835,19.71836 1.919305,15.54414 13.901079,39.16319 26.625795,52.48675 12.72496,13.32355 25.00906,28.32709 27.29826,33.34118 2.28956,5.01417 21.63116,24.2324 42.98165,42.70731 37.36404,32.33147 58.67673,36.79865 58.67673,12.29863 -4.16147,-7.0133 -5.61301,-14.49389 -5.38436,-21.91842 0.34205,-11.11281 4.44829,-22.09996 8.86569,-31.20612 3.83005,-11.23605 9.71988,-24.60148 16.9973,-39.6827 4.80304,-9.95362 20.71059,-20.49274 26.94056,-31.55826 27.50971,-48.86194 55.89029,-107.98788 80.9733,-172.29034 12.49492,-39.96596 33.67279,-86.85203 48.7887,-113.40715 8.81828,-18.17596 14.48831,-40.6209 23.84704,-58.35321 16.59398,-18.62678 31.97353,-44.62316 45.93575,-57.0553 14.64415,-12.34944 30.74343,-15.36839 34.06149,-42.15167 1.94675,-18.06636 3.68882,-17.87516 5.96724,-21.38491 10.84564,-7.91924 22.93596,-10.9181 35.29926,-11.48528 19.43836,-0.89176 39.55147,4.22757 56.5621,5.68546 12.85133,-0.23475 20.3793,2.82425 25.59232,7.1149 6.51115,8.39048 14.12819,15.78027 22.6708,20.30306 10.75912,5.69622 22.98658,6.84469 36.32274,-0.28311 3.43042,-1.92465 6.60917,-4.49555 9.49673,-7.8131 6.9556,-5.69293 10.88409,-10.62237 12.72445,-15.40949 1.71081,-4.4502 1.617,-8.77741 0.47304,-13.48061 -1.41872,-5.83261 -2.74466,-15.40957 -5.95493,-23.35039 -7.16682,-17.41254 -10.4909,-36.84312 -12.40432,-56.75663 -1.30044,-13.53268 12.03291,-29.52417 11.13259,-43.86161 -0.64554,-10.28035 -8.70588,-18.50518 -12.427,-27.837472 -5.65925,-14.19307 -8.00944,-30.05644 -11.99981,-42.03836 -5.63364,-16.9163 -13.94889,-26.01036 -29.4393,-35.81372 -23.63083,-13.7752103 -43.41202,-14.4147803 -49.33799,7.28335 z"
   id="path3764"
   inkscape:connector-curvature="0"
   sodipodi:nodetypes="ssssccsccccccccccsssscscssccccccsccsccsscsssscs" />
</svg>