<?xml version="1.0" encoding="UTF-8" standalone="no"?>
<svg
   xmlns:dc="http://purl.org/dc/elements/1.1/"
   xmlns:cc="http://creativecommons.org/ns#"
   xmlns:rdf="http://www.w3.org/1999/02/22-rdf-syntax-ns#"
   xmlns:svg="http://www.w3.org/2000/svg"
   xmlns="http://www.w3.org/2000/svg"
   xmlns:sodipodi="http://sodipodi.sourceforge.net/DTD/sodipodi-0.dtd"
   xmlns:inkscape="http://www.inkscape.org/namespaces/inkscape"
   version="1.1"
   id="Layer_1"
   x="0px"
   y="0px"
   width="1024"
   height="1024"
   viewBox="0 0 1024 1024"
   enable-background="new 0 0 512 512"
   xml:space="preserve"
   inkscape:version="0.48.0 r9654"
   sodipodi:docname="memhebrew-x5de.svg"><title
   id="title3743">Sinai 357</title><metadata
   id="metadata72"><rdf:RDF><cc:Work
       rdf:about=""><dc:format>image/svg+xml</dc:format><dc:type
         rdf:resource="http://purl.org/dc/dcmitype/StillImage" /><dc:title>Sinai 357</dc:title><dc:date>2017</dc:date><dc:creator><cc:Agent><dc:title>Celeste Claire Horner</dc:title></cc:Agent></dc:creator><dc:publisher><cc:Agent><dc:title>beitdina.net</dc:title></cc:Agent></dc:publisher></cc:Work></rdf:RDF></metadata><defs
   id="defs70" /><sodipodi:namedview
   pagecolor="#ffffff"
   bordercolor="#666666"
   borderopacity="1"
   objecttolerance="10"
   gridtolerance="10"
   guidetolerance="10"
   inkscape:pageopacity="0"
   inkscape:pageshadow="2"
   inkscape:window-width="976"
   inkscape:window-height="679"
   id="namedview68"
   showgrid="false"
   inkscape:zoom="0.16896503"
   inkscape:cx="-953.06533"
   inkscape:cy="178.70147"
   inkscape:window-x="82"
   inkscape:window-y="78"
   inkscape:window-maximized="0"
   inkscape:current-layer="Layer_1"
   showguides="true"
   inkscape:guide-bbox="true" />
   
	<g
   id="Grid"
   transform="matrix(2.0004581,0,0,2.0004578,0.50019527,4.813853)">
		<rect
   x="0"
   stroke-miterlimit="10"
   width="512"
   height="512"
   id="rect4"
   y="0"
   style="fill:none;stroke:#a9ccdb;stroke-miterlimit:10" />
		<line
   stroke-miterlimit="10"
   x1="0"
   y1="32"
   x2="512"
   y2="32"
   id="line6"
   style="fill:none;stroke:#a9ccdb;stroke-miterlimit:10" />
		<line
   stroke-miterlimit="10"
   x1="0"
   y1="64"
   x2="512"
   y2="64"
   id="line8"
   style="fill:none;stroke:#a9ccdb;stroke-miterlimit:10" />
		<line
   stroke-miterlimit="10"
   x1="0"
   y1="96"
   x2="512"
   y2="96"
   id="line10"
   style="fill:none;stroke:#a9ccdb;stroke-miterlimit:10" />
		<line
   stroke-miterlimit="10"
   x1="0"
   y1="128"
   x2="512"
   y2="128"
   id="line12"
   style="fill:none;stroke:#a9ccdb;stroke-miterlimit:10" />
		<line
   stroke-miterlimit="10"
   x1="0"
   y1="160"
   x2="512"
   y2="160"
   id="line14"
   style="fill:none;stroke:#a9ccdb;stroke-miterlimit:10" />
		<line
   stroke-miterlimit="10"
   x1="0"
   y1="192"
   x2="512"
   y2="192"
   id="line16"
   style="fill:none;stroke:#a9ccdb;stroke-miterlimit:10" />
		<line
   stroke-miterlimit="10"
   x1="0"
   y1="224"
   x2="512"
   y2="224"
   id="line18"
   style="fill:none;stroke:#a9ccdb;stroke-miterlimit:10" />
		<line
   stroke-miterlimit="10"
   x1="0"
   y1="256"
   x2="512"
   y2="256"
   id="line20"
   style="fill:none;stroke:#a9ccdb;stroke-miterlimit:10" />
		<line
   stroke-miterlimit="10"
   x1="0"
   y1="288"
   x2="512"
   y2="288"
   id="line22"
   style="fill:none;stroke:#a9ccdb;stroke-miterlimit:10" />
		<line
   stroke-miterlimit="10"
   x1="0"
   y1="320"
   x2="512"
   y2="320"
   id="line24"
   style="fill:none;stroke:#a9ccdb;stroke-miterlimit:10" />
		<line
   stroke-miterlimit="10"
   x1="0"
   y1="352"
   x2="512"
   y2="352"
   id="line26"
   style="fill:none;stroke:#a9ccdb;stroke-miterlimit:10" />
		<line
   stroke-miterlimit="10"
   x1="0"
   y1="384"
   x2="512"
   y2="384"
   id="line28"
   style="fill:none;stroke:#a9ccdb;stroke-miterlimit:10" />
		<line
   stroke-miterlimit="10"
   x1="0"
   y1="416"
   x2="512"
   y2="416"
   id="line30"
   style="fill:none;stroke:#a9ccdb;stroke-miterlimit:10" />
		<line
   stroke-miterlimit="10"
   x1="0"
   y1="448"
   x2="512"
   y2="448"
   id="line32"
   style="fill:none;stroke:#ff0000;stroke-miterlimit:10" />
		<line
   stroke-miterlimit="10"
   x1="0"
   y1="480"
   x2="512"
   y2="480"
   id="line34"
   style="fill:none;stroke:#a9ccdb;stroke-miterlimit:10" />
		<line
   stroke-miterlimit="10"
   x1="32"
   y1="0"
   x2="32"
   y2="512"
   id="line36"
   style="fill:none;stroke:#a9ccdb;stroke-miterlimit:10" />
		<line
   stroke-miterlimit="10"
   x1="64"
   y1="0"
   x2="64"
   y2="512"
   id="line38"
   style="fill:none;stroke:#a9ccdb;stroke-miterlimit:10" />
		<line
   stroke-miterlimit="10"
   x1="96"
   y1="0"
   x2="96"
   y2="512"
   id="line40"
   style="fill:none;stroke:#a9ccdb;stroke-miterlimit:10" />
		<line
   stroke-miterlimit="10"
   x1="128"
   y1="0"
   x2="128"
   y2="512"
   id="line42"
   style="fill:none;stroke:#a9ccdb;stroke-miterlimit:10" />
		<line
   stroke-miterlimit="10"
   x1="160"
   y1="0"
   x2="160"
   y2="512"
   id="line44"
   style="fill:none;stroke:#a9ccdb;stroke-miterlimit:10" />
		<line
   stroke-miterlimit="10"
   x1="192"
   y1="0"
   x2="192"
   y2="512"
   id="line46"
   style="fill:none;stroke:#a9ccdb;stroke-miterlimit:10" />
		<line
   stroke-miterlimit="10"
   x1="224"
   y1="0"
   x2="224"
   y2="512"
   id="line48"
   style="fill:none;stroke:#a9ccdb;stroke-miterlimit:10" />
		<line
   stroke-miterlimit="10"
   x1="256"
   y1="0"
   x2="256"
   y2="512"
   id="line50"
   style="fill:none;stroke:#a9ccdb;stroke-miterlimit:10" />
		<line
   stroke-miterlimit="10"
   x1="288"
   y1="0"
   x2="288"
   y2="512"
   id="line52"
   style="fill:none;stroke:#a9ccdb;stroke-miterlimit:10" />
		<line
   stroke-miterlimit="10"
   x1="320"
   y1="0"
   x2="320"
   y2="512"
   id="line54"
   style="fill:none;stroke:#a9ccdb;stroke-miterlimit:10" />
		<line
   stroke-miterlimit="10"
   x1="352"
   y1="0"
   x2="352"
   y2="512"
   id="line56"
   style="fill:none;stroke:#a9ccdb;stroke-miterlimit:10" />
		<line
   stroke-miterlimit="10"
   x1="384"
   y1="0"
   x2="384"
   y2="512"
   id="line58"
   style="fill:none;stroke:#a9ccdb;stroke-miterlimit:10" />
		<line
   stroke-miterlimit="10"
   x1="416"
   y1="0"
   x2="416"
   y2="512"
   id="line60"
   style="fill:none;stroke:#a9ccdb;stroke-miterlimit:10" />
		<line
   stroke-miterlimit="10"
   x1="448"
   y1="0"
   x2="448"
   y2="512"
   id="line62"
   style="fill:none;stroke:#a9ccdb;stroke-miterlimit:10" />
		<line
   stroke-miterlimit="10"
   x1="480"
   y1="0"
   x2="480"
   y2="512"
   id="line64"
   style="fill:none;stroke:#a9ccdb;stroke-miterlimit:10" />
	</g>
	
<path
   style="fill:#a15721"
   d="m 330.53288,123.5138 c -10.67118,17.21924 -17.83683,35.2694 -23.34626,53.76347 -6.36654,21.37136 -10.52126,43.33571 -15.31777,65.29583 -3.00645,13.5438 -6.09735,27.21096 -9.06138,40.87978 -6.30622,24.21405 -9.24947,47.82523 -12.95128,71.14398 -2.84097,17.89577 -6.12869,35.61924 -11.72618,53.31085 -6.36333,15.13073 -23.48036,21.52437 -34.23779,26.923 -15.37429,7.71552 -26.00331,12.14328 -43.91697,26.44739 -18.04522,22.10903 -42.61225,22.5491 -62.17966,33.21122 -4.81487,2.61254 -9.78641,4.98247 -15.73506,5.09312 -11.985736,0.70751 -27.948952,16.18791 -28.347537,26.83945 0,15.07686 9.609169,26.26359 19.521186,39.10587 39.844161,52.24291 82.689361,106.03185 116.109731,159.35721 9.30464,15.14268 13.41507,28.48596 26.12129,38.2892 28.39451,23.7888 54.74803,-9.73936 68.41792,-36.75553 9.89993,-20.98916 12.95001,-33.3381 13.6441,-55.2399 1.04485,-32.96951 2.5627,-56.42813 4.69101,-71.75813 2.14888,-13.42135 6.66184,-26.71395 9.08343,-39.03194 1.55622,-7.85126 3.48763,-15.00327 9.47141,-22.50701 6.13351,-7.63276 13.00974,-14.73034 13.69842,-24.35895 0,-5.25943 4.9064,-5.56729 12.78258,-2.01374 11.04632,4.98378 27.93428,17.56273 45.32153,34.72891 18.08315,17.85319 32.46551,29.84457 46.07975,38.41934 5.91771,3.72721 9.10138,11.59359 10.9606,27.08221 2.13263,17.76627 2.91355,27.96954 1.18474,37.75868 -8.75105,23.51827 -14.8083,46.18753 -25.07866,67.99451 -7.92498,16.73044 -17.00614,32.44512 -21.10715,48.9602 -1.94587,9.23272 -2.88274,17.4584 -3.3557,26.69669 -0.42848,15.84734 7.41095,15.47444 16.36739,22.74044 7.82179,6.72146 11.20151,10.38213 19.03273,16.94124 5.68035,6.92977 21.80358,17.45617 24.95161,24.04772 3.75012,11.02606 8.25043,13.38244 12.71883,11.24217 4.20301,-2.01318 8.37777,-8.00476 11.87341,-14.5019 5.51194,-12.59275 5.72502,-24.19522 10.28682,-36.27785 1.76706,-4.65892 6.90195,-13.591 9.09838,-18.1673 9.39922,-18.75598 15.46882,-35.93656 22.21445,-53.59316 6.72887,-17.58708 20.14971,-44.62681 27.92832,-55.40208 2.42489,-4.2209 5.59968,-4.86848 9.74475,-5.23143 36.25103,-3.11471 80.27175,23.81659 108.54677,36.72998 4.74538,2.01218 9.60729,7.25846 14.56869,5.24122 7.60161,-3.2219 14.1691,-18.60599 13.29007,-25.10736 2.17656,-35.28408 31.87734,-85.13643 49.28912,-128.83127 4.67623,-11.89141 10.51944,-24.35791 12.26499,-36.96467 2.20325,-32.15051 -1.2912,-62.35192 6.04991,-92.15533 6.11123,-24.23395 10.95215,-52.36543 10.95215,-67.606 0,-32.0212 -12.94186,-65.89098 -30.88841,-80.83721 -18.1573,-11.89042 -33.31165,-16.75857 -47.21687,-32.73009 -35.5175,-29.07307 -77.42428,-46.49639 -115.08208,-59.32284 -4.18686,-1.35091 -12.92241,-2.28877 -15.6904,-6.47747 -2.06354,-5.27059 -8.73966,-10.33351 -11.33876,-13.6231 -3.87457,-3.27002 -6.05381,-4.66581 -9.61982,-7.29662 -3.5544,-2.644 -7.76687,-6.39518 -11.69367,-10.5386 -8.94156,-9.51603 -19.408,-12.77849 -30.34403,-14.17935 -15.04337,-1.92706 -30.97531,-0.33134 -45.049,-6.64381 -15.23067,-9.27503 -22.53719,-10.8555 -41.4887,-8.97348 -23.13246,2.29723 -31.80029,6.48204 -30.70872,18.5709 0.36941,4.09115 2.35083,6.07803 4.77336,12.2128 2.29278,6.18927 6.04644,12.90352 8.94199,18.10624 5.40107,9.70459 10.26732,17.13486 14.35632,27.10766 3.28892,7.74502 7.7176,15.71444 7.78051,19.34259 -0.29874,4.51407 0.98743,10.4626 1.00674,13.29633 0.0637,9.35318 5.44503,12.20641 14.30353,15.71991 53.41699,12.93786 95.555,12.93098 143.76395,30.846 13.44778,4.80725 27.22544,6.76692 39.36754,14.84444 14.53975,9.21729 27.48823,23.01536 38.14142,32.61792 4.40487,11.34504 5.63804,21.82805 5.63532,32.14606 -0.005,18.38888 -3.93525,36.25338 -0.83277,57.53862 7.81825,21.96204 3.72349,39.8283 -3.73193,56.82447 -5.18648,11.82363 -11.99935,23.22618 -17.55934,35.29364 -11.34785,25.58738 -20.30342,53.76849 -35.22985,70.26979 -7.07146,7.03331 -12.60325,5.88523 -20.8971,4.79863 -33.87841,-5.19575 -78.04047,-38.3992 -102.0769,-59.3113 -10.91922,-9.78391 -18.43672,-20.0445 -25.42538,-33.8635 -5.22502,-12.0181 -16.57246,-23.52649 -27.43601,-30.61621 -20.81958,-12.7198 -37.39539,-28.52239 -54.00608,-45.58034 -6.02741,-5.35536 -13.34192,-18.41452 -16.2545,-29.02022 -5.37327,-19.56625 -3.7687,-43.00139 7.60807,-111.101 2.9999,-17.957 6.25144,-54.62899 7.54991,-82.27284 1.04725,-14.01243 0.98762,-22.71595 -3.84451,-34.43605 -7.31303,-17.568 -21.29565,-35.34946 -36.21755,-43.9492 -10.35277,-5.96653 -21.15764,-7.51331 -30.50097,-1.5029 z"
   id="path3765"
   inkscape:connector-curvature="0"
   sodipodi:nodetypes="csccscsccccccccsccccsssscccccccsccccccccccccscccccccscsscsccsccccscscccccccssccsc" />
</svg>