<?xml version="1.0" encoding="UTF-8" standalone="no"?>
<svg
   xmlns:dc="http://purl.org/dc/elements/1.1/"
   xmlns:cc="http://creativecommons.org/ns#"
   xmlns:rdf="http://www.w3.org/1999/02/22-rdf-syntax-ns#"
   xmlns:svg="http://www.w3.org/2000/svg"
   xmlns="http://www.w3.org/2000/svg"
   xmlns:sodipodi="http://sodipodi.sourceforge.net/DTD/sodipodi-0.dtd"
   xmlns:inkscape="http://www.inkscape.org/namespaces/inkscape"
   version="1.1"
   id="Layer_1"
   x="0px"
   y="0px"
   width="1024"
   height="1024"
   viewBox="0 0 1024 1024"
   enable-background="new 0 0 512 512"
   xml:space="preserve"
   inkscape:version="0.48.0 r9654"
   sodipodi:docname="memhebrew-x5de.svg"><title
   id="title3743">Sinai 357</title><metadata
   id="metadata72"><rdf:RDF><cc:Work
       rdf:about=""><dc:format>image/svg+xml</dc:format><dc:type
         rdf:resource="http://purl.org/dc/dcmitype/StillImage" /><dc:title>Sinai 357</dc:title><dc:date>2017</dc:date><dc:creator><cc:Agent><dc:title>Celeste Claire Horner</dc:title></cc:Agent></dc:creator><dc:publisher><cc:Agent><dc:title>beitdina.net</dc:title></cc:Agent></dc:publisher></cc:Work></rdf:RDF></metadata><defs
   id="defs70" /><sodipodi:namedview
   pagecolor="#ffffff"
   bordercolor="#666666"
   borderopacity="1"
   objecttolerance="10"
   gridtolerance="10"
   guidetolerance="10"
   inkscape:pageopacity="0"
   inkscape:pageshadow="2"
   inkscape:window-width="976"
   inkscape:window-height="679"
   id="namedview68"
   showgrid="false"
   inkscape:zoom="0.23895264"
   inkscape:cx="461.57996"
   inkscape:cy="554.85826"
   inkscape:window-x="82"
   inkscape:window-y="78"
   inkscape:window-maximized="0"
   inkscape:current-layer="Layer_1"
   showguides="true"
   inkscape:guide-bbox="true" />
   
	<g
   id="Grid"
   transform="matrix(2.0062321,0,0,2.0004578,3.4622736,4.8138064)">
		<rect
   x="0"
   stroke-miterlimit="10"
   width="512"
   height="512"
   id="rect4"
   y="0"
   style="fill:none;stroke:#a9ccdb;stroke-miterlimit:10" />
		<line
   stroke-miterlimit="10"
   x1="0"
   y1="32"
   x2="512"
   y2="32"
   id="line6"
   style="fill:none;stroke:#a9ccdb;stroke-miterlimit:10" />
		<line
   stroke-miterlimit="10"
   x1="0"
   y1="64"
   x2="512"
   y2="64"
   id="line8"
   style="fill:none;stroke:#a9ccdb;stroke-miterlimit:10" />
		<line
   stroke-miterlimit="10"
   x1="0"
   y1="96"
   x2="512"
   y2="96"
   id="line10"
   style="fill:none;stroke:#a9ccdb;stroke-miterlimit:10" />
		<line
   stroke-miterlimit="10"
   x1="0"
   y1="128"
   x2="512"
   y2="128"
   id="line12"
   style="fill:none;stroke:#a9ccdb;stroke-miterlimit:10" />
		<line
   stroke-miterlimit="10"
   x1="0"
   y1="160"
   x2="512"
   y2="160"
   id="line14"
   style="fill:none;stroke:#a9ccdb;stroke-miterlimit:10" />
		<line
   stroke-miterlimit="10"
   x1="0"
   y1="192"
   x2="512"
   y2="192"
   id="line16"
   style="fill:none;stroke:#a9ccdb;stroke-miterlimit:10" />
		<line
   stroke-miterlimit="10"
   x1="0"
   y1="224"
   x2="512"
   y2="224"
   id="line18"
   style="fill:none;stroke:#a9ccdb;stroke-miterlimit:10" />
		<line
   stroke-miterlimit="10"
   x1="0"
   y1="256"
   x2="512"
   y2="256"
   id="line20"
   style="fill:none;stroke:#a9ccdb;stroke-miterlimit:10" />
		<line
   stroke-miterlimit="10"
   x1="0"
   y1="288"
   x2="512"
   y2="288"
   id="line22"
   style="fill:none;stroke:#a9ccdb;stroke-miterlimit:10" />
		<line
   stroke-miterlimit="10"
   x1="0"
   y1="320"
   x2="512"
   y2="320"
   id="line24"
   style="fill:none;stroke:#a9ccdb;stroke-miterlimit:10" />
		<line
   stroke-miterlimit="10"
   x1="0"
   y1="352"
   x2="512"
   y2="352"
   id="line26"
   style="fill:none;stroke:#a9ccdb;stroke-miterlimit:10" />
		<line
   stroke-miterlimit="10"
   x1="0"
   y1="384"
   x2="512"
   y2="384"
   id="line28"
   style="fill:none;stroke:#a9ccdb;stroke-miterlimit:10" />
		<line
   stroke-miterlimit="10"
   x1="0"
   y1="416"
   x2="512"
   y2="416"
   id="line30"
   style="fill:none;stroke:#a9ccdb;stroke-miterlimit:10" />
		<line
   stroke-miterlimit="10"
   x1="0"
   y1="448"
   x2="512"
   y2="448"
   id="line32"
   style="fill:none;stroke:#ff0000;stroke-miterlimit:10" />
		<line
   stroke-miterlimit="10"
   x1="0"
   y1="480"
   x2="512"
   y2="480"
   id="line34"
   style="fill:none;stroke:#a9ccdb;stroke-miterlimit:10" />
		<line
   stroke-miterlimit="10"
   x1="32"
   y1="0"
   x2="32"
   y2="512"
   id="line36"
   style="fill:none;stroke:#a9ccdb;stroke-miterlimit:10" />
		<line
   stroke-miterlimit="10"
   x1="64"
   y1="0"
   x2="64"
   y2="512"
   id="line38"
   style="fill:none;stroke:#a9ccdb;stroke-miterlimit:10" />
		<line
   stroke-miterlimit="10"
   x1="96"
   y1="0"
   x2="96"
   y2="512"
   id="line40"
   style="fill:none;stroke:#a9ccdb;stroke-miterlimit:10" />
		<line
   stroke-miterlimit="10"
   x1="128"
   y1="0"
   x2="128"
   y2="512"
   id="line42"
   style="fill:none;stroke:#a9ccdb;stroke-miterlimit:10" />
		<line
   stroke-miterlimit="10"
   x1="160"
   y1="0"
   x2="160"
   y2="512"
   id="line44"
   style="fill:none;stroke:#a9ccdb;stroke-miterlimit:10" />
		<line
   stroke-miterlimit="10"
   x1="192"
   y1="0"
   x2="192"
   y2="512"
   id="line46"
   style="fill:none;stroke:#a9ccdb;stroke-miterlimit:10" />
		<line
   stroke-miterlimit="10"
   x1="224"
   y1="0"
   x2="224"
   y2="512"
   id="line48"
   style="fill:none;stroke:#a9ccdb;stroke-miterlimit:10" />
		<line
   stroke-miterlimit="10"
   x1="256"
   y1="0"
   x2="256"
   y2="512"
   id="line50"
   style="fill:none;stroke:#a9ccdb;stroke-miterlimit:10" />
		<line
   stroke-miterlimit="10"
   x1="288"
   y1="0"
   x2="288"
   y2="512"
   id="line52"
   style="fill:none;stroke:#a9ccdb;stroke-miterlimit:10" />
		<line
   stroke-miterlimit="10"
   x1="320"
   y1="0"
   x2="320"
   y2="512"
   id="line54"
   style="fill:none;stroke:#a9ccdb;stroke-miterlimit:10" />
		<line
   stroke-miterlimit="10"
   x1="352"
   y1="0"
   x2="352"
   y2="512"
   id="line56"
   style="fill:none;stroke:#a9ccdb;stroke-miterlimit:10" />
		<line
   stroke-miterlimit="10"
   x1="384"
   y1="0"
   x2="384"
   y2="512"
   id="line58"
   style="fill:none;stroke:#a9ccdb;stroke-miterlimit:10" />
		<line
   stroke-miterlimit="10"
   x1="416"
   y1="0"
   x2="416"
   y2="512"
   id="line60"
   style="fill:none;stroke:#a9ccdb;stroke-miterlimit:10" />
		<line
   stroke-miterlimit="10"
   x1="448"
   y1="0"
   x2="448"
   y2="512"
   id="line62"
   style="fill:none;stroke:#a9ccdb;stroke-miterlimit:10" />
		<line
   stroke-miterlimit="10"
   x1="480"
   y1="0"
   x2="480"
   y2="512"
   id="line64"
   style="fill:none;stroke:#a9ccdb;stroke-miterlimit:10" />
	</g>
	
<path
   style="fill:#a15721"
   d="m 189.01486,546.2178 c 20.47809,6.89468 78.41837,30.21507 110.65151,53.96314 33.52323,24.69851 27.6347,20.57331 52.8733,32.43583 10.97047,5.15631 37.58683,13.07964 41.03352,34.50695 3.95355,24.57826 5.40126,38.69369 2.19632,52.23621 -16.22302,32.5357 -27.4522,63.89687 -46.49178,94.06513 -14.69163,23.14527 -31.52664,44.88531 -39.12924,67.73265 -3.60734,12.77274 -5.34415,24.15233 -6.22092,36.93279 -0.79434,21.92357 13.73869,21.40769 30.34248,31.45964 14.50034,9.29861 20.7658,14.36287 35.28362,23.43689 10.53043,9.5868 46.33869,9.35329 52.17462,18.47219 6.95211,15.25368 27.13173,24.43198 35.41542,21.47108 7.79171,-2.7851 15.53103,-11.074 22.01138,-20.06228 10.21826,-17.42109 -7.14188,-15.71705 1.31495,-32.43244 3.27585,-6.44525 12.79511,-27.67966 16.86694,-34.01062 17.42464,-25.94745 28.67668,-49.71545 41.182,-74.14198 12.47424,-24.33036 37.35429,-61.73774 51.77459,-76.64449 4.49534,-5.83928 10.3809,-6.73516 18.06518,-7.23728 67.20356,-4.30895 115.33141,20.39362 167.74873,38.2583 8.79718,2.78369 17.81036,10.04152 27.008,7.25082 14.09215,-4.45725 26.26722,-25.73994 24.63765,-34.73409 17.3578,-56.45321 40.53617,-108.3769 66.26448,-157.30341 8.66897,-16.45086 36.24105,-50.43701 39.47702,-67.87749 3.02108,-32.89798 44.19379,-41.31864 37.85089,-88.24462 -1.63987,-12.13217 20.54839,-31.97765 24.09149,-42.71204 11.32929,-33.52579 11.42599,-60.60674 11.42599,-81.6909 0,-44.29884 -23.99212,-91.15505 -57.26211,-111.832 C 915.94018,213.0663 887.84647,206.33159 862.06844,184.23623 796.22473,144.0159 621.39071,99.408046 551.57924,81.663636 c -9.90873,-15.24382 -25.5443,-18.15921 -48.45754,-14.97791 -21.63641,3.00402 -42.29896,-9.02704 -49.19908,-14.90782 -3.82546,-7.29145 -16.20191,-2.45885 -21.02021,-7.00972 -7.18283,-4.52378 -11.22279,-6.45478 -17.8336,-10.09426 -6.58928,-3.65782 -33.23071,17.93424 -40.51035,12.20214 -16.5762,-13.16476 -40.82067,-8.94929 -61.0943,-10.88729 -27.88797,-2.66587 -13.03532,-0.45845 -39.12567,-9.19127 -28.23519,-12.8313 -53.61708,5.6967 -88.75011,8.30032 -15.95588,-1.87592 -28.46404,20.45725 -23.85112,27.25301 10.01272,13.42554 2.29424,20.56605 9.87458,34.36265 6.09712,10.714634 14.30719,21.739714 14.4238,26.758984 -0.5538,6.24486 22.75519,16.56665 22.79098,20.48689 0.11812,12.9394 10.09421,16.88662 26.51644,21.74728 99.02646,17.89853 177.14353,17.88901 266.51512,42.67305 24.93002,6.65046 50.47156,9.36151 72.98105,20.53613 26.95435,12.75141 187.08159,37.75834 206.83088,51.04275 8.16591,15.69498 60.75827,39.07499 60.75324,53.34915 -0.008,25.43959 -22.09127,53.11294 -16.33979,82.55942 14.49379,30.38278 -19.72997,52.14017 -33.55112,75.65306 -9.61488,16.35707 -19.28566,32.13161 -29.59299,48.82601 -7.59538,12.78042 -8.04957,73.37567 -18.1761,86.16223 -17.9211,22.62859 -50.16812,-3.5356 -67.84868,11.05058 -13.10934,9.73003 -70.71147,-18.49098 -86.08693,-19.99421 -62.8051,-7.18791 -79.57219,-26.48958 -124.13184,-55.41985 -20.24247,-13.53527 -48.97466,-7.01565 -61.93051,-26.13317 -9.68634,-16.62611 -51.437,-41.42466 -71.57627,-51.23274 -38.59613,-17.59685 -87.08017,-33.54014 -117.8737,-57.13849 -28.9742,-14.24618 -93.02904,-29.14317 -115.462489,-29.87843 -4.8034,4.552 -21.397763,10.11537 -25.670269,16.23567 -9.626884,13.79039 -4.954191,30.40836 -4.630138,44.65551 0.48431,21.29287 17.059619,37.50177 29.053487,43.75587 20.135159,10.35121 57.763239,24.41997 90.408849,43.80862 z"
   id="path3765"
   inkscape:connector-curvature="0"
   sodipodi:nodetypes="cssscccccccscccccccccccscscccsccccscccccsccccscscscccccccsscc" />
</svg>