<?xml version="1.0" encoding="UTF-8" standalone="no"?>
<svg
   xmlns:dc="http://purl.org/dc/elements/1.1/"
   xmlns:cc="http://creativecommons.org/ns#"
   xmlns:rdf="http://www.w3.org/1999/02/22-rdf-syntax-ns#"
   xmlns:svg="http://www.w3.org/2000/svg"
   xmlns="http://www.w3.org/2000/svg"
   xmlns:sodipodi="http://sodipodi.sourceforge.net/DTD/sodipodi-0.dtd"
   xmlns:inkscape="http://www.inkscape.org/namespaces/inkscape"
   version="1.1"
   id="Layer_1"
   x="0px"
   y="0px"
   width="1024"
   height="1024"
   viewBox="0 0 1024 1024"
   enable-background="new 0 0 512 512"
   xml:space="preserve"
   inkscape:version="0.48.0 r9654"
   sodipodi:docname="memhebrew-x5de.svg"><title
   id="title3743">Sinai 357</title><metadata
   id="metadata72"><rdf:RDF><cc:Work
       rdf:about=""><dc:format>image/svg+xml</dc:format><dc:type
         rdf:resource="http://purl.org/dc/dcmitype/StillImage" /><dc:title>Sinai 357</dc:title><dc:date>2017</dc:date><dc:creator><cc:Agent><dc:title>Celeste Claire Horner</dc:title></cc:Agent></dc:creator><dc:publisher><cc:Agent><dc:title>beitdina.net</dc:title></cc:Agent></dc:publisher></cc:Work></rdf:RDF></metadata><defs
   id="defs70" /><sodipodi:namedview
   pagecolor="#ffffff"
   bordercolor="#666666"
   borderopacity="1"
   objecttolerance="10"
   gridtolerance="10"
   guidetolerance="10"
   inkscape:pageopacity="0"
   inkscape:pageshadow="2"
   inkscape:window-width="976"
   inkscape:window-height="679"
   id="namedview68"
   showgrid="false"
   inkscape:zoom="0.16896503"
   inkscape:cx="-953.06533"
   inkscape:cy="178.70147"
   inkscape:window-x="82"
   inkscape:window-y="78"
   inkscape:window-maximized="0"
   inkscape:current-layer="g3754"
   showguides="true"
   inkscape:guide-bbox="true" />
   
	<g
   id="Grid"
   transform="matrix(2.0004581,0,0,2.0004578,0.50019527,4.813853)">
		<rect
   x="0"
   stroke-miterlimit="10"
   width="512"
   height="512"
   id="rect4"
   y="0"
   style="fill:none;stroke:#a9ccdb;stroke-miterlimit:10" />
		<line
   stroke-miterlimit="10"
   x1="0"
   y1="32"
   x2="512"
   y2="32"
   id="line6"
   style="fill:none;stroke:#a9ccdb;stroke-miterlimit:10" />
		<line
   stroke-miterlimit="10"
   x1="0"
   y1="64"
   x2="512"
   y2="64"
   id="line8"
   style="fill:none;stroke:#a9ccdb;stroke-miterlimit:10" />
		<line
   stroke-miterlimit="10"
   x1="0"
   y1="96"
   x2="512"
   y2="96"
   id="line10"
   style="fill:none;stroke:#a9ccdb;stroke-miterlimit:10" />
		<line
   stroke-miterlimit="10"
   x1="0"
   y1="128"
   x2="512"
   y2="128"
   id="line12"
   style="fill:none;stroke:#a9ccdb;stroke-miterlimit:10" />
		<line
   stroke-miterlimit="10"
   x1="0"
   y1="160"
   x2="512"
   y2="160"
   id="line14"
   style="fill:none;stroke:#a9ccdb;stroke-miterlimit:10" />
		<line
   stroke-miterlimit="10"
   x1="0"
   y1="192"
   x2="512"
   y2="192"
   id="line16"
   style="fill:none;stroke:#a9ccdb;stroke-miterlimit:10" />
		<line
   stroke-miterlimit="10"
   x1="0"
   y1="224"
   x2="512"
   y2="224"
   id="line18"
   style="fill:none;stroke:#a9ccdb;stroke-miterlimit:10" />
		<line
   stroke-miterlimit="10"
   x1="0"
   y1="256"
   x2="512"
   y2="256"
   id="line20"
   style="fill:none;stroke:#a9ccdb;stroke-miterlimit:10" />
		<line
   stroke-miterlimit="10"
   x1="0"
   y1="288"
   x2="512"
   y2="288"
   id="line22"
   style="fill:none;stroke:#a9ccdb;stroke-miterlimit:10" />
		<line
   stroke-miterlimit="10"
   x1="0"
   y1="320"
   x2="512"
   y2="320"
   id="line24"
   style="fill:none;stroke:#a9ccdb;stroke-miterlimit:10" />
		<line
   stroke-miterlimit="10"
   x1="0"
   y1="352"
   x2="512"
   y2="352"
   id="line26"
   style="fill:none;stroke:#a9ccdb;stroke-miterlimit:10" />
		<line
   stroke-miterlimit="10"
   x1="0"
   y1="384"
   x2="512"
   y2="384"
   id="line28"
   style="fill:none;stroke:#a9ccdb;stroke-miterlimit:10" />
		<line
   stroke-miterlimit="10"
   x1="0"
   y1="416"
   x2="512"
   y2="416"
   id="line30"
   style="fill:none;stroke:#a9ccdb;stroke-miterlimit:10" />
		<line
   stroke-miterlimit="10"
   x1="0"
   y1="448"
   x2="512"
   y2="448"
   id="line32"
   style="fill:none;stroke:#ff0000;stroke-miterlimit:10" />
		<line
   stroke-miterlimit="10"
   x1="0"
   y1="480"
   x2="512"
   y2="480"
   id="line34"
   style="fill:none;stroke:#a9ccdb;stroke-miterlimit:10" />
		<line
   stroke-miterlimit="10"
   x1="32"
   y1="0"
   x2="32"
   y2="512"
   id="line36"
   style="fill:none;stroke:#a9ccdb;stroke-miterlimit:10" />
		<line
   stroke-miterlimit="10"
   x1="64"
   y1="0"
   x2="64"
   y2="512"
   id="line38"
   style="fill:none;stroke:#a9ccdb;stroke-miterlimit:10" />
		<line
   stroke-miterlimit="10"
   x1="96"
   y1="0"
   x2="96"
   y2="512"
   id="line40"
   style="fill:none;stroke:#a9ccdb;stroke-miterlimit:10" />
		<line
   stroke-miterlimit="10"
   x1="128"
   y1="0"
   x2="128"
   y2="512"
   id="line42"
   style="fill:none;stroke:#a9ccdb;stroke-miterlimit:10" />
		<line
   stroke-miterlimit="10"
   x1="160"
   y1="0"
   x2="160"
   y2="512"
   id="line44"
   style="fill:none;stroke:#a9ccdb;stroke-miterlimit:10" />
		<line
   stroke-miterlimit="10"
   x1="192"
   y1="0"
   x2="192"
   y2="512"
   id="line46"
   style="fill:none;stroke:#a9ccdb;stroke-miterlimit:10" />
		<line
   stroke-miterlimit="10"
   x1="224"
   y1="0"
   x2="224"
   y2="512"
   id="line48"
   style="fill:none;stroke:#a9ccdb;stroke-miterlimit:10" />
		<line
   stroke-miterlimit="10"
   x1="256"
   y1="0"
   x2="256"
   y2="512"
   id="line50"
   style="fill:none;stroke:#a9ccdb;stroke-miterlimit:10" />
		<line
   stroke-miterlimit="10"
   x1="288"
   y1="0"
   x2="288"
   y2="512"
   id="line52"
   style="fill:none;stroke:#a9ccdb;stroke-miterlimit:10" />
		<line
   stroke-miterlimit="10"
   x1="320"
   y1="0"
   x2="320"
   y2="512"
   id="line54"
   style="fill:none;stroke:#a9ccdb;stroke-miterlimit:10" />
		<line
   stroke-miterlimit="10"
   x1="352"
   y1="0"
   x2="352"
   y2="512"
   id="line56"
   style="fill:none;stroke:#a9ccdb;stroke-miterlimit:10" />
		<line
   stroke-miterlimit="10"
   x1="384"
   y1="0"
   x2="384"
   y2="512"
   id="line58"
   style="fill:none;stroke:#a9ccdb;stroke-miterlimit:10" />
		<line
   stroke-miterlimit="10"
   x1="416"
   y1="0"
   x2="416"
   y2="512"
   id="line60"
   style="fill:none;stroke:#a9ccdb;stroke-miterlimit:10" />
		<line
   stroke-miterlimit="10"
   x1="448"
   y1="0"
   x2="448"
   y2="512"
   id="line62"
   style="fill:none;stroke:#a9ccdb;stroke-miterlimit:10" />
		<line
   stroke-miterlimit="10"
   x1="480"
   y1="0"
   x2="480"
   y2="512"
   id="line64"
   style="fill:none;stroke:#a9ccdb;stroke-miterlimit:10" />
	</g>
	
<g
   id="g3754"
   transform="translate(-94.694146,-420.20531)"><path
     style="fill:#a15721"
     d="m 457.66836,473.48148 c -12.75691,20.7562 -21.32312,42.514 -27.90939,64.8069 -7.6109,25.7612 -12.57768,52.2372 -18.31168,78.7081 -3.59408,16.3258 -7.28911,32.8003 -10.83247,49.2768 -7.53879,29.1878 -11.05731,57.6489 -15.48266,85.7575 -3.39625,21.5717 -7.32657,42.9357 -14.01811,64.2613 -7.60707,18.2387 -28.06969,25.94565 -40.9297,32.4532 -18.37925,9.30034 -31.08576,14.6376 -52.50072,31.87988 -21.57223,26.65039 -50.94098,27.18086 -74.33292,40.03306 -5.75596,3.14918 -11.69921,6.00591 -18.81054,6.13929 -14.3284,0.85283 -33.41169,19.51303 -33.88818,32.35248 0,18.17376 11.48732,31.65833 23.33668,47.13851 47.63186,62.974 98.85133,127.8116 138.80384,192.0904 11.12328,18.2531 16.03711,34.3372 31.22681,46.1541 33.94433,28.6752 65.44875,-11.7399 81.79047,-44.3054 11.83491,-25.3005 15.48114,-40.186 16.3109,-66.5866 1.24906,-39.7417 3.06359,-68.0189 5.60788,-86.4978 2.56889,-16.1782 7.96392,-32.2012 10.85883,-47.0494 1.86038,-9.46397 4.1693,-18.08506 11.32263,-27.13012 7.33233,-9.20059 15.55255,-17.75607 16.37583,-29.36247 0,-6.33975 5.86538,-6.71085 15.28099,-2.42737 13.20537,6.00748 33.39414,21.17025 54.1798,41.86249 21.61758,21.52037 38.81103,35.97487 55.08622,46.31097 7.07435,4.4928 10.88028,13.975 13.1029,32.6451 2.54946,21.4156 3.48301,33.7147 1.4163,45.5146 -10.46148,28.3491 -17.70264,55.6748 -29.98038,81.9611 -9.47396,20.167 -20.33006,39.1096 -25.23263,59.017 -2.3262,11.1292 -3.44618,21.0445 -4.01159,32.1804 -0.51223,19.1025 8.85945,18.653 19.56647,27.4115 9.35059,8.1021 13.39089,12.5147 22.75275,20.4211 6.79059,8.3532 26.06517,21.0418 29.8285,28.9873 4.48309,13.2909 9.86301,16.1313 15.20477,13.5514 5.02451,-2.4267 10.01525,-9.649 14.19412,-17.4807 6.58927,-15.1794 6.844,-29.1651 12.29742,-43.7296 2.11244,-5.6159 8.25097,-16.3827 10.87669,-21.899 11.23634,-22.6086 18.49227,-43.3182 26.55636,-64.6016 8.04405,-21.1996 24.08805,-53.7935 33.38702,-66.7821 2.89884,-5.0879 6.69416,-5.8685 11.6494,-6.306 43.33644,-3.7545 95.96119,28.7087 129.76267,44.2746 5.67288,2.4255 11.48507,8.7494 17.4162,6.3178 9.08738,-3.8837 16.93851,-22.4278 15.88767,-30.2646 2.60197,-42.5317 38.10789,-102.6241 58.92287,-155.2942 5.59022,-14.334 12.57551,-29.36121 14.66223,-44.55749 2.63389,-38.75447 -1.54357,-75.15949 7.23239,-111.08475 7.3057,-29.21178 13.0928,-63.12168 13.0928,-81.49278 0,-38.5986 -15.4714,-79.4255 -36.92568,-97.4418 -21.70622,-14.3328 -39.82254,-20.2009 -56.44559,-39.4531 -42.45954,-35.0449 -92.55717,-56.0471 -137.57534,-71.5082 -5.00519,-1.6284 -15.44814,-2.7589 -18.75715,-7.808 -2.46686,-6.3532 -10.44786,-12.4561 -13.55497,-16.4214 -4.63187,-3.9417 -7.23705,-5.6242 -11.50005,-8.7954 -4.24912,-3.1871 -9.28493,-7.7088 -13.97924,-12.7033 -10.68922,-11.4707 -23.20137,-15.4033 -36.27489,-17.0919 -17.98366,-2.3229 -37.02956,-0.3994 -53.85401,-8.0085 -18.20757,-11.1802 -26.94218,-13.0853 -49.59783,-10.8167 -27.6538,2.7691 -38.01579,7.8135 -36.71086,22.3855 0.44161,4.9315 2.81031,7.3265 5.70633,14.7214 2.74091,7.4606 7.22824,15.554 10.68974,21.8254 6.45672,11.698 12.2741,20.6545 17.16232,32.6758 3.93175,9.3359 9.22603,18.9423 9.30124,23.3157 -0.35713,5.4413 1.18043,12.6117 1.20351,16.0275 0.0762,11.2744 6.50928,14.7137 17.09921,18.9489 63.85756,15.5954 114.23161,15.5871 171.86319,37.182 16.0762,5.7947 32.54676,8.1569 47.06208,17.8936 17.3816,11.1106 32.86092,27.7429 45.59632,39.3179 5.26582,13.6754 6.74001,26.3117 6.73676,38.7491 -0.006,22.1661 -4.70441,43.7001 -0.99554,69.3575 9.34636,26.47321 4.45127,48.00933 -4.46135,68.49665 -6.20019,14.25229 -14.34467,27.99701 -20.99138,42.54322 -13.56583,30.84323 -24.27181,64.81295 -42.11567,84.70375 -8.4536,8.478 -15.0666,7.0941 -24.98152,5.7843 -40.50008,-6.263 -93.29379,-46.28669 -122.02823,-71.49429 -13.05343,-11.79361 -22.04026,-24.1618 -30.39488,-40.81933 -6.24627,-14.48671 -19.81161,-28.35901 -32.79849,-36.90501 -24.88885,-15.33254 -44.70446,-34.38111 -64.56178,-54.94289 -7.20549,-6.4554 -15.94965,-22.197 -19.43151,-34.9812 -6.4235,-23.5853 -4.5053,-51.8342 9.0951,-133.922 3.58624,-21.6455 7.47331,-65.8502 9.02557,-99.1723 1.25194,-16.8907 1.18065,-27.382 -4.59593,-41.5095 -8.7424,-21.1766 -25.45797,-42.6105 -43.29642,-52.9767 -12.37626,-7.1921 -25.29298,-9.0566 -36.4625,-1.8116 z"
     id="path3765"
     inkscape:connector-curvature="0"
     sodipodi:nodetypes="csccscsccccccccsccccsssscccccccsccccccccccccscccccccscsscsccsccccscscccccccssccsc" /></g></svg>