<?xml version="1.0" encoding="UTF-8" standalone="no"?>
<svg
   xmlns:dc="http://purl.org/dc/elements/1.1/"
   xmlns:cc="http://creativecommons.org/ns#"
   xmlns:rdf="http://www.w3.org/1999/02/22-rdf-syntax-ns#"
   xmlns:svg="http://www.w3.org/2000/svg"
   xmlns="http://www.w3.org/2000/svg"
   xmlns:sodipodi="http://sodipodi.sourceforge.net/DTD/sodipodi-0.dtd"
   xmlns:inkscape="http://www.inkscape.org/namespaces/inkscape"
   version="1.1"
   id="Layer_1"
   x="0px"
   y="0px"
   width="700"
   height="1024"
   viewBox="0 0 700 1024"
   enable-background="new 0 0 512 512"
   xml:space="preserve"
   inkscape:version="0.48.0 r9654"
   sodipodi:docname="pehebrew-x5e4.svg"><title
   id="title3743">Sinai 357</title><metadata
   id="metadata72"><rdf:RDF><cc:Work
       rdf:about=""><dc:format>image/svg+xml</dc:format><dc:type
         rdf:resource="http://purl.org/dc/dcmitype/StillImage" /><dc:title>Sinai 357</dc:title><dc:date>2017</dc:date><dc:creator><cc:Agent><dc:title>Celeste Claire Horner</dc:title></cc:Agent></dc:creator><dc:publisher><cc:Agent><dc:title>beitdina.net</dc:title></cc:Agent></dc:publisher></cc:Work></rdf:RDF></metadata><defs
   id="defs70" /><sodipodi:namedview
   pagecolor="#ffffff"
   bordercolor="#666666"
   borderopacity="1"
   objecttolerance="10"
   gridtolerance="10"
   guidetolerance="10"
   inkscape:pageopacity="0"
   inkscape:pageshadow="2"
   inkscape:window-width="1152"
   inkscape:window-height="814"
   id="namedview68"
   showgrid="false"
   inkscape:zoom="0.36774845"
   inkscape:cx="157.30273"
   inkscape:cy="574.20717"
   inkscape:window-x="-8"
   inkscape:window-y="-8"
   inkscape:window-maximized="1"
   inkscape:current-layer="Layer_1"
   showguides="true"
   inkscape:guide-bbox="true" />
   
	
	


<g
   transform="matrix(4.4637923,0,0,4.9975799,-3306.2811,-1632.7003)"
   id="g2991"><g
     id="g4784" /><g
     id="g4634"><g
       id="g4519"
       transform="translate(477.65623,235.79285)"><g
         id="Grid"
         transform="matrix(0.30374688,0,0,0.40028531,263.75757,91.926833)"><rect
           x="0"
           stroke-miterlimit="10"
           width="512"
           height="512"
           id="rect4"
           y="0"
           style="fill:none;stroke:#a9ccdb;stroke-miterlimit:10" /><line
           stroke-miterlimit="10"
           x1="0"
           y1="32"
           x2="512"
           y2="32"
           id="line6"
           style="fill:none;stroke:#a9ccdb;stroke-miterlimit:10" /><line
           stroke-miterlimit="10"
           x1="0"
           y1="64"
           x2="512"
           y2="64"
           id="line8"
           style="fill:none;stroke:#a9ccdb;stroke-miterlimit:10" /><line
           stroke-miterlimit="10"
           x1="0"
           y1="96"
           x2="512"
           y2="96"
           id="line10"
           style="fill:none;stroke:#a9ccdb;stroke-miterlimit:10" /><line
           stroke-miterlimit="10"
           x1="0"
           y1="128"
           x2="512"
           y2="128"
           id="line12"
           style="fill:none;stroke:#a9ccdb;stroke-miterlimit:10" /><line
           stroke-miterlimit="10"
           x1="0"
           y1="160"
           x2="512"
           y2="160"
           id="line14"
           style="fill:none;stroke:#a9ccdb;stroke-miterlimit:10" /><line
           stroke-miterlimit="10"
           x1="0"
           y1="192"
           x2="512"
           y2="192"
           id="line16"
           style="fill:none;stroke:#a9ccdb;stroke-miterlimit:10" /><line
           stroke-miterlimit="10"
           x1="0"
           y1="224"
           x2="512"
           y2="224"
           id="line18"
           style="fill:none;stroke:#a9ccdb;stroke-miterlimit:10" /><line
           stroke-miterlimit="10"
           x1="0"
           y1="256"
           x2="512"
           y2="256"
           id="line20"
           style="fill:none;stroke:#a9ccdb;stroke-miterlimit:10" /><line
           stroke-miterlimit="10"
           x1="0"
           y1="288"
           x2="512"
           y2="288"
           id="line22"
           style="fill:none;stroke:#a9ccdb;stroke-miterlimit:10" /><line
           stroke-miterlimit="10"
           x1="0"
           y1="320"
           x2="512"
           y2="320"
           id="line24"
           style="fill:none;stroke:#a9ccdb;stroke-miterlimit:10" /><line
           stroke-miterlimit="10"
           x1="0"
           y1="352"
           x2="512"
           y2="352"
           id="line26"
           style="fill:none;stroke:#a9ccdb;stroke-miterlimit:10" /><line
           stroke-miterlimit="10"
           x1="0"
           y1="384"
           x2="512"
           y2="384"
           id="line28"
           style="fill:none;stroke:#a9ccdb;stroke-miterlimit:10" /><line
           stroke-miterlimit="10"
           x1="0"
           y1="416"
           x2="512"
           y2="416"
           id="line30"
           style="fill:none;stroke:#a9ccdb;stroke-miterlimit:10" /><line
           stroke-miterlimit="10"
           x1="0"
           y1="448"
           x2="512"
           y2="448"
           id="line32"
           style="fill:none;stroke:#ff0000;stroke-miterlimit:10" /><line
           stroke-miterlimit="10"
           x1="0"
           y1="480"
           x2="512"
           y2="480"
           id="line34"
           style="fill:none;stroke:#a9ccdb;stroke-miterlimit:10" /><line
           stroke-miterlimit="10"
           x1="32"
           y1="0"
           x2="32"
           y2="512"
           id="line36"
           style="fill:none;stroke:#a9ccdb;stroke-miterlimit:10" /><line
           stroke-miterlimit="10"
           x1="64"
           y1="0"
           x2="64"
           y2="512"
           id="line38"
           style="fill:none;stroke:#a9ccdb;stroke-miterlimit:10" /><line
           stroke-miterlimit="10"
           x1="96"
           y1="0"
           x2="96"
           y2="512"
           id="line40"
           style="fill:none;stroke:#a9ccdb;stroke-miterlimit:10" /><line
           stroke-miterlimit="10"
           x1="128"
           y1="0"
           x2="128"
           y2="512"
           id="line42"
           style="fill:none;stroke:#a9ccdb;stroke-miterlimit:10" /><line
           stroke-miterlimit="10"
           x1="160"
           y1="0"
           x2="160"
           y2="512"
           id="line44"
           style="fill:none;stroke:#a9ccdb;stroke-miterlimit:10" /><line
           stroke-miterlimit="10"
           x1="192"
           y1="0"
           x2="192"
           y2="512"
           id="line46"
           style="fill:none;stroke:#a9ccdb;stroke-miterlimit:10" /><line
           stroke-miterlimit="10"
           x1="224"
           y1="0"
           x2="224"
           y2="512"
           id="line48"
           style="fill:none;stroke:#a9ccdb;stroke-miterlimit:10" /><line
           stroke-miterlimit="10"
           x1="256"
           y1="0"
           x2="256"
           y2="512"
           id="line50"
           style="fill:none;stroke:#a9ccdb;stroke-miterlimit:10" /><line
           stroke-miterlimit="10"
           x1="288"
           y1="0"
           x2="288"
           y2="512"
           id="line52"
           style="fill:none;stroke:#a9ccdb;stroke-miterlimit:10" /><line
           stroke-miterlimit="10"
           x1="320"
           y1="0"
           x2="320"
           y2="512"
           id="line54"
           style="fill:none;stroke:#a9ccdb;stroke-miterlimit:10" /><line
           stroke-miterlimit="10"
           x1="352"
           y1="0"
           x2="352"
           y2="512"
           id="line56"
           style="fill:none;stroke:#a9ccdb;stroke-miterlimit:10" /><line
           stroke-miterlimit="10"
           x1="384"
           y1="0"
           x2="384"
           y2="512"
           id="line58"
           style="fill:none;stroke:#a9ccdb;stroke-miterlimit:10" /><line
           stroke-miterlimit="10"
           x1="416"
           y1="0"
           x2="416"
           y2="512"
           id="line60"
           style="fill:none;stroke:#a9ccdb;stroke-miterlimit:10" /><line
           stroke-miterlimit="10"
           x1="448"
           y1="0"
           x2="448"
           y2="512"
           id="line62"
           style="fill:none;stroke:#a9ccdb;stroke-miterlimit:10" /><line
           stroke-miterlimit="10"
           x1="480"
           y1="0"
           x2="480"
           y2="512"
           id="line64"
           style="fill:none;stroke:#a9ccdb;stroke-miterlimit:10" /></g><g
         id="g5180"
         transform="translate(101.34448,27.123307)" /></g></g><flowRoot
     style="font-size:28px;font-style:normal;font-variant:normal;font-weight:normal;font-stretch:normal;text-align:start;line-height:100%;letter-spacing:0px;word-spacing:0px;writing-mode:lr-tb;text-anchor:start;fill:#000000;fill-opacity:1;stroke:none;font-family:Arial;-inkscape-font-specification:Arial"
     id="flowRoot4904"
     xml:space="preserve"><flowRegion
       id="flowRegion4906"><rect
         style="font-size:28px"
         y="186.87357"
         x="31.103449"
         height="32.045979"
         width="594.73566"
         id="rect4908" /></flowRegion><flowPara
       id="flowPara4910" /></flowRoot></g>
  

<path
   style="fill:#985827;fill-opacity:0.76521738"
   d="m 119.66428,168.14926 c 14.0552,23.48821 38.87312,41.07744 67.09185,51.38165 25.9551,9.47763 55.08339,12.42199 74.81829,16.30204 40.10455,9.79655 77.54531,26.76126 109.23497,46.04563 13.94677,8.90417 18.79634,12.13981 22.57894,18.54176 2.9648,5.01782 4.3882,11.68551 6.7481,23.79424 2.3202,11.49273 6.7724,25.4513 5.7139,30.74201 -5.6229,27.04336 -1.102,58.13188 -13.7795,83.63501 -5.28918,13.6525 -11.30441,27.6128 -17.26639,41.54959 -7.76478,18.15105 -15.43922,36.26224 -21.30186,53.6017 -10.43117,33.97745 -16.64475,67.6035 -25.97445,101.17225 -5.98123,21.81483 -10.20489,43.26113 -19.0982,63.23265 -10.00207,15.08983 -35.22211,25.52183 -52.34543,27.95644 -11.68069,2.31181 -20.17319,-2.82099 -24.35631,-10.80882 -11.14667,-13.35451 -22.42214,-30.23499 -24.42408,-45.7093 -0.66058,-25.45028 -0.93101,-64.59195 6.50271,-87.23616 2.98055,-8.51364 7.48828,-15.74301 11.47432,-23.60593 4.44633,-8.77089 8.24353,-18.3301 8.54786,-31.33954 -0.70539,-11.57763 -1.9127,-17.82584 -3.9239,-22.80276 -3.06304,-7.57978 -7.99071,-12.21083 -15.84982,-28.22868 -3.84395,-7.78958 -8.1108,-15.46225 -12.45172,-21.33759 -5.41974,-8.71398 -7.72212,-12.1638 -12.06187,-14.85678 -9.68801,-4.86177 -11.02759,-5.27418 -24.21269,-5.27418 -14.70766,-0.27197 -27.79305,4.6189 -37.03582,10.31255 -13.89212,10.96638 -7.99355,31.94414 -9.13552,50.32724 -4.08886,9.84895 -10.99108,17.47503 -17.20321,24.83875 -7.205447,6.96934 -7.514077,13.27209 -8.517537,22.14127 -6.51144,57.98271 4.25497,108.89949 29.460997,156.91842 11.83371,22.41161 17.10792,42.96263 28.06259,58.54928 7.13963,10.1286 13.7669,19.48825 20.17667,29.47166 12.47526,26.11856 22.98184,36.16324 37.87311,55.38215 21.3046,21.86841 52.44729,58.31149 82.52037,59.8429 9.86798,-2.52463 17.96546,-7.52935 24.7101,-14.36602 21.3382,-30.59521 47.6415,-61.65191 66.5388,-90.74509 15.13928,-24.76012 29.44518,-56.52666 40.61558,-82.93501 8.4119,-19.88707 13.9222,-47.78348 20.7481,-67.47773 29.6874,-85.6551 45.6829,-170.47041 59.3736,-263.00447 3.9907,-29.89973 10.956,-61.17585 4.331,-87.91265 -4.3575,-17.58531 -18.1398,-33.47967 -30.0061,-44.76498 -13.2922,-12.3026 -21.6904,-21.45079 -30.6733,-31.69064 -10.932,-7.57537 -22.3366,-15.0026 -33.7535,-22.12125 -21.7436,-13.55759 -43.53158,-25.99597 -62.1838,-36.20701 -31.30293,-16.9522 -70.23804,-33.126 -108.26706,-47.91979 -59.84865,-23.281921 -116.72734,-34.559091 -125.62235,-13.49774 -8.57103,11.43051 -11.95186,21.33356 -11.59184,31.26862 0.41461,11.44168 5.79067,22.9258 13.9144,36.83431 z"
   id="path3813"
   inkscape:connector-curvature="0"
   sodipodi:nodetypes="csccscccscccccccscscccccccccccccccsscsccscscsc" />
</svg>