<?xml version="1.0" encoding="UTF-8" standalone="no"?>
<svg
   xmlns:dc="http://purl.org/dc/elements/1.1/"
   xmlns:cc="http://creativecommons.org/ns#"
   xmlns:rdf="http://www.w3.org/1999/02/22-rdf-syntax-ns#"
   xmlns:svg="http://www.w3.org/2000/svg"
   xmlns="http://www.w3.org/2000/svg"
   xmlns:sodipodi="http://sodipodi.sourceforge.net/DTD/sodipodi-0.dtd"
   xmlns:inkscape="http://www.inkscape.org/namespaces/inkscape"
   version="1.1"
   id="Layer_1"
   x="0px"
   y="0px"
   width="1024"
   height="1024"
   viewBox="0 0 1024 1024"
   enable-background="new 0 0 512 512"
   xml:space="preserve"
   inkscape:version="0.48.0 r9654"
   sodipodi:docname="qofhebrew-x5e7.svg"><title
   id="title3743">Sinai 357</title><metadata
   id="metadata72"><rdf:RDF><cc:Work
       rdf:about=""><dc:format>image/svg+xml</dc:format><dc:type
         rdf:resource="http://purl.org/dc/dcmitype/StillImage" /><dc:title>Sinai 357</dc:title><dc:date>2017</dc:date><dc:creator><cc:Agent><dc:title>Celeste Claire Horner</dc:title></cc:Agent></dc:creator><dc:publisher><cc:Agent><dc:title>beitdina.net</dc:title></cc:Agent></dc:publisher></cc:Work></rdf:RDF></metadata><defs
   id="defs70" /><sodipodi:namedview
   pagecolor="#ffffff"
   bordercolor="#666666"
   borderopacity="1"
   objecttolerance="10"
   gridtolerance="10"
   guidetolerance="10"
   inkscape:pageopacity="0"
   inkscape:pageshadow="2"
   inkscape:window-width="1152"
   inkscape:window-height="814"
   id="namedview68"
   showgrid="false"
   inkscape:zoom="0.44172912"
   inkscape:cx="125.62706"
   inkscape:cy="420.22168"
   inkscape:window-x="-8"
   inkscape:window-y="-8"
   inkscape:window-maximized="1"
   inkscape:current-layer="Layer_1" />
   
	<g
   id="Grid"
   transform="matrix(2.0004581,0,0,2.0004578,0.50019527,4.813853)">
		<rect
   x="0"
   stroke-miterlimit="10"
   width="512"
   height="512"
   id="rect4"
   y="0"
   style="fill:none;stroke:#a9ccdb;stroke-miterlimit:10" />
		<line
   stroke-miterlimit="10"
   x1="0"
   y1="32"
   x2="512"
   y2="32"
   id="line6"
   style="fill:none;stroke:#a9ccdb;stroke-miterlimit:10" />
		<line
   stroke-miterlimit="10"
   x1="0"
   y1="64"
   x2="512"
   y2="64"
   id="line8"
   style="fill:none;stroke:#a9ccdb;stroke-miterlimit:10" />
		<line
   stroke-miterlimit="10"
   x1="0"
   y1="96"
   x2="512"
   y2="96"
   id="line10"
   style="fill:none;stroke:#a9ccdb;stroke-miterlimit:10" />
		<line
   stroke-miterlimit="10"
   x1="0"
   y1="128"
   x2="512"
   y2="128"
   id="line12"
   style="fill:none;stroke:#a9ccdb;stroke-miterlimit:10" />
		<line
   stroke-miterlimit="10"
   x1="0"
   y1="160"
   x2="512"
   y2="160"
   id="line14"
   style="fill:none;stroke:#a9ccdb;stroke-miterlimit:10" />
		<line
   stroke-miterlimit="10"
   x1="0"
   y1="192"
   x2="512"
   y2="192"
   id="line16"
   style="fill:none;stroke:#a9ccdb;stroke-miterlimit:10" />
		<line
   stroke-miterlimit="10"
   x1="0"
   y1="224"
   x2="512"
   y2="224"
   id="line18"
   style="fill:none;stroke:#a9ccdb;stroke-miterlimit:10" />
		<line
   stroke-miterlimit="10"
   x1="0"
   y1="256"
   x2="512"
   y2="256"
   id="line20"
   style="fill:none;stroke:#a9ccdb;stroke-miterlimit:10" />
		<line
   stroke-miterlimit="10"
   x1="0"
   y1="288"
   x2="512"
   y2="288"
   id="line22"
   style="fill:none;stroke:#a9ccdb;stroke-miterlimit:10" />
		<line
   stroke-miterlimit="10"
   x1="0"
   y1="320"
   x2="512"
   y2="320"
   id="line24"
   style="fill:none;stroke:#a9ccdb;stroke-miterlimit:10" />
		<line
   stroke-miterlimit="10"
   x1="0"
   y1="352"
   x2="512"
   y2="352"
   id="line26"
   style="fill:none;stroke:#a9ccdb;stroke-miterlimit:10" />
		<line
   stroke-miterlimit="10"
   x1="0"
   y1="384"
   x2="512"
   y2="384"
   id="line28"
   style="fill:none;stroke:#a9ccdb;stroke-miterlimit:10" />
		<line
   stroke-miterlimit="10"
   x1="0"
   y1="416"
   x2="512"
   y2="416"
   id="line30"
   style="fill:none;stroke:#a9ccdb;stroke-miterlimit:10" />
		<line
   stroke-miterlimit="10"
   x1="0"
   y1="448"
   x2="512"
   y2="448"
   id="line32"
   style="fill:none;stroke:#ff0000;stroke-miterlimit:10" />
		<line
   stroke-miterlimit="10"
   x1="0"
   y1="480"
   x2="512"
   y2="480"
   id="line34"
   style="fill:none;stroke:#a9ccdb;stroke-miterlimit:10" />
		<line
   stroke-miterlimit="10"
   x1="32"
   y1="0"
   x2="32"
   y2="512"
   id="line36"
   style="fill:none;stroke:#a9ccdb;stroke-miterlimit:10" />
		<line
   stroke-miterlimit="10"
   x1="64"
   y1="0"
   x2="64"
   y2="512"
   id="line38"
   style="fill:none;stroke:#a9ccdb;stroke-miterlimit:10" />
		<line
   stroke-miterlimit="10"
   x1="96"
   y1="0"
   x2="96"
   y2="512"
   id="line40"
   style="fill:none;stroke:#a9ccdb;stroke-miterlimit:10" />
		<line
   stroke-miterlimit="10"
   x1="128"
   y1="0"
   x2="128"
   y2="512"
   id="line42"
   style="fill:none;stroke:#a9ccdb;stroke-miterlimit:10" />
		<line
   stroke-miterlimit="10"
   x1="160"
   y1="0"
   x2="160"
   y2="512"
   id="line44"
   style="fill:none;stroke:#a9ccdb;stroke-miterlimit:10" />
		<line
   stroke-miterlimit="10"
   x1="192"
   y1="0"
   x2="192"
   y2="512"
   id="line46"
   style="fill:none;stroke:#a9ccdb;stroke-miterlimit:10" />
		<line
   stroke-miterlimit="10"
   x1="224"
   y1="0"
   x2="224"
   y2="512"
   id="line48"
   style="fill:none;stroke:#a9ccdb;stroke-miterlimit:10" />
		<line
   stroke-miterlimit="10"
   x1="256"
   y1="0"
   x2="256"
   y2="512"
   id="line50"
   style="fill:none;stroke:#a9ccdb;stroke-miterlimit:10" />
		<line
   stroke-miterlimit="10"
   x1="288"
   y1="0"
   x2="288"
   y2="512"
   id="line52"
   style="fill:none;stroke:#a9ccdb;stroke-miterlimit:10" />
		<line
   stroke-miterlimit="10"
   x1="320"
   y1="0"
   x2="320"
   y2="512"
   id="line54"
   style="fill:none;stroke:#a9ccdb;stroke-miterlimit:10" />
		<line
   stroke-miterlimit="10"
   x1="352"
   y1="0"
   x2="352"
   y2="512"
   id="line56"
   style="fill:none;stroke:#a9ccdb;stroke-miterlimit:10" />
		<line
   stroke-miterlimit="10"
   x1="384"
   y1="0"
   x2="384"
   y2="512"
   id="line58"
   style="fill:none;stroke:#a9ccdb;stroke-miterlimit:10" />
		<line
   stroke-miterlimit="10"
   x1="416"
   y1="0"
   x2="416"
   y2="512"
   id="line60"
   style="fill:none;stroke:#a9ccdb;stroke-miterlimit:10" />
		<line
   stroke-miterlimit="10"
   x1="448"
   y1="0"
   x2="448"
   y2="512"
   id="line62"
   style="fill:none;stroke:#a9ccdb;stroke-miterlimit:10" />
		<line
   stroke-miterlimit="10"
   x1="480"
   y1="0"
   x2="480"
   y2="512"
   id="line64"
   style="fill:none;stroke:#a9ccdb;stroke-miterlimit:10" />
	</g>
	
<path
   style="fill:#591000"
   d="m 368.75538,141.0946 c -15.29414,67.7521 -19.50582,142.1342 -36.15883,208.634 -8.85545,36.0529 -15.79296,70.9674 -25.33104,105.784 -15.08334,63.7759 -26.92152,120.7855 -50.42095,171.3262 -5.85382,8.5379 -9.83125,16.0812 -16.87502,17.4026 -5.93683,-0.5092 -11.32601,-0.3746 -16.96338,-0.9416 -20.68342,-2.1583 -38.32214,-18.7087 -54.66114,-20.0865 -21.8779,-1.7308 -24.30044,-1.3513 -28.47754,4.4614 -5.4197,7.5421 -4.94767,10.9249 3.6706,26.309 5.33731,9.5275 7.13212,13.4716 6.79567,20.1836 -1.45198,7.5264 -1.23715,13.4975 0.10777,20.5338 0.93911,4.8876 2.09032,9.8747 3.5514,14.3946 2.66881,6.8316 5.2166,11.4662 8.66933,14.5092 3.70679,3.2668 8.45651,4.6991 15.51878,5.0461 7.86793,2.5841 11.96213,7.4203 14.54732,13.3865 2.81834,9.1782 5.74889,18.4561 8.09722,26.9405 1.54752,5.6897 4.24827,12.9655 6.25599,18.256 4.43683,11.8841 7.96003,22.872 11.47958,33.875 2.24207,6.0605 3.99452,12.1675 5.70006,18.1954 2.57924,9.1158 5.05121,18.0507 8.94735,26.3705 1.77399,3.7875 3.5237,7.5008 5.12834,11.1889 2.06637,4.7993 4.99924,12.3521 8.74283,17.3447 4.81484,6.3414 6.92306,-0.4887 9.8804,-9.1394 2.69318,-7.8782 6.3668,-17.1879 8.02533,-20.967 1.74336,-3.9394 3.24285,-7.6231 3.33222,-8.1858 2.40909,-2.3347 4.73861,-5.1726 6.96319,-8.1416 3.37438,-4.5036 9.36833,-9.9577 12.1716,-13.7668 4.61567,-6.1565 12.24418,-16.4477 16.30421,-23.555 6.39501,-11.1946 8.44925,-17.9969 15.28707,-26.2456 6.07584,-7.4398 16.79727,-5.6847 29.62582,1.1063 5.31557,2.8139 11.19589,5.1162 13.06744,5.1162 1.87154,0 7.71202,2.7526 12.97877,6.1167 51.54335,20.0379 95.60124,36.5256 143.37289,56.2634 51.49371,9.5648 97.61179,28.0238 145.31995,41.1293 4.41267,1.1547 9.00905,-3.2089 10.02832,-9.5207 0.44131,-2.7324 2.01986,-10.4567 3.50784,-17.1651 4.22805,-28.1147 19.0819,-49.344 18.36855,-71.113 -0.32867,-9.0327 -6.56516,-17.0264 -14.71039,-18.8556 -20.40512,-11.963 -25.97627,-36.9937 -28.71858,-63.1652 -0.51328,-4.8989 -0.92748,-9.838 -1.32136,-14.7388 -1.65388,-20.5804 -2.94835,-40.486 -9.715,-53.9237 -9.15167,-15.4257 -23.66755,-13.781 -33.08451,-26.1423 -13.31837,-12.3562 -23.71285,-25.7654 -32.86139,-38.8198 -7.64823,-11.2962 -14.27607,-22.2073 -23.69869,-30.2421 -5.50645,-4.6808 -10.92637,-8.805 -14.0019,-14.5543 -8.37139,-15.8391 -17.52094,-25.6329 -23.94678,-25.6329 -12.53526,-5.3698 -30.64277,-13.4329 -40.89744,-20.5934 -2.79022,-2.027 -5.50666,-4.1263 -8.40577,-5.8387 -4.1583,-2.4354 -8.03584,-3.6193 -11.14584,-2.9199 -1.90683,0.796 -3.55818,2.2906 -4.65986,4.046 -1.38414,2.2055 -1.90035,4.8228 -0.96498,6.9831 1.57461,1.7506 3.73165,6.3568 5.10892,8.5006 2.00844,3.126 3.16441,3.939 5.10995,7.2332 10.14133,17.1471 15.37835,42.6879 26.55554,55.5848 25.29515,29.2213 60.02606,61.1638 77.68339,92.8893 7.38183,12.0911 9.84076,25.6037 12.48733,38.5725 3.08776,15.1436 6.03408,30.5747 6.70194,43.9795 -1.97911,20.4579 -11.80239,19.5131 -25.73957,21.0497 -12.82875,1.4002 -23.47497,1.6046 -37.19085,-0.04 -39.46153,-4.8036 -78.17877,-25.3015 -110.11297,-36.4435 -5.79286,-1.9738 -16.03429,-6.9945 -24.32056,-10.0634 -10.54481,-2.551 -16.73489,-9.1282 -16.51592,-20.9488 6.09849,-66.2392 16.51178,-137.7917 30.51377,-197.3407 10.09614,-43.164 16.77342,-85.7362 28.01703,-126.2201 12.34822,-52.9776 20.44119,-99.2933 26.80547,-151.0861 1.12415,-22.8626 6.47071,-50.4711 -4.9034,-69.5513 -5.12157,-7.9521 -16.51996,-19.9729 -22.62936,-16.6331 -1.53738,0.9848 -3.50306,2.0321 -5.37922,2.6563 -1.29389,0.4214 -3.79033,0.058 -6.29142,-0.5701 -4.19694,-0.8872 -5.48527,-1.3824 -6.27679,-2.4468 -0.60681,-0.816 -0.92164,-1.9666 -2.03115,-3.8846 -4.17615,-4.4318 -8.37493,-2.5384 -12.35648,-3.705 -12.53865,-3.6738 -22.92288,2.6805 -23.6611,17.8194 z"
   id="path3782"
   inkscape:connector-curvature="0"
   sodipodi:nodetypes="cccccccsscccscccccscccsccscscsscccccccsscccccccccscscccccccccccccccccscsc" />
</svg>