<?xml version="1.0" encoding="UTF-8" standalone="no"?>
<svg
   xmlns:dc="http://purl.org/dc/elements/1.1/"
   xmlns:cc="http://creativecommons.org/ns#"
   xmlns:rdf="http://www.w3.org/1999/02/22-rdf-syntax-ns#"
   xmlns:svg="http://www.w3.org/2000/svg"
   xmlns="http://www.w3.org/2000/svg"
   xmlns:sodipodi="http://sodipodi.sourceforge.net/DTD/sodipodi-0.dtd"
   xmlns:inkscape="http://www.inkscape.org/namespaces/inkscape"
   version="1.1"
   id="Layer_1"
   x="0px"
   y="0px"
   width="1024"
   height="1024"
   viewBox="0 0 1024 1024"
   enable-background="new 0 0 512 512"
   xml:space="preserve"
   inkscape:version="0.48.0 r9654"
   sodipodi:docname="samekhhebrew-x5e1.svg"><title
   id="title3743">Sinai 357</title><metadata
   id="metadata72"><rdf:RDF><cc:Work
       rdf:about=""><dc:format>image/svg+xml</dc:format><dc:type
         rdf:resource="http://purl.org/dc/dcmitype/StillImage" /><dc:title>Sinai 357</dc:title><dc:date>2017</dc:date><dc:creator><cc:Agent><dc:title>Celeste Claire Horner</dc:title></cc:Agent></dc:creator><dc:publisher><cc:Agent><dc:title>beitdina.net</dc:title></cc:Agent></dc:publisher></cc:Work></rdf:RDF></metadata><defs
   id="defs70" /><sodipodi:namedview
   pagecolor="#ffffff"
   bordercolor="#666666"
   borderopacity="1"
   objecttolerance="10"
   gridtolerance="10"
   guidetolerance="10"
   inkscape:pageopacity="0"
   inkscape:pageshadow="2"
   inkscape:window-width="1152"
   inkscape:window-height="814"
   id="namedview68"
   showgrid="false"
   inkscape:zoom="0.25133548"
   inkscape:cx="-653.18605"
   inkscape:cy="775.54571"
   inkscape:window-x="-8"
   inkscape:window-y="-8"
   inkscape:window-maximized="1"
   inkscape:current-layer="Layer_1" />
   
	<g
   id="Grid"
   transform="matrix(2.0004581,0,0,2.0004578,0.50019527,4.813853)">
		<rect
   x="0"
   stroke-miterlimit="10"
   width="512"
   height="512"
   id="rect4"
   y="0"
   style="fill:none;stroke:#a9ccdb;stroke-miterlimit:10" />
		<line
   stroke-miterlimit="10"
   x1="0"
   y1="32"
   x2="512"
   y2="32"
   id="line6"
   style="fill:none;stroke:#a9ccdb;stroke-miterlimit:10" />
		<line
   stroke-miterlimit="10"
   x1="0"
   y1="64"
   x2="512"
   y2="64"
   id="line8"
   style="fill:none;stroke:#a9ccdb;stroke-miterlimit:10" />
		<line
   stroke-miterlimit="10"
   x1="0"
   y1="96"
   x2="512"
   y2="96"
   id="line10"
   style="fill:none;stroke:#a9ccdb;stroke-miterlimit:10" />
		<line
   stroke-miterlimit="10"
   x1="0"
   y1="128"
   x2="512"
   y2="128"
   id="line12"
   style="fill:none;stroke:#a9ccdb;stroke-miterlimit:10" />
		<line
   stroke-miterlimit="10"
   x1="0"
   y1="160"
   x2="512"
   y2="160"
   id="line14"
   style="fill:none;stroke:#a9ccdb;stroke-miterlimit:10" />
		<line
   stroke-miterlimit="10"
   x1="0"
   y1="192"
   x2="512"
   y2="192"
   id="line16"
   style="fill:none;stroke:#a9ccdb;stroke-miterlimit:10" />
		<line
   stroke-miterlimit="10"
   x1="0"
   y1="224"
   x2="512"
   y2="224"
   id="line18"
   style="fill:none;stroke:#a9ccdb;stroke-miterlimit:10" />
		<line
   stroke-miterlimit="10"
   x1="0"
   y1="256"
   x2="512"
   y2="256"
   id="line20"
   style="fill:none;stroke:#a9ccdb;stroke-miterlimit:10" />
		<line
   stroke-miterlimit="10"
   x1="0"
   y1="288"
   x2="512"
   y2="288"
   id="line22"
   style="fill:none;stroke:#a9ccdb;stroke-miterlimit:10" />
		<line
   stroke-miterlimit="10"
   x1="0"
   y1="320"
   x2="512"
   y2="320"
   id="line24"
   style="fill:none;stroke:#a9ccdb;stroke-miterlimit:10" />
		<line
   stroke-miterlimit="10"
   x1="0"
   y1="352"
   x2="512"
   y2="352"
   id="line26"
   style="fill:none;stroke:#a9ccdb;stroke-miterlimit:10" />
		<line
   stroke-miterlimit="10"
   x1="0"
   y1="384"
   x2="512"
   y2="384"
   id="line28"
   style="fill:none;stroke:#a9ccdb;stroke-miterlimit:10" />
		<line
   stroke-miterlimit="10"
   x1="0"
   y1="416"
   x2="512"
   y2="416"
   id="line30"
   style="fill:none;stroke:#a9ccdb;stroke-miterlimit:10" />
		<line
   stroke-miterlimit="10"
   x1="0"
   y1="448"
   x2="512"
   y2="448"
   id="line32"
   style="fill:none;stroke:#ff0000;stroke-miterlimit:10" />
		<line
   stroke-miterlimit="10"
   x1="0"
   y1="480"
   x2="512"
   y2="480"
   id="line34"
   style="fill:none;stroke:#a9ccdb;stroke-miterlimit:10" />
		<line
   stroke-miterlimit="10"
   x1="32"
   y1="0"
   x2="32"
   y2="512"
   id="line36"
   style="fill:none;stroke:#a9ccdb;stroke-miterlimit:10" />
		<line
   stroke-miterlimit="10"
   x1="64"
   y1="0"
   x2="64"
   y2="512"
   id="line38"
   style="fill:none;stroke:#a9ccdb;stroke-miterlimit:10" />
		<line
   stroke-miterlimit="10"
   x1="96"
   y1="0"
   x2="96"
   y2="512"
   id="line40"
   style="fill:none;stroke:#a9ccdb;stroke-miterlimit:10" />
		<line
   stroke-miterlimit="10"
   x1="128"
   y1="0"
   x2="128"
   y2="512"
   id="line42"
   style="fill:none;stroke:#a9ccdb;stroke-miterlimit:10" />
		<line
   stroke-miterlimit="10"
   x1="160"
   y1="0"
   x2="160"
   y2="512"
   id="line44"
   style="fill:none;stroke:#a9ccdb;stroke-miterlimit:10" />
		<line
   stroke-miterlimit="10"
   x1="192"
   y1="0"
   x2="192"
   y2="512"
   id="line46"
   style="fill:none;stroke:#a9ccdb;stroke-miterlimit:10" />
		<line
   stroke-miterlimit="10"
   x1="224"
   y1="0"
   x2="224"
   y2="512"
   id="line48"
   style="fill:none;stroke:#a9ccdb;stroke-miterlimit:10" />
		<line
   stroke-miterlimit="10"
   x1="256"
   y1="0"
   x2="256"
   y2="512"
   id="line50"
   style="fill:none;stroke:#a9ccdb;stroke-miterlimit:10" />
		<line
   stroke-miterlimit="10"
   x1="288"
   y1="0"
   x2="288"
   y2="512"
   id="line52"
   style="fill:none;stroke:#a9ccdb;stroke-miterlimit:10" />
		<line
   stroke-miterlimit="10"
   x1="320"
   y1="0"
   x2="320"
   y2="512"
   id="line54"
   style="fill:none;stroke:#a9ccdb;stroke-miterlimit:10" />
		<line
   stroke-miterlimit="10"
   x1="352"
   y1="0"
   x2="352"
   y2="512"
   id="line56"
   style="fill:none;stroke:#a9ccdb;stroke-miterlimit:10" />
		<line
   stroke-miterlimit="10"
   x1="384"
   y1="0"
   x2="384"
   y2="512"
   id="line58"
   style="fill:none;stroke:#a9ccdb;stroke-miterlimit:10" />
		<line
   stroke-miterlimit="10"
   x1="416"
   y1="0"
   x2="416"
   y2="512"
   id="line60"
   style="fill:none;stroke:#a9ccdb;stroke-miterlimit:10" />
		<line
   stroke-miterlimit="10"
   x1="448"
   y1="0"
   x2="448"
   y2="512"
   id="line62"
   style="fill:none;stroke:#a9ccdb;stroke-miterlimit:10" />
		<line
   stroke-miterlimit="10"
   x1="480"
   y1="0"
   x2="480"
   y2="512"
   id="line64"
   style="fill:none;stroke:#a9ccdb;stroke-miterlimit:10" />
	</g>
	



   <path
   style="fill:#650807;fill-opacity:0.71739131"
   d="m 408.49342,156.62389 c -23.70842,18.51594 -22.11122,18.00199 -23.01232,46.01305 -0.5647,17.55542 9.3637,24.5995 3.792,32.08867 -0.6649,2.08213 -1.2236,3.7415 -1.7011,5.06894 -0.5257,2.83726 -1.8832,4.5684 -3.9292,6.13396 -1.7345,1.36639 -4.4275,4.73357 -6.2679,5.29674 -1.6062,0.49151 -1.5565,0.67201 -7.5384,12.9557 -5.7159,11.73755 -10.6698,83.31563 -23.8193,116.60585 -10.5436,6.0435 -10.7647,17.55309 -17.5982,28.12668 -4.0861,6.32241 -6.98,13.37708 -8.049,21.07122 -3.1426,22.61712 -2.5317,25.7894 -8.1095,35.65641 -33.0468,52.95565 -70.9264,99.27816 -77.7541,155.82933 0,25.34256 -16.119,44.75498 -38.2521,39.59073 -8.6085,-2.00857 -33.8002,-14.15451 -52.543,-14.95589 -27.0294,-1.15568 -38.777,0.8987 -56.796604,9.93246 -16.362,8.20273 -21.0002,11.69164 -21.6374,21.08689 -0.03,1.65265 -0.1741,3.14083 -0.2394,4.71602 0.021,1.68723 0.4716,2.72491 1.1378,3.53575 7.7948,5.76218 6.173,14.0789 7.9342,21.16995 0.5444,3.77969 3.1514,5.03322 5.791,6.95957 9.7286,7.12517 14.3932,15.54038 17.2813,24.76267 3.375904,10.77992 4.324504,22.66255 8.095804,34.87654 1.772,7.40583 6.5679,13.4784 9.4186,19.59515 3.7561,8.10558 7.3243,17.99491 9.9461,23.75781 1.1813,4.2112 4.6335,5.45405 7.6076,7.57007 12.9671,9.28414 13.7184,23.29115 20.9001,35.47067 6.6758,11.37207 19.2732,19.13391 25.6724,29.33579 1.0747,1.46506 1.398,3.26573 1.9668,4.81267 4.2467,11.47321 16.1735,19.29746 26.5157,27.97938 2.2033,1.70418 4.0059,3.50039 5.4387,5.62106 7.5593,11.22716 13.036,31.84457 28.9048,32.37681 8.001,0 27.6719,-17.91384 40.5526,-34.11457 2.8062,-3.13527 4.6749,-6.52859 6.471,-9.96107 3.6552,-6.97897 7.3168,-13.09471 11.5351,-18.97092 4.5066,-6.25458 9.4474,-11.80517 14.1679,-17.22022 9.6998,-11.12594 19.2294,-21.95224 27.2128,-34.10752 2.6592,-3.97632 4.7765,-8.07002 7.4557,-11.62216 14.5802,-19.23889 42.645,-29.05376 58.97492,-16.00214 7.715,6.16621 18.4051,7.87869 41.1499,6.5918 20.7459,-1.17378 33.9011,4.80685 40.498,9.63988 8.0792,5.91908 13.1407,6.08207 29.2372,0.94158 35.0456,6.67399 62.6705,4.37919 89.7442,17.61742 10.8069,1.6668 29.97,16.45125 38.3047,16.91908 3.3955,0 13.5951,4.66704 22.6656,10.37121 10.5575,6.63924 20.6809,9.19701 28.1332,7.1081 17.8112,-4.37922 31.7299,12.1737 47.1076,12.61696 4.4131,0 11.0642,3.23534 14.7801,7.18965 6.2064,6.60445 44.931,17.27732 70.6814,19.4805 10.7037,0.91579 36.7651,-31.23633 37.3,-46.01719 0.1357,-3.74382 7.7498,-20.69215 16.9207,-37.66296 14.4386,-26.71849 16.4164,-35.48678 14.75,-65.39065 -1.4518,-26.05094 0.8157,-40.18047 9.2301,-57.51707 11.6011,-23.90195 11.6153,-25.08104 1.7014,-140.67246 -1.754,-20.45097 -5.612,-41.18189 -8.5734,-46.06868 -2.9613,-4.88683 -5.3842,-13.07066 -5.3842,-18.18638 0,-5.11566 -5.1117,-18.15603 -11.3594,-28.9786 -6.2476,-10.82258 -11.3593,-24.84313 -11.3593,-31.15688 0,-6.89235 -9.6457,-19.80691 -24.1385,-32.31904 -13.6856,-11.81525 -36.436,-41.68209 -52.5368,-68.97064 -16.693,-28.29241 -31.9098,-48.13113 -36.9177,-48.13113 -2.79,0 -2.4117,-2.80719 -4.9678,-4.95958 -1.7367,-1.46244 -6.7213,-1.86528 -7.6284,-3.8185 -2.2422,-4.82795 -8.6318,-8.87601 -14.1992,-8.99563 -4.193,-5.78915 -9.3212,-7.64405 -15.4177,-11.14375 -13.1263,-7.53511 -27.1935,-14.38658 -39.4495,-21.59282 -4.3247,-2.54278 -10.2711,-3.59029 -13.313,-6.8594 -15.0571,-19.60297 -59.1778,-45.45928 -77.5708,-45.45928 -7.2169,0 -17.4821,-4.25536 -22.8117,-9.45635 -5.3295,-5.20104 -16.7435,-10.70224 -25.3644,-12.22496 -8.8623,-1.56541 -18.2817,-7.81054 -21.6737,-14.36987 -3.9372,-7.61381 -14.5552,-13.71618 -30.8924,-17.75455 -50.8827,-12.57749 -51.6909,-12.49287 -78.1716,8.18814 z m 191.8202,189.05089 c 2.1265,0.30134 4.046,0.0509 5.9096,-0.007 2.0243,-0.0626 3.9824,0.10221 6.0679,1.44861 2.7189,1.86117 5.4404,3.68164 7.7636,4.83341 6.1984,0.10932 6.3271,2.1844 8.232,3.21445 3.7059,2.00402 5.3195,3.97031 9.6712,7.25871 3.1474,-0.008 5.9794,1.48907 8.5306,3.35197 2.9051,2.12135 5.4458,4.7171 7.673,6.10499 2.2945,1.33647 4.1229,1.38333 7.4961,2.54343 5.4558,1.67052 6.2765,8.1882 9.6034,11.368 8.5881,7.4743 16.7532,15.05752 24.8894,22.03566 15.6649,13.52497 26.9457,21.46167 38.0101,37.22972 7.0521,13.03651 15.4208,44.29486 16.0737,109.39577 0.7958,79.34912 -6.6952,121.2829 -16.8648,140.71512 -1.9971,3.81625 -1.9839,6.64033 -4.1452,8.83385 -0.7257,0.61111 -0.8905,1.31075 -1.3031,2.04249 -0.6011,1.05025 -0.9175,2.22532 -1.2067,3.27172 -0.5597,2.17263 -1.103,5.02558 -1.3928,6.08545 -0.1862,0.80633 -0.264,1.67918 -0.3354,2.50687 -0.2653,1.56379 0.076,2.86015 0.5243,4.19618 0.9696,3.17741 -0.7612,6.9414 -1.3513,10.57627 -0.9893,6.09375 -4.7135,12.17406 -12.9939,16.04038 -11.0626,5.16539 -32.1365,5.87998 -44.2609,7.34764 -8.9494,-1.80869 -14.7249,-2.08918 -23.6714,-3.70014 -5.2878,-0.95217 -8.8194,-0.47101 -14.1143,-1.37928 -2.9823,0.30698 -9.0751,-0.93041 -11.9576,-0.88047 -4.4378,0.0769 -10.5267,-1.53581 -14.7836,-1.95786 -22.035,-5.43996 -45.6252,-11.74639 -66.7792,-15.85993 -44.5483,-8.17134 -90.4797,-18.61886 -116.7589,-42.15179 -10.8894,-16.98592 -14.2224,-32.30114 -13.7555,-47.14944 0.7655,-24.33887 11.741,-47.42321 16.3823,-74.55483 5.9452,-35.25313 11.6013,-53.54434 17.451,-56.43554 15.9322,-13.70219 12.6235,-23.89777 20.637,-45.34726 4.4032,-11.78588 7.0444,-14.76558 11.1421,-27.71397 5.862,-18.52399 11.6345,-31.8907 19.2033,-50.44491 9.0641,-22.21997 32.6726,-55.26856 47.0862,-63.20352 28.2744,9.43867 37.1819,9.57596 63.3278,20.38496 z"
   id="path3758"
   inkscape:connector-curvature="0"
   sodipodi:nodetypes="sscccsscssccssscccccsccccccccccccccccssscccsccsscsssscsssssssccsscsssssscsccscscccccssccccccsscscscccsccsssccc" />
</svg>