<?xml version="1.0" encoding="UTF-8" standalone="no"?>
<svg
   xmlns:dc="http://purl.org/dc/elements/1.1/"
   xmlns:cc="http://creativecommons.org/ns#"
   xmlns:rdf="http://www.w3.org/1999/02/22-rdf-syntax-ns#"
   xmlns:svg="http://www.w3.org/2000/svg"
   xmlns="http://www.w3.org/2000/svg"
   xmlns:sodipodi="http://sodipodi.sourceforge.net/DTD/sodipodi-0.dtd"
   xmlns:inkscape="http://www.inkscape.org/namespaces/inkscape"
   version="1.1"
   id="Layer_1"
   x="0px"
   y="0px"
   width="1000"
   height="1024"
   viewBox="0 0 1000 1024"
   enable-background="new 0 0 512 512"
   xml:space="preserve"
   inkscape:version="0.48.0 r9654"
   sodipodi:docname="tavhebrew-x5ea.svg"><title
   id="title3743">Sinai 357</title><metadata
   id="metadata72"><rdf:RDF><cc:Work
       rdf:about=""><dc:format>image/svg+xml</dc:format><dc:type
         rdf:resource="http://purl.org/dc/dcmitype/StillImage" /><dc:title>Sinai 357</dc:title><dc:date>2017</dc:date><dc:creator><cc:Agent><dc:title>Celeste Claire Horner</dc:title></cc:Agent></dc:creator><dc:publisher><cc:Agent><dc:title>beitdina.net</dc:title></cc:Agent></dc:publisher></cc:Work></rdf:RDF></metadata><defs
   id="defs70" /><sodipodi:namedview
   pagecolor="#ffffff"
   bordercolor="#666666"
   borderopacity="1"
   objecttolerance="10"
   gridtolerance="10"
   guidetolerance="10"
   inkscape:pageopacity="0"
   inkscape:pageshadow="2"
   inkscape:window-width="1152"
   inkscape:window-height="814"
   id="namedview68"
   showgrid="false"
   inkscape:zoom="0.36045874"
   inkscape:cx="-96.88641"
   inkscape:cy="616.83736"
   inkscape:window-x="-8"
   inkscape:window-y="-8"
   inkscape:window-maximized="1"
   inkscape:current-layer="Layer_1" />
   
	<g
   id="Grid"
   transform="matrix(1.9524943,0,0,2.0181509,2.4516249,-0.31695871)">
		<rect
   x="0"
   stroke-miterlimit="10"
   width="512"
   height="512"
   id="rect4"
   y="0"
   style="fill:none;stroke:#a9ccdb;stroke-miterlimit:10" />
		<line
   stroke-miterlimit="10"
   x1="0"
   y1="32"
   x2="512"
   y2="32"
   id="line6"
   style="fill:none;stroke:#a9ccdb;stroke-miterlimit:10" />
		<line
   stroke-miterlimit="10"
   x1="0"
   y1="64"
   x2="512"
   y2="64"
   id="line8"
   style="fill:none;stroke:#a9ccdb;stroke-miterlimit:10" />
		<line
   stroke-miterlimit="10"
   x1="0"
   y1="96"
   x2="512"
   y2="96"
   id="line10"
   style="fill:none;stroke:#a9ccdb;stroke-miterlimit:10" />
		<line
   stroke-miterlimit="10"
   x1="0"
   y1="128"
   x2="512"
   y2="128"
   id="line12"
   style="fill:none;stroke:#a9ccdb;stroke-miterlimit:10" />
		<line
   stroke-miterlimit="10"
   x1="0"
   y1="160"
   x2="512"
   y2="160"
   id="line14"
   style="fill:none;stroke:#a9ccdb;stroke-miterlimit:10" />
		<line
   stroke-miterlimit="10"
   x1="0"
   y1="192"
   x2="512"
   y2="192"
   id="line16"
   style="fill:none;stroke:#a9ccdb;stroke-miterlimit:10" />
		<line
   stroke-miterlimit="10"
   x1="0"
   y1="224"
   x2="512"
   y2="224"
   id="line18"
   style="fill:none;stroke:#a9ccdb;stroke-miterlimit:10" />
		<line
   stroke-miterlimit="10"
   x1="0"
   y1="256"
   x2="512"
   y2="256"
   id="line20"
   style="fill:none;stroke:#a9ccdb;stroke-miterlimit:10" />
		<line
   stroke-miterlimit="10"
   x1="0"
   y1="288"
   x2="512"
   y2="288"
   id="line22"
   style="fill:none;stroke:#a9ccdb;stroke-miterlimit:10" />
		<line
   stroke-miterlimit="10"
   x1="0"
   y1="320"
   x2="512"
   y2="320"
   id="line24"
   style="fill:none;stroke:#a9ccdb;stroke-miterlimit:10" />
		<line
   stroke-miterlimit="10"
   x1="0"
   y1="352"
   x2="512"
   y2="352"
   id="line26"
   style="fill:none;stroke:#a9ccdb;stroke-miterlimit:10" />
		<line
   stroke-miterlimit="10"
   x1="0"
   y1="384"
   x2="512"
   y2="384"
   id="line28"
   style="fill:none;stroke:#a9ccdb;stroke-miterlimit:10" />
		<line
   stroke-miterlimit="10"
   x1="0"
   y1="416"
   x2="512"
   y2="416"
   id="line30"
   style="fill:none;stroke:#a9ccdb;stroke-miterlimit:10" />
		<line
   stroke-miterlimit="10"
   x1="0"
   y1="448"
   x2="512"
   y2="448"
   id="line32"
   style="fill:none;stroke:#ff0000;stroke-miterlimit:10" />
		<line
   stroke-miterlimit="10"
   x1="0"
   y1="480"
   x2="512"
   y2="480"
   id="line34"
   style="fill:none;stroke:#a9ccdb;stroke-miterlimit:10" />
		<line
   stroke-miterlimit="10"
   x1="32"
   y1="0"
   x2="32"
   y2="512"
   id="line36"
   style="fill:none;stroke:#a9ccdb;stroke-miterlimit:10" />
		<line
   stroke-miterlimit="10"
   x1="64"
   y1="0"
   x2="64"
   y2="512"
   id="line38"
   style="fill:none;stroke:#a9ccdb;stroke-miterlimit:10" />
		<line
   stroke-miterlimit="10"
   x1="96"
   y1="0"
   x2="96"
   y2="512"
   id="line40"
   style="fill:none;stroke:#a9ccdb;stroke-miterlimit:10" />
		<line
   stroke-miterlimit="10"
   x1="128"
   y1="0"
   x2="128"
   y2="512"
   id="line42"
   style="fill:none;stroke:#a9ccdb;stroke-miterlimit:10" />
		<line
   stroke-miterlimit="10"
   x1="160"
   y1="0"
   x2="160"
   y2="512"
   id="line44"
   style="fill:none;stroke:#a9ccdb;stroke-miterlimit:10" />
		<line
   stroke-miterlimit="10"
   x1="192"
   y1="0"
   x2="192"
   y2="512"
   id="line46"
   style="fill:none;stroke:#a9ccdb;stroke-miterlimit:10" />
		<line
   stroke-miterlimit="10"
   x1="224"
   y1="0"
   x2="224"
   y2="512"
   id="line48"
   style="fill:none;stroke:#a9ccdb;stroke-miterlimit:10" />
		<line
   stroke-miterlimit="10"
   x1="256"
   y1="0"
   x2="256"
   y2="512"
   id="line50"
   style="fill:none;stroke:#a9ccdb;stroke-miterlimit:10" />
		<line
   stroke-miterlimit="10"
   x1="288"
   y1="0"
   x2="288"
   y2="512"
   id="line52"
   style="fill:none;stroke:#a9ccdb;stroke-miterlimit:10" />
		<line
   stroke-miterlimit="10"
   x1="320"
   y1="0"
   x2="320"
   y2="512"
   id="line54"
   style="fill:none;stroke:#a9ccdb;stroke-miterlimit:10" />
		<line
   stroke-miterlimit="10"
   x1="352"
   y1="0"
   x2="352"
   y2="512"
   id="line56"
   style="fill:none;stroke:#a9ccdb;stroke-miterlimit:10" />
		<line
   stroke-miterlimit="10"
   x1="384"
   y1="0"
   x2="384"
   y2="512"
   id="line58"
   style="fill:none;stroke:#a9ccdb;stroke-miterlimit:10" />
		<line
   stroke-miterlimit="10"
   x1="416"
   y1="0"
   x2="416"
   y2="512"
   id="line60"
   style="fill:none;stroke:#a9ccdb;stroke-miterlimit:10" />
		<line
   stroke-miterlimit="10"
   x1="448"
   y1="0"
   x2="448"
   y2="512"
   id="line62"
   style="fill:none;stroke:#a9ccdb;stroke-miterlimit:10" />
		<line
   stroke-miterlimit="10"
   x1="480"
   y1="0"
   x2="480"
   y2="512"
   id="line64"
   style="fill:none;stroke:#a9ccdb;stroke-miterlimit:10" />
	</g>
<path
   style="fill:#574638"
   d="m 92.990739,148.42443 0,5.46926 c 7.037661,14.14335 33.689881,41.04089 34.000011,50.56904 l 11.5,0 c 23.1535,5.13598 36.29615,11 56,11 65.93791,6.20404 104.11853,41.9044 146,44.52126 l 11.5,0.71855 0,16.22039 c 3.44599,43.3227 -12,48.93981 -12,88.53981 0.29983,44.24854 -19.57938,78.12261 -22.65058,118.70275 -10.46,14.58404 -33.34942,41.80166 -33.34942,58.79725 l 0,5.5 -5.5,0 -5.5,0 0,11.5 c -5.13197,59.19658 -45.00001,69.39294 -45.00001,133.5 l -5.5,0 -5.5,0 0,16.5 c -3.47376,39.18715 22,75.36053 22,121.5 1.82965,10.69489 3.14886,9.80694 5.25725,11.27816 1.26773,0.88461 0.60671,5.72184 6.74275,5.72184 l 0,5.5 0,5.5 5,0 5,0 0,5.5 c 3.48428,11.23174 41.9365,15.7697 56.5,17.02125 l 11.5,0.71855 0,4.8801 0,4.8801 5.5,0 5.5,0 0,-5.5 0,-5.5 5.5,0 c 23.79102,-10.12528 60.26636,-66.26177 61.7001,-93.75 0.2127,-6.5789 -0.7074,-5.69201 5.5499,-6.05226 6.96968,-20.10007 17.25,-24.04455 17.25,-44.19774 7.66667,0 15.33333,0 23,0 29.76577,29.10715 117.09615,60.20226 159.25001,66.23715 7.8375,0.28429 30.45,0.28405 50.25,-5.2e-4 19.8,-0.28457 41.2875,-0.18483 47.75,0.22163 l 11.75,0.73904 0,4.90135 c 12.54171,14.26909 30.95061,31.0796 33.64974,-7.94503 l 0.64975,-9.15362 4.85025,0 4.85026,0 0,-7.34638 c 0,-4.0405 0.29238,-11.4655 0.64974,-16.5 l 0.64975,-9.15362 5.35025,0 5.35026,0 0,-5.5 0,-5.5 5.5,0 5.5,0 c -3.4553,-39.61137 22.09276,-77.55982 39.83265,-113.28158 8.70471,-43.95858 23.9091,-76.37402 41.37159,-112.53721 22.26862,-46.58083 41.79576,-119.76633 41.79576,-157.68121 0.55104,-34.40745 23.00001,-54.16898 23.00001,-88.5 2.6115,-18.04601 -3.99816,-30.99728 -5.84053,-44.30889 -3.92153,-14.88165 -18.13209,-39.57382 -18.44962,-48.80399 l -9.70985,-12.88712 c -27.34141,7.9052 -24.86915,-21 -45.05226,-21 l -10.94774,0 0,5.5 0,5.5 -5.5,0 -5.5,0 0,4.8907 0,4.89071 c -27.61306,2.00399 -34.00001,53.33541 -34.00001,79.21859 l 5.38931,0 5.3893,0 0.73207,21.47634 c 0.40264,11.81198 0.40806,26.66198 0.0121,33 l -0.72007,11.52366 c -32.74429,3.71053 -66.80271,79.77736 -66.80271,111 11.94953,55.4662 -32.78211,96.14953 -33.5,155.5 -12.68453,-0.78661 -10.20663,2.99979 -11.16876,12.81193 -3.62141,35.28514 -43.465,73.06195 -44.79837,87.04653 l -0.70604,10.35846 -8.16341,0.63555 c -4.48988,0.34955 -17.05092,0.63824 -27.91342,0.64154 l -19.75,0.006 0,-6 c -44.75062,-4.49635 -81.87703,-64.34987 -117.5,-72 l -5.5,0 0,-5.4501 0,-5.45009 -5.75,-0.29991 -5.75,-0.2999 -0.30226,-5.25 -0.30226,-5.25 -4.83844,0 -4.83845,0 -0.71859,-11 -0.71859,-11 -5.39071,0 -5.3907,0 0,-33.5 0,-33.5 c 4.69844,-45.67953 30.09741,-86.604 40.53322,-129.99822 0.0353,-16.16202 5.06014,-27.46641 8.97436,-38.49864 9.061,-21.15683 16.63414,-58.47821 17.32824,-85.99906 2.19983,-19.06004 0.4029,-24.80791 -2.42547,-36.76633 -9.98179,-18.52556 -20.86193,-20.08059 -41.41035,-19.73775 -4.60121,-14.38456 -31.02807,-40.04511 -45.5,-44.47875 l -11.5,-0.71855 0,-4.7531 c -14.84825,-11.451 -36.92631,-16.11092 -44.25,-16.3036 -6.1875,-0.1375 -16.2,-0.1015 -22.25,0.08 -34.44789,2.98176 -29.94426,-11.83 -62,-11.83 -31.13507,7.69711 -39.55151,-21.999999 -62.5,-21.999999 -1.00794,-10.2936 -13.55459,-11.1203 -19.01952,-11 l -53.48048,0 c -17.54703,-6.6875 -30.82686,-12.0338 -40.78688,-16.21035 -20.441601,-6.20114 -17.873251,5.56337 -22.484451,11.20483 -38.00975,43.876619 -42.38665,71.176969 12.77132,70.971199 z"
   id="path3789"
   inkscape:connector-curvature="0"
   sodipodi:nodetypes="ccccccccccccccccccccsccccccccccccccccccccssccccccsscccccccccccccccccccccccccscccccccssccccccccccccccccccccccccccccccccccc" />
</svg>