<?xml version="1.0" encoding="UTF-8" standalone="no"?>
<svg
   xmlns:dc="http://purl.org/dc/elements/1.1/"
   xmlns:cc="http://creativecommons.org/ns#"
   xmlns:rdf="http://www.w3.org/1999/02/22-rdf-syntax-ns#"
   xmlns:svg="http://www.w3.org/2000/svg"
   xmlns="http://www.w3.org/2000/svg"
   xmlns:sodipodi="http://sodipodi.sourceforge.net/DTD/sodipodi-0.dtd"
   xmlns:inkscape="http://www.inkscape.org/namespaces/inkscape"
   version="1.1"
   id="Layer_1"
   x="0px"
   y="0px"
   width="1000"
   height="1024"
   viewBox="0 0 1000 1024"
   enable-background="new 0 0 512 512"
   xml:space="preserve"
   inkscape:version="0.48.0 r9654"
   sodipodi:docname="tethebrew-x5d8.svg"><title
   id="title3743">Sinai 357</title><metadata
   id="metadata72"><rdf:RDF><cc:Work
       rdf:about=""><dc:format>image/svg+xml</dc:format><dc:type
         rdf:resource="http://purl.org/dc/dcmitype/StillImage" /><dc:title>Sinai 357</dc:title><dc:date>2017</dc:date><dc:creator><cc:Agent><dc:title>Celeste Claire Horner</dc:title></cc:Agent></dc:creator><dc:publisher><cc:Agent><dc:title>beitdina.net</dc:title></cc:Agent></dc:publisher></cc:Work></rdf:RDF></metadata><defs
   id="defs70" /><sodipodi:namedview
   pagecolor="#ffffff"
   bordercolor="#666666"
   borderopacity="1"
   objecttolerance="10"
   gridtolerance="10"
   guidetolerance="10"
   inkscape:pageopacity="0"
   inkscape:pageshadow="2"
   inkscape:window-width="1009"
   inkscape:window-height="737"
   id="namedview68"
   showgrid="false"
   inkscape:zoom="0.50976562"
   inkscape:cx="229.53814"
   inkscape:cy="507.41004"
   inkscape:window-x="94"
   inkscape:window-y="-1"
   inkscape:window-maximized="0"
   inkscape:current-layer="Layer_1" />
   
	<g
   id="Grid"
   transform="matrix(1.9453526,0,0,1.9917408,-2.3030789,4.5521774)">
		<rect
   x="0"
   stroke-miterlimit="10"
   width="512"
   height="512"
   id="rect4"
   y="0"
   style="fill:none;stroke:#a9ccdb;stroke-miterlimit:10" />
		<line
   stroke-miterlimit="10"
   x1="0"
   y1="32"
   x2="512"
   y2="32"
   id="line6"
   style="fill:none;stroke:#a9ccdb;stroke-miterlimit:10" />
		<line
   stroke-miterlimit="10"
   x1="0"
   y1="64"
   x2="512"
   y2="64"
   id="line8"
   style="fill:none;stroke:#a9ccdb;stroke-miterlimit:10" />
		<line
   stroke-miterlimit="10"
   x1="0"
   y1="96"
   x2="512"
   y2="96"
   id="line10"
   style="fill:none;stroke:#a9ccdb;stroke-miterlimit:10" />
		<line
   stroke-miterlimit="10"
   x1="0"
   y1="128"
   x2="512"
   y2="128"
   id="line12"
   style="fill:none;stroke:#a9ccdb;stroke-miterlimit:10" />
		<line
   stroke-miterlimit="10"
   x1="0"
   y1="160"
   x2="512"
   y2="160"
   id="line14"
   style="fill:none;stroke:#a9ccdb;stroke-miterlimit:10" />
		<line
   stroke-miterlimit="10"
   x1="0"
   y1="192"
   x2="512"
   y2="192"
   id="line16"
   style="fill:none;stroke:#a9ccdb;stroke-miterlimit:10" />
		<line
   stroke-miterlimit="10"
   x1="0"
   y1="224"
   x2="512"
   y2="224"
   id="line18"
   style="fill:none;stroke:#a9ccdb;stroke-miterlimit:10" />
		<line
   stroke-miterlimit="10"
   x1="0"
   y1="256"
   x2="512"
   y2="256"
   id="line20"
   style="fill:none;stroke:#a9ccdb;stroke-miterlimit:10" />
		<line
   stroke-miterlimit="10"
   x1="0"
   y1="288"
   x2="512"
   y2="288"
   id="line22"
   style="fill:none;stroke:#a9ccdb;stroke-miterlimit:10" />
		<line
   stroke-miterlimit="10"
   x1="0"
   y1="320"
   x2="512"
   y2="320"
   id="line24"
   style="fill:none;stroke:#a9ccdb;stroke-miterlimit:10" />
		<line
   stroke-miterlimit="10"
   x1="0"
   y1="352"
   x2="512"
   y2="352"
   id="line26"
   style="fill:none;stroke:#a9ccdb;stroke-miterlimit:10" />
		<line
   stroke-miterlimit="10"
   x1="0"
   y1="384"
   x2="512"
   y2="384"
   id="line28"
   style="fill:none;stroke:#a9ccdb;stroke-miterlimit:10" />
		<line
   stroke-miterlimit="10"
   x1="0"
   y1="416"
   x2="512"
   y2="416"
   id="line30"
   style="fill:none;stroke:#a9ccdb;stroke-miterlimit:10" />
		<line
   stroke-miterlimit="10"
   x1="0"
   y1="448"
   x2="512"
   y2="448"
   id="line32"
   style="fill:none;stroke:#ff0000;stroke-miterlimit:10" />
		<line
   stroke-miterlimit="10"
   x1="0"
   y1="480"
   x2="512"
   y2="480"
   id="line34"
   style="fill:none;stroke:#a9ccdb;stroke-miterlimit:10" />
		<line
   stroke-miterlimit="10"
   x1="32"
   y1="0"
   x2="32"
   y2="512"
   id="line36"
   style="fill:none;stroke:#a9ccdb;stroke-miterlimit:10" />
		<line
   stroke-miterlimit="10"
   x1="64"
   y1="0"
   x2="64"
   y2="512"
   id="line38"
   style="fill:none;stroke:#a9ccdb;stroke-miterlimit:10" />
		<line
   stroke-miterlimit="10"
   x1="96"
   y1="0"
   x2="96"
   y2="512"
   id="line40"
   style="fill:none;stroke:#a9ccdb;stroke-miterlimit:10" />
		<line
   stroke-miterlimit="10"
   x1="128"
   y1="0"
   x2="128"
   y2="512"
   id="line42"
   style="fill:none;stroke:#a9ccdb;stroke-miterlimit:10" />
		<line
   stroke-miterlimit="10"
   x1="160"
   y1="0"
   x2="160"
   y2="512"
   id="line44"
   style="fill:none;stroke:#a9ccdb;stroke-miterlimit:10" />
		<line
   stroke-miterlimit="10"
   x1="192"
   y1="0"
   x2="192"
   y2="512"
   id="line46"
   style="fill:none;stroke:#a9ccdb;stroke-miterlimit:10" />
		<line
   stroke-miterlimit="10"
   x1="224"
   y1="0"
   x2="224"
   y2="512"
   id="line48"
   style="fill:none;stroke:#a9ccdb;stroke-miterlimit:10" />
		<line
   stroke-miterlimit="10"
   x1="256"
   y1="0"
   x2="256"
   y2="512"
   id="line50"
   style="fill:none;stroke:#a9ccdb;stroke-miterlimit:10" />
		<line
   stroke-miterlimit="10"
   x1="288"
   y1="0"
   x2="288"
   y2="512"
   id="line52"
   style="fill:none;stroke:#a9ccdb;stroke-miterlimit:10" />
		<line
   stroke-miterlimit="10"
   x1="320"
   y1="0"
   x2="320"
   y2="512"
   id="line54"
   style="fill:none;stroke:#a9ccdb;stroke-miterlimit:10" />
		<line
   stroke-miterlimit="10"
   x1="352"
   y1="0"
   x2="352"
   y2="512"
   id="line56"
   style="fill:none;stroke:#a9ccdb;stroke-miterlimit:10" />
		<line
   stroke-miterlimit="10"
   x1="384"
   y1="0"
   x2="384"
   y2="512"
   id="line58"
   style="fill:none;stroke:#a9ccdb;stroke-miterlimit:10" />
		<line
   stroke-miterlimit="10"
   x1="416"
   y1="0"
   x2="416"
   y2="512"
   id="line60"
   style="fill:none;stroke:#a9ccdb;stroke-miterlimit:10" />
		<line
   stroke-miterlimit="10"
   x1="448"
   y1="0"
   x2="448"
   y2="512"
   id="line62"
   style="fill:none;stroke:#a9ccdb;stroke-miterlimit:10" />
		<line
   stroke-miterlimit="10"
   x1="480"
   y1="0"
   x2="480"
   y2="512"
   id="line64"
   style="fill:none;stroke:#a9ccdb;stroke-miterlimit:10" />
	</g>
	<path
   style="fill:#8e6742"
   d="m 297.52968,200.12128 c -41.73058,107.57461 -80.07243,214.25499 -101.96825,269.77205 -18.21291,39.75532 -30.92132,78.16418 -46.44933,113.08175 -4.28643,9.92967 -7.12498,20.83606 -10.53669,30.5195 -13.69122,37.85801 -6.20161,83.18614 -2.37384,124.26829 1.26873,4.18498 10.35768,19.93999 12.3236,20.19402 6.14373,2.60093 27.21117,17.8835 38.27091,18.46104 5.55872,0.70415 6.71172,-2.01816 9.92794,-4.36469 0.9418,-0.52252 2.98429,-1.71666 4.8865,-2.62306 4.07521,-5.38269 9.59342,-3.80986 13.49613,-7.89754 28.66699,-30.11535 123.76525,-101.03995 125.94694,-119.01977 3.59596,-28.89069 7.69843,-59.35375 7.64829,-84.75 -5.7411,-10.83447 -21.29108,-17.88808 -28.92188,-28.01191 -2.98282,-4.11418 -6.29935,-6.98809 -10.85952,-6.98809 l -0.3865,-7.65372 c 13.1909,-68.49952 31.66149,-132.85734 49.91,-179.1725 10.3696,-26.3183 14.69035,-48.13887 32.84739,-58.26781 16.67221,-9.30062 40.18421,1.81412 66.16064,7.40109 43.53886,13.43807 82.44387,27.777 124.5432,44.12105 39.5201,15.78985 71.81487,25.67183 111.25751,35.4093 19.00237,5.28445 50.90468,15.98443 64.29169,30.44785 -0.83149,4.62446 2.51732,23.20375 2.15778,24.71474 -20.43237,41.95214 -56.94068,97.61376 -68.87434,141.39273 0.48018,18.61472 5.07355,31.89208 3.42263,50.93531 -18.68967,33.68988 -96.75638,42.43057 -131.54829,42.67196 -20.69369,-29.58836 -45.87738,-59.57679 -65.35906,-85.04595 -3.02159,-4.1379 -5.83468,-7.95308 -6.60065,-11.26049 2.23038,0 3.42041,-0.69356 5.65079,-0.69356 l 0.68961,-21.77504 c 0.37928,-11.97628 0.38682,-24.35128 0.0168,-27.5 l -0.6729,-5.72496 -24.36232,0 c -36.51144,-5.04396 -27.13142,29.24012 -61.11232,27.19253 -1.2911,-1.58668 -2.24085,-2.85302 -2.98018,-3.8592 -1.77681,-3.04512 -3.72025,-3.77553 -6.43443,-3.51038 -1.48188,0.14593 -3.56524,0.36079 -6.65268,0.45947 -2.22186,-0.0459 -2.31645,0.44925 -2.82459,0.91158 -0.64341,0.58542 -1.35812,1.41411 -1.35812,4.29319 l 0,15.67955 c 0.79311,8.27995 4.05973,12.26304 8.33687,18.50904 6.40501,9.35337 15.0761,20.12521 21.10036,28.69622 11.56893,16.45971 27.7325,30.52358 43.74936,47.13147 14.92091,15.47151 29.3256,33.28045 50.02373,53.87285 13.65839,15.43375 42.2563,55.94174 61.5988,58.81685 3.35765,0.27914 3.71917,0.60027 4.00424,3.55684 l 0.31336,3.25 c 60.89429,-2.79418 55.79907,2e-5 105.87328,-10e-6 l 0,-2.9425 c 0,-2.74687 0.28257,-2.96295 4.25,-3.25 11.31482,-23.23624 38.04636,-41.56213 51.64066,-63.25329 5.28059,-8.42575 27.90629,-26.54587 33.07021,-35.01921 12.90626,-21.17755 26.2737,-40.68561 33.30913,-60.7112 11.60384,-33.02908 14.33456,-66.27283 30.98833,-101.93298 11.07827,-23.72151 28.94291,-47.34318 34.43233,-72.64592 0.16791,-15.04349 -1.3807,-27.55157 -4.81786,-39.27338 -11.66554,-31.18805 -36.78135,-74.13064 -66.12318,-83.26013 -3.4375,-0.31064 -21.775,-0.38238 -40.75,-0.15943 -110.00469,2.98825 -214.32043,-48.86463 -341.92892,-101.355 -43.68268,-13.09916 -99.57757,-32.44161 -122.24316,6.16145 z"
   id="path3758"
   inkscape:connector-curvature="0"
   sodipodi:nodetypes="cccccccccccccccsscccccccccccscccccccsccsssccsccscsssscccccc" />
</svg>