<?xml version="1.0" encoding="UTF-8" standalone="no"?>
<svg
   xmlns:dc="http://purl.org/dc/elements/1.1/"
   xmlns:cc="http://creativecommons.org/ns#"
   xmlns:rdf="http://www.w3.org/1999/02/22-rdf-syntax-ns#"
   xmlns:svg="http://www.w3.org/2000/svg"
   xmlns="http://www.w3.org/2000/svg"
   xmlns:sodipodi="http://sodipodi.sourceforge.net/DTD/sodipodi-0.dtd"
   xmlns:inkscape="http://www.inkscape.org/namespaces/inkscape"
   version="1.1"
   id="Layer_1"
   x="0px"
   y="0px"
   width="700"
   height="1024"
   viewBox="0 0 700 1024"
   enable-background="new 0 0 512 512"
   xml:space="preserve"
   inkscape:version="0.48.0 r9654"
   sodipodi:docname="tzadihebrew-x5e6.svg"><title
   id="title3743">Sinai 357</title><metadata
   id="metadata72"><rdf:RDF><cc:Work
       rdf:about=""><dc:format>image/svg+xml</dc:format><dc:type
         rdf:resource="http://purl.org/dc/dcmitype/StillImage" /><dc:title>Sinai 357</dc:title><dc:date>2017</dc:date><dc:creator><cc:Agent><dc:title>Celeste Claire Horner</dc:title></cc:Agent></dc:creator><dc:publisher><cc:Agent><dc:title>beitdina.net</dc:title></cc:Agent></dc:publisher></cc:Work></rdf:RDF></metadata><defs
   id="defs70" /><sodipodi:namedview
   pagecolor="#ffffff"
   bordercolor="#666666"
   borderopacity="1"
   objecttolerance="10"
   gridtolerance="10"
   guidetolerance="10"
   inkscape:pageopacity="0"
   inkscape:pageshadow="2"
   inkscape:window-width="1031"
   inkscape:window-height="646"
   id="namedview68"
   showgrid="false"
   inkscape:zoom="0.25133548"
   inkscape:cx="-298.53425"
   inkscape:cy="583.25749"
   inkscape:window-x="46"
   inkscape:window-y="46"
   inkscape:window-maximized="0"
   inkscape:current-layer="Layer_1" />
   
	<g
   id="Grid"
   transform="matrix(2.0004581,0,0,2.0004578,0.50019527,4.813853)">
		<rect
   x="0"
   stroke-miterlimit="10"
   width="512"
   height="512"
   id="rect4"
   y="0"
   style="fill:none;stroke:#a9ccdb;stroke-miterlimit:10" />
		<line
   stroke-miterlimit="10"
   x1="0"
   y1="32"
   x2="512"
   y2="32"
   id="line6"
   style="fill:none;stroke:#a9ccdb;stroke-miterlimit:10" />
		<line
   stroke-miterlimit="10"
   x1="0"
   y1="64"
   x2="512"
   y2="64"
   id="line8"
   style="fill:none;stroke:#a9ccdb;stroke-miterlimit:10" />
		<line
   stroke-miterlimit="10"
   x1="0"
   y1="96"
   x2="512"
   y2="96"
   id="line10"
   style="fill:none;stroke:#a9ccdb;stroke-miterlimit:10" />
		<line
   stroke-miterlimit="10"
   x1="0"
   y1="128"
   x2="512"
   y2="128"
   id="line12"
   style="fill:none;stroke:#a9ccdb;stroke-miterlimit:10" />
		<line
   stroke-miterlimit="10"
   x1="0"
   y1="160"
   x2="512"
   y2="160"
   id="line14"
   style="fill:none;stroke:#a9ccdb;stroke-miterlimit:10" />
		<line
   stroke-miterlimit="10"
   x1="0"
   y1="192"
   x2="512"
   y2="192"
   id="line16"
   style="fill:none;stroke:#a9ccdb;stroke-miterlimit:10" />
		<line
   stroke-miterlimit="10"
   x1="0"
   y1="224"
   x2="512"
   y2="224"
   id="line18"
   style="fill:none;stroke:#a9ccdb;stroke-miterlimit:10" />
		<line
   stroke-miterlimit="10"
   x1="0"
   y1="256"
   x2="512"
   y2="256"
   id="line20"
   style="fill:none;stroke:#a9ccdb;stroke-miterlimit:10" />
		<line
   stroke-miterlimit="10"
   x1="0"
   y1="288"
   x2="512"
   y2="288"
   id="line22"
   style="fill:none;stroke:#a9ccdb;stroke-miterlimit:10" />
		<line
   stroke-miterlimit="10"
   x1="0"
   y1="320"
   x2="512"
   y2="320"
   id="line24"
   style="fill:none;stroke:#a9ccdb;stroke-miterlimit:10" />
		<line
   stroke-miterlimit="10"
   x1="0"
   y1="352"
   x2="512"
   y2="352"
   id="line26"
   style="fill:none;stroke:#a9ccdb;stroke-miterlimit:10" />
		<line
   stroke-miterlimit="10"
   x1="0"
   y1="384"
   x2="512"
   y2="384"
   id="line28"
   style="fill:none;stroke:#a9ccdb;stroke-miterlimit:10" />
		<line
   stroke-miterlimit="10"
   x1="0"
   y1="416"
   x2="512"
   y2="416"
   id="line30"
   style="fill:none;stroke:#a9ccdb;stroke-miterlimit:10" />
		<line
   stroke-miterlimit="10"
   x1="0"
   y1="448"
   x2="512"
   y2="448"
   id="line32"
   style="fill:none;stroke:#ff0000;stroke-miterlimit:10" />
		<line
   stroke-miterlimit="10"
   x1="0"
   y1="480"
   x2="512"
   y2="480"
   id="line34"
   style="fill:none;stroke:#a9ccdb;stroke-miterlimit:10" />
		<line
   stroke-miterlimit="10"
   x1="32"
   y1="0"
   x2="32"
   y2="512"
   id="line36"
   style="fill:none;stroke:#a9ccdb;stroke-miterlimit:10" />
		<line
   stroke-miterlimit="10"
   x1="64"
   y1="0"
   x2="64"
   y2="512"
   id="line38"
   style="fill:none;stroke:#a9ccdb;stroke-miterlimit:10" />
		<line
   stroke-miterlimit="10"
   x1="96"
   y1="0"
   x2="96"
   y2="512"
   id="line40"
   style="fill:none;stroke:#a9ccdb;stroke-miterlimit:10" />
		<line
   stroke-miterlimit="10"
   x1="128"
   y1="0"
   x2="128"
   y2="512"
   id="line42"
   style="fill:none;stroke:#a9ccdb;stroke-miterlimit:10" />
		<line
   stroke-miterlimit="10"
   x1="160"
   y1="0"
   x2="160"
   y2="512"
   id="line44"
   style="fill:none;stroke:#a9ccdb;stroke-miterlimit:10" />
		<line
   stroke-miterlimit="10"
   x1="192"
   y1="0"
   x2="192"
   y2="512"
   id="line46"
   style="fill:none;stroke:#a9ccdb;stroke-miterlimit:10" />
		<line
   stroke-miterlimit="10"
   x1="224"
   y1="0"
   x2="224"
   y2="512"
   id="line48"
   style="fill:none;stroke:#a9ccdb;stroke-miterlimit:10" />
		<line
   stroke-miterlimit="10"
   x1="256"
   y1="0"
   x2="256"
   y2="512"
   id="line50"
   style="fill:none;stroke:#a9ccdb;stroke-miterlimit:10" />
		<line
   stroke-miterlimit="10"
   x1="288"
   y1="0"
   x2="288"
   y2="512"
   id="line52"
   style="fill:none;stroke:#a9ccdb;stroke-miterlimit:10" />
		<line
   stroke-miterlimit="10"
   x1="320"
   y1="0"
   x2="320"
   y2="512"
   id="line54"
   style="fill:none;stroke:#a9ccdb;stroke-miterlimit:10" />
		<line
   stroke-miterlimit="10"
   x1="352"
   y1="0"
   x2="352"
   y2="512"
   id="line56"
   style="fill:none;stroke:#a9ccdb;stroke-miterlimit:10" />
		<line
   stroke-miterlimit="10"
   x1="384"
   y1="0"
   x2="384"
   y2="512"
   id="line58"
   style="fill:none;stroke:#a9ccdb;stroke-miterlimit:10" />
		<line
   stroke-miterlimit="10"
   x1="416"
   y1="0"
   x2="416"
   y2="512"
   id="line60"
   style="fill:none;stroke:#a9ccdb;stroke-miterlimit:10" />
		<line
   stroke-miterlimit="10"
   x1="448"
   y1="0"
   x2="448"
   y2="512"
   id="line62"
   style="fill:none;stroke:#a9ccdb;stroke-miterlimit:10" />
		<line
   stroke-miterlimit="10"
   x1="480"
   y1="0"
   x2="480"
   y2="512"
   id="line64"
   style="fill:none;stroke:#a9ccdb;stroke-miterlimit:10" />
	</g>

 <g
   id="g3754"
   transform="translate(859.4091,99.468647)"><path
     style="fill:#584f47"
     d="m -796.03049,799.96838 c -14.69007,-1.4836 -21.60515,-13.06448 -28.5466,-18.7868 -13.99159,-19.36399 39.65579,-48.55519 50.54203,-56.57061 6.99207,-6.66718 15.00483,-10.43902 22.06934,-10.55706 8.44536,-9.22545 28.59445,-7.02385 36.25575,-13.09116 12.00156,-10.91483 23.37868,-16.12388 34.72843,-15.90051 5.3989,0.10621 13.36617,-0.93389 17.70503,-2.31143 6.99783,-2.22172 8.75161,-2.20689 15.52748,0.13114 2.04246,0.70476 2.6907,0.35419 4.21398,-2.24058 0.38169,-1.11328 0.1828,-1.18114 1.01229,-2.10486 0.89423,-0.99582 2.90874,-0.64571 4.19332,-1.19392 1.51113,-1.47641 2.59057,1.73357 4.47249,-0.32624 0.33097,-0.36954 0.82888,-0.97217 1.73397,-1.79052 0.66419,-2.7135 3.34615,-8.2906 6.52894,-13.44407 5.87508,-9.51273 5.60724,-10.18708 5.43031,-18.28353 -0.11072,-5.06822 -0.83705,-11.00731 -1.61398,-13.19795 -0.77695,-2.19065 -1.91758,-8.59342 -2.53474,-14.22837 -0.61717,-5.63495 -2.12481,-16.39258 -3.35032,-23.90585 -1.22551,-7.51326 -2.58461,-17.50249 -3.02024,-22.19828 -0.45527,-4.90748 -2.85453,-12.53116 -5.6426,-17.92939 -3.1459,-6.09109 -4.7829,-11.61694 -4.65807,-15.72386 0.16057,-5.28364 -0.93257,-7.53097 -6.60102,-13.57058 -3.73642,-3.98104 -6.79348,-7.85282 -6.79348,-8.60394 0,-0.7511 -2.45011,-4.24936 -5.44469,-7.77392 -5.79067,-6.81551 -10.74177,-15.85629 -10.74177,-19.61465 0,-1.25225 -2.51406,-6.39339 -5.58679,-11.42475 -3.07273,-5.03137 -6.02872,-11.53686 -6.56885,-14.45669 -0.54014,-2.91981 -1.63542,-6.84556 -2.43396,-8.72387 -5.2845,-12.43009 -11.29501,-31.55731 -11.30129,-35.96406 -0.0152,-10.69964 -6.50807,-31.79394 -12.00079,-38.98893 -6.85887,-8.98454 -13.905,-21.88401 -13.905,-25.45613 0,-1.52797 -1.45679,-3.60061 -3.2373,-4.60585 -1.78051,-1.00524 -3.23729,-2.97676 -3.23729,-4.38116 0,-1.40438 -2.46433,-4.83598 -5.47628,-7.62577 -7.62063,-7.05855 -18.99442,-26.00811 -19.10131,-31.82415 -0.15861,-8.63016 5.04649,-25.69103 9.60679,-31.48845 3.98322,-5.06378 10.82416,-12.32774 20.80641,-22.09298 1.8742,-1.83346 4.34803,-3.33356 5.4974,-3.33356 1.14937,0 5.48161,-3.34695 9.6272,-7.43767 11.59973,-11.92978 15.4651,-3.79503 29.35085,-5.72953 5.77475,-0.85768 11.40292,6.54246 11.45074,12.27707 0,7.2184 8.61202,18.78561 12.46586,23.57477 1.34887,1.67623 4.21351,3.98143 6.36589,5.12268 2.56065,1.35772 5.56484,6.20682 8.69077,14.02791 2.62755,6.57411 7.15625,14.64233 10.06376,17.92939 9.13609,10.32871 11.18864,15.00517 10.00709,22.80001 -0.58301,3.8462 -2.24607,8.37564 -3.6957,10.06546 -3.10482,3.61925 -3.24999,9.27915 -0.70882,27.63505 2.09667,15.145 6.95356,27.2625 13.13487,32.77027 2.26725,2.02022 5.57906,7.67557 7.35958,12.56749 1.78051,4.89191 4.64124,9.68942 6.35716,10.66114 4.16817,2.36038 23.24288,0.57058 29.31194,-2.75037 19.96971,-3.15082 33.16357,-30.33395 47.57804,-31.78615 23.35228,-2.23102 31.05533,-43.34878 35.02984,-64.03352 0.54108,-2.81747 0.92109,-6.92206 0.8445,-9.12131 -12.07967,-50.2388 6.59541,-63.69419 22.28028,-97.58549 1.94317,-4.33938 3.97193,-6.19878 7.45856,-6.83589 3.13689,-0.5732 6.09593,-2.93524 8.57625,-6.84597 2.17297,-3.42612 6.66539,-7.28393 10.54093,-9.05189 7.57842,-4.30889 9.14473,-6.40728 16.23766,-3.04461 4.07925,1.96039 8.40416,3.56435 9.6109,3.56435 17.97021,6.38349 14.69059,20.70733 15.40267,32.89843 0.17518,4.59839 -1.39654,8.14755 -0.90024,13.03585 1.96836,19.38732 3.45364,39.81982 5.39831,53.30849 0.36754,3.06373 1.7837,8.05013 3.147,11.0809 1.3633,3.03076 3.51447,11.76922 4.78038,19.41878 1.2659,7.64957 2.99929,14.82028 3.85199,15.93491 1.85686,2.42725 6.30991,18.33158 7.57137,27.04156 0.49639,3.42746 1.97584,7.17146 3.28766,8.31998 1.31183,1.14853 2.38514,4.20526 2.38514,6.79275 0,2.58748 1.16813,5.72722 2.59582,6.97721 1.95691,1.7133 2.34783,3.97126 1.58827,9.17377 -0.55416,3.79559 -1.28901,9.43717 -1.63301,12.53682 -0.34399,3.09965 -2.20725,7.08299 -4.14057,8.85186 -1.93333,1.76887 -3.87378,5.76421 -4.31211,8.87852 -3.85185,19.06493 -20.41647,28.39225 -37.78827,29.73378 -13.62963,1.05254 -27.75615,-2.81075 -36.62953,-10.74379 -6.47703,-8.10137 -31.55676,-9.13975 -46.97493,-1.94491 -12.69216,4.62058 -22.20379,2.28961 -35.13071,3.21502 -9.58486,0.71186 -14.56903,2.68729 -16.91116,6.3335 -3.49056,5.43407 -15.13474,17.48892 -16.89313,17.48892 -2.98679,0 -4.63868,10.30778 -4.77117,29.77207 -0.10893,16.0016 0.44772,21.74465 2.49327,25.72365 4.43526,9.33114 6.13297,27.82317 16.22816,32.47375 5.98653,2.63874 7.38866,5.28379 12.67712,23.91466 3.49482,12.31204 3.7555,15.33826 2.57405,29.8823 -0.72301,8.90061 -2.09171,20.20596 -3.04153,25.12303 -0.9498,4.91708 -1.24312,9.76597 -0.65178,10.77532 0.59134,1.00936 0.18796,4.09472 -0.89639,6.85635 -1.54098,3.92464 -1.54459,5.56383 -0.0165,7.50617 1.07523,1.36674 1.39158,3.44666 0.70299,4.622 -0.68858,1.17537 -1.42455,3.70633 -1.63546,5.62438 -0.85372,7.76351 -5.77823,16.21291 -13.90419,23.85659 -10.37335,9.75771 -36.78531,23.97609 -47.63518,25.64352 -4.33491,0.66621 -9.49491,2.304 -11.46666,3.63957 -1.97176,1.33555 -4.97823,2.42827 -6.68105,2.42827 -1.70283,0 -4.06057,1.22603 -5.23944,2.7245 -1.58356,2.01287 -7.72187,6.43338 -12.24685,5.67007 -5.08485,-0.85778 -9.45623,0.56548 -11.15541,3.51901 -4.91071,8.53595 -22.35822,15.38773 -35.12483,15.41529 -4.18242,0.009 -20.82098,6.83707 -24.49155,10.05072 -1.34653,1.1789 -3.79732,1.90236 -5.4462,1.60767 -1.75354,-0.31339 -5.39314,1.99096 -8.76824,5.55145 -10.26969,10.83382 -31.89727,21.5435 -46.33414,22.94404 -23.38608,2.2687 -28.91822,2.47907 -30.32966,1.15337 z"
     id="path3768"
     inkscape:connector-curvature="0"
     sodipodi:nodetypes="cccccssscscccssssssssssssssssssssssssscccsssssssssscccccssccccscsssssssssscscccsssccsssssscssssssssssssscc" /></g></svg>