<?xml version="1.0" encoding="UTF-8" standalone="no"?>
<svg
   xmlns:dc="http://purl.org/dc/elements/1.1/"
   xmlns:cc="http://creativecommons.org/ns#"
   xmlns:rdf="http://www.w3.org/1999/02/22-rdf-syntax-ns#"
   xmlns:svg="http://www.w3.org/2000/svg"
   xmlns="http://www.w3.org/2000/svg"
   xmlns:sodipodi="http://sodipodi.sourceforge.net/DTD/sodipodi-0.dtd"
   xmlns:inkscape="http://www.inkscape.org/namespaces/inkscape"
   version="1.1"
   id="Layer_1"
   x="0px"
   y="0px"
   width="800"
   height="1000"
   viewBox="0 0 800 1000"
   enable-background="new 0 0 512 512"
   xml:space="preserve"
   inkscape:version="0.48.0 r9654"
   sodipodi:docname="tzadihebrew-x5e6.svg"><title
   id="title3743">Sinai 357</title><metadata
   id="metadata72"><rdf:RDF><cc:Work
       rdf:about=""><dc:format>image/svg+xml</dc:format><dc:type
         rdf:resource="http://purl.org/dc/dcmitype/StillImage" /><dc:title>Sinai 357</dc:title><dc:date>2017</dc:date><dc:creator><cc:Agent><dc:title>Celeste Claire Horner</dc:title></cc:Agent></dc:creator><dc:publisher><cc:Agent><dc:title>beitdina.net</dc:title></cc:Agent></dc:publisher></cc:Work></rdf:RDF></metadata><defs
   id="defs70" /><sodipodi:namedview
   pagecolor="#ffffff"
   bordercolor="#666666"
   borderopacity="1"
   objecttolerance="10"
   gridtolerance="10"
   guidetolerance="10"
   inkscape:pageopacity="0"
   inkscape:pageshadow="2"
   inkscape:window-width="1031"
   inkscape:window-height="646"
   id="namedview68"
   showgrid="false"
   inkscape:zoom="0.25133548"
   inkscape:cx="677.70949"
   inkscape:cy="240.19471"
   inkscape:window-x="46"
   inkscape:window-y="46"
   inkscape:window-maximized="0"
   inkscape:current-layer="Layer_1" />
   
	<g
   id="Grid"
   transform="matrix(1.5686944,0,0,1.9538722,0.50019527,4.6656336)">
		<rect
   x="0"
   stroke-miterlimit="10"
   width="512"
   height="512"
   id="rect4"
   y="0"
   style="fill:none;stroke:#a9ccdb;stroke-miterlimit:10" />
		<line
   stroke-miterlimit="10"
   x1="0"
   y1="32"
   x2="512"
   y2="32"
   id="line6"
   style="fill:none;stroke:#a9ccdb;stroke-miterlimit:10" />
		<line
   stroke-miterlimit="10"
   x1="0"
   y1="64"
   x2="512"
   y2="64"
   id="line8"
   style="fill:none;stroke:#a9ccdb;stroke-miterlimit:10" />
		<line
   stroke-miterlimit="10"
   x1="0"
   y1="96"
   x2="512"
   y2="96"
   id="line10"
   style="fill:none;stroke:#a9ccdb;stroke-miterlimit:10" />
		<line
   stroke-miterlimit="10"
   x1="0"
   y1="128"
   x2="512"
   y2="128"
   id="line12"
   style="fill:none;stroke:#a9ccdb;stroke-miterlimit:10" />
		<line
   stroke-miterlimit="10"
   x1="0"
   y1="160"
   x2="512"
   y2="160"
   id="line14"
   style="fill:none;stroke:#a9ccdb;stroke-miterlimit:10" />
		<line
   stroke-miterlimit="10"
   x1="0"
   y1="192"
   x2="512"
   y2="192"
   id="line16"
   style="fill:none;stroke:#a9ccdb;stroke-miterlimit:10" />
		<line
   stroke-miterlimit="10"
   x1="0"
   y1="224"
   x2="512"
   y2="224"
   id="line18"
   style="fill:none;stroke:#a9ccdb;stroke-miterlimit:10" />
		<line
   stroke-miterlimit="10"
   x1="0"
   y1="256"
   x2="512"
   y2="256"
   id="line20"
   style="fill:none;stroke:#a9ccdb;stroke-miterlimit:10" />
		<line
   stroke-miterlimit="10"
   x1="0"
   y1="288"
   x2="512"
   y2="288"
   id="line22"
   style="fill:none;stroke:#a9ccdb;stroke-miterlimit:10" />
		<line
   stroke-miterlimit="10"
   x1="0"
   y1="320"
   x2="512"
   y2="320"
   id="line24"
   style="fill:none;stroke:#a9ccdb;stroke-miterlimit:10" />
		<line
   stroke-miterlimit="10"
   x1="0"
   y1="352"
   x2="512"
   y2="352"
   id="line26"
   style="fill:none;stroke:#a9ccdb;stroke-miterlimit:10" />
		<line
   stroke-miterlimit="10"
   x1="0"
   y1="384"
   x2="512"
   y2="384"
   id="line28"
   style="fill:none;stroke:#a9ccdb;stroke-miterlimit:10" />
		<line
   stroke-miterlimit="10"
   x1="0"
   y1="416"
   x2="512"
   y2="416"
   id="line30"
   style="fill:none;stroke:#a9ccdb;stroke-miterlimit:10" />
		<line
   stroke-miterlimit="10"
   x1="0"
   y1="448"
   x2="512"
   y2="448"
   id="line32"
   style="fill:none;stroke:#ff0000;stroke-miterlimit:10" />
		<line
   stroke-miterlimit="10"
   x1="0"
   y1="480"
   x2="512"
   y2="480"
   id="line34"
   style="fill:none;stroke:#a9ccdb;stroke-miterlimit:10" />
		<line
   stroke-miterlimit="10"
   x1="32"
   y1="0"
   x2="32"
   y2="512"
   id="line36"
   style="fill:none;stroke:#a9ccdb;stroke-miterlimit:10" />
		<line
   stroke-miterlimit="10"
   x1="64"
   y1="0"
   x2="64"
   y2="512"
   id="line38"
   style="fill:none;stroke:#a9ccdb;stroke-miterlimit:10" />
		<line
   stroke-miterlimit="10"
   x1="96"
   y1="0"
   x2="96"
   y2="512"
   id="line40"
   style="fill:none;stroke:#a9ccdb;stroke-miterlimit:10" />
		<line
   stroke-miterlimit="10"
   x1="128"
   y1="0"
   x2="128"
   y2="512"
   id="line42"
   style="fill:none;stroke:#a9ccdb;stroke-miterlimit:10" />
		<line
   stroke-miterlimit="10"
   x1="160"
   y1="0"
   x2="160"
   y2="512"
   id="line44"
   style="fill:none;stroke:#a9ccdb;stroke-miterlimit:10" />
		<line
   stroke-miterlimit="10"
   x1="192"
   y1="0"
   x2="192"
   y2="512"
   id="line46"
   style="fill:none;stroke:#a9ccdb;stroke-miterlimit:10" />
		<line
   stroke-miterlimit="10"
   x1="224"
   y1="0"
   x2="224"
   y2="512"
   id="line48"
   style="fill:none;stroke:#a9ccdb;stroke-miterlimit:10" />
		<line
   stroke-miterlimit="10"
   x1="256"
   y1="0"
   x2="256"
   y2="512"
   id="line50"
   style="fill:none;stroke:#a9ccdb;stroke-miterlimit:10" />
		<line
   stroke-miterlimit="10"
   x1="288"
   y1="0"
   x2="288"
   y2="512"
   id="line52"
   style="fill:none;stroke:#a9ccdb;stroke-miterlimit:10" />
		<line
   stroke-miterlimit="10"
   x1="320"
   y1="0"
   x2="320"
   y2="512"
   id="line54"
   style="fill:none;stroke:#a9ccdb;stroke-miterlimit:10" />
		<line
   stroke-miterlimit="10"
   x1="352"
   y1="0"
   x2="352"
   y2="512"
   id="line56"
   style="fill:none;stroke:#a9ccdb;stroke-miterlimit:10" />
		<line
   stroke-miterlimit="10"
   x1="384"
   y1="0"
   x2="384"
   y2="512"
   id="line58"
   style="fill:none;stroke:#a9ccdb;stroke-miterlimit:10" />
		<line
   stroke-miterlimit="10"
   x1="416"
   y1="0"
   x2="416"
   y2="512"
   id="line60"
   style="fill:none;stroke:#a9ccdb;stroke-miterlimit:10" />
		<line
   stroke-miterlimit="10"
   x1="448"
   y1="0"
   x2="448"
   y2="512"
   id="line62"
   style="fill:none;stroke:#a9ccdb;stroke-miterlimit:10" />
		<line
   stroke-miterlimit="10"
   x1="480"
   y1="0"
   x2="480"
   y2="512"
   id="line64"
   style="fill:none;stroke:#a9ccdb;stroke-miterlimit:10" />
	</g>
<path
   style="fill:#584f47"
   d="m 148.02853,129.58257 c -18.57599,1.83447 -27.32031,16.15407 -36.09796,23.22962 -17.692728,23.94328 50.14583,60.03779 63.91176,69.94874 32.86425,12.74774 72.96925,39.8705 104.86387,47.121 7.07081,1.75246 13.87901,1.64384 20.52797,2.3843 10.93741,1.21726 21.97468,3.65309 32.23267,2.95788 3.89083,-0.25995 7.63699,0.19581 12.37578,3.93147 7.57106,6.04799 14.82329,16.25764 17.70733,21.29276 7.4292,11.76236 7.09051,12.59617 6.86677,22.60733 -0.14,6.26677 -1.05847,13.61037 -2.0409,16.31907 -9.43492,32.73873 -4.32701,69.58097 -18.39623,96.76968 -3.97806,7.53155 -6.0481,14.36418 -5.89024,19.44234 0.20305,6.53313 -1.17926,9.31192 -8.34717,16.77982 -4.72481,4.92249 -8.59054,9.70989 -8.59054,10.63864 0,0.92872 -3.09823,5.25428 -6.88495,9.61234 -7.32245,8.42728 -13.58326,19.60608 -13.58326,24.25323 0,1.54839 -3.17909,7.90533 -7.06464,14.12654 -3.88556,6.22122 -7.62348,14.26516 -8.30648,17.87548 -0.68303,3.61031 -2.06804,8.46443 -3.0778,10.78696 -6.6824,15.36962 -14.28285,39.02013 -14.29081,44.46902 -0.0191,13.22995 -8.22961,39.31274 -15.1753,48.20925 -11.86597,33.17093 -50.08407,61.78411 -56.84954,91.3677 7.90973,56.16876 56.66224,82.28756 94.69868,86.65561 14.05877,-1.50041 14.4702,-17.69229 19.05245,-26.76107 13.65288,-32.46038 58.2797,-62.15293 55.6104,-91.60995 -0.73723,-4.75578 -2.84021,-10.35636 -4.67331,-12.44579 -3.92613,-4.47515 -4.1097,-11.47355 -0.89634,-34.17034 2.6513,-18.72657 8.79297,-33.70968 16.60941,-40.51997 2.867,-2.49797 7.05487,-9.49073 9.30637,-15.53953 2.25152,-6.04876 5.86899,-11.98081 8.03882,-13.18233 5.27075,-2.91858 29.39123,-0.70552 37.06573,3.4008 20.32078,3.13512 35.09311,25.51294 49.58622,35.06929 6.27795,4.67713 14.22698,3.95309 20.44553,7.21256 23.78262,15.9969 29.19121,49.60318 34.42811,76.19778 0.6842,3.48375 1.16475,8.55902 1.0679,11.27836 -12.64674,51.43082 1.36471,71.68486 17.81725,100.91506 7.25504,14.87413 15.20357,28.72683 29.29736,36.5623 16.85189,9.20925 37.32297,11.11277 47.35134,10.65299 22.7238,-7.89311 18.57663,-25.60433 19.47707,-40.67844 0.22152,-5.68584 -1.76595,-10.07433 -1.13838,-16.11864 2.48906,-23.97214 4.36722,-49.23662 6.82631,-65.91517 0.46477,-3.78826 2.25552,-9.95387 3.97948,-13.70137 1.72392,-3.74749 4.44412,-14.55249 6.0449,-24.01104 1.60077,-9.45857 3.79268,-18.32507 4.87095,-19.70328 2.34806,-3.00126 7.97905,-22.66674 9.57419,-33.4365 1.81988,-6.51532 5.78166,-14.6378 8.77716,-22.20676 3.05075,-6.25675 3.57767,-12.03131 3.22229,-17.97642 1.23312,-8.30822 -1.53368,-14.5714 -4.77433,-20.20711 -6.59264,-8.34495 -6.95356,-17.72516 -11.11347,-26.27113 -8.12896,-16.49235 -25.7996,-24.79771 -44.18524,-26.18605 -17.23504,-1.30146 -35.0984,3.47545 -46.31903,13.28453 -6.70881,8.20522 -29.20063,10.55091 -47.83309,6.24186 -8.00908,-2.09322 -15.36679,-5.5407 -23.08364,-6.72293 -27.69367,0.14393 -45.09223,-0.12399 -62.67582,-19.00603 -5.51708,-5.90316 -11.61135,-11.53944 -12.97864,-11.53944 -3.77688,0 -5.86573,-12.74542 -6.03327,-36.81273 -0.13774,-19.78574 0.56615,-26.88694 3.1528,-31.80692 13.43137,-38.66486 42.97332,-62.99762 39.80645,-106.67248 -0.91426,-11.00548 -2.64501,-24.98439 -3.84609,-31.06426 -1.62992,-5.27388 -0.64166,-10.95251 -0.88474,-16.09281 -3.73485,-7.64819 0.38546,-17.96644 -0.44869,-21.46209 -3.96317,-14.80005 -9.68244,-26.57933 -19.40648,-35.6955 -13.11739,-12.06527 -46.51602,-29.64609 -60.23596,-31.70785 -5.48161,-0.82376 -12.00656,-2.84887 -14.49989,-4.50027 -2.49336,-1.6514 -6.29512,-3.00253 -8.44838,-3.00253 -2.15326,0 -5.1347,-1.51597 -6.6254,-3.3688 -67.48768,-7.38756 -125.72118,-70.04218 -181.54458,-80.07263 -29.57234,-2.80522 -36.56788,-3.06535 -38.35267,-1.42615 z"
   id="path3768"
   inkscape:connector-curvature="0"
   sodipodi:nodetypes="ccccccccsccssssssssscccccssssscccccccccscssscccccsccccssccccccssscccc" />
</svg>