<?xml version="1.0" encoding="UTF-8" standalone="no"?>
<svg
   xmlns:dc="http://purl.org/dc/elements/1.1/"
   xmlns:cc="http://creativecommons.org/ns#"
   xmlns:rdf="http://www.w3.org/1999/02/22-rdf-syntax-ns#"
   xmlns:svg="http://www.w3.org/2000/svg"
   xmlns="http://www.w3.org/2000/svg"
   xmlns:sodipodi="http://sodipodi.sourceforge.net/DTD/sodipodi-0.dtd"
   xmlns:inkscape="http://www.inkscape.org/namespaces/inkscape"
   version="1.1"
   id="Layer_1"
   x="0px"
   y="0px"
   width="1000"
   height="1024"
   viewBox="0 0 1000 1024"
   enable-background="new 0 0 512 512"
   xml:space="preserve"
   inkscape:version="0.48.0 r9654"
   sodipodi:docname="wauphoenician-x10905.svg"><title
   id="title3743">Sinai 357</title><metadata
   id="metadata72"><rdf:RDF><cc:Work
       rdf:about=""><dc:format>image/svg+xml</dc:format><dc:type
         rdf:resource="http://purl.org/dc/dcmitype/StillImage" /><dc:title>Sinai 357</dc:title><dc:date>2017</dc:date><dc:creator><cc:Agent><dc:title>Celeste Claire Horner</dc:title></cc:Agent></dc:creator><dc:publisher><cc:Agent><dc:title>beitdina.net</dc:title></cc:Agent></dc:publisher></cc:Work></rdf:RDF></metadata><defs
   id="defs70" /><sodipodi:namedview
   pagecolor="#ffffff"
   bordercolor="#666666"
   borderopacity="1"
   objecttolerance="10"
   gridtolerance="10"
   guidetolerance="10"
   inkscape:pageopacity="0"
   inkscape:pageshadow="2"
   inkscape:window-width="1009"
   inkscape:window-height="736"
   id="namedview68"
   showgrid="false"
   inkscape:zoom="0.36045873"
   inkscape:cx="160.66887"
   inkscape:cy="590.72562"
   inkscape:window-x="80"
   inkscape:window-y="36"
   inkscape:window-maximized="0"
   inkscape:current-layer="Layer_1" />
   
	<g
   id="Grid"
   transform="matrix(1.954027,0,0,2.0053224,4.4003904,-1.7257803)">
		<rect
   x="0"
   stroke-miterlimit="10"
   width="512"
   height="512"
   id="rect4"
   y="0"
   style="fill:none;stroke:#a9ccdb;stroke-miterlimit:10" />
		<line
   stroke-miterlimit="10"
   x1="0"
   y1="32"
   x2="512"
   y2="32"
   id="line6"
   style="fill:none;stroke:#a9ccdb;stroke-miterlimit:10" />
		<line
   stroke-miterlimit="10"
   x1="0"
   y1="64"
   x2="512"
   y2="64"
   id="line8"
   style="fill:none;stroke:#a9ccdb;stroke-miterlimit:10" />
		<line
   stroke-miterlimit="10"
   x1="0"
   y1="96"
   x2="512"
   y2="96"
   id="line10"
   style="fill:none;stroke:#a9ccdb;stroke-miterlimit:10" />
		<line
   stroke-miterlimit="10"
   x1="0"
   y1="128"
   x2="512"
   y2="128"
   id="line12"
   style="fill:none;stroke:#a9ccdb;stroke-miterlimit:10" />
		<line
   stroke-miterlimit="10"
   x1="0"
   y1="160"
   x2="512"
   y2="160"
   id="line14"
   style="fill:none;stroke:#a9ccdb;stroke-miterlimit:10" />
		<line
   stroke-miterlimit="10"
   x1="0"
   y1="192"
   x2="512"
   y2="192"
   id="line16"
   style="fill:none;stroke:#a9ccdb;stroke-miterlimit:10" />
		<line
   stroke-miterlimit="10"
   x1="0"
   y1="224"
   x2="512"
   y2="224"
   id="line18"
   style="fill:none;stroke:#a9ccdb;stroke-miterlimit:10" />
		<line
   stroke-miterlimit="10"
   x1="0"
   y1="256"
   x2="512"
   y2="256"
   id="line20"
   style="fill:none;stroke:#a9ccdb;stroke-miterlimit:10" />
		<line
   stroke-miterlimit="10"
   x1="0"
   y1="288"
   x2="512"
   y2="288"
   id="line22"
   style="fill:none;stroke:#a9ccdb;stroke-miterlimit:10" />
		<line
   stroke-miterlimit="10"
   x1="0"
   y1="320"
   x2="512"
   y2="320"
   id="line24"
   style="fill:none;stroke:#a9ccdb;stroke-miterlimit:10" />
		<line
   stroke-miterlimit="10"
   x1="0"
   y1="352"
   x2="512"
   y2="352"
   id="line26"
   style="fill:none;stroke:#a9ccdb;stroke-miterlimit:10" />
		<line
   stroke-miterlimit="10"
   x1="0"
   y1="384"
   x2="512"
   y2="384"
   id="line28"
   style="fill:none;stroke:#a9ccdb;stroke-miterlimit:10" />
		<line
   stroke-miterlimit="10"
   x1="0"
   y1="416"
   x2="512"
   y2="416"
   id="line30"
   style="fill:none;stroke:#a9ccdb;stroke-miterlimit:10" />
		<line
   stroke-miterlimit="10"
   x1="0"
   y1="448"
   x2="512"
   y2="448"
   id="line32"
   style="fill:none;stroke:#ff0000;stroke-miterlimit:10" />
		<line
   stroke-miterlimit="10"
   x1="0"
   y1="480"
   x2="512"
   y2="480"
   id="line34"
   style="fill:none;stroke:#a9ccdb;stroke-miterlimit:10" />
		<line
   stroke-miterlimit="10"
   x1="32"
   y1="0"
   x2="32"
   y2="512"
   id="line36"
   style="fill:none;stroke:#a9ccdb;stroke-miterlimit:10" />
		<line
   stroke-miterlimit="10"
   x1="64"
   y1="0"
   x2="64"
   y2="512"
   id="line38"
   style="fill:none;stroke:#a9ccdb;stroke-miterlimit:10" />
		<line
   stroke-miterlimit="10"
   x1="96"
   y1="0"
   x2="96"
   y2="512"
   id="line40"
   style="fill:none;stroke:#a9ccdb;stroke-miterlimit:10" />
		<line
   stroke-miterlimit="10"
   x1="128"
   y1="0"
   x2="128"
   y2="512"
   id="line42"
   style="fill:none;stroke:#a9ccdb;stroke-miterlimit:10" />
		<line
   stroke-miterlimit="10"
   x1="160"
   y1="0"
   x2="160"
   y2="512"
   id="line44"
   style="fill:none;stroke:#a9ccdb;stroke-miterlimit:10" />
		<line
   stroke-miterlimit="10"
   x1="192"
   y1="0"
   x2="192"
   y2="512"
   id="line46"
   style="fill:none;stroke:#a9ccdb;stroke-miterlimit:10" />
		<line
   stroke-miterlimit="10"
   x1="224"
   y1="0"
   x2="224"
   y2="512"
   id="line48"
   style="fill:none;stroke:#a9ccdb;stroke-miterlimit:10" />
		<line
   stroke-miterlimit="10"
   x1="256"
   y1="0"
   x2="256"
   y2="512"
   id="line50"
   style="fill:none;stroke:#a9ccdb;stroke-miterlimit:10" />
		<line
   stroke-miterlimit="10"
   x1="288"
   y1="0"
   x2="288"
   y2="512"
   id="line52"
   style="fill:none;stroke:#a9ccdb;stroke-miterlimit:10" />
		<line
   stroke-miterlimit="10"
   x1="320"
   y1="0"
   x2="320"
   y2="512"
   id="line54"
   style="fill:none;stroke:#a9ccdb;stroke-miterlimit:10" />
		<line
   stroke-miterlimit="10"
   x1="352"
   y1="0"
   x2="352"
   y2="512"
   id="line56"
   style="fill:none;stroke:#a9ccdb;stroke-miterlimit:10" />
		<line
   stroke-miterlimit="10"
   x1="384"
   y1="0"
   x2="384"
   y2="512"
   id="line58"
   style="fill:none;stroke:#a9ccdb;stroke-miterlimit:10" />
		<line
   stroke-miterlimit="10"
   x1="416"
   y1="0"
   x2="416"
   y2="512"
   id="line60"
   style="fill:none;stroke:#a9ccdb;stroke-miterlimit:10" />
		<line
   stroke-miterlimit="10"
   x1="448"
   y1="0"
   x2="448"
   y2="512"
   id="line62"
   style="fill:none;stroke:#a9ccdb;stroke-miterlimit:10" />
		<line
   stroke-miterlimit="10"
   x1="480"
   y1="0"
   x2="480"
   y2="512"
   id="line64"
   style="fill:none;stroke:#a9ccdb;stroke-miterlimit:10" />
	</g>
	
<path
   style="fill:#5e564c"
   d="m 157.54185,107.88105 c 9.15214,-7.64455 16.63921,12.81599 17.48445,11.27713 1.06517,-3.13646 4.95063,3.78933 8.29321,-1.87674 3.45786,-5.74103 6.48876,-4.76494 9.51644,3.06476 2.72156,3.74074 26.53635,3.31978 36.92543,13.26062 11.11421,10.63467 9.01564,31.99056 17.7239,46.82072 9.32069,15.87318 15.91553,32.97176 20.72106,48.15309 6.38359,20.16641 9.60998,36.94967 11.87486,42.98332 3.74232,11.80582 6.65767,23.91748 11.30826,35.30895 1.05899,2.55758 1.92545,6.3052 1.92545,8.32804 0,2.02284 1.19102,6.61974 2.64672,10.21535 1.45571,3.59559 2.64897,9.30842 2.65174,12.69515 18.39003,43.87952 11.92857,50.61044 26.87658,84.60729 6.04157,16.26476 26.06534,23.92611 35.53292,36.24327 l 5.71253,-2.48965 c 3.64763,-1.58973 6.24047,-4.02384 7.17334,-6.73408 24.44352,-18.71559 62.06435,-35.55574 86.5033,-45.79907 8.13718,-4.70332 22.6235,-11.76849 32.47848,-10.67279 3.99045,0.44367 7.2274,2.21311 9.44108,5.03606 1.66488,2.12319 2.751,4.84233 3.1435,8.04158 0.38767,3.15963 0.0988,6.78756 -0.97718,10.77219 -2.80256,10.26039 -18.46862,35.07813 -23.54206,37.29476 -2.43467,1.06371 -5.13573,3.94999 -6.16689,6.5897 -17.79828,9.77088 -63.68027,46.78979 -80.02374,50.48582 -3.45733,0.67567 -6.28603,1.81145 -6.28603,2.52397 0,0.71251 -2.69175,3.02672 -5.9816,5.14265 -2.87659,1.11628 -4.53566,3.54628 -5.84653,5.99274 -1.77705,1.97581 -4.13582,3.57651 -6.76384,4.17819 -2.76067,0.40668 -5.20546,2.84563 -8.18077,4.24173 -19.52646,9.20332 -42.86962,31.04732 -56.17217,45.1999 -3.39986,4.10042 -7.53353,12.00793 -7.53353,18.72904 0,5.25408 0.55998,6.00647 7.07596,9.50755 10.46462,2.49752 45.84028,-2.45836 52.13042,-8.22445 10.79671,-1.16118 20.46864,-6.1762 29.58793,-11.47239 7.77896,-5.61501 14.27999,-3.54029 20.51464,-5.46348 13.97405,-6.66465 74.43751,-5.87893 89.85697,-8.70945 13.84033,4.77973 31.68211,-10.94089 42.49475,0.29308 1.57162,1.88647 4.39889,3.91062 6.2828,4.49813 14.52902,9.52479 19.12259,17.34422 10.42534,29.52367 -4.39584,6.12784 -6.45556,10.36951 -6.05572,12.47066 0.33325,1.7513 -0.83763,6.00024 -2.60197,9.44211 -1.76433,3.44186 -3.20795,7.53503 -3.20795,9.0959 0,1.56089 -1.19102,3.82267 -2.64673,5.02617 -1.4557,1.20352 -2.64672,3.60058 -2.64672,5.32683 -1.06582,2.93879 -6.35469,7.30311 -8.13916,7.34328 -3.26398,0 -5.38725,1.00354 -6.20224,2.93138 -0.72978,1.72644 -3.24653,3.14066 -6.12258,3.44052 -5.23214,-0.19319 -4.48929,3.62618 -8.49371,7.86235 -4.81322,5.09166 -12.74078,9.12509 -17.64736,14.85688 -4.78011,7.69797 -13.24759,12.14865 -15.92636,16.19915 -0.83585,1.10655 -2.52105,2.01189 -3.74475,2.01189 -1.22378,0 -3.7331,2.61758 -5.57639,5.81685 -2.25914,3.92104 -5.54354,6.75411 -10.0774,8.69258 -25.0453,27.49948 -97.20065,76.53937 -122.61078,103.16194 -3.57754,7.9186 -9.63219,16.719 -12.20999,22.06022 -3.75933,7.70822 -10.74363,15.03964 -16.69578,20.5123 -4.16885,3.83297 -9.92175,3.07193 -10.03445,7.35729 0.80057,11.18918 -10.83461,15.18131 -17.95483,11.30834 -2.6691,-1.47635 -4.85279,-2.23964 -4.85279,-1.6962 0,0.54342 -1.48882,-0.30335 -3.30847,-1.88172 -1.81966,-1.57838 -3.30839,-2.36089 -3.30839,-1.73891 0,0.62198 -0.81785,0.23236 -1.81732,-0.86581 -0.99956,-1.09817 -2.69363,-1.55154 -3.76453,-1.00749 -1.43878,0.7309 -1.31373,-3.02511 -5.97111,-9.65746 l -10.95952,-10.64666 c -12.58392,-16.37185 3.84499,-15.2738 5.44528,-24.20625 0.33611,-4.52619 7.02054,-8.19695 9.06576,-11.28448 27.27346,-38.47453 106.36438,-83.35723 128.28746,-122.09386 0.86029,-4.00112 7.23001,-13.13884 10.28329,-11.78011 2.41677,1.22771 12.8728,-5.8497 12.8839,-12.5861 0,-2.71314 -17.83113,-5.61155 -16.87185,-8.04485 -5.53719,-2.6319 -7.11418,0.50873 -10.71409,-3.06943 -2.58882,0.0442 -7.32569,-0.78938 -9.62753,-0.0815 -3.21028,1.10397 -6.71809,0.92185 -6.91904,0.75427 -2.68074,-1.27244 -5.35871,-1.99314 -8.03398,-2.25849 -10.68107,-1.05939 -21.32096,5.13913 -31.93399,12.46026 -8.86938,6.11835 -35.7234,16.95771 -44.56369,21.06314 -3.28412,1.52519 -6.56691,2.66434 -9.84862,3.23387 -6.07755,1.0085 -8.8538,0.83606 -9.5202,-0.59135 -0.70302,-1.50586 -10.33189,5.14046 -16.07405,6.89681 -4.22595,1.29258 -9.7131,2.29187 -12.19361,2.22064 -2.48041,-0.0713 -5.54434,0.60336 -6.80867,1.49915 -1.61369,1.14325 -2.78296,0.85641 -3.92323,-0.96239 -3.71709,-4.02621 -40.38016,-0.42334 -44.79453,1.44319 -4.88797,1.97643 -6.99638,3.13271 -8.71543,4.35698 -8.93624,3.22179 -24.15287,0.68185 -30.93908,-1.41299 -5.47166,-1.68906 -10.30566,-5.22163 -14.60071,-10.78371 -3.55257,-4.60653 -6.18739,-8.27628 -8.12796,-11.47638 -2.13616,-3.52257 -3.43111,-6.47607 -4.18317,-9.48354 -1.36476,-5.45741 1.54145,-15.02952 1.96994,-24.56527 0.17508,-4.60955 10.09271,-12.86553 11.93232,-17.14132 1.67375,-3.89029 3.8552,-7.20164 6.21451,-9.13194 2.50602,-2.05035 5.14907,-5.97875 5.87348,-8.7298 1.03715,-3.93866 8.33473,-5.00187 11.33386,-5.00187 2.0948,0 5.68738,-1.5125 7.98358,-3.3611 14.50548,-7.65459 5.73411,-6.66864 23.60114,-14.65514 3.4038,-1.70085 0.92177,-13.37012 12.02989,-21.88152 3.14968,-2.41339 3.57056,-10.38375 -2.6316,-24.97735 -1.58943,-3.73996 -3.32843,-7.69944 -5.13636,-11.78595 -3.3475,-7.56678 -6.93113,-11.6321 -10.23808,-19.48271 -2.01281,-4.77814 -4.04406,-9.48182 -6.01884,-13.97255 -1.58629,-3.60746 -3.13598,-7.07751 -4.6103,-10.33834 -6.22785,-13.77528 -6.76258,-24.47319 -7.35729,-25.36922 -2.04495,-5.60422 -3.85314,-11.41282 -6.18631,-16.88543 -1.14716,-23.44478 -10.74426,-43.19138 -16.26524,-62.79457 -13.98372,-48.21461 -18.77976,-107.2606 -37.210967,-143.21639 -1.91211,-2.8907 -4.10565,-6.74424 -4.87472,-8.56344 -2.24876,-5.31986 -4.99091,-20.77797 -4.37409,-24.65818 0.31203,-1.96294 0.91658,-7.43855 1.34346,-12.16804 0.42687,-4.7295 1.35831,-10.03899 2.06974,-11.7989 0.71151,-1.75991 1.48524,-6.5894 1.71958,-10.73225 0.25501,-4.51058 1.8457,-10.31971 3.96485,-14.48009 1.9464,-3.82121 4.774997,-9.50986 6.285847,-12.64143 2.73525,-5.66968 6.43721,-7.6727 6.47578,-3.50387 0.0134,1.50277 0.40182,1.3916 1.23605,-0.35433 0.66873,-1.39934 0.96402,-3.08354 0.65638,-3.74267 -0.92035,-1.97128 3.20473,-7.93007 5.53933,-6.27603 1.8175,1.28772 3.04612,-1.35227 3.07279,-6.76368 0.017,-3.43567 0.81276,-5.17656 3.04272,-10.31925 2.8722,-6.62362 8.4229,-9.94908 10.78874,-10.57219 3.0156,-0.79423 6.07219,-3.20264 10.62047,-3.43278 5.30965,-0.26868 12.01521,1.75785 13.32636,2.49598 z"
   id="path3759"
   inkscape:connector-curvature="0"
   sodipodi:nodetypes="ccccsssccsscccsccssscsccscccccsccccccccssssccscsccsscccsccssssssccccccccccssscsscscccscsscssssccssssssccccssssssscsssssssc" />
	 
</svg>