<?xml version="1.0" encoding="UTF-8" standalone="no"?>
<svg
   xmlns:dc="http://purl.org/dc/elements/1.1/"
   xmlns:cc="http://creativecommons.org/ns#"
   xmlns:rdf="http://www.w3.org/1999/02/22-rdf-syntax-ns#"
   xmlns:svg="http://www.w3.org/2000/svg"
   xmlns="http://www.w3.org/2000/svg"
   xmlns:sodipodi="http://sodipodi.sourceforge.net/DTD/sodipodi-0.dtd"
   xmlns:inkscape="http://www.inkscape.org/namespaces/inkscape"
   version="1.1"
   id="Layer_1"
   x="0px"
   y="0px"
   width="700"
   height="1024"
   viewBox="0 0 700 1024"
   enable-background="new 0 0 512 512"
   xml:space="preserve"
   inkscape:version="0.48.0 r9654"
   sodipodi:docname="wauphoenician-x10905.svg"><title
   id="title3743">Sinai 357</title><metadata
   id="metadata72"><rdf:RDF><cc:Work
       rdf:about=""><dc:format>image/svg+xml</dc:format><dc:type
         rdf:resource="http://purl.org/dc/dcmitype/StillImage" /><dc:title>Sinai 357</dc:title><dc:date>2017</dc:date><dc:creator><cc:Agent><dc:title>Celeste Claire Horner</dc:title></cc:Agent></dc:creator><dc:publisher><cc:Agent><dc:title>beitdina.net</dc:title></cc:Agent></dc:publisher></cc:Work></rdf:RDF></metadata><defs
   id="defs70" /><sodipodi:namedview
   pagecolor="#ffffff"
   bordercolor="#666666"
   borderopacity="1"
   objecttolerance="10"
   gridtolerance="10"
   guidetolerance="10"
   inkscape:pageopacity="0"
   inkscape:pageshadow="2"
   inkscape:window-width="1009"
   inkscape:window-height="736"
   id="namedview68"
   showgrid="false"
   inkscape:zoom="0.25488281"
   inkscape:cx="-286.3868"
   inkscape:cy="450.1274"
   inkscape:window-x="80"
   inkscape:window-y="36"
   inkscape:window-maximized="0"
   inkscape:current-layer="Layer_1" />
   
	<g
   id="Grid"
   transform="matrix(1.3586091,0,0,2.0053224,4.4003904,-1.7257688)">
		<rect
   x="0"
   stroke-miterlimit="10"
   width="512"
   height="512"
   id="rect4"
   y="0"
   style="fill:none;stroke:#a9ccdb;stroke-miterlimit:10" />
		<line
   stroke-miterlimit="10"
   x1="0"
   y1="32"
   x2="512"
   y2="32"
   id="line6"
   style="fill:none;stroke:#a9ccdb;stroke-miterlimit:10" />
		<line
   stroke-miterlimit="10"
   x1="0"
   y1="64"
   x2="512"
   y2="64"
   id="line8"
   style="fill:none;stroke:#a9ccdb;stroke-miterlimit:10" />
		<line
   stroke-miterlimit="10"
   x1="0"
   y1="96"
   x2="512"
   y2="96"
   id="line10"
   style="fill:none;stroke:#a9ccdb;stroke-miterlimit:10" />
		<line
   stroke-miterlimit="10"
   x1="0"
   y1="128"
   x2="512"
   y2="128"
   id="line12"
   style="fill:none;stroke:#a9ccdb;stroke-miterlimit:10" />
		<line
   stroke-miterlimit="10"
   x1="0"
   y1="160"
   x2="512"
   y2="160"
   id="line14"
   style="fill:none;stroke:#a9ccdb;stroke-miterlimit:10" />
		<line
   stroke-miterlimit="10"
   x1="0"
   y1="192"
   x2="512"
   y2="192"
   id="line16"
   style="fill:none;stroke:#a9ccdb;stroke-miterlimit:10" />
		<line
   stroke-miterlimit="10"
   x1="0"
   y1="224"
   x2="512"
   y2="224"
   id="line18"
   style="fill:none;stroke:#a9ccdb;stroke-miterlimit:10" />
		<line
   stroke-miterlimit="10"
   x1="0"
   y1="256"
   x2="512"
   y2="256"
   id="line20"
   style="fill:none;stroke:#a9ccdb;stroke-miterlimit:10" />
		<line
   stroke-miterlimit="10"
   x1="0"
   y1="288"
   x2="512"
   y2="288"
   id="line22"
   style="fill:none;stroke:#a9ccdb;stroke-miterlimit:10" />
		<line
   stroke-miterlimit="10"
   x1="0"
   y1="320"
   x2="512"
   y2="320"
   id="line24"
   style="fill:none;stroke:#a9ccdb;stroke-miterlimit:10" />
		<line
   stroke-miterlimit="10"
   x1="0"
   y1="352"
   x2="512"
   y2="352"
   id="line26"
   style="fill:none;stroke:#a9ccdb;stroke-miterlimit:10" />
		<line
   stroke-miterlimit="10"
   x1="0"
   y1="384"
   x2="512"
   y2="384"
   id="line28"
   style="fill:none;stroke:#a9ccdb;stroke-miterlimit:10" />
		<line
   stroke-miterlimit="10"
   x1="0"
   y1="416"
   x2="512"
   y2="416"
   id="line30"
   style="fill:none;stroke:#a9ccdb;stroke-miterlimit:10" />
		<line
   stroke-miterlimit="10"
   x1="0"
   y1="448"
   x2="512"
   y2="448"
   id="line32"
   style="fill:none;stroke:#ff0000;stroke-miterlimit:10" />
		<line
   stroke-miterlimit="10"
   x1="0"
   y1="480"
   x2="512"
   y2="480"
   id="line34"
   style="fill:none;stroke:#a9ccdb;stroke-miterlimit:10" />
		<line
   stroke-miterlimit="10"
   x1="32"
   y1="0"
   x2="32"
   y2="512"
   id="line36"
   style="fill:none;stroke:#a9ccdb;stroke-miterlimit:10" />
		<line
   stroke-miterlimit="10"
   x1="64"
   y1="0"
   x2="64"
   y2="512"
   id="line38"
   style="fill:none;stroke:#a9ccdb;stroke-miterlimit:10" />
		<line
   stroke-miterlimit="10"
   x1="96"
   y1="0"
   x2="96"
   y2="512"
   id="line40"
   style="fill:none;stroke:#a9ccdb;stroke-miterlimit:10" />
		<line
   stroke-miterlimit="10"
   x1="128"
   y1="0"
   x2="128"
   y2="512"
   id="line42"
   style="fill:none;stroke:#a9ccdb;stroke-miterlimit:10" />
		<line
   stroke-miterlimit="10"
   x1="160"
   y1="0"
   x2="160"
   y2="512"
   id="line44"
   style="fill:none;stroke:#a9ccdb;stroke-miterlimit:10" />
		<line
   stroke-miterlimit="10"
   x1="192"
   y1="0"
   x2="192"
   y2="512"
   id="line46"
   style="fill:none;stroke:#a9ccdb;stroke-miterlimit:10" />
		<line
   stroke-miterlimit="10"
   x1="224"
   y1="0"
   x2="224"
   y2="512"
   id="line48"
   style="fill:none;stroke:#a9ccdb;stroke-miterlimit:10" />
		<line
   stroke-miterlimit="10"
   x1="256"
   y1="0"
   x2="256"
   y2="512"
   id="line50"
   style="fill:none;stroke:#a9ccdb;stroke-miterlimit:10" />
		<line
   stroke-miterlimit="10"
   x1="288"
   y1="0"
   x2="288"
   y2="512"
   id="line52"
   style="fill:none;stroke:#a9ccdb;stroke-miterlimit:10" />
		<line
   stroke-miterlimit="10"
   x1="320"
   y1="0"
   x2="320"
   y2="512"
   id="line54"
   style="fill:none;stroke:#a9ccdb;stroke-miterlimit:10" />
		<line
   stroke-miterlimit="10"
   x1="352"
   y1="0"
   x2="352"
   y2="512"
   id="line56"
   style="fill:none;stroke:#a9ccdb;stroke-miterlimit:10" />
		<line
   stroke-miterlimit="10"
   x1="384"
   y1="0"
   x2="384"
   y2="512"
   id="line58"
   style="fill:none;stroke:#a9ccdb;stroke-miterlimit:10" />
		<line
   stroke-miterlimit="10"
   x1="416"
   y1="0"
   x2="416"
   y2="512"
   id="line60"
   style="fill:none;stroke:#a9ccdb;stroke-miterlimit:10" />
		<line
   stroke-miterlimit="10"
   x1="448"
   y1="0"
   x2="448"
   y2="512"
   id="line62"
   style="fill:none;stroke:#a9ccdb;stroke-miterlimit:10" />
		<line
   stroke-miterlimit="10"
   x1="480"
   y1="0"
   x2="480"
   y2="512"
   id="line64"
   style="fill:none;stroke:#a9ccdb;stroke-miterlimit:10" />
	</g>
	
<path
   style="fill:#5e564c"
   d="m 143.4203,127.49793 c 11.40494,-7.64455 20.73494,12.81599 21.78824,11.27713 1.32736,-3.13646 6.16922,3.78933 10.33458,-1.87674 4.30901,-5.74103 8.08596,-4.76494 11.8589,3.06476 3.39147,3.74074 33.06826,3.31978 46.0146,13.26062 13.84997,10.63467 11.23484,31.99056 22.08663,46.82072 11.61497,15.87318 19.83313,32.97176 25.82154,48.15309 7.9549,20.16641 11.97547,36.94967 14.79785,42.98332 4.66349,11.80582 8.29645,23.91748 14.09178,35.30895 1.31966,2.55758 2.3994,6.3052 2.3994,8.32804 0,2.02284 1.48418,6.61974 3.2982,10.21535 1.81404,3.59559 3.30102,9.30842 3.30447,12.69515 22.91672,43.87952 14.86478,50.61044 33.49223,84.60729 7.14675,15.43961 29.99435,23.12661 42.38613,34.40285 2.56623,2.92488 6.35427,0.28289 9.01186,-0.64923 4.54549,-1.58973 7.77656,-4.02384 8.93906,-6.73408 30.46027,-18.71559 77.34145,-35.55574 107.79603,-45.79907 10.14014,-4.70332 28.19226,-11.76849 40.47304,-10.67279 4.97269,0.44367 9.00642,2.21311 11.76499,5.03606 2.07469,2.12319 3.42816,4.84233 3.91727,8.04158 0.4831,3.15963 0.12312,6.78756 -1.21771,10.77219 -3.49241,10.26039 -23.01466,35.07813 -29.33692,37.29476 -3.03397,1.06371 -6.39989,3.94999 -7.68487,6.5897 -22.17931,9.77088 -79.35513,46.78979 -99.72153,50.48582 -4.30835,0.67567 -7.83333,1.81145 -7.83333,2.52397 0,0.71251 -3.35433,3.02672 -7.45397,5.14265 -3.58466,1.11628 -5.65211,3.54628 -7.28565,5.99274 -2.21447,1.97581 -5.15385,3.57651 -8.42876,4.17819 -3.4402,0.40668 -6.48678,2.84563 -10.19446,4.24173 -24.33288,9.20332 -53.42195,31.04732 -69.99891,45.1999 -4.23674,4.10042 -9.38791,12.00793 -9.38791,18.72904 0,5.25408 0.69782,6.00647 8.81771,9.50755 13.04048,2.49752 57.12383,-2.45836 64.96229,-8.22445 13.45431,-1.16118 25.50698,-6.1762 36.87098,-11.47239 9.69374,-5.61501 17.795,-3.54029 25.5643,-5.46348 17.41376,-6.66465 92.76026,-5.87893 111.97521,-8.70945 17.24712,4.77973 39.48064,-10.94089 52.95481,0.29308 1.95847,1.88647 5.48167,3.91062 7.8293,4.49813 18.10533,9.52479 23.82961,17.34422 12.99153,29.52367 -2.67438,3.58176 -6.63579,7.03758 -7.47744,11.35804 0.04,3.86655 -1.43454,7.57696 -3.31133,10.55473 -2.19862,3.44186 -3.99759,7.53503 -3.99759,9.0959 0,1.56089 -1.48418,3.82267 -3.29822,5.02617 -1.81402,1.20352 -3.29821,3.60058 -3.29821,5.32683 -1.32817,2.93879 -7.91889,7.30311 -10.1426,7.34328 -4.06741,0 -6.71332,1.00354 -7.72892,2.93138 -0.90942,1.72644 -4.04566,3.14066 -7.62965,3.44052 -6.52003,-0.19319 -5.59433,3.62618 -10.58443,7.86235 -5.99799,5.09166 -15.87692,9.12509 -21.99125,14.85688 -5.95673,7.69797 -16.50847,12.14865 -19.84662,16.19915 -1.0416,1.10655 -3.14161,2.01189 -4.66652,2.01189 -1.52501,0 -4.652,2.61758 -6.94902,5.81685 -2.81522,3.92104 -6.90807,6.75411 -12.55794,8.69258 -31.21019,27.49948 -121.12653,76.53937 -152.79135,103.16194 -4.45815,7.9186 -12.00314,16.719 -15.21547,22.06022 -4.68468,7.70822 -13.38817,15.03964 -20.80543,20.5123 -5.19501,3.83297 -12.36399,3.07193 -12.50443,7.35729 0.99763,11.18918 -13.50154,15.18131 -22.3744,11.30834 -2.00548,-0.71146 -4.08631,-1.99936 -6.20504,-1.71424 -1.49577,-0.0256 -2.9043,-1.12909 -3.96511,-1.86368 -2.26756,-1.57837 -4.12274,-2.36089 -4.12274,-1.73891 0,0.62198 -1.01917,0.23236 -2.26466,-0.86581 -1.2456,-1.09817 -3.35665,-1.55151 -4.69116,-1.00749 -1.63484,0.15342 -2.32752,-2.28858 -2.84511,-3.20761 -0.92043,-1.62681 -1.87951,-4.33233 -4.59579,-6.44985 l -13.6572,-10.64666 c -15.68144,-16.37185 4.79143,-15.2738 6.78564,-24.20625 0.41884,-4.52619 8.74864,-8.19695 11.29729,-11.28448 33.9868,-38.47453 132.5459,-83.35723 159.86533,-122.09386 0.93796,-3.50068 7.13148,-10.93338 11.2144,-11.82791 1.16222,-0.12897 2.2689,0.16994 3.28901,0.11572 5.53654,-2.38407 14.38325,-6.71168 14.21497,-12.66564 -4.70862,-4.52191 -13.39362,-4.1669 -19.39167,-6.62606 -1.45713,-1.00616 -1.80114,-1.54894 -3.38551,-2.02915 -5.40833,-1.45606 -7.40378,0.77801 -11.44762,-2.44745 -3.22606,0.0442 -9.1289,-0.78938 -11.99734,-0.0815 -4.00049,1.10397 -8.37174,0.92185 -8.62216,0.75427 -3.3406,-1.27244 -6.67775,-1.99314 -10.01154,-2.25849 -13.3102,-1.05939 -26.5691,5.13913 -39.79452,12.46026 -11.05257,6.11835 -44.51669,16.95771 -55.53301,21.06314 -4.09251,1.52519 -8.18335,2.66434 -12.27285,3.23387 -4.63553,0.84947 -4.07656,0.56294 -7.96264,-0.11949 -6.81367,0.91666 -17.02829,5.50215 -23.3186,7.28319 -5.26617,1.29259 -8.79362,1.43363 -11.88471,1.3624 -3.09096,-0.0713 -6.54126,-0.62269 -8.1168,0.2731 -2.0109,1.14325 -4.69404,1.34683 -6.11499,-0.47197 -4.63205,-4.02621 -53.38484,0.31229 -58.88581,2.17882 -6.09114,1.97643 -8.71853,3.13271 -10.86072,4.35698 -11.13589,3.22179 -30.09809,0.68185 -38.55472,-1.41299 -6.8185,-1.68906 -12.84239,-5.22163 -18.19466,-10.78371 -4.427035,-4.60653 -7.710385,-8.2763 -10.128655,-11.47638 -2.1307,-3.2565 -4.837418,-6.42916 -5.136438,-10.14957 0.19681,-8.40465 0.51791,-17.91211 2.858918,-24.88662 2.46296,-6.95312 10.87266,-10.12744 14.388955,-16.15394 2.08575,-3.89029 4.80416,-7.20164 7.74421,-9.13194 3.12287,-2.05035 6.41651,-5.97875 7.31923,-8.7298 1.29245,-3.93866 10.38632,-5.00187 14.12368,-5.00187 5.44173,-0.54701 9.7586,-3.2548 14.18844,-5.59014 14.87829,-7.84436 11.00677,-6.04866 24.6696,-12.25355 0.45473,-0.20984 0.8772,-0.45248 1.2456,-0.75598 0.37421,-0.30828 0.69263,-0.67936 0.93243,-1.14261 2.0012,-3.94311 -0.56979,-11.40974 10.86214,-18.43901 3.92497,-2.41339 6.90156,-12.10022 -0.82725,-26.69382 -1.98067,-3.73996 -4.14772,-7.69944 -6.40068,-11.78595 -4.17148,-7.56678 -8.63722,-11.6321 -12.75817,-19.48271 -2.50826,-4.77814 -5.0395,-9.48182 -7.50038,-13.97255 -1.97675,-3.60746 -3.9079,-7.07751 -5.74512,-10.33834 -7.76083,-13.77528 -8.42718,-24.47319 -9.16828,-25.36922 -2.54831,-5.60422 -4.80159,-11.41282 -7.70907,-16.88543 -1.42953,-23.44478 -13.38895,-43.19138 -20.26892,-62.79457 -17.425795,-48.21461 -23.402375,-107.2606 -46.370411,-143.21639 -2.382775,-2.8907 -5.116253,-6.74424 -6.07463,-8.56344 -2.80229,-5.31986 -6.219419,-20.77797 -5.450769,-24.65818 0.388836,-1.96294 1.142196,-7.43855 1.674152,-12.16804 0.531944,-4.7295 1.692657,-10.03899 2.579205,-11.7989 0.886648,-1.75991 1.850831,-6.5894 2.142854,-10.73225 0.31778,-4.51058 2.300017,-10.31971 4.940795,-14.48009 2.425501,-3.82121 5.950361,-9.50986 7.833101,-12.64143 3.40853,-5.66968 8.02173,-7.6727 8.06979,-3.50387 0.0167,1.50277 0.50073,1.3916 1.54031,-0.35433 0.83333,-1.39934 1.20131,-3.08354 0.81794,-3.74267 -1.14689,-1.97128 3.993568,-7.93007 6.902838,-6.27603 2.26487,1.28772 3.79592,-1.35227 3.82915,-6.76368 0.0212,-3.43567 1.01282,-5.17656 3.791675,-10.31925 3.57919,-6.62362 10.4962,-9.94908 13.44439,-10.57219 3.75788,-0.79423 7.56685,-3.20264 13.23469,-3.43278 6.61661,-0.26868 14.97274,1.75785 16.60663,2.49598 z"
   id="path3759"
   inkscape:connector-curvature="0"
   sodipodi:nodetypes="ccccsssccssccccccssscsccscccccsccccccccccssccscsccsscccsccccssccsccccccccccccsssccccscccscccccsscccscssssssccccssssssscsssssssc" />
	 
</svg>