<?xml version="1.0" encoding="UTF-8" standalone="no"?>
<svg
   xmlns:dc="http://purl.org/dc/elements/1.1/"
   xmlns:cc="http://creativecommons.org/ns#"
   xmlns:rdf="http://www.w3.org/1999/02/22-rdf-syntax-ns#"
   xmlns:svg="http://www.w3.org/2000/svg"
   xmlns="http://www.w3.org/2000/svg"
   xmlns:sodipodi="http://sodipodi.sourceforge.net/DTD/sodipodi-0.dtd"
   xmlns:inkscape="http://www.inkscape.org/namespaces/inkscape"
   version="1.1"
   id="Layer_1"
   x="0px"
   y="0px"
   width="900"
   height="1024"
   viewBox="0 0 900 1024"
   enable-background="new 0 0 512 512"
   xml:space="preserve"
   inkscape:version="0.48.0 r9654"
   sodipodi:docname="yodphoenician-x10909.svg"><title
   id="title3743">Sinai 357</title><metadata
   id="metadata72"><rdf:RDF><cc:Work
       rdf:about=""><dc:format>image/svg+xml</dc:format><dc:type
         rdf:resource="http://purl.org/dc/dcmitype/StillImage" /><dc:title>Sinai 357</dc:title><dc:date>2017</dc:date><dc:creator><cc:Agent><dc:title /></cc:Agent></dc:creator><dc:publisher><cc:Agent><dc:title>beitdina.net</dc:title></cc:Agent></dc:publisher><cc:license
         rdf:resource="http://scripts.sil.org/OFL" /></cc:Work><cc:License
       rdf:about="http://scripts.sil.org/OFL"><cc:permits
         rdf:resource="http://scripts.sil.org/pub/OFL/Reproduction" /><cc:permits
         rdf:resource="http://scripts.sil.org/pub/OFL/Distribution" /><cc:permits
         rdf:resource="http://scripts.sil.org/pub/OFL/Embedding" /><cc:permits
         rdf:resource="http://scripts.sil.org/pub/OFL/DerivativeWorks" /><cc:requires
         rdf:resource="http://scripts.sil.org/pub/OFL/Notice" /><cc:requires
         rdf:resource="http://scripts.sil.org/pub/OFL/Attribution" /><cc:requires
         rdf:resource="http://scripts.sil.org/pub/OFL/ShareAlike" /><cc:requires
         rdf:resource="http://scripts.sil.org/pub/OFL/DerivativeRenaming" /><cc:requires
         rdf:resource="http://scripts.sil.org/pub/OFL/BundlingWhenSelling" /></cc:License></rdf:RDF></metadata><defs
   id="defs70" /><sodipodi:namedview
   pagecolor="#ffffff"
   bordercolor="#666666"
   borderopacity="1"
   objecttolerance="10"
   gridtolerance="10"
   guidetolerance="10"
   inkscape:pageopacity="0"
   inkscape:pageshadow="2"
   inkscape:window-width="1152"
   inkscape:window-height="814"
   id="namedview68"
   showgrid="false"
   inkscape:zoom="0.35834667"
   inkscape:cx="144.56488"
   inkscape:cy="466.09953"
   inkscape:window-x="-8"
   inkscape:window-y="-8"
   inkscape:window-maximized="1"
   inkscape:current-layer="Layer_1" />
   
	<g
   id="Grid"
   transform="matrix(1.764135,0,0,1.9999593,-3.5410142,2.4385384)">
		<rect
   x="0"
   stroke-miterlimit="10"
   width="512"
   height="512"
   id="rect4"
   y="0"
   style="fill:none;stroke:#a9ccdb;stroke-miterlimit:10" />
		<line
   stroke-miterlimit="10"
   x1="0"
   y1="32"
   x2="512"
   y2="32"
   id="line6"
   style="fill:none;stroke:#a9ccdb;stroke-miterlimit:10" />
		<line
   stroke-miterlimit="10"
   x1="0"
   y1="64"
   x2="512"
   y2="64"
   id="line8"
   style="fill:none;stroke:#a9ccdb;stroke-miterlimit:10" />
		<line
   stroke-miterlimit="10"
   x1="0"
   y1="96"
   x2="512"
   y2="96"
   id="line10"
   style="fill:none;stroke:#a9ccdb;stroke-miterlimit:10" />
		<line
   stroke-miterlimit="10"
   x1="0"
   y1="128"
   x2="512"
   y2="128"
   id="line12"
   style="fill:none;stroke:#a9ccdb;stroke-miterlimit:10" />
		<line
   stroke-miterlimit="10"
   x1="0"
   y1="160"
   x2="512"
   y2="160"
   id="line14"
   style="fill:none;stroke:#a9ccdb;stroke-miterlimit:10" />
		<line
   stroke-miterlimit="10"
   x1="0"
   y1="192"
   x2="512"
   y2="192"
   id="line16"
   style="fill:none;stroke:#a9ccdb;stroke-miterlimit:10" />
		<line
   stroke-miterlimit="10"
   x1="0"
   y1="224"
   x2="512"
   y2="224"
   id="line18"
   style="fill:none;stroke:#a9ccdb;stroke-miterlimit:10" />
		<line
   stroke-miterlimit="10"
   x1="0"
   y1="256"
   x2="512"
   y2="256"
   id="line20"
   style="fill:none;stroke:#a9ccdb;stroke-miterlimit:10" />
		<line
   stroke-miterlimit="10"
   x1="0"
   y1="288"
   x2="512"
   y2="288"
   id="line22"
   style="fill:none;stroke:#a9ccdb;stroke-miterlimit:10" />
		<line
   stroke-miterlimit="10"
   x1="0"
   y1="320"
   x2="512"
   y2="320"
   id="line24"
   style="fill:none;stroke:#a9ccdb;stroke-miterlimit:10" />
		<line
   stroke-miterlimit="10"
   x1="0"
   y1="352"
   x2="512"
   y2="352"
   id="line26"
   style="fill:none;stroke:#a9ccdb;stroke-miterlimit:10" />
		<line
   stroke-miterlimit="10"
   x1="0"
   y1="384"
   x2="512"
   y2="384"
   id="line28"
   style="fill:none;stroke:#a9ccdb;stroke-miterlimit:10" />
		<line
   stroke-miterlimit="10"
   x1="0"
   y1="416"
   x2="512"
   y2="416"
   id="line30"
   style="fill:none;stroke:#a9ccdb;stroke-miterlimit:10" />
		<line
   stroke-miterlimit="10"
   x1="0"
   y1="448"
   x2="512"
   y2="448"
   id="line32"
   style="fill:none;stroke:#ff0000;stroke-miterlimit:10" />
		<line
   stroke-miterlimit="10"
   x1="0"
   y1="480"
   x2="512"
   y2="480"
   id="line34"
   style="fill:none;stroke:#a9ccdb;stroke-miterlimit:10" />
		<line
   stroke-miterlimit="10"
   x1="32"
   y1="0"
   x2="32"
   y2="512"
   id="line36"
   style="fill:none;stroke:#a9ccdb;stroke-miterlimit:10" />
		<line
   stroke-miterlimit="10"
   x1="64"
   y1="0"
   x2="64"
   y2="512"
   id="line38"
   style="fill:none;stroke:#a9ccdb;stroke-miterlimit:10" />
		<line
   stroke-miterlimit="10"
   x1="96"
   y1="0"
   x2="96"
   y2="512"
   id="line40"
   style="fill:none;stroke:#a9ccdb;stroke-miterlimit:10" />
		<line
   stroke-miterlimit="10"
   x1="128"
   y1="0"
   x2="128"
   y2="512"
   id="line42"
   style="fill:none;stroke:#a9ccdb;stroke-miterlimit:10" />
		<line
   stroke-miterlimit="10"
   x1="160"
   y1="0"
   x2="160"
   y2="512"
   id="line44"
   style="fill:none;stroke:#a9ccdb;stroke-miterlimit:10" />
		<line
   stroke-miterlimit="10"
   x1="192"
   y1="0"
   x2="192"
   y2="512"
   id="line46"
   style="fill:none;stroke:#a9ccdb;stroke-miterlimit:10" />
		<line
   stroke-miterlimit="10"
   x1="224"
   y1="0"
   x2="224"
   y2="512"
   id="line48"
   style="fill:none;stroke:#a9ccdb;stroke-miterlimit:10" />
		<line
   stroke-miterlimit="10"
   x1="256"
   y1="0"
   x2="256"
   y2="512"
   id="line50"
   style="fill:none;stroke:#a9ccdb;stroke-miterlimit:10" />
		<line
   stroke-miterlimit="10"
   x1="288"
   y1="0"
   x2="288"
   y2="512"
   id="line52"
   style="fill:none;stroke:#a9ccdb;stroke-miterlimit:10" />
		<line
   stroke-miterlimit="10"
   x1="320"
   y1="0"
   x2="320"
   y2="512"
   id="line54"
   style="fill:none;stroke:#a9ccdb;stroke-miterlimit:10" />
		<line
   stroke-miterlimit="10"
   x1="352"
   y1="0"
   x2="352"
   y2="512"
   id="line56"
   style="fill:none;stroke:#a9ccdb;stroke-miterlimit:10" />
		<line
   stroke-miterlimit="10"
   x1="384"
   y1="0"
   x2="384"
   y2="512"
   id="line58"
   style="fill:none;stroke:#a9ccdb;stroke-miterlimit:10" />
		<line
   stroke-miterlimit="10"
   x1="416"
   y1="0"
   x2="416"
   y2="512"
   id="line60"
   style="fill:none;stroke:#a9ccdb;stroke-miterlimit:10" />
		<line
   stroke-miterlimit="10"
   x1="448"
   y1="0"
   x2="448"
   y2="512"
   id="line62"
   style="fill:none;stroke:#a9ccdb;stroke-miterlimit:10" />
		<line
   stroke-miterlimit="10"
   x1="480"
   y1="0"
   x2="480"
   y2="512"
   id="line64"
   style="fill:none;stroke:#a9ccdb;stroke-miterlimit:10" />
	</g>
<path
   sodipodi:nodetypes="ccccscscccccccccccscsccsccscscccccsscccccscsscccscccsccccccscccccccccssssssccsccccccccsccccccccccsccccccccccccccccccsccccsscsscccccccssccccscccsccsccccccccccccccccccccccccscccccccscccccccccsccccscccsccsscc"
   inkscape:connector-curvature="0"
   id="path3773"
   d="m 126.21353,279.96096 c 3.46892,2.88331 9.36128,5.0382 11.90921,7.79912 2.51932,2.85865 4.8424,13.37194 4.9975,14.93284 l 1.23328,12.46184 c 1.12319,5.57521 4.22426,6.05506 6.92661,11.25692 6.76631,13.02477 6.11886,-1.91277 13.92507,7.69787 8.54137,8.7853 18.16882,21.31476 26.70807,32.69425 11.63227,15.50129 24.44914,29.7841 41.68335,32.97133 2.06888,1.85203 6.48875,1.02986 10.09638,1.03951 10.88031,-0.95209 24.0736,0.0623 28.05307,4.9777 3.41577,8.45549 3.39644,16.94308 6.06561,25.34422 5.32144,8.38449 9.46901,19.05341 16.60954,24.81276 7.31093,5.72671 19.89584,8.18185 24.77543,14.5529 4.34323,6.05444 3.08612,14.56976 5.78634,23.28278 3.11906,8.62667 7.72499,17.52041 10.79675,25.23527 1.50691,5.43231 4.4873,10.42966 4.37657,15.77201 -2.35719,8.12594 -4.91267,16.57033 -4.26259,24.8338 0.52811,4.04784 0.59505,6.40202 -0.26476,9.97364 -6.74354,28.10193 -6.4317,51.77087 -12.4441,77.7087 -0.22333,0.96344 -0.45564,1.92947 -0.69764,2.89841 -0.10678,0.84555 -0.19602,1.70252 -0.2712,2.56494 -0.35007,4.01605 -0.39515,8.15023 -0.48638,11.80007 -0.0388,2.16797 -0.16493,4.30765 -0.54214,6.42558 -0.62655,3.22365 -1.54436,5.4668 -3.00478,6.64692 -1.98449,1.60363 -4.95353,1.31439 -8.99059,1.12627 -4.63208,0.14206 -6.16159,-0.0256 -8.06942,-1.06497 -3.40071,-3.57826 -7.22391,-1.86332 -10.98258,-4.85687 -6.04575,-4.81508 -6.99143,-7.98797 -10.67652,-11.84416 -9.53827,-13.69442 -18.41315,-25.57881 -28.65717,-39.35184 -8.41323,-11.31157 -21.8059,-32.95007 -28.90687,-43.71616 -2.53103,-3.89391 -3.53607,-5.20632 -4.73858,-8.69132 -1.03608,-3.65365 0.0441,-6.66676 0.0441,-10.25306 0.6235,-4.93418 0.47149,-9.44764 -2.16215,-15.72076 -4.64535,-16.68489 -12.56487,-33.48138 -21.44692,-49.82713 -8.25081,-11.6963 -17.36936,-27.91335 -27.15223,-44.24786 -4.00688,-6.69031 -8.1252,-13.40032 -12.34099,-19.82749 -13.37596,-20.39229 -27.7331,-37.93727 -42.62499,-42.97147 -1.28667,-2.53042 -2.1051,-4.19841 -2.6681,-5.30309 -0.68562,-2.02878 -1.96159,-2.02985 -3.67144,-2.36787 -1.74412,-2.2629 -4.00151,-5.47182 -6.331294,-6.77328 -0.98731,-0.52695 -2.166874,-0.83671 -3.728154,-0.83671 -1.434797,-0.21021 -2.585947,0.0334 -3.570827,0.50617 -1.04503,0.50163 -1.90286,1.26126 -2.71369,2.01047 -0.83133,0.82348 -1.31687,3.23868 -1.7882,4.23494 -0.49848,1.05361 -0.57915,2.49568 -0.65016,3.8986 -0.0718,1.41756 -1.005701,1.39231 -1.478751,2.28885 -2.314949,2.05337 -5.284325,0.33948 -8.087644,0.73177 -1.554858,0.39801 -3.024865,1.60628 -4.406547,2.17856 -3.041105,0.75351 -5.993718,2.28923 -8.454241,4.3521 -3.697986,3.10034 -6.284447,7.39142 -6.389257,12.00751 -0.0906,2.36585 -0.40714,3.71286 -1.04491,4.50416 -1.442195,0.53266 -2.750904,1.07985 -3.841754,1.989 -0.913741,0.82537 -1.611475,1.74173 -2.146819,2.74583 -0.381854,0.71621 -0.681088,1.47706 -0.917158,2.28133 -0.162012,0.76326 -0.192699,1.53304 -0.09316,2.30163 0.223152,0.78519 0.508114,2.64275 0.574218,3.16245 0.219507,1.22168 0.492228,2.22266 0.440966,5.12252 8.098803,35.5405 29.289589,58.98183 38.320431,89.44154 2.578311,8.06874 11.729301,24.22582 18.106491,24.35928 1.5952,2.0948 2.52085,3.93534 3.1806,5.54042 1.88245,4.57967 1.60031,7.24246 8.53038,8.42501 5.97773,0.98073 4.24701,5.54931 11.09476,5.54931 3.97803,-0.0291 9.51042,7.43372 14.1652,13.5208 19.47372,31.26401 50.93273,65.11779 73.08832,94.40358 2.34126,3.35563 1.11219,8.25777 4.85964,11.03899 4.66191,3.3605 4.40247,4.39741 8.13493,8.891 5.12281,3.77056 14.82761,21.64786 14.88907,24.56474 -1.20257,11.85847 9.28912,17.93515 12.71313,27.55654 0.7331,2.16849 2.69412,3.98732 4.40661,5.39312 2.40328,1.93578 2.41629,3.24884 4.7444,5.99786 1.09964,1.29846 2.19048,2.66435 3.27212,4.07568 2.45569,3.20421 4.86397,6.64267 7.22021,10.058 1.46937,2.12983 1.5232,1.46008 2.95097,3.50952 1.90161,2.72958 7.6024,8.12309 9.42558,10.4519 1.47797,1.88785 2.9293,3.59556 4.35257,5.04458 2.7041,2.75301 5.30695,4.57224 7.79887,4.91896 5.74214,1.38019 5.6197,2.44476 6.27665,7.94643 l 0.44811,16.28486 c 0.36671,13.3272 0.37209,30.93482 0.0119,35.71737 -0.19108,1.4412 0.11784,3.26107 0.73697,4.43498 0.97724,1.73826 2.73003,2.65695 4.26302,3.37515 1.24791,0.58214 3.84023,0.80015 5.02543,0.88536 3.04267,0 3.11183,0.11801 3.11183,5.31077 1.1625,4.30023 2.18002,4.41883 6.22365,5.31077 4.68681,-0.29366 4.60773,1.14948 6.22365,5.22623 1.84515,2.5082 4.25938,4.17792 6.74229,5.96557 3.51094,0.0415 6.97834,-0.0265 10.40975,-0.078 3.73816,-0.056 7.43361,-0.0924 11.0961,0.0539 6.29275,0.2666 12.72383,0.36269 19.058,-0.0747 3.77396,-0.31853 6.0435,-1.24686 10.28795,-5.53553 3.60775,-3.71585 0.56251,-5.55743 3.60514,-5.55743 3.69635,-1.60933 3.59784,-2.04024 3.11182,-5.79416 l 0,-10.66922 0,-19.25399 c 4.29769,0.17138 7.15971,-1.69451 7.26093,-5.31076 0,-4.95673 0.17288,-5.31077 2.59318,-5.31077 4.01963,-2.31363 2.83334,-13.80678 5.07128,-21.41637 3.1367,-15.25778 6.13036,-24.87947 8.30222,-37.12521 0.90584,-5.1075 1.426,-11.9523 1.30875,-18.22625 l 1.3953,-27.32325 c 1.11575,-12.77614 -0.99088,-18.95126 2.41417,-31.37008 2.6428,0.34238 4.25342,-9.92924 4.45011,-14.24044 1.15064,-4.55861 2.37311,-9.37048 3.6215,-14.35161 7.88206,-29.39678 10.96873,-53.4346 14.55585,-81.33489 6.99468,-8.76793 4.57536,-16.34091 5.63678,-24.08319 3.59486,-15.46308 12.90111,-30.11507 18.28607,-43.03771 5.1215,-13.82643 11.20678,-26.65376 14.82772,-38.00183 l 0.42739,-6.11452 c -0.0939,-3.80994 0.13796,-4.21146 3.15084,-5.14837 2.45059,-0.98484 2.59469,-4.27594 2.78996,-6.38236 -0.17136,-3.41124 0.68965,-5.63956 -0.36211,-8.74686 -2.32048,-6.19695 -9.5737,-7.12515 -11.71109,-11.84543 -1.21105,-3.44696 2.24725,-8.83935 3.29853,-11.23782 1.62221,-6.334 6.11971,-5.50457 10.09538,-8.69484 6.44798,-4.09151 6.39813,-6.69522 11.50069,-6.62119 4.46275,0.002 4.63744,0.8388 6.22365,4.71238 0.29674,2.46229 2.06899,5.65771 4.33589,8.66322 2.78593,3.69366 6.31894,7.10048 8.7784,8.50715 6.46212,4.22994 8.75735,8.96431 13.23361,7.97342 5.45023,-1.22828 11.16489,5.5449 18.25493,13.1611 1.83203,3.46681 2.2481,7.35011 2.99993,11.15265 4.18839,11.90278 9.9473,23.17031 16.64843,33.93775 8.68317,13.95218 18.94837,27.06468 29.42872,39.63154 3.48084,4.17385 6.98541,8.2875 10.46364,12.35173 3.352,4.24212 6.87569,8.42176 10.51102,12.546 15.09525,17.12542 32.1153,33.29568 46.7596,49.01736 5.05934,5.43156 9.83512,10.80957 14.14999,16.15493 6.77941,8.52183 22.48369,14.78771 25.28395,24.74713 0.55601,3.59498 0.40787,12.42051 2.43112,15.23379 0.76933,1.05521 3.0141,3.83081 4.02638,4.8114 1.58224,1.61095 4.45111,2.23869 8.15571,3.17027 3.71131,0.73322 2.31366,2.6376 5.11413,3.62847 10.44066,6.31548 10.30188,5.4015 18.23629,12.39115 2.65501,2.5704 7.07053,5.39763 12.0052,7.86368 3.31989,1.65909 6.87476,3.15471 10.2866,4.29866 4.94943,1.65949 9.59785,2.57893 12.79129,2.18383 7.18672,-2.26584 4.95886,1.94054 9.59338,4.85729 3.97903,2.42581 9.05352,1.13122 11.61124,-4.27737 6.28162,-1.66234 4.66201,-8.66411 8.50719,-12.13399 1.48057,-4.16803 3.46745,-6.55118 5.61842,-8.23778 2.90934,-2.28126 6.11886,-3.2882 8.78166,-5.71387 3.95756,-3.28476 6.61584,-10.00287 8.27427,-10.03339 0.86882,-2.28172 0.48345,-9.81234 0.45104,-18.59171 0.56652,-6.01245 3.23545,-16.37209 1.11332,-24.24616 -1.59381,-5.91377 -7.41075,-10.42552 -10.43916,-10.64061 -5.90093,-5.20695 -2.21591,-8.88426 -4.84036,-14.21627 -7.43678,-13.26369 -13.6334,-26.14902 -20.75172,-38.48047 -5.5365,-9.59116 -11.63059,-18.84727 -19.29944,-27.68573 -3.72887,-4.23669 -7.03881,-6.92896 -9.56548,-7.20604 -2.83857,-1.30705 -4.80643,-3.03271 -6.7423,-5.36388 -6.21128,-22.53669 -55.21393,-48.96555 -66.9042,-49.3762 -6.12961,-0.8595 -8.1655,-2.32543 -10.76598,-5.07077 -5.67094,-6.75038 -12.45184,-12.60489 -18.79109,-16.72961 -16.88087,-10.93003 -43.57084,-25.16639 -43.57084,-26.97418 -1.87606,-2.08586 -4.59847,-4.37665 -6.74228,-5.96561 -7.26295,-3.85018 -19.18959,-12.07459 -19.18959,-22.37033 -0.96009,-5.66064 3.43095,-11.04827 -3.05499,-11.04827 -3.53098,-0.47298 -3.50423,-3.49843 -3.73298,-6.17545 -1.81004,-7.43387 -5.64421,-2.24329 -5.65933,-9.82741 -1.49963,-3.36163 -8.03216,-14.66431 -14.86902,-24.10429 -3.64891,-6.05575 -10.67252,-9.6723 -13.65482,-15.63552 -3.15669,-7.87107 -5.95526,-14.46912 -12.03841,-19.65465 -5.65208,-4.77571 -14.32452,-9.82294 -17.4704,-16.18725 -2.75329,-3.10055 -4.95199,-4.7016 -7.61523,-5.4783 -4.57412,-0.9709 -5.90922,-7.34187 -5.9241,-8.79622 l 0,-8.32248 0,-9.03122 c 0.66163,-5.29398 -3.86864,-7.34747 -7.61061,-7.4322 l -4.83669,0 c -4.7561,0.19806 -7.76649,1.05309 -10.03256,-0.70621 -3.36519,-4.88579 -14.35538,-13.57584 -20.38131,-14.20764 -5.25003,-0.54026 -15.66412,-1.44468 -29.68617,0.22682 l -10.45969,1.24684 c -6.96959,-0.85571 -10.54119,5.17933 -14.51389,9.7473 -6.04969,7.03717 -10.94061,16.54505 -13.94296,25.68444 -3.55109,13.06027 2.85943,8.93013 3.45233,18.17903 0.11419,1.8701 -0.0245,4.50647 0.10251,7.55677 0.20031,10.07168 0.18128,19.90332 -0.56475,30.21503 -0.69275,8.74256 -0.80582,9.05112 -3.43073,9.36289 -3.86444,5.30211 -11.78049,15.2543 -16.81558,23.96567 -3.35693,5.80794 -4.88522,10.78883 -5.0884,14.48282 0,4.64953 -1.23688,4.32081 -5.26139,4.71382 -8.28913,0.90258 -15.65636,0.12513 -23.13253,0.40382 -7.90251,0.15401 -9.76048,0.0727 -10.1924,-5.38315 -2.96824,-9.30249 -8.3672,-12.71742 -12.51237,-13.93931 -24.82665,-2.58709 -33.04516,5.83512 -48.80822,-10.11025 -8.89284,-8.88309 -17.53398,-17.68144 -25.95465,-26.73726 -5.71015,-6.1131 -10.43186,-12.35514 -17.66937,-13.78029 -4.45847,-0.50967 -8.20603,-2.11136 -10.72147,-5.57155 -1.00092,-1.39877 -1.80043,-2.97039 -2.43774,-4.57907 -1.97688,-4.99 -2.39301,-10.3366 -2.41815,-11.98717 1.11639,-9.90285 -4.08523,-14.95977 -9.58364,-19.60339 -11.77203,-14.38174 -18.35895,-23.32359 -24.68277,-33.30423 -3.05085,-4.40443 -11.72601,-19.72998 -18.63543,-28.22981 -4.25836,-2.99637 -6.65061,-5.19995 -8.07262,-7.13998 -3.47966,-4.7473 -5.09614,-6.42867 -10.08273,-15.77492 -1.95788,-3.60036 -8.70299,-10.41455 -11.41804,-12.26017 -16.76921,-9.20027 -19.08786,-4.55899 -26.04273,-0.23261 -4.8239,5.37827 -10.13324,15.84713 -12.1363,24.15577 -1.08621,4.50556 -1.4903,9.02868 -0.92229,13.12109 2.05356,7.97661 1.44731,19.01475 2.80903,27.33023 1.26463,6.73279 3.31155,14.7883 6.2604,22.27565 0.9083,2.30627 1.90219,4.55863 2.98513,6.70183 2.4826,4.91315 5.43328,9.25259 8.89415,12.35258 z"
   style="fill:#9e4f15" />
	</svg>