<?xml version="1.0" encoding="UTF-8" standalone="no"?>
<svg
   xmlns:dc="http://purl.org/dc/elements/1.1/"
   xmlns:cc="http://creativecommons.org/ns#"
   xmlns:rdf="http://www.w3.org/1999/02/22-rdf-syntax-ns#"
   xmlns:svg="http://www.w3.org/2000/svg"
   xmlns="http://www.w3.org/2000/svg"
   xmlns:sodipodi="http://sodipodi.sourceforge.net/DTD/sodipodi-0.dtd"
   xmlns:inkscape="http://www.inkscape.org/namespaces/inkscape"
   version="1.1"
   id="Layer_1"
   x="0px"
   y="0px"
   width="1024"
   height="1024"
   viewBox="0 0 1024 1024"
   enable-background="new 0 0 512 512"
   xml:space="preserve"
   inkscape:version="0.48.0 r9654"
   sodipodi:docname="yodphoenician-x10909.svg"><title
   id="title3743">Sinai 357</title><metadata
   id="metadata72"><rdf:RDF><cc:Work
       rdf:about=""><dc:format>image/svg+xml</dc:format><dc:type
         rdf:resource="http://purl.org/dc/dcmitype/StillImage" /><dc:title>Sinai 357</dc:title><dc:date>2017</dc:date><dc:creator><cc:Agent><dc:title /></cc:Agent></dc:creator><dc:publisher><cc:Agent><dc:title>beitdina.net</dc:title></cc:Agent></dc:publisher><cc:license
         rdf:resource="http://scripts.sil.org/OFL" /></cc:Work><cc:License
       rdf:about="http://scripts.sil.org/OFL"><cc:permits
         rdf:resource="http://scripts.sil.org/pub/OFL/Reproduction" /><cc:permits
         rdf:resource="http://scripts.sil.org/pub/OFL/Distribution" /><cc:permits
         rdf:resource="http://scripts.sil.org/pub/OFL/Embedding" /><cc:permits
         rdf:resource="http://scripts.sil.org/pub/OFL/DerivativeWorks" /><cc:requires
         rdf:resource="http://scripts.sil.org/pub/OFL/Notice" /><cc:requires
         rdf:resource="http://scripts.sil.org/pub/OFL/Attribution" /><cc:requires
         rdf:resource="http://scripts.sil.org/pub/OFL/ShareAlike" /><cc:requires
         rdf:resource="http://scripts.sil.org/pub/OFL/DerivativeRenaming" /><cc:requires
         rdf:resource="http://scripts.sil.org/pub/OFL/BundlingWhenSelling" /></cc:License></rdf:RDF></metadata><defs
   id="defs70" /><sodipodi:namedview
   pagecolor="#ffffff"
   bordercolor="#666666"
   borderopacity="1"
   objecttolerance="10"
   gridtolerance="10"
   guidetolerance="10"
   inkscape:pageopacity="0"
   inkscape:pageshadow="2"
   inkscape:window-width="845"
   inkscape:window-height="708"
   id="namedview68"
   showgrid="false"
   inkscape:zoom="0.25338936"
   inkscape:cx="-150.46045"
   inkscape:cy="676.22354"
   inkscape:window-x="152"
   inkscape:window-y="27"
   inkscape:window-maximized="0"
   inkscape:current-layer="Layer_1" />
   
	<g
   id="Grid"
   transform="matrix(2.0026184,0,0,1.9922664,-3.4220811,6.3812021)">
		<rect
   x="0"
   stroke-miterlimit="10"
   width="512"
   height="512"
   id="rect4"
   y="0"
   style="fill:none;stroke:#a9ccdb;stroke-miterlimit:10" />
		<line
   stroke-miterlimit="10"
   x1="0"
   y1="32"
   x2="512"
   y2="32"
   id="line6"
   style="fill:none;stroke:#a9ccdb;stroke-miterlimit:10" />
		<line
   stroke-miterlimit="10"
   x1="0"
   y1="64"
   x2="512"
   y2="64"
   id="line8"
   style="fill:none;stroke:#a9ccdb;stroke-miterlimit:10" />
		<line
   stroke-miterlimit="10"
   x1="0"
   y1="96"
   x2="512"
   y2="96"
   id="line10"
   style="fill:none;stroke:#a9ccdb;stroke-miterlimit:10" />
		<line
   stroke-miterlimit="10"
   x1="0"
   y1="128"
   x2="512"
   y2="128"
   id="line12"
   style="fill:none;stroke:#a9ccdb;stroke-miterlimit:10" />
		<line
   stroke-miterlimit="10"
   x1="0"
   y1="160"
   x2="512"
   y2="160"
   id="line14"
   style="fill:none;stroke:#a9ccdb;stroke-miterlimit:10" />
		<line
   stroke-miterlimit="10"
   x1="0"
   y1="192"
   x2="512"
   y2="192"
   id="line16"
   style="fill:none;stroke:#a9ccdb;stroke-miterlimit:10" />
		<line
   stroke-miterlimit="10"
   x1="0"
   y1="224"
   x2="512"
   y2="224"
   id="line18"
   style="fill:none;stroke:#a9ccdb;stroke-miterlimit:10" />
		<line
   stroke-miterlimit="10"
   x1="0"
   y1="256"
   x2="512"
   y2="256"
   id="line20"
   style="fill:none;stroke:#a9ccdb;stroke-miterlimit:10" />
		<line
   stroke-miterlimit="10"
   x1="0"
   y1="288"
   x2="512"
   y2="288"
   id="line22"
   style="fill:none;stroke:#a9ccdb;stroke-miterlimit:10" />
		<line
   stroke-miterlimit="10"
   x1="0"
   y1="320"
   x2="512"
   y2="320"
   id="line24"
   style="fill:none;stroke:#a9ccdb;stroke-miterlimit:10" />
		<line
   stroke-miterlimit="10"
   x1="0"
   y1="352"
   x2="512"
   y2="352"
   id="line26"
   style="fill:none;stroke:#a9ccdb;stroke-miterlimit:10" />
		<line
   stroke-miterlimit="10"
   x1="0"
   y1="384"
   x2="512"
   y2="384"
   id="line28"
   style="fill:none;stroke:#a9ccdb;stroke-miterlimit:10" />
		<line
   stroke-miterlimit="10"
   x1="0"
   y1="416"
   x2="512"
   y2="416"
   id="line30"
   style="fill:none;stroke:#a9ccdb;stroke-miterlimit:10" />
		<line
   stroke-miterlimit="10"
   x1="0"
   y1="448"
   x2="512"
   y2="448"
   id="line32"
   style="fill:none;stroke:#ff0000;stroke-miterlimit:10" />
		<line
   stroke-miterlimit="10"
   x1="0"
   y1="480"
   x2="512"
   y2="480"
   id="line34"
   style="fill:none;stroke:#a9ccdb;stroke-miterlimit:10" />
		<line
   stroke-miterlimit="10"
   x1="32"
   y1="0"
   x2="32"
   y2="512"
   id="line36"
   style="fill:none;stroke:#a9ccdb;stroke-miterlimit:10" />
		<line
   stroke-miterlimit="10"
   x1="64"
   y1="0"
   x2="64"
   y2="512"
   id="line38"
   style="fill:none;stroke:#a9ccdb;stroke-miterlimit:10" />
		<line
   stroke-miterlimit="10"
   x1="96"
   y1="0"
   x2="96"
   y2="512"
   id="line40"
   style="fill:none;stroke:#a9ccdb;stroke-miterlimit:10" />
		<line
   stroke-miterlimit="10"
   x1="128"
   y1="0"
   x2="128"
   y2="512"
   id="line42"
   style="fill:none;stroke:#a9ccdb;stroke-miterlimit:10" />
		<line
   stroke-miterlimit="10"
   x1="160"
   y1="0"
   x2="160"
   y2="512"
   id="line44"
   style="fill:none;stroke:#a9ccdb;stroke-miterlimit:10" />
		<line
   stroke-miterlimit="10"
   x1="192"
   y1="0"
   x2="192"
   y2="512"
   id="line46"
   style="fill:none;stroke:#a9ccdb;stroke-miterlimit:10" />
		<line
   stroke-miterlimit="10"
   x1="224"
   y1="0"
   x2="224"
   y2="512"
   id="line48"
   style="fill:none;stroke:#a9ccdb;stroke-miterlimit:10" />
		<line
   stroke-miterlimit="10"
   x1="256"
   y1="0"
   x2="256"
   y2="512"
   id="line50"
   style="fill:none;stroke:#a9ccdb;stroke-miterlimit:10" />
		<line
   stroke-miterlimit="10"
   x1="288"
   y1="0"
   x2="288"
   y2="512"
   id="line52"
   style="fill:none;stroke:#a9ccdb;stroke-miterlimit:10" />
		<line
   stroke-miterlimit="10"
   x1="320"
   y1="0"
   x2="320"
   y2="512"
   id="line54"
   style="fill:none;stroke:#a9ccdb;stroke-miterlimit:10" />
		<line
   stroke-miterlimit="10"
   x1="352"
   y1="0"
   x2="352"
   y2="512"
   id="line56"
   style="fill:none;stroke:#a9ccdb;stroke-miterlimit:10" />
		<line
   stroke-miterlimit="10"
   x1="384"
   y1="0"
   x2="384"
   y2="512"
   id="line58"
   style="fill:none;stroke:#a9ccdb;stroke-miterlimit:10" />
		<line
   stroke-miterlimit="10"
   x1="416"
   y1="0"
   x2="416"
   y2="512"
   id="line60"
   style="fill:none;stroke:#a9ccdb;stroke-miterlimit:10" />
		<line
   stroke-miterlimit="10"
   x1="448"
   y1="0"
   x2="448"
   y2="512"
   id="line62"
   style="fill:none;stroke:#a9ccdb;stroke-miterlimit:10" />
		<line
   stroke-miterlimit="10"
   x1="480"
   y1="0"
   x2="480"
   y2="512"
   id="line64"
   style="fill:none;stroke:#a9ccdb;stroke-miterlimit:10" />
	</g>
<path
   sodipodi:nodetypes="cccsccccccccccccccccscsccscscscscscscccsccccccccccccccscssscsccssccccccsccccccccccccccccccsccccccccssccccccccccsccccccccccccccccccsccccsscscsccccccccccccccccccscccccccccccccccccccccccccccsccccssccscccsccssccccscccscc"
   inkscape:connector-curvature="0"
   id="path3773"
   d="m 117.32052,208.0501 c 3.90657,9.23711 5.56266,20.73277 6.22365,26.8354 0.5774,13.45928 -0.4243,16.95252 6.22365,27.5711 2.82749,4.3444 4.35081,8.38773 8.2852,11.64034 3.46892,2.8678 9.36128,5.01109 11.90921,7.75714 2.51932,2.84327 5.58237,10.35602 5.73747,11.90852 l 0,11.9041 c 0.30268,8.4155 6.40224,17.62341 9.36356,21.20746 5.63331,6.83041 10.60797,14.98895 15.71635,23.76301 7.98712,17.92239 22.08929,29.39885 31.31863,44.45041 8.4441,13.81814 16.66668,28.69809 26.4315,29.6018 2.06888,1.84206 6.48875,1.02432 10.09638,1.03392 6.46247,0.0524 14.90678,2.2425 21.8439,5.42582 11.34764,7.69924 19.35444,18.36638 27.03469,27.42676 7.81529,9.63265 16.83836,22.03471 25.19627,22.03471 0.78846,4.10061 9.44868,10.4656 12.4473,10.5644 5.28237,15.90761 6.0697,16.57665 13.29591,32.60839 2.11764,4.75123 3.16425,11.1013 5.89368,11.23371 1.81131,12.51678 5.70212,13.2524 5.70501,22.1852 -6.12823,9.8757 -2.54684,16.3242 -2.93641,24.12055 -8.95146,31.5396 -7.61302,57.40384 -14.18913,85.62081 -0.22333,0.95826 -0.45564,1.91909 -0.69764,2.8828 -0.10678,0.84101 -0.19602,1.69336 -0.2712,2.55114 -0.35007,3.99443 -0.39515,8.10636 -0.48638,11.73654 -0.0388,2.1563 -0.16493,4.28447 -0.54214,6.39099 -0.62655,3.20631 -1.54436,5.43737 -3.00478,6.61115 -1.98449,1.59499 -4.95353,1.30731 -8.99059,1.1202 -4.63208,0.14129 -6.16159,-0.0254 -8.06942,-1.05923 -1.29493,-0.70173 -3.36276,-1.47042 -4.37788,-4.09987 0.16842,-2.99847 -2.95749,-3.74759 -3.60408,-4.39635 -0.82356,-0.82633 0.45637,-1.10609 -3.13821,-1.49814 -3.4082,-0.40424 -3.73805,-1.70923 -4.57197,-2.21279 -0.77526,-0.46813 -2.17032,-0.026 -2.17032,-3.08874 0.083,-1.48528 -2.09841,-2.29925 -2.81191,-3.06119 -1.36934,-1.4623 -1.96489,-2.0711 -3.26672,-2.22348 -3.89946,-0.68019 -4.19947,-1.54075 -4.83738,-2.74396 -0.61904,-1.16761 -1.62817,-2.63634 -1.90491,-5.97066 -0.36501,-4.39784 -0.66365,-11.72752 -0.66365,-16.28817 0.59266,-4.65987 -0.50592,-7.70284 -2.89658,-10.33967 -1.71916,-1.97899 -3.38125,-4.84508 -5.83906,-6.25276 -4.89367,-2.80279 -11.4812,-2.25833 -13.04714,-2.26407 -1.33051,-2.534 -17.29442,-21.0557 -19.44891,-21.3226 -3.27146,-6.87151 -8.17753,-13.55189 -8.94123,-16.21595 -1.03608,-3.63399 -0.65356,-8.01866 -0.65356,-11.58565 1.0177,-8.01038 -4.67737,-26.92212 -9.33548,-26.9392 -5.5364,-1.19944 -24.96133,-32.74642 -25.93187,-32.7495 -3.38207,-8.03215 -9.2725,-13.58955 -9.33548,-16.3747 -5.27862,-14.32312 -20.3819,-25.51402 -24.75074,-41.38335 -0.73646,-5.51549 -1.97665,-10.41677 -4.3944,-14.8795 -6.98088,-12.81951 -21.08872,-30.48206 -22.71861,-41.98575 0.081,-2.21187 -1.197,-5.72563 -3.11183,-5.8104 -4.78302,-9.3559 -5.88618,-12.78808 -8.65967,-13.71922 -2.75814,-2.27577 -4.72651,-4.65468 -6.89945,-7.40948 l -3.63046,0 c -1.4348,-0.20907 -2.58595,0.0332 -3.57083,0.50344 -1.04503,0.49893 -1.90286,1.25447 -2.71369,1.99966 -0.83133,0.81904 -1.31687,3.22124 -1.7882,4.21213 -0.49848,1.04795 -0.57915,2.48225 -0.65016,3.87762 -0.0718,1.40993 -0.13364,2.78012 -0.60669,3.67183 -1.25367,2.3632 -0.91324,4.65122 -4.93297,5.14297 -2.29643,-0.17739 -4.41971,2.08284 -6.359554,2.51932 -9.060048,2.03854 -14.118544,9.94894 -14.126632,16.03863 -0.0906,2.3531 -0.40714,3.69286 -1.04491,4.4799 -1.212043,0.46242 -2.207523,0.88992 -3.022584,1.31035 -1.062889,0.54827 -2.641454,2.33292 -3.271175,3.92202 -0.137992,0.34822 -0.386147,0.96054 -0.586816,1.54696 -0.388563,0.84629 -0.277754,1.6924 -0.118319,2.4883 0.223152,0.78097 0.569778,1.51858 0.635882,2.03548 0.219507,1.2151 0.430564,3.32064 0.379302,6.20489 1.80216,28.7735 27.365556,61.95905 30.179106,93.44978 4.00385,8.95644 10.72695,23.97119 18.35483,23.68493 1.5952,2.08352 2.52085,3.91415 3.1806,5.51059 1.88245,4.55503 1.60031,7.20348 8.53038,8.37967 5.97773,0.97545 4.24701,5.51943 11.09476,5.51943 3.97803,-0.029 9.51042,7.3937 14.1652,13.44802 19.47372,31.09571 50.93273,64.76724 73.08832,93.89538 2.34126,3.33757 1.11219,8.21331 4.85964,10.97957 4.66191,3.34241 6.84424,7.1493 10.5767,11.6187 5.12281,3.75026 12.38584,18.75575 12.4473,21.65694 -1.57432,13.48411 12.44118,20.73768 12.4473,27.46734 -0.35603,4.19279 3.52809,5.7403 6.22366,5.8104 4.57087,0.44718 4.8277,1.2304 6.22365,5.28218 -0.23929,4.65708 4.56219,5.26477 6.74228,5.28218 4.65592,-0.30011 6.69692,2.85329 6.74229,5.8104 -0.25676,2.65463 0.26489,5.71518 3.11183,5.81039 2.70605,0.7751 3.10804,4.3624 3.11182,5.28219 -0.34313,2.44133 0.75256,5.20985 3.11183,5.28218 4.61811,0.65223 3.13679,3.33184 3.11182,5.28218 1.65173,3.81549 4.15942,5.27395 6.05798,5.28218 5.74214,1.37276 5.6197,2.43159 6.27665,7.90364 l 0.44811,16.1972 c 0.36671,13.25545 0.37209,27.99273 0.0119,32.74952 -0.19108,1.43344 0.11784,3.24352 0.73697,4.41111 0.97724,1.7289 2.73003,2.64264 4.26302,3.35698 1.24791,0.579 3.84023,0.79584 5.02543,0.88059 3.04267,0 3.11183,0.11738 3.11183,5.28218 1.1625,4.27708 2.18002,4.39504 6.22365,5.28218 4.68681,-0.29208 4.60773,1.14329 6.22365,5.1981 1.84515,2.4947 4.25938,4.15543 6.74229,5.93346 1.92956,0.50583 3.60814,0.89644 5.09445,1.19064 4.29645,0.85044 6.9862,0.89529 9.48716,0.58908 2.74346,-0.33591 5.25974,-1.09428 9.42048,-1.67511 2.64689,-0.36949 9.88188,-0.67181 16.07777,-0.67181 5.63218,-0.007 7.58209,-1.50907 11.26525,-5.28218 3.60775,-3.69585 0.0692,-5.28218 3.11183,-5.28218 3.69635,-1.60067 3.59784,-2.02926 3.11182,-5.76297 l 0,-10.61179 0,-16.37476 c 4.29769,0.17045 7.15971,-1.68539 7.26093,-5.28218 0,-4.93004 0.17288,-5.28218 2.59318,-5.28218 4.01963,-2.30118 2.83334,-13.73246 5.07128,-21.30108 3.1367,-15.17565 6.13036,-24.74554 8.30222,-36.92535 0.90584,-5.08001 1.426,-11.88796 1.30875,-18.12814 l 1.3953,-27.17617 c 1.11575,-12.70735 -0.29323,-23.70648 3.11182,-36.05846 2.6428,0.34055 3.55577,-5.01853 3.75246,-9.30653 1.15064,-4.53407 2.37311,-9.32003 3.6215,-14.27435 7.88206,-29.23852 10.96873,-53.14695 14.55585,-80.89704 6.99468,-8.72073 4.57536,-16.25295 5.63678,-23.95354 3.59486,-15.37985 12.90111,-29.95296 18.28607,-42.80604 5.1215,-13.752 11.20678,-26.51027 14.82772,-37.79725 l 0.42739,-6.0816 c -0.0939,-3.78943 0.13796,-4.1888 3.15084,-5.12066 2.45059,-0.97954 2.59469,-4.25293 2.78996,-6.34801 -0.17136,-3.39287 0.68965,-5.6092 -0.36211,-8.69977 -2.32048,-6.16359 -9.5737,-7.08679 -11.71109,-11.78166 -1.21105,-3.4284 2.24725,-8.79176 3.29853,-11.17732 1.62221,-6.29991 6.11971,-5.47495 10.09538,-8.64804 6.44798,-4.06949 6.39813,-6.65917 11.50069,-6.58554 4.46275,0.002 4.63744,0.83428 6.22365,4.687 0.29674,2.44904 2.06899,5.62726 4.33589,8.61659 2.78593,3.67377 6.31894,7.06225 8.7784,8.46136 6.46212,4.20717 8.75735,8.91605 13.23361,7.93049 5.45023,-1.22166 11.16489,5.51505 18.25493,13.09026 1.83203,3.44814 2.2481,7.31053 2.99993,11.0926 3.12772,8.19518 6.02133,15.75996 9.45566,22.88099 2.59805,5.387 5.50556,10.52006 9.05796,15.47998 3.31516,4.62868 7.19196,9.10657 11.90304,13.49935 5.10436,6.38023 10.58731,12.75331 16.06651,18.90718 3.87017,4.34673 7.73847,8.58409 11.47015,12.63735 4.27157,5.35269 9.0888,10.22515 13.90157,14.78341 3.4031,3.22314 6.80397,6.28919 10.00813,9.25685 10.3247,8.825 17.65969,20.88355 27.40401,29.84569 8.88332,8.10469 14.67416,10.28915 27.99521,27.09672 3.12217,4.18331 15.39794,19.88011 15.98311,22.9848 0.55601,3.57562 0.40787,12.35364 2.43112,15.15179 0.76933,1.04952 3.0141,3.81018 4.02638,4.78549 1.58224,1.60228 4.45111,2.22664 8.15571,3.1532 3.71131,0.72928 2.31366,2.6234 5.11413,3.60895 10.44066,6.28147 10.30188,5.37241 18.23629,12.32444 2.90549,3.31984 11.49804,8.81614 13.49377,8.77043 4.17006,0.14829 8.56098,1.57599 11.17317,4.47015 1.55798,1.75276 6.51336,1.52534 10.41615,1.02836 7.18672,-2.25364 4.95886,1.9301 9.59338,4.83114 3.97903,2.41276 9.05352,1.12514 11.61124,-4.25434 6.28162,-1.6534 4.66201,-8.61747 8.50719,-12.06867 3.75583,-3.36451 2.04584,-6.71902 6.29623,-9.34745 2.69708,-2.82785 5.15205,-1.73236 8.10385,-4.52909 3.95756,-3.26709 6.61584,-9.94903 8.27427,-9.97939 0.86882,-2.26943 0.48345,-9.75952 0.45104,-18.49162 -0.0374,-10.08189 0.16334,-21.12211 -0.46695,-22.3805 -6.45286,-1.36072 -2.69959,-12.29895 -8.85889,-12.31847 -5.90093,-5.17892 -2.21591,-8.83644 -4.84036,-14.13974 -8.76588,-17.69903 -37.78248,-71.68647 -49.61664,-72.97726 l -4.64935,-2.82825 -2.09295,-2.50675 c -6.21128,-22.41537 -55.21393,-48.70197 -66.9042,-49.1104 -6.12961,-0.85487 -8.1655,-2.31292 -10.76598,-5.04347 -5.67094,-6.71404 -12.45184,-12.53704 -18.79109,-16.63955 -16.88087,-10.87119 -43.57084,-25.03092 -43.57084,-26.82898 -1.87606,-2.07463 -4.59847,-4.35309 -6.74228,-5.9335 -7.26295,-3.82945 -19.18959,-12.00959 -19.18959,-22.2499 -0.96009,-5.63016 3.43095,-10.9888 -3.05499,-10.9888 -3.53098,-0.47043 -3.50423,-3.47959 -3.73298,-6.1422 -1.81004,-7.39385 -5.64421,-2.23122 -5.65933,-9.7745 -1.49963,-3.34354 -8.03216,-14.58537 -14.86902,-23.97454 -3.64891,-6.02315 -10.67252,-9.62023 -13.65482,-15.55135 -3.15669,-7.82869 -5.95526,-14.39123 -12.03841,-19.54885 -5.65208,-4.75 -14.32452,-9.77006 -17.4704,-16.10011 -2.75329,-3.08386 -4.95199,-4.67629 -7.61523,-5.44881 -4.57412,-0.96566 -5.90922,-7.30234 -5.9241,-8.74886 l 0,-8.27768 0,-8.98261 c 0.66163,-5.26548 -3.86864,-7.30791 -7.61061,-7.39219 l -4.83669,0 c -4.7561,0.197 -7.76649,1.04743 -10.03256,-0.7024 -3.36519,-4.85949 -5.9836,-9.33941 -12.00953,-9.9678 -5.25003,-0.53736 -21.14745,-0.269 -35.26736,-0.4683 l -10.45969,-0.14765 c -6.96959,-0.8511 -11.93648,0.2942 -15.90918,4.83758 -6.04969,6.99928 -13.03356,19.92544 -16.03591,29.01563 -3.55109,12.98997 2.57046,7.69486 3.16336,16.89397 0.15926,2.59433 0.30639,6.1915 0.51008,11.17917 0.40185,9.8399 0.4083,21.937 0.0143,26.8826 -0.69275,8.6955 -0.80582,9.0024 -3.43073,9.3125 -6.4409,8.78949 -21.39604,29.05658 -21.90398,38.2415 0,4.6245 -0.016,4.6445 -4.04051,5.0354 -2.22228,0.2158 -10.83411,0.2135 -19.13741,0 -9.91083,-1.51707 -14.78028,4.58482 -15.4084,-5.2995 -4.30319,-13.41363 -15.68846,-15.99961 -18.98244,-15.9946 -9.13678,0.9903 -17.22883,-3.34062 -24.86187,-10.37801 -12.4545,-11.48259 -30.66342,-29.47297 -43.21805,-44.00807 -5.3786,-4.34354 -22.13323,-21.21332 -25.27484,-21.67732 -5.26043,0.50586 -8.82069,-1.84229 -11.22187,-5.17984 -1.00091,-1.39124 -1.80043,-2.9544 -2.43774,-4.55442 -1.97688,-4.96313 -2.39301,-10.28096 -2.41815,-11.92264 1.11639,-9.84954 -4.08523,-14.87923 -9.58364,-19.49786 -11.77203,-14.30432 -17.86564,-24.17934 -24.18946,-34.10626 -3.05085,-4.38072 -12.21932,-18.64246 -19.12874,-27.09653 -4.25836,-2.98024 -6.65061,-5.17195 -8.07262,-7.10154 -3.47966,-4.72174 -1.14964,-7.874 -6.13623,-17.16994 -1.95788,-3.58098 -4.50984,-6.43324 -7.22489,-8.26892 -16.76921,-9.15074 -26.48754,-6.25175 -33.44241,-1.94866 -3.07962,2.60931 -5.46686,5.41984 -7.31586,8.36695 -5.88843,9.38554 -6.31791,20.15635 -6.2665,30.22513 z"
   style="fill:#9e4f15" />
	</svg>